<svg width="149" height="40" viewBox="0 0 149 40" fill="none" xmlns="http://www.w3.org/2000/svg">
<path d="M15.4393 10.1633H10.293V15.2449H15.4393V10.1633Z" fill="#FFB400"/>
<path d="M10.2909 5.0816H5.14453V10.1632H10.2909V5.0816Z" fill="#FFE76C"/>
<path d="M10.2909 10.1633H5.14453V15.2449H10.2909V10.1633Z" fill="#FFF1AA"/>
<path d="M5.14633 10.1633H0V15.2449H5.14633V10.1633Z" fill="#FFE76C"/>
<path d="M15.4393 5.0816H10.293V10.1632H15.4393V5.0816Z" fill="#FFF1AA"/>
<path d="M15.4393 -3.05176e-05H10.293V5.0816H15.4393V-3.05176e-05Z" fill="#FFE76C"/>
<path d="M10.2909 -3.05176e-05H5.14453V5.0816H10.2909V-3.05176e-05Z" fill="#FFC400"/>
<path d="M5.14633 -3.05176e-05H0V5.0816H5.14633V-3.05176e-05Z" fill="#FFB400"/>
<path d="M5.14633 5.0816H0V10.1632H5.14633V5.0816Z" fill="#FFC400"/>
<path d="M15.4391 39.0444H10.293V19.6813H15.4391V39.0444Z" fill="#333333"/>
<path d="M32.9929 39.0446V27.2146C32.9965 26.7675 32.9751 26.3206 32.9286 25.8759C32.8947 25.5405 32.8151 25.2112 32.6921 24.8968C32.4768 24.3315 32.0607 23.8627 31.5214 23.5778C30.9292 23.2963 30.2771 23.1593 29.6201 23.1782C28.6336 23.1779 27.6601 23.4 26.7737 23.8275C25.8406 24.279 25.0165 24.9229 24.357 25.7159V39.0446H19.2656V19.6812H23.4763L23.9488 22.3789H24.0348C24.3683 21.945 24.7503 21.5495 25.1734 21.1999C25.653 20.7996 26.1794 20.4574 26.7414 20.1807C27.3616 19.8756 28.0135 19.6377 28.6856 19.4713C29.4266 19.2876 30.1881 19.1969 30.9521 19.2014C31.6928 19.1995 32.4315 19.28 33.154 19.4413C33.8371 19.5912 34.4929 19.844 35.0982 20.1908C35.6921 20.5361 36.2194 20.9826 36.6556 21.5095C37.4198 22.4488 37.8901 23.5877 38.0091 24.7868C38.0591 25.2732 38.0842 25.8361 38.0842 26.4754V39.0446H32.9929Z" fill="#333333"/>
<path d="M53.2204 13.6162C52.6623 13.5325 52.0987 13.4891 51.5341 13.4865C51.0192 13.479 50.5059 13.5429 50.009 13.6763C49.5862 13.7911 49.1987 14.0073 48.8809 14.3056C48.5577 14.6235 48.318 15.0145 48.1828 15.4447C48.013 15.9949 47.9332 16.5683 47.9465 17.1433V19.6812H53.7254V23.5779H47.9465V39.0446H42.8551V23.5779H39.332V19.6812H42.8551V17.3832C42.8259 16.1859 43.034 14.9946 43.4675 13.8761C43.8381 12.9497 44.4229 12.1217 45.1753 11.4582C45.9236 10.8156 46.8026 10.3387 47.7531 10.0593C48.7985 9.75146 49.8847 9.59988 50.9756 9.60963C52.3214 9.61622 53.6595 9.81132 54.9498 10.1891V13.946C54.3913 13.8131 53.8148 13.7032 53.2204 13.6162L53.2204 13.6162Z" fill="#333333"/>
<path d="M66.5301 23.4379C65.1307 23.4117 63.7377 23.6316 62.4163 24.0874C61.3192 24.4587 60.3635 25.1525 59.6773 26.0757V39.0446H54.5859V19.6812H58.7966L59.2691 22.3789H59.3551C59.9539 21.3957 60.8114 20.5912 61.8363 20.0508C63.0077 19.4571 64.3118 19.1649 65.6279 19.2014C66.0732 19.197 66.5183 19.2238 66.9597 19.2815V23.4379H66.5301Z" fill="#333333"/>
<path d="M85.1777 36.5865C85.1483 35.667 85.1336 34.5684 85.1336 33.2907V25.9949C85.143 25.0664 84.9491 24.1468 84.565 23.2992C84.174 22.4581 83.585 21.7213 82.8471 21.1504C81.9943 20.5004 81.0248 20.0152 79.9897 19.7203C78.6947 19.3538 77.3518 19.1792 76.0049 19.2025C74.7646 19.2106 73.5276 19.3305 72.3094 19.5606C71.1693 19.7781 70.0537 20.1064 68.979 20.5407V24.2381C70.0729 23.8426 71.193 23.5216 72.3314 23.2775C73.3484 23.066 74.3848 22.9589 75.4241 22.958C76.1516 22.9414 76.8771 23.0395 77.5733 23.2484C78.099 23.408 78.5854 23.6733 79.0021 24.0276C79.3523 24.3332 79.6244 24.7163 79.7961 25.1456C79.9601 25.563 80.044 26.007 80.0436 26.4547V27.2339C79.385 27.0729 78.7184 26.946 78.0463 26.854C77.2204 26.7432 76.3876 26.6898 75.554 26.6943C74.4138 26.6816 73.2778 26.8332 72.182 27.1444C71.2309 27.4106 70.3407 27.8551 69.5598 28.4535C68.8379 29.0171 68.2541 29.7342 67.8517 30.5515C67.4336 31.4254 67.224 32.3824 67.239 33.3488C67.2263 34.232 67.4059 35.1076 67.7659 35.9162C68.102 36.6645 68.5967 37.3329 69.2167 37.8763C69.8622 38.4323 70.615 38.8537 71.4296 39.1152C72.3236 39.4065 73.2599 39.5511 74.2013 39.5435C74.8884 39.5486 75.5735 39.4681 76.2402 39.304C76.8351 39.1567 77.412 38.9457 77.9606 38.6748C78.8446 38.2364 79.6554 37.6668 80.3646 36.9858H80.4529L80.6661 39.0451H85.2635C85.234 38.3264 85.2071 37.5061 85.1777 36.5865ZM80.0436 33.7481C79.8005 34.0004 79.5383 34.2342 79.2594 34.4474C78.9354 34.6986 78.5864 34.9167 78.2179 35.0983C77.8126 35.2989 77.3882 35.4594 76.9509 35.5774C76.4751 35.7064 75.9837 35.7707 75.4903 35.7686C75.0899 35.7713 74.6912 35.7167 74.3067 35.6065C73.953 35.5093 73.6212 35.3467 73.3288 35.1274C73.0482 34.9113 72.821 34.6349 72.6647 34.3191C72.4929 33.9602 72.4081 33.5666 72.4172 33.1697C72.3916 32.7548 72.4788 32.3406 72.6697 31.9701C72.8605 31.5995 73.1482 31.286 73.5028 31.062C74.2258 30.6023 75.2101 30.3724 76.4559 30.3724C77.0953 30.372 77.734 30.4157 78.3674 30.5031C78.9972 30.5878 79.5559 30.6837 80.0436 30.791V33.7481Z" fill="#333333"/>
<path d="M94.7936 33.8891C95.3235 34.4468 95.968 34.8862 96.6839 35.178C97.5465 35.5225 98.4714 35.6891 99.4016 35.6675C100.254 35.6758 101.104 35.5887 101.936 35.4078C102.666 35.2434 103.384 35.0297 104.085 34.7683V38.6251C103.319 38.9121 102.528 39.1294 101.722 39.2744C100.752 39.4579 99.7661 39.5482 98.7786 39.5441C97.3525 39.5554 95.9328 39.3532 94.568 38.9447C93.3166 38.5729 92.1546 37.9543 91.1523 37.1264C90.1565 36.2848 89.3701 35.2284 88.8536 34.0388C88.268 32.6573 87.9826 31.1699 88.0157 29.6726C87.971 28.0227 88.3014 26.3839 88.9827 24.8767C89.5643 23.6254 90.4189 22.5165 91.4853 21.6294C92.5053 20.7991 93.6803 20.1745 94.9439 19.7911C96.1704 19.4066 97.4487 19.2078 98.7355 19.2014C99.6358 19.1989 100.535 19.2758 101.421 19.4313C102.22 19.5683 103.004 19.7791 103.763 20.0608V23.9174C103.112 23.6583 102.44 23.4544 101.754 23.3079C101.002 23.1505 100.235 23.0735 99.4659 23.0783C98.6718 23.075 97.882 23.1929 97.1244 23.4279C96.3609 23.6561 95.6616 24.0566 95.0819 24.5976C94.5021 25.1387 94.0577 25.8054 93.7838 26.5452C93.4247 27.5072 93.2534 28.5277 93.279 29.5527C93.2734 30.3708 93.404 31.1844 93.6658 31.9606C93.9005 32.6745 94.2848 33.3315 94.7936 33.8891L94.7936 33.8891Z" fill="#FAB314"/>
<path d="M125.86 25.2157C125.412 23.9999 124.698 22.8963 123.77 21.983C122.842 21.0697 121.721 20.3691 120.489 19.9308C119.082 19.4258 117.594 19.179 116.097 19.2025C114.625 19.1819 113.161 19.4288 111.779 19.9308C110.544 20.383 109.42 21.0881 108.48 21.9998C107.558 22.9119 106.845 24.0085 106.388 25.2157C105.887 26.5452 105.639 27.9546 105.657 29.373C105.639 30.7904 105.882 32.1992 106.375 33.5303C106.824 34.7461 107.537 35.8497 108.466 36.763C109.394 37.6763 110.514 38.3769 111.747 38.8152C113.154 39.3202 114.642 39.5671 116.139 39.5435C117.611 39.5642 119.075 39.3173 120.457 38.8152C121.692 38.363 122.816 37.6579 123.755 36.7462C124.677 35.8336 125.392 34.7372 125.851 33.5303C126.821 30.8421 126.824 27.9061 125.86 25.2157V25.2157ZM120.93 32.0905C120.709 32.8106 120.344 33.4796 119.856 34.0578C119.411 34.575 118.853 34.9854 118.224 35.258C117.565 35.5365 116.855 35.6758 116.139 35.667C115.42 35.6753 114.707 35.536 114.046 35.258C113.41 34.9866 112.844 34.5762 112.392 34.0578C111.897 33.4822 111.528 32.8126 111.306 32.0905C110.79 30.3147 110.79 28.4313 111.306 26.6555C111.529 25.9327 111.894 25.2601 112.379 24.6761C112.824 24.1541 113.387 23.7436 114.024 23.4783C114.68 23.2083 115.386 23.0725 116.097 23.079C116.819 23.0718 117.534 23.2076 118.202 23.4783C118.842 23.7415 119.41 24.1522 119.856 24.6761C120.342 25.2601 120.707 25.9327 120.93 26.6555C121.446 28.4313 121.446 30.3147 120.93 32.0905Z" fill="#FAB314"/>
<path d="M143.055 39.0446V27.2146C143.059 26.7675 143.038 26.3206 142.991 25.8759C142.957 25.5405 142.878 25.2111 142.755 24.8968C142.539 24.3315 142.123 23.8627 141.584 23.5778C140.992 23.2963 140.34 23.1593 139.683 23.1782C138.696 23.1779 137.723 23.4 136.836 23.8275C135.903 24.2789 135.079 24.9229 134.42 25.7159V39.0446H129.328V19.6812H133.539L134.011 22.3789H134.097C134.431 21.945 134.813 21.5496 135.236 21.1999C135.715 20.7997 136.242 20.4575 136.804 20.1807C137.424 19.8756 138.076 19.6377 138.748 19.4713C139.489 19.2876 140.251 19.1969 141.015 19.2014C141.755 19.1995 142.494 19.28 143.217 19.4413C143.9 19.5912 144.555 19.844 145.161 20.1908C145.755 20.5361 146.282 20.9826 146.718 21.5095C147.482 22.4488 147.953 23.5877 148.072 24.7868C148.122 25.2732 148.147 25.8361 148.147 26.4754V39.0446H143.055Z" fill="#FAB314"/>
</svg>
