<svg width="36" height="36" viewBox="0 0 36 36" fill="none" xmlns="http://www.w3.org/2000/svg">
<path d="M26.5887 13.2482C27 14.852 27 18.2 27 18.2C27 18.2 27 21.548 26.5887 23.1518C26.3601 24.0383 25.6914 24.7358 24.8445 24.9716C23.3064 25.4 18 25.4 18 25.4C18 25.4 12.6963 25.4 11.1555 24.9716C10.305 24.7322 9.6372 24.0356 9.4113 23.1518C9 21.548 9 18.2 9 18.2C9 18.2 9 14.852 9.4113 13.2482C9.6399 12.3617 10.3086 11.6642 11.1555 11.4284C12.6963 11 18 11 18 11C18 11 23.3064 11 24.8445 11.4284C25.695 11.6678 26.3628 12.3644 26.5887 13.2482ZM16.2 21.35L21.6 18.2L16.2 15.05V21.35Z" fill="#1E1F21"/>
<circle cx="18" cy="18" r="17.5" stroke="#1E1F21"/>
</svg>
