<svg width="44" height="44" viewBox="0 0 44 44" fill="none" xmlns="http://www.w3.org/2000/svg">
<g clip-path="url(#clip0_28:1164)">
<path d="M32.4973 16.1926C33 18.1528 33 22.2448 33 22.2448C33 22.2448 33 26.3368 32.4973 28.297C32.2179 29.3805 31.4006 30.233 30.3655 30.5212C28.4856 31.0448 22 31.0448 22 31.0448C22 31.0448 15.5177 31.0448 13.6345 30.5212C12.595 30.2286 11.7788 29.3772 11.5027 28.297C11 26.3368 11 22.2448 11 22.2448C11 22.2448 11 18.1528 11.5027 16.1926C11.7821 15.1091 12.5994 14.2566 13.6345 13.9684C15.5177 13.4448 22 13.4448 22 13.4448C22 13.4448 28.4856 13.4448 30.3655 13.9684C31.405 14.261 32.2212 15.1124 32.4973 16.1926ZM19.8 26.0948L26.4 22.2448L19.8 18.3948V26.0948Z" fill="#7E8086"/>
</g>
<circle cx="22" cy="22" r="21.5" stroke="#7E8086"/>
<defs>
<clipPath id="clip0_28:1164">
<rect width="29.3333" height="29.3333" fill="white" transform="translate(7.33203 7.3335)"/>
</clipPath>
</defs>
</svg>
