<svg width="120" height="120" viewBox="0 0 120 120" fill="none" xmlns="http://www.w3.org/2000/svg">
<circle opacity="0.26" cx="60" cy="60" r="60" fill="#00B3FF"/>
<path d="M54.4213 50.0714C53.6123 50.6438 52.9189 51.3644 52.3781 52.1949C52.3142 52.2929 52.2702 52.4025 52.2487 52.5175C52.2271 52.6324 52.2284 52.7505 52.2525 52.865C52.2766 52.9794 52.3229 53.088 52.389 53.1846C52.455 53.2811 52.5395 53.3637 52.6374 53.4276C52.7354 53.4915 52.845 53.5355 52.9599 53.557C53.0749 53.5786 53.193 53.5773 53.3074 53.5532C53.4219 53.5291 53.5305 53.4827 53.627 53.4167C53.7236 53.3506 53.8061 53.2662 53.8701 53.1683C54.2885 52.5252 54.8251 51.9672 55.4514 51.524C55.6423 51.3868 55.7713 51.1795 55.81 50.9475C55.8488 50.7155 55.7942 50.4777 55.6582 50.2858C55.5222 50.0939 55.3158 49.9636 55.0841 49.9233C54.8524 49.883 54.6141 49.9361 54.4213 50.0708V50.0714Z" fill="white"/>
<path d="M38.291 88.2619H31.7627V47.4623C31.7627 47.4474 31.7648 47.4338 31.7648 47.4192C31.7648 40.3754 37.1988 34.6448 43.8781 34.6448C50.299 34.6448 55.5665 39.942 55.9641 46.6096C54.0558 46.8365 52.2967 47.7547 51.0196 49.1907C49.7424 50.6267 49.0357 52.4808 49.033 54.4026V55.7942C49.033 56.0304 49.1268 56.2569 49.2938 56.424C49.4609 56.591 49.6874 56.6848 49.9236 56.6848H53.8869C54.2806 58.1098 55.5536 59.1624 57.0445 59.1624C58.5354 59.1624 59.8082 58.1104 60.2017 56.6848H63.8398C64.076 56.6848 64.3025 56.591 64.4695 56.424C64.6366 56.2569 64.7304 56.0304 64.7304 55.7942V54.4026C64.7279 52.4722 64.0149 50.6102 62.7276 49.1718C61.4402 47.7333 59.6684 46.819 57.7501 46.6031C57.3447 38.9552 51.2783 32.8633 43.8782 32.8633C36.2423 32.8633 30.026 39.35 29.9845 47.3391C29.983 47.3597 29.9813 47.3803 29.9813 47.4012V88.2616H24.375C24.1388 88.2616 23.9123 88.3555 23.7452 88.5225C23.5782 88.6895 23.4844 88.9161 23.4844 89.1523C23.4844 89.3885 23.5782 89.615 23.7452 89.782C23.9123 89.9491 24.1388 90.0429 24.375 90.0429H38.291C38.5272 90.0429 38.7538 89.9491 38.9208 89.782C39.0878 89.615 39.1816 89.3885 39.1816 89.1523C39.1816 88.9161 39.0878 88.6895 38.9208 88.5225C38.7538 88.3555 38.5272 88.2616 38.291 88.2616V88.2619ZM57.0443 57.3814C56.7975 57.3775 56.5556 57.3117 56.3408 57.19C56.126 57.0684 55.9451 56.8948 55.8148 56.6851H58.2737C58.1433 56.8948 57.9625 57.0683 57.7477 57.19C57.533 57.3116 57.2911 57.3775 57.0443 57.3814ZM62.949 54.4026V54.9036H50.8142V54.4026C50.8142 52.7934 51.4535 51.2502 52.5913 50.1123C53.7292 48.9745 55.2725 48.3352 56.8816 48.3352C58.4908 48.3352 60.0341 48.9745 61.1719 50.1123C62.3098 51.2502 62.949 52.7934 62.949 54.4026Z" fill="white"/>
<path d="M92.3094 74.5016V68.6086C92.3005 67.6147 91.8978 66.6649 91.1895 65.9675C90.4813 65.2702 89.5254 64.8822 88.5315 64.8888H72.2339C71.7377 64.8863 71.246 64.9824 70.7873 65.1717C70.3286 65.361 69.9121 65.6396 69.5621 65.9913C69.4887 66.0656 69.4197 66.1419 69.3534 66.2205C68.9964 65.8021 68.5527 65.4663 68.053 65.2363C67.5534 65.0064 67.0097 64.8878 66.4597 64.8888H50.0695C49.0756 64.8822 48.1197 65.2702 47.4114 65.9675C46.7032 66.6649 46.3004 67.6147 46.2915 68.6086V74.5185C45.2254 74.6128 44.2327 75.1007 43.5067 75.8871C42.7808 76.6735 42.3737 77.7021 42.3647 78.7723V89.1535C42.3647 89.3898 42.4586 89.6163 42.6256 89.7833C42.7926 89.9503 43.0192 90.0442 43.2554 90.0442H50.1605C50.3967 90.0442 50.6233 89.9503 50.7903 89.7833C50.9573 89.6163 51.0512 89.3898 51.0512 89.1535V87.9671L87.8294 87.9784V89.1535C87.8294 89.3898 87.9232 89.6163 88.0902 89.7833C88.2573 89.9503 88.4838 90.0442 88.72 90.0442H95.625C95.8612 90.0442 96.0878 89.9503 96.2548 89.7833C96.4218 89.6163 96.5156 89.3898 96.5156 89.1535V78.7718C96.5055 77.6534 96.0611 76.5827 95.2762 75.7859C94.4914 74.9891 93.4275 74.5286 92.3094 74.5016ZM70.8238 67.248C71.0087 67.0629 71.2286 66.9164 71.4707 66.817C71.7128 66.7176 71.9722 66.6673 72.2339 66.6691H88.5315C89.0531 66.6621 89.5562 66.8623 89.9305 67.2257C90.3048 67.5891 90.5197 68.0861 90.5281 68.6077V74.8167C89.7354 75.1319 89.055 75.6768 88.5742 76.3815C88.0933 77.0861 87.834 77.9183 87.8294 78.7714V79.1202L70.2422 79.1157L70.2444 68.6974C70.2401 68.4294 70.2891 68.1633 70.3886 67.9145C70.488 67.6657 70.636 67.4391 70.8238 67.248ZM50.0695 66.6691H66.4594C66.9812 66.6621 67.4845 66.8624 67.8588 67.226C68.2331 67.5896 68.4479 68.0868 68.4561 68.6086L68.4601 79.1153L51.0512 79.1106V78.772C51.0456 77.8682 50.7546 76.9893 50.2197 76.2609C49.6848 75.5324 48.9334 74.9915 48.0728 74.7156V68.6086C48.0811 68.0869 48.296 67.5898 48.6703 67.2263C49.0446 66.8628 49.5478 66.6626 50.0695 66.6696V66.6691ZM49.2699 88.262H44.146V78.7718C44.1643 78.1045 44.4423 77.4707 44.9207 77.0052C45.3992 76.5397 46.0404 76.2792 46.708 76.2792C47.3755 76.2792 48.0167 76.5397 48.4952 77.0052C48.9736 77.4707 49.2516 78.1045 49.2699 78.7718V88.262ZM51.0512 86.1849V80.8917L69.3502 80.8967H69.3516L87.8292 80.9019V86.1967L51.0512 86.1849ZM94.7344 88.2625H89.6106V78.7718C89.6282 78.1041 89.9059 77.4696 90.3844 77.0035C90.8629 76.5374 91.5045 76.2766 92.1725 76.2766C92.8405 76.2766 93.4821 76.5374 93.9606 77.0035C94.4391 77.4696 94.7168 78.1041 94.7344 78.7718V88.2625Z" fill="white"/>
</svg>
