<svg width="120" height="120" viewBox="0 0 120 120" fill="none" xmlns="http://www.w3.org/2000/svg">
<circle opacity="0.26" cx="60" cy="60" r="60" fill="#00B3FF"/>
<path d="M73.0423 83.6997L71.3996 72.9314C70.9399 68.7874 67.4493 65.6654 63.2819 65.6654H55.5469C54.9029 65.6654 54.3802 65.1427 54.3802 64.4987V60.315L55.6892 61.624C56.7929 62.7253 58.2582 63.332 59.8145 63.332H64.8802C66.8099 63.332 68.3802 61.7617 68.3802 59.832C68.3802 57.9023 66.8099 56.332 64.8802 56.332H61.1819C60.8739 56.332 60.5729 56.2083 60.3582 55.989L55.4069 51.04C54.3032 49.9387 52.8379 49.332 51.2816 49.332H48.5469C46.6172 49.332 45.0469 50.9023 45.0469 52.832V66.832C45.0469 71.3353 48.7102 74.9987 53.2136 74.9987H60.5706C61.1446 74.9987 61.6276 75.4094 61.7326 76.0277L63.6809 85.0484C64.0659 87.3374 66.0259 88.9987 68.3476 88.9987C69.6916 88.9987 70.9773 88.4247 71.8733 87.4237C72.7693 86.4227 73.1963 85.081 73.0423 83.6997ZM70.135 85.8675C69.673 86.3807 69.0383 86.6654 68.3477 86.6654C67.1717 86.6654 66.1777 85.8232 65.97 84.6097L64.0217 75.589C63.7394 73.895 62.288 72.6653 60.5707 72.6653H53.2137C49.9984 72.6653 47.3804 70.0473 47.3804 66.832V52.832C47.3804 52.188 47.9031 51.6653 48.5471 51.6653H51.2818C52.2035 51.6653 53.1041 52.0386 53.7551 52.692L58.7064 57.641C59.3691 58.3013 60.2487 58.6653 61.1821 58.6653H64.8804C65.5244 58.6653 66.0471 59.188 66.0471 59.832C66.0471 60.476 65.5243 60.9987 64.8803 60.9987H59.8146C58.8929 60.9987 57.9923 60.6254 57.3413 59.972L54.0396 56.6727C53.7036 56.3414 53.2066 56.2387 52.7679 56.4207C52.3316 56.6027 52.0469 57.0274 52.0469 57.4987V64.4987C52.0469 66.4284 53.6172 67.9987 55.5469 67.9987H63.2819C66.2592 67.9987 68.7512 70.2294 69.0872 73.237L70.7299 84.0053C70.807 84.6914 70.597 85.354 70.135 85.8675Z" fill="white"/>
<path d="M49.7129 33C45.8536 33 42.7129 36.1407 42.7129 40C42.7129 43.8593 45.8536 47 49.7129 47C53.5722 47 56.7129 43.8593 56.7129 40C56.7129 36.1407 53.5723 33 49.7129 33ZM49.7129 44.6667C47.1392 44.6667 45.0462 42.5737 45.0462 40C45.0462 37.4263 47.1392 35.3333 49.7129 35.3333C52.2866 35.3333 54.3796 37.4263 54.3796 40C54.3796 42.5737 52.2866 44.6667 49.7129 44.6667Z" fill="white"/>
<path d="M57.4549 77.4023C56.8482 77.1853 56.1809 77.505 55.9662 78.1116C54.1555 83.2286 49.2975 86.6679 43.8795 86.6679C36.8025 86.6679 31.0462 80.9116 31.0462 73.8346C31.0462 67.5533 35.5425 62.2379 41.7399 61.1949C42.3746 61.0876 42.8039 60.4856 42.6966 59.8509C42.5893 59.2162 41.9943 58.7916 41.3526 58.8942C34.0283 60.1263 28.7129 66.41 28.7129 73.8346C28.7129 82.1973 35.5169 89.0013 43.8796 89.0013C50.2846 89.0013 56.0269 84.939 58.1643 78.891C58.3789 78.282 58.0616 77.617 57.4549 77.4023Z" fill="white"/>
<path d="M66.3741 45.8403H68.5106L70.9098 37.6445H71.0032L73.3966 45.8403H75.5332L78.9072 34.1597H76.5781L74.424 42.749H74.319L72.0131 34.1597H69.8941L67.5941 42.7433H67.4832L65.3292 34.1597H63L66.3741 45.8403Z" fill="white"/>
<path d="M90 38.1008C89.6322 35.5057 87.5891 34 84.9389 34C81.8158 34 79.4633 36.2243 79.4633 40C79.4633 43.77 81.7866 46 84.9389 46C87.7817 46 89.6673 44.2034 90 41.9734L87.8168 41.962C87.5424 43.3308 86.3982 44.1008 84.9681 44.1008C83.03 44.1008 81.6407 42.6806 81.6407 40C81.6407 37.365 83.0183 35.8992 84.9739 35.8992C86.4274 35.8992 87.5658 36.7034 87.8168 38.1008H90Z" fill="white"/>
<rect x="86" y="60" width="2" height="28" fill="white"/>
</svg>
