<svg width="120" height="120" viewBox="0 0 120 120" fill="none" xmlns="http://www.w3.org/2000/svg">
<circle opacity="0.26" cx="60" cy="60" r="60" fill="#00B3FF"/>
<path d="M81.9691 83.5162L80.3398 72.8354C79.8838 68.7251 76.4216 65.6284 72.288 65.6284H64.6159C63.9771 65.6284 63.4586 65.11 63.4586 64.4712V60.3215L64.757 61.6199C65.8517 62.7122 67.3051 63.314 68.8488 63.314H73.8733C75.7873 63.314 77.3449 61.7564 77.3449 59.8424C77.3449 57.9284 75.7873 56.3709 73.8733 56.3709H70.2051C69.8996 56.3709 69.601 56.2482 69.3881 56.0306L64.477 51.1219C63.3823 50.0295 61.9289 49.4277 60.3852 49.4277H57.6727C55.7587 49.4277 54.2012 50.9853 54.2012 52.8993V66.7856C54.2012 71.2523 57.8347 74.8859 62.3015 74.8859H69.5987C70.1681 74.8859 70.6472 75.2933 70.7513 75.9065L72.6838 84.8539C73.0656 87.1243 75.0097 88.7721 77.3125 88.7721C78.6456 88.7721 79.9209 88.2028 80.8096 87.2099C81.6983 86.2171 82.1219 84.8863 81.9691 83.5162ZM79.0854 85.6663C78.6272 86.1754 77.9976 86.4578 77.3127 86.4578C76.1462 86.4578 75.1603 85.6224 74.9543 84.4188L73.0218 75.4714C72.7418 73.7912 71.3022 72.5714 69.5988 72.5714H62.3016C59.1125 72.5714 56.5157 69.9747 56.5157 66.7856V52.8993C56.5157 52.2605 57.0342 51.7421 57.673 51.7421H60.3854C61.2996 51.7421 62.1929 52.1123 62.8386 52.7604L67.7497 57.6692C68.407 58.3242 69.2795 58.6852 70.2053 58.6852H73.8735C74.5123 58.6852 75.0308 59.2037 75.0308 59.8424C75.0308 60.4812 74.5122 60.9996 73.8734 60.9996H68.8489C67.9347 60.9996 67.0414 60.6294 66.3957 59.9813L63.1208 56.7088C62.7875 56.3802 62.2946 56.2783 61.8594 56.4588C61.4267 56.6394 61.1443 57.0606 61.1443 57.5281V64.4712C61.1443 66.3852 62.7018 67.9428 64.6159 67.9428H72.288C75.2411 67.9428 77.7129 70.1554 78.0461 73.1385L79.6755 83.8193C79.752 84.4998 79.5437 85.1571 79.0854 85.6663Z" fill="white"/>
<path d="M58.8298 33.2266C55.0019 33.2266 51.8867 36.3417 51.8867 40.1697C51.8867 43.9976 55.0019 47.1128 58.8298 47.1128C62.6578 47.1128 65.773 43.9976 65.773 40.1697C65.773 36.3417 62.6579 33.2266 58.8298 33.2266ZM58.8298 44.7985C56.2771 44.7985 54.2011 42.7225 54.2011 40.1697C54.2011 37.6169 56.2771 35.5409 58.8298 35.5409C61.3826 35.5409 63.4586 37.6169 63.4586 40.1697C63.4586 42.7225 61.3826 44.7985 58.8298 44.7985Z" fill="white"/>
<path d="M66.509 77.2674C65.9072 77.0522 65.2453 77.3693 65.0323 77.971C63.2364 83.0464 58.4178 86.4577 53.0439 86.4577C46.0244 86.4577 40.3148 80.7482 40.3148 73.7287C40.3148 67.4984 44.7746 62.2262 50.9216 61.1917C51.5512 61.0853 51.977 60.4882 51.8706 59.8586C51.7641 59.2291 51.174 58.8079 50.5375 58.9097C43.2727 60.1318 38.0005 66.3644 38.0005 73.7287C38.0005 82.0235 44.7492 88.7722 53.044 88.7722C59.3969 88.7722 65.0926 84.7429 67.2126 78.744C67.4254 78.14 67.1107 77.4804 66.509 77.2674Z" fill="white"/>
</svg>
