<svg width="120" height="120" viewBox="0 0 120 120" fill="none" xmlns="http://www.w3.org/2000/svg">
<circle opacity="0.26" cx="60" cy="60" r="60" fill="#00B3FF"/>
<g clip-path="url(#clip0_302_1040)">
<path d="M34.3102 60.4602V60.6102H34.4602H42.0752C43.8018 60.6102 45.2066 62.0151 45.2066 63.7415V78.6222C45.2066 80.0728 44.1988 81.2905 42.8467 81.6188L42.732 81.6466V81.7646V83.3502C42.732 84.1087 42.117 84.7236 41.3586 84.7236C40.6002 84.7236 39.9852 84.1087 39.9852 83.3502V81.859V81.709H39.8352H26.5214H26.3714V81.859V83.3502C26.3714 84.1087 25.7564 84.7236 24.998 84.7236C24.2395 84.7236 23.6245 84.1087 23.6245 83.3502V81.7647V81.6468L23.5099 81.6189C22.1578 81.2906 21.15 80.0728 21.15 78.6223V63.697C21.15 61.995 22.5348 60.6102 24.2367 60.6102H31.4133H31.5633V60.4602V53.5621V53.4121H31.4133H22.5234C21.5557 53.4121 20.8781 52.3846 21.2623 51.4945L21.2623 51.4945L27.0392 38.1082L27.0392 38.1082C27.2564 37.6048 27.7522 37.2789 28.3003 37.2789H37.573C38.1213 37.2789 38.6168 37.6048 38.8341 38.1082L44.611 51.4945L44.7487 51.435L44.611 51.4945C44.9952 52.3846 44.3175 53.4121 43.3499 53.4121H34.4602H34.3102V53.5621V60.4602ZM29.3021 40.0259H29.2035L29.1644 40.1165L24.7024 50.4559L24.612 50.6654H24.8401H41.0331H41.2612L41.1708 50.4559L36.7088 40.1165L36.6697 40.0259H36.5711H29.3021ZM24.2367 78.9621H24.3867V78.962H42.1199C42.3075 78.962 42.4597 78.8096 42.4597 78.622V63.7414C42.4597 63.5292 42.2874 63.3569 42.0752 63.3569H24.2367C24.0491 63.3569 23.8969 63.5093 23.8969 63.6969V78.6222C23.8969 78.8097 24.0489 78.9621 24.2367 78.9621Z" fill="white" stroke="#BDEBFF" stroke-width="0.3"/>
<path d="M96.0538 58.2562V58.3616L96.153 58.3973C97.724 58.9627 98.8501 60.4675 98.8501 62.2299V80.2664C98.8501 81.0249 98.2351 81.6398 97.4767 81.6398H94.7204H94.5704V81.7898V83.3506C94.5704 84.1091 93.9554 84.724 93.197 84.724C92.4386 84.724 91.8236 84.1091 91.8236 83.3506V81.7898V81.6398H91.6736H57.1002H56.9502V81.7898V83.3506C56.9502 84.1091 56.3352 84.724 55.5768 84.724C54.8184 84.724 54.2033 84.1091 54.2033 83.3506V81.7898V81.6398H54.0533H50.856C50.0975 81.6398 49.4825 81.0249 49.4825 80.2664V62.2299C49.4825 60.4675 50.6085 58.9627 52.1796 58.3973L52.2788 58.3616V58.2562V46.3511C52.2788 43.409 54.6727 41.0152 57.6147 41.0152H67.3015C68.0599 41.0152 68.6749 41.6301 68.6749 42.3887C68.6749 43.1472 68.0599 43.7621 67.3015 43.7621H57.6147C56.187 43.7621 55.0257 44.9234 55.0257 46.3511V58.0079V58.1579H55.1757H58.7023H58.8523V58.0079V53.4476C58.8523 51.1783 60.6989 49.3317 62.9682 49.3317H71.4236C72.4305 49.3317 73.3533 49.6954 74.0696 50.2983L74.1662 50.3795L74.2628 50.2983C74.979 49.6956 75.902 49.3317 76.9087 49.3317H85.3643C87.6338 49.3317 89.4803 51.1783 89.4803 53.4476V58.0079V58.1579H89.6303H93.1569H93.3069V58.0079V46.3511C93.3069 44.9234 92.1457 43.7621 90.7179 43.7621H80.7865C80.0281 43.7621 79.413 43.1472 79.413 42.3887C79.413 41.6301 80.0281 41.0152 80.7865 41.0152H90.7179C93.66 41.0152 96.0538 43.409 96.0538 46.3511V58.2562ZM86.5833 58.1577H86.7333V58.0077V53.4475C86.7333 52.6925 86.1192 52.0784 85.3641 52.0784H76.9087C76.1537 52.0784 75.5397 52.6925 75.5397 53.4475V58.0077V58.1577H75.6897H86.5833ZM72.6428 58.1579H72.7928V58.0079V53.4476C72.7928 52.6926 72.1787 52.0786 71.4236 52.0786H62.9682C62.2132 52.0786 61.5991 52.6925 61.5991 53.4476V58.0079V58.1579H61.7491H72.6428ZM95.9534 70.7875H96.1034V70.6375V62.2299C96.1034 61.499 95.5091 60.9047 94.7782 60.9047H94.6804H53.6524H53.5546C52.8237 60.9047 52.2294 61.499 52.2294 62.2299V70.6375V70.7875H52.3794H95.9534ZM95.9532 78.8929H96.1032V78.7429V73.6843V73.5343H95.9532H52.3794H52.2294V73.6843V78.7429V78.8929H52.3794H95.9532Z" fill="white" stroke="#BDEBFF" stroke-width="0.3"/>
<path d="M29.7339 70.6338L29.7339 70.6338C29.5127 70.0943 28.9464 69.747 28.3647 69.7904L29.7339 70.6338ZM29.7339 70.6338L29.7342 70.6346M29.7339 70.6338L29.7342 70.6346M29.7342 70.6346C29.9723 71.206 29.7818 71.8943 29.2832 72.2612L29.2832 72.2612C28.258 73.0158 26.8017 72.0219 27.1431 70.7932L27.1431 70.7932M29.7342 70.6346L27.1431 70.7932M27.1431 70.7932C27.2968 70.2397 27.7916 69.8332 28.3647 69.7904L27.1431 70.7932Z" fill="white" stroke="#BDEBFF" stroke-width="0.3"/>
<path d="M73.4897 41.1959L73.4897 41.1959C72.8932 41.5335 72.6373 42.281 72.8972 42.9156C73.3822 44.0788 75.1131 43.9903 75.4791 42.7878M73.4897 41.1959L75.4791 42.7878C75.4791 42.7878 75.4791 42.7878 75.4791 42.7878M73.4897 41.1959C74.5412 40.6006 75.8321 41.6279 75.4791 42.7878M73.4897 41.1959L75.4791 42.7878" fill="white" stroke="#BDEBFF" stroke-width="0.3"/>
</g>
<defs>
<clipPath id="clip0_302_1040">
<rect width="78" height="78" fill="white" transform="translate(21 22)"/>
</clipPath>
</defs>
</svg>
