<svg width="20" height="20" viewBox="0 0 20 20" fill="none" xmlns="http://www.w3.org/2000/svg">
<g clip-path="url(#clip0_142_426)">
<path d="M15.8064 12.3893C15.397 11.963 14.9031 11.735 14.3797 11.735C13.8605 11.735 13.3624 11.9588 12.936 12.3851L11.6022 13.7147C11.4924 13.6556 11.3827 13.6008 11.2771 13.5459C11.1252 13.4699 10.9816 13.3982 10.8592 13.3222C9.60978 12.5286 8.47429 11.4944 7.38524 10.1563C6.8576 9.48938 6.50302 8.92797 6.24553 8.35812C6.59167 8.04153 6.91247 7.71229 7.22484 7.3957C7.34303 7.27751 7.46122 7.1551 7.57941 7.0369C8.46585 6.15047 8.46585 5.00232 7.57941 4.11588L6.42704 2.96351C6.29619 2.83265 6.16111 2.69758 6.03448 2.5625C5.78121 2.30079 5.51528 2.03064 5.2409 1.77737C4.83145 1.37214 4.3418 1.15686 3.82682 1.15686C3.31184 1.15686 2.81375 1.37214 2.39163 1.77737C2.38741 1.78159 2.38741 1.78159 2.38319 1.78581L0.948005 3.23366C0.407699 3.77397 0.099556 4.43246 0.0320178 5.19649C-0.0692895 6.42906 0.293728 7.57721 0.572323 8.32857C1.25615 10.1732 2.27766 11.8828 3.80149 13.7147C5.65035 15.9224 7.87489 17.6657 10.416 18.8941C11.3869 19.3542 12.6828 19.8987 14.1306 19.9916C14.2193 19.9958 14.3121 20 14.3965 20C15.3716 20 16.1905 19.6497 16.8321 18.9532C16.8364 18.9447 16.8448 18.9405 16.849 18.9321C17.0685 18.6661 17.3218 18.4255 17.5877 18.168C17.7692 17.995 17.955 17.8135 18.1365 17.6235C18.5544 17.1887 18.7739 16.6822 18.7739 16.163C18.7739 15.6396 18.5501 15.1373 18.1238 14.7152L15.8064 12.3893ZM17.3176 16.8342C17.3134 16.8342 17.3134 16.8384 17.3176 16.8342C17.153 17.0115 16.9841 17.1719 16.8026 17.3491C16.5282 17.6109 16.2496 17.8852 15.9879 18.1934C15.5616 18.6493 15.0593 18.8645 14.4008 18.8645C14.3375 18.8645 14.2699 18.8645 14.2066 18.8603C12.9529 18.7801 11.7879 18.2905 10.9141 17.8726C8.52495 16.716 6.42704 15.0739 4.68371 12.9929C3.2443 11.258 2.28188 9.65401 1.64449 7.93179C1.25193 6.88072 1.10841 6.06182 1.17172 5.28935C1.21394 4.79548 1.40389 4.38603 1.75424 4.03568L3.19365 2.59627C3.40049 2.4021 3.61998 2.29657 3.83526 2.29657C4.10119 2.29657 4.31647 2.45697 4.45155 2.59205C4.45577 2.59627 4.45999 2.60049 4.46421 2.60471C4.7217 2.84532 4.96653 3.09436 5.22402 3.36029C5.35487 3.49537 5.48995 3.63045 5.62503 3.76974L6.7774 4.92211C7.22484 5.36956 7.22484 5.78323 6.7774 6.23067C6.65498 6.35308 6.53679 6.47549 6.41438 6.59368C6.0598 6.9567 5.72211 7.29439 5.35487 7.62364C5.34643 7.63208 5.33799 7.63631 5.33377 7.64475C4.97075 8.00777 5.03829 8.36234 5.11427 8.60295C5.11849 8.61561 5.12271 8.62827 5.12693 8.64094C5.42663 9.36697 5.84875 10.0508 6.49036 10.8655L6.49458 10.8697C7.65961 12.3049 8.88797 13.4235 10.243 14.2804C10.416 14.3901 10.5933 14.4788 10.7621 14.5632C10.9141 14.6392 11.0576 14.7109 11.18 14.7869C11.1969 14.7954 11.2138 14.808 11.2307 14.8165C11.3742 14.8882 11.5093 14.922 11.6486 14.922C11.9989 14.922 12.2184 14.7025 12.2902 14.6307L13.7338 13.1871C13.8773 13.0436 14.1053 12.8705 14.3712 12.8705C14.6329 12.8705 14.8482 13.0351 14.9791 13.1787C14.9833 13.1829 14.9833 13.1829 14.9875 13.1871L17.3134 15.5129C17.7481 15.9435 17.7481 16.3867 17.3176 16.8342Z" fill="#AA2D36"/>
<path d="M10.8085 4.7574C11.9145 4.94313 12.9191 5.46656 13.7211 6.26857C14.5231 7.07059 15.0423 8.07522 15.2323 9.18116C15.2787 9.45975 15.5193 9.65392 15.7937 9.65392C15.8275 9.65392 15.857 9.6497 15.8908 9.64548C16.2032 9.59483 16.41 9.29935 16.3593 8.98698C16.1314 7.64888 15.4982 6.42897 14.5316 5.46233C13.5649 4.49569 12.345 3.86252 11.0069 3.63458C10.6946 3.58393 10.4033 3.79076 10.3484 4.09891C10.2936 4.40705 10.4962 4.70675 10.8085 4.7574Z" fill="#AA2D36"/>
<path d="M19.9769 8.82236C19.6012 6.61893 18.5628 4.61389 16.9672 3.0183C15.3716 1.42271 13.3666 0.384308 11.1631 0.00862669C10.855 -0.0462481 10.5637 0.164809 10.5088 0.472952C10.4582 0.785316 10.665 1.07657 10.9774 1.13145C12.9444 1.46492 14.7384 2.39779 16.1652 3.82031C17.5919 5.24706 18.5206 7.04104 18.854 9.00809C18.9005 9.28669 19.1411 9.48086 19.4154 9.48086C19.4492 9.48086 19.4788 9.47664 19.5125 9.47242C19.8207 9.42598 20.0317 9.1305 19.9769 8.82236Z" fill="#AA2D36"/>
</g>
<defs>
<clipPath id="clip0_142_426">
<rect width="20" height="20" fill="white"/>
</clipPath>
</defs>
</svg>
