<svg width="128" height="128" viewBox="0 0 128 128" fill="none" xmlns="http://www.w3.org/2000/svg">
<path d="M20.1602 17.2801C20.1576 17.2801 20.1538 17.2801 20.1499 17.2801C19.4434 17.2852 18.875 17.8625 18.8802 18.569C18.8802 18.569 18.8853 19.2705 18.9608 20.5479C19.003 21.2545 19.6123 21.801 20.315 21.7485C21.0216 21.7063 21.5592 21.1008 21.5157 20.3943C21.4453 19.2205 21.4389 18.5677 21.4389 18.5485C21.4338 17.8471 20.8629 17.2801 20.1602 17.2801Z" fill="#29ABE2"/>
<path d="M20.1602 19.2C19.4562 19.2384 18.9186 19.84 18.957 20.5441C19.0082 21.2481 19.6098 21.7984 20.3151 21.7472C21.0191 21.7088 21.5567 21.1073 21.517 20.4032V20.3904C21.4799 19.712 20.9154 19.1872 20.237 19.1872C20.2114 19.1872 20.1858 19.1872 20.1602 19.2Z" fill="#29ABE2"/>
<path d="M20.5569 22.9888C20.5057 22.9888 20.4685 22.9888 20.4173 22.9888C20.0833 23.0272 19.7773 23.1936 19.5597 23.4624C19.3409 23.7312 19.2525 24.064 19.2769 24.3968C19.4305 25.7792 19.5841 26.9824 19.7633 28.16C19.7633 28.1856 19.7633 28.2112 19.7633 28.2368L19.7773 28.288C19.9053 28.9536 20.5569 29.4144 21.2237 29.312C21.8497 29.2224 22.3117 28.6976 22.3233 28.0576C22.3233 27.9936 22.3105 27.9296 22.3105 27.8656C22.1197 26.6496 21.9649 25.3952 21.8369 24.1664V24.128C21.7601 23.4752 21.2084 22.9888 20.5569 22.9888ZM21.6577 30.5408C21.5796 30.5408 21.5041 30.5536 21.4273 30.5664C20.8129 30.6688 20.3777 31.2064 20.3777 31.8208C20.3777 31.9104 20.3905 31.9872 20.4033 32.0512C20.6465 33.408 20.9037 34.6496 21.1597 35.84C21.3121 36.5056 22.0033 36.9536 22.6817 36.8128C23.2705 36.6848 23.6929 36.1728 23.6929 35.5712C23.6929 35.4688 23.6801 35.3792 23.6673 35.2896C23.3985 34.0736 23.1425 32.832 22.9108 31.5904C22.8084 30.976 22.2708 30.5408 21.6577 30.5408ZM23.2961 37.9904C23.1937 37.9904 23.0913 38.0032 22.9761 38.0288C22.4129 38.1824 22.0161 38.6944 22.0161 39.2704C22.0161 39.3856 22.0417 39.488 22.0673 39.5904C22.3873 40.832 22.7329 42.0736 23.0913 43.3152C23.2961 43.968 24.0244 44.3648 24.6913 44.1728C25.2289 44.0064 25.6001 43.52 25.6001 42.9568C25.6001 42.8288 25.5873 42.7008 25.5489 42.5856C25.202 41.3952 24.8577 40.1664 24.5377 38.9504C24.3969 38.3872 23.8849 37.9904 23.2961 37.9904ZM25.4849 45.2992C25.3441 45.2992 25.202 45.3248 25.0753 45.3632C24.5505 45.5424 24.1921 46.0288 24.2049 46.5792C24.2049 46.6944 24.2177 46.8224 24.2561 46.9248L24.2689 46.9888C24.2689 47.0016 24.2817 47.0272 24.2817 47.04L24.2945 47.0656C24.7297 48.3328 25.1393 49.4848 25.5617 50.56C25.5617 50.5856 25.5745 50.6112 25.5745 50.624L25.5885 50.6368C25.8189 51.2512 26.5997 51.6096 27.2257 51.3664C27.7261 51.1744 28.0461 50.7008 28.0577 50.176C28.0577 50.0096 28.0308 49.856 27.9681 49.7024C27.5329 48.5632 27.0977 47.3728 26.6881 46.1696C26.5217 45.6448 26.0225 45.2992 25.4849 45.2992ZM28.1985 52.416C28.0308 52.416 27.8644 52.4544 27.698 52.5184C27.2244 52.7232 26.9185 53.1968 26.93 53.7088C26.93 53.8752 26.9556 54.0416 27.0324 54.208C27.5316 55.3728 28.0692 56.5632 28.6183 57.728C28.9127 58.3424 29.7076 58.624 30.3348 58.3168C30.77 58.112 31.0631 57.664 31.0631 57.1648C31.0631 56.9856 31.0119 56.7936 30.9351 56.6144C30.4103 55.5264 29.897 54.4128 29.3735 53.1968C29.1713 52.7232 28.7105 52.416 28.1985 52.416ZM31.4996 59.2896C31.2961 59.2896 31.0785 59.3408 30.898 59.4432C30.4756 59.6608 30.2196 60.096 30.2196 60.5568C30.2196 60.672 30.2337 60.7744 30.258 60.8896L30.1428 60.7744L30.3988 61.2224C31.0004 62.3488 31.6276 63.4752 32.2676 64.5504C32.6132 65.1264 33.4324 65.344 34.0212 64.9856C34.4052 64.768 34.6343 64.3456 34.6471 63.8976C34.6471 63.6672 34.5831 63.4368 34.4679 63.232C33.8407 62.1696 33.2148 61.0816 32.6375 59.9808L32.6247 59.968C32.4084 59.5456 31.9732 59.2896 31.4996 59.2896ZM35.3793 65.8432C35.1373 65.8432 34.8929 65.92 34.6881 66.048C34.3169 66.2912 34.0993 66.7008 34.0993 67.136C34.1121 67.3792 34.1773 67.6224 34.3169 67.8272C35.0081 68.8896 35.7505 69.952 36.5197 71.0016C36.9165 71.552 37.7485 71.6928 38.2989 71.296C38.6445 71.0528 38.8365 70.656 38.8365 70.2464C38.8237 69.9776 38.7469 69.7216 38.5805 69.504C37.8637 68.4928 37.1469 67.456 36.4557 66.4192C36.2113 66.0608 35.8132 65.8432 35.3793 65.8432ZM39.8708 72C39.5649 72 39.2961 72.0896 39.0644 72.2816C38.7585 72.5248 38.578 72.896 38.5908 73.2928C38.5908 73.5872 38.6804 73.856 38.8737 74.0864C39.6673 75.072 40.4993 76.0448 41.3313 76.9792L41.3953 77.056C41.8561 77.5424 42.6753 77.5808 43.1873 77.1328C43.4561 76.8896 43.6084 76.544 43.6084 76.1856C43.6084 75.8656 43.4932 75.5584 43.2884 75.328C42.4692 74.4064 41.6513 73.4464 40.8577 72.4736C40.6132 72.1664 40.2561 72 39.8708 72ZM44.9396 77.6704C44.594 77.6704 44.274 77.7984 44.0308 78.0416C43.7889 78.2848 43.6596 78.6048 43.6596 78.9504C43.6596 79.2832 43.7889 79.6032 44.0308 79.8464C44.9652 80.7936 45.8996 81.6896 46.8225 82.5344C47.3332 82.9824 48.1793 82.944 48.6401 82.4448C48.8449 82.2016 48.9729 81.8944 48.9729 81.5872C48.9729 81.216 48.8193 80.8832 48.5505 80.64C47.6289 79.7952 46.7201 78.9248 45.8497 78.0544C45.6065 77.8112 45.2865 77.6704 44.9396 77.6704ZM50.5729 82.7904C50.1889 82.7904 49.8177 82.9568 49.5745 83.2512C49.3953 83.4816 49.2929 83.776 49.2929 84.0704C49.2929 84.4544 49.4721 84.8128 49.7665 85.056C50.7905 85.888 51.8145 86.6944 52.8257 87.424C53.3773 87.8208 54.2081 87.6928 54.6177 87.1424C54.7841 86.9248 54.8596 86.656 54.8596 86.3744C54.8596 85.9776 54.6561 85.5936 54.3361 85.3632C53.3761 84.6592 52.3892 83.8912 51.4049 83.0976L51.3793 83.072C51.1489 82.88 50.8673 82.7904 50.5729 82.7904ZM56.7169 87.2704C56.2817 87.2704 55.8721 87.488 55.6417 87.8592C55.5009 88.064 55.4369 88.2944 55.4369 88.5376C55.4241 88.9856 55.6417 89.3824 56.0129 89.6256C57.0753 90.3296 58.1889 91.008 59.3025 91.6608C59.8913 91.9936 60.7105 91.776 61.0561 91.1872C61.1713 90.9952 61.2353 90.7776 61.2353 90.56C61.2353 90.0992 60.9921 89.6768 60.5953 89.4464C59.5201 88.8192 58.4577 88.1664 57.4081 87.488C57.202 87.3472 56.9601 87.2704 56.7169 87.2704ZM63.282 91.0976C62.8084 91.0976 62.3732 91.3664 62.1428 91.7888C62.0532 91.968 62.002 92.1728 62.002 92.3776C62.002 92.864 62.2708 93.2992 62.6932 93.5168C63.8196 94.0928 64.9716 94.6432 66.1108 95.168C66.1249 95.1808 66.1492 95.1936 66.1761 95.2064L66.2644 95.2448V95.232C66.8788 95.4624 67.6084 95.1552 67.8785 94.5664C67.9553 94.4 67.9937 94.2208 67.9937 94.0416C67.9937 93.5296 67.6993 93.0816 67.2385 92.864C66.1108 92.352 64.9716 91.8144 63.8708 91.2384C63.6929 91.1488 63.4881 91.0976 63.282 91.0976ZM70.2081 94.2464C69.6833 94.2464 69.2097 94.5664 69.0177 95.0528C68.9665 95.2064 68.9281 95.36 68.9281 95.5264C68.9281 96.0512 69.2481 96.512 69.7345 96.7168C70.9121 97.1776 72.1281 97.6256 73.3569 98.048C74.0097 98.2784 74.7661 97.9072 74.9837 97.2672C75.0349 97.1264 75.0605 96.9856 75.0605 96.8576C75.0605 96.3072 74.7149 95.808 74.2029 95.6288C73.001 95.2192 71.8093 94.784 70.6829 94.336C70.5281 94.272 70.3732 94.2464 70.2081 94.2464ZM77.4017 96.7168C76.8397 96.7168 76.3265 97.1008 76.1729 97.6384C76.1345 97.7536 76.1217 97.8688 76.1217 97.984C76.1089 98.56 76.4929 99.072 77.0433 99.2256C78.2721 99.5968 79.5265 99.9296 80.7681 100.25C81.4349 100.416 82.1505 99.9808 82.3169 99.3152C82.3437 99.2128 82.3553 99.0976 82.3553 98.9952C82.3425 98.4064 81.9457 97.9072 81.3825 97.7536C80.2689 97.4848 79.1796 97.1904 78.1441 96.8832L77.7601 96.768C77.6449 96.7424 77.5284 96.7168 77.4017 96.7168ZM84.7732 98.5728C84.1716 98.5728 83.6468 98.9952 83.5201 99.584C83.5073 99.6736 83.4932 99.7632 83.4932 99.84C83.4932 100.454 83.9284 100.979 84.5185 101.107C85.7601 101.363 87.0401 101.594 88.3073 101.811C88.9985 101.926 89.6641 101.453 89.778 100.762C89.7908 100.685 89.8049 100.608 89.7908 100.531C89.7908 99.9168 89.3428 99.392 88.7284 99.2896C87.4753 99.072 86.2337 98.8416 85.042 98.5984C84.9537 98.5728 84.8641 98.5728 84.7732 98.5728ZM92.2881 99.8272C91.6481 99.8272 91.0977 100.314 91.0081 100.941C91.0081 100.992 91.0081 101.056 91.0081 101.107C90.9953 101.747 91.4817 102.298 92.1217 102.374C93.3633 102.541 94.6561 102.682 95.9361 102.81C96.6401 102.874 97.2673 102.362 97.3313 101.658C97.3441 101.619 97.3441 101.568 97.3441 101.53C97.3441 100.864 96.8449 100.326 96.1793 100.262C94.9377 100.147 93.6833 100.006 92.4545 99.84C92.3905 99.84 92.3393 99.8272 92.2881 99.8272ZM99.8529 100.557C99.1745 100.557 98.6241 101.082 98.5729 101.76C98.5729 101.773 98.5729 101.798 98.5729 101.824C98.5729 102.502 99.0977 103.078 99.7761 103.117C101.029 103.194 102.322 103.258 103.616 103.296H103.653C104.358 103.296 104.92 102.758 104.933 102.067V102.029C104.947 101.338 104.383 100.762 103.704 100.736C102.387 100.698 101.119 100.634 99.9425 100.557C99.9041 100.557 99.8785 100.557 99.8529 100.557ZM107.52 100.813H107.469C106.765 100.813 106.189 101.376 106.189 102.08C106.189 102.426 106.317 102.746 106.56 102.989C106.802 103.232 107.122 103.36 107.456 103.373H107.507C108.211 103.373 108.787 102.797 108.787 102.093C108.787 101.747 108.658 101.427 108.416 101.184C108.173 100.941 107.853 100.813 107.52 100.813Z" fill="#29ABE2"/>
<path d="M109.44 100.8C109.436 100.8 109.431 100.8 109.426 100.8C108.787 100.806 108.156 100.81 107.524 100.807C107.523 100.807 107.521 100.807 107.52 100.807C106.815 100.807 106.243 101.378 106.24 102.084C106.237 102.79 106.808 103.365 107.516 103.367C108.159 103.369 108.804 103.367 109.454 103.36C110.161 103.352 110.728 102.774 110.72 102.066C110.712 101.364 110.141 100.8 109.44 100.8Z" fill="#29ABE2"/>
<path d="M102.642 95.5429C102.232 95.5429 101.828 95.74 101.581 96.1048C101.184 96.6898 101.339 97.4859 101.924 97.8827L108.228 102.152L101.905 106.611C101.327 107.018 101.188 107.817 101.596 108.395C102.005 108.974 102.803 109.112 103.381 108.704L112.732 102.109L103.361 95.763C103.139 95.6133 102.89 95.5429 102.642 95.5429Z" fill="#29ABE2"/>
</svg>
