<svg width="20" height="31" viewBox="0 0 20 31" fill="none" xmlns="http://www.w3.org/2000/svg">
<g clip-path="url(#clip0_147_508)">
<path d="M9.9999 14.8493C12.8924 14.8493 15.2457 12.5699 15.2457 9.76811C15.2457 6.96636 12.8924 4.68701 9.9999 4.68701C7.1074 4.68701 4.75415 6.96636 4.75415 9.76811C4.75415 12.5699 7.1074 14.8493 9.9999 14.8493ZM9.9999 6.50318C11.8585 6.50318 13.3707 7.96786 13.3707 9.76811C13.3707 11.5684 11.8586 13.0331 9.9999 13.0331C8.14121 13.0331 6.62915 11.5684 6.62915 9.76811C6.62915 7.96786 8.14128 6.50318 9.9999 6.50318Z" fill="#AA2D36"/>
<path d="M4.28886 18.8986C5.7098 20.762 5.13892 20.0373 9.23173 25.6982C9.60373 26.2147 10.3948 26.2171 10.7689 25.6989C14.8802 20.0112 14.3145 20.7316 15.7124 18.8985C17.1283 17.0414 18.5925 15.1211 19.3949 12.8708C20.5562 9.61333 20.0542 6.39024 17.9815 3.7952C17.9815 3.7952 17.9815 3.79514 17.9814 3.79514C16.0828 1.41873 13.0993 0 10.0006 0C6.90192 0 3.91842 1.41873 2.01973 3.79526C-0.0529525 6.3903 -0.554953 9.61345 0.606422 12.8709C1.40867 15.1212 2.87292 17.0415 4.28886 18.8986ZM3.50261 4.90666C5.04873 2.97152 7.47792 1.81616 10.0006 1.81616C12.5233 1.81616 14.9525 2.97152 16.4986 4.90666L16.4985 4.9066C18.1714 7.00104 18.5705 9.61896 17.6225 12.2781C16.9139 14.2657 15.5363 16.0723 14.2041 17.8196C13.1669 19.1799 13.4773 18.7638 10.0006 23.5917C6.52755 18.7686 6.83405 19.1794 5.79711 17.8196C4.46492 16.0723 3.08736 14.2656 2.37867 12.2781C1.43067 9.6189 1.8298 7.00104 3.50261 4.90666Z" fill="#AA2D36"/>
<path d="M5.0583 22.8363C4.7818 22.4124 4.2028 22.2857 3.76505 22.5536L1.09942 24.1845C0.517922 24.5403 0.517359 25.3639 1.09942 25.72L9.49942 30.8597C9.80523 31.0469 10.195 31.0468 10.5007 30.8597L18.9007 25.72C19.4823 25.3642 19.4828 24.5407 18.9007 24.1845L16.2351 22.5536C15.7972 22.2857 15.2183 22.4124 14.9419 22.8363C14.6653 23.2603 14.796 23.8212 15.2338 24.089L16.6447 24.9523L10 29.0179L3.35548 24.9523L4.76636 24.089C5.20411 23.8212 5.3348 23.2604 5.0583 22.8363Z" fill="#AA2D36"/>
</g>
<defs>
<clipPath id="clip0_147_508">
<rect width="20" height="31" fill="white"/>
</clipPath>
</defs>
</svg>
