<svg width="569" height="520" viewBox="0 0 569 520" fill="none" xmlns="http://www.w3.org/2000/svg">
<g opacity="0.05" clip-path="url(#clip0_142_439)">
<path d="M305.752 502.358C312.715 447.23 328.597 406.987 359.794 372.894C371.294 359.652 382.098 345.821 392.161 331.457C394.624 329.097 396.15 325.926 396.458 322.528C396.766 319.131 395.834 315.736 393.834 312.972C392.494 311.425 390.841 310.18 388.984 309.32C387.127 308.459 385.109 308.003 383.062 307.981C381.016 307.958 378.988 308.371 377.112 309.191C375.237 310.011 373.557 311.219 372.183 312.737C359.461 322.779 347.624 333.935 334.926 344.002C291.242 378.622 276.432 377.314 231.936 343.506C215.103 330.726 197.262 294.651 178.609 313.176C157.169 334.471 193.988 352.533 207.157 369.539C235.884 406.637 256.227 445.865 260.484 500.254C193.581 452.211 146.25 397.83 128.645 321.707C120.358 285.843 129.059 253.457 160.532 232.226C174.805 221.633 191.991 215.689 209.758 215.202C227.525 214.715 245.011 219.709 259.842 229.504C277.374 240.554 287.578 246.486 307.572 231.032C337.526 207.892 386.052 212.109 413.568 235.273C443.587 260.534 451.053 292.749 439.712 330.23C418.11 401.665 373.776 455.095 305.752 502.358ZM318.011 308.983C318.003 304.797 317.143 300.656 315.485 296.813C313.827 292.969 311.404 289.503 308.364 286.625C305.325 283.747 301.732 281.517 297.804 280.071C293.876 278.625 289.695 277.993 285.515 278.214C263.287 278.214 250.264 291.864 250.995 314.459C250.862 318.928 251.691 323.372 253.425 327.492C255.16 331.612 257.76 335.31 261.049 338.337C264.339 341.364 268.24 343.648 272.489 345.035C276.738 346.421 281.236 346.878 285.677 346.374C305.102 345.814 318.044 333.935 318.011 309.024V308.983Z" fill="white"/>
<path d="M90.5751 21.4551C69.3466 169.744 69.3466 169.745 161.353 173.815C117.011 202.935 87.0167 237.385 80.6718 287.134C74.3674 336.616 99.0813 377.493 117.881 420.832C45.5754 380.361 12.7374 314.873 2.10287 237.003C-9.58783 151.431 26.9465 84.4482 90.5751 21.4551Z" fill="white"/>
<path d="M444.488 422.949C510.172 312.692 498.441 233.587 397.807 171.626C411.358 171.626 418.605 171.456 425.843 171.626C486.653 173.251 503.836 153.288 490.837 94.0648C486.044 72.2573 478.569 51.0022 475.661 28.3903C540.346 86.3703 576.636 155.864 561.712 245.206C548.876 322.012 514.226 384.818 444.488 422.949Z" fill="white"/>
<path d="M469.422 104.983C470.763 131.991 455.66 144.52 430.84 146.039C401.358 147.851 366.286 117.52 367.293 90.4398C368.341 62.4166 384.508 45.6548 412.715 43.8673C442.352 41.9986 468.813 71.5002 469.422 104.983Z" fill="white"/>
<path d="M95.4894 107.775C94.677 75.2257 120.447 43.7006 149.564 43.8387C177.861 43.9687 194.775 60.2918 197.943 87.7137C201.014 114.364 167.494 145.905 137.012 145.929C112.42 145.913 96.2368 134.676 95.4894 107.775Z" fill="white"/>
<path d="M318.012 309.03C318.012 333.941 305.103 345.82 285.662 346.405C281.224 346.905 276.73 346.446 272.485 345.058C268.24 343.671 264.343 341.387 261.056 338.363C257.77 335.338 255.172 331.643 253.438 327.527C251.703 323.411 250.873 318.971 251.004 314.506C250.273 291.911 263.296 278.22 285.523 278.261C289.703 278.042 293.883 278.674 297.81 280.121C301.737 281.567 305.329 283.798 308.368 286.675C311.406 289.553 313.828 293.019 315.486 296.862C317.144 300.705 318.003 304.845 318.012 309.03Z" fill="white"/>
</g>
<defs>
<clipPath id="clip0_142_439">
<rect width="569" height="520" fill="white"/>
</clipPath>
</defs>
</svg>
