<svg width="32" height="32" viewBox="0 0 32 32" fill="none" xmlns="http://www.w3.org/2000/svg">
<g clip-path="url(#clip0_142_233)">
<path d="M16 31.999C24.8365 31.999 31.9999 24.8355 31.9999 15.999C31.9999 7.16245 24.8365 -0.000976562 16 -0.000976562C7.16343 -0.000976562 0 7.16245 0 15.999C0 24.8355 7.16343 31.999 16 31.999Z" fill="#AA2D36"/>
<path d="M25.5598 17.2873V23.8837H21.7354V17.7293C21.7354 16.1841 21.1832 15.1288 19.7985 15.1288C18.7418 15.1288 18.114 15.8392 17.8368 16.5272C17.7361 16.773 17.7101 17.1144 17.7101 17.4592V23.8834H13.8854C13.8854 23.8834 13.9368 13.46 13.8854 12.381H17.7104V14.011C17.7027 14.0238 17.6919 14.0364 17.685 14.0486H17.7104V14.011C18.2187 13.2289 19.1251 12.1109 21.1572 12.1109C23.6734 12.1109 25.5598 13.7549 25.5598 17.2873ZM9.88442 6.83643C8.57614 6.83643 7.72021 7.69521 7.72021 8.82352C7.72021 9.92787 8.55133 10.8115 9.83422 10.8115H9.85904C11.193 10.8115 12.0224 9.92787 12.0224 8.82352C11.997 7.69521 11.193 6.83643 9.88442 6.83643ZM7.94753 23.8837H11.7708V12.381H7.94753V23.8837Z" fill="#F1F2F2"/>
</g>
<defs>
<clipPath id="clip0_142_233">
<rect width="31.9999" height="31.9999" fill="white"/>
</clipPath>
</defs>
</svg>
