<svg width="120" height="120" viewBox="0 0 120 120" fill="none" xmlns="http://www.w3.org/2000/svg">
<circle opacity="0.26" cx="60" cy="60" r="60" fill="#00B3FF"/>
<path d="M33.3102 56.4589V56.6089H33.4602H41.0752C42.8018 56.6089 44.2066 58.0139 44.2066 59.7402V74.6209C44.2066 76.0716 43.1988 77.2892 41.8467 77.6175L41.732 77.6453V77.7633V79.3489C41.732 80.1074 41.117 80.7223 40.3586 80.7223C39.6002 80.7223 38.9852 80.1074 38.9852 79.3489V77.8577V77.7077H38.8352H25.5214H25.3714V77.8577V79.3489C25.3714 80.1074 24.7564 80.7223 23.998 80.7223C23.2395 80.7223 22.6245 80.1074 22.6245 79.3489V77.7634V77.6455L22.5099 77.6177C21.1578 77.2894 20.15 76.0716 20.15 74.621V59.6958C20.15 57.9937 21.5348 56.6089 23.2367 56.6089H30.4133H30.5633V56.4589V49.5608V49.4108H30.4133H21.5234C20.5557 49.4108 19.8781 48.3833 20.2623 47.4932L20.2623 47.4932L26.0392 34.1069L26.0392 34.1069C26.2564 33.6036 26.7522 33.2776 27.3003 33.2776H36.573C37.1213 33.2776 37.6168 33.6035 37.8341 34.1069L43.611 47.4932L43.7487 47.4338L43.611 47.4932C43.9952 48.3833 43.3175 49.4108 42.3499 49.4108H33.4602H33.3102V49.5608V56.4589ZM28.3021 36.0247H28.2035L28.1644 36.1152L23.7024 46.4546L23.612 46.6641H23.8401H40.0331H40.2612L40.1708 46.4546L35.7088 36.1152L35.6697 36.0247H35.5711H28.3021ZM23.2367 74.9609H23.3867V74.9607H41.1199C41.3075 74.9607 41.4597 74.8083 41.4597 74.6207V59.7401C41.4597 59.5279 41.2874 59.3556 41.0752 59.3556H23.2367C23.0491 59.3556 22.8969 59.508 22.8969 59.6956V74.6209C22.8969 74.8084 23.0489 74.9609 23.2367 74.9609Z" fill="white" stroke="#BDEBFF" stroke-width="0.3"/>
<path d="M95.0538 54.2545V54.36L95.153 54.3957C96.724 54.9611 97.8501 56.4659 97.8501 58.2283V76.2647C97.8501 77.0233 97.2351 77.6381 96.4767 77.6381H93.7204H93.5704V77.7881V79.3489C93.5704 80.1075 92.9554 80.7223 92.197 80.7223C91.4386 80.7223 90.8236 80.1075 90.8236 79.3489V77.7881V77.6381H90.6736H56.1002H55.9502V77.7881V79.3489C55.9502 80.1075 55.3352 80.7223 54.5768 80.7223C53.8184 80.7223 53.2033 80.1075 53.2033 79.3489V77.7881V77.6381H53.0533H49.856C49.0975 77.6381 48.4825 77.0233 48.4825 76.2647V58.2283C48.4825 56.4659 49.6085 54.9611 51.1796 54.3957L51.2788 54.36V54.2545V42.3495C51.2788 39.4074 53.6727 37.0136 56.6147 37.0136H66.3015C67.0599 37.0136 67.6749 37.6285 67.6749 38.387C67.6749 39.1456 67.0599 39.7605 66.3015 39.7605H56.6147C55.187 39.7605 54.0257 40.9218 54.0257 42.3495V54.0062V54.1562H54.1757H57.7023H57.8523V54.0062V49.446C57.8523 47.1766 59.6989 45.33 61.9682 45.33H70.4236C71.4305 45.33 72.3533 45.6938 73.0696 46.2966L73.1662 46.3779L73.2628 46.2966C73.979 45.6939 74.902 45.33 75.9087 45.33H84.3643C86.6338 45.33 88.4803 47.1766 88.4803 49.446V54.0062V54.1562H88.6303H92.1569H92.3069V54.0062V42.3495C92.3069 40.9218 91.1457 39.7605 89.7179 39.7605H79.7865C79.0281 39.7605 78.413 39.1456 78.413 38.387C78.413 37.6285 79.0281 37.0136 79.7865 37.0136H89.7179C92.66 37.0136 95.0538 39.4074 95.0538 42.3495V54.2545ZM85.5833 54.1561H85.7333V54.0061V49.4458C85.7333 48.6908 85.1192 48.0768 84.3641 48.0768H75.9087C75.1537 48.0768 74.5397 48.6908 74.5397 49.4458V54.0061V54.1561H74.6897H85.5833ZM71.6428 54.1562H71.7928V54.0062V49.446C71.7928 48.691 71.1787 48.0769 70.4236 48.0769H61.9682C61.2132 48.0769 60.5991 48.6908 60.5991 49.446V54.0062V54.1562H60.7491H71.6428ZM94.9534 66.7858H95.1034V66.6358V58.2283C95.1034 57.4974 94.5091 56.9031 93.7782 56.9031H93.6804H52.6524H52.5546C51.8237 56.9031 51.2294 57.4974 51.2294 58.2283V66.6358V66.7858H51.3794H94.9534ZM94.9532 74.8913H95.1032V74.7413V69.6827V69.5327H94.9532H51.3794H51.2294V69.6827V74.7413V74.8913H51.3794H94.9532Z" fill="white" stroke="#BDEBFF" stroke-width="0.3"/>
<path d="M28.7337 66.6333L28.7337 66.6333C28.5125 66.0938 27.9461 65.7465 27.3645 65.7898L28.7337 66.6333ZM28.7337 66.6333L28.734 66.6341M28.7337 66.6333L28.734 66.6341M28.734 66.6341C28.9721 67.2055 28.7816 67.8938 28.2829 68.2607L28.2829 68.2607C27.2577 69.0153 25.8014 68.0214 26.1429 66.7927L26.1429 66.7927M28.734 66.6341L26.1429 66.7927M26.1429 66.7927C26.2966 66.2392 26.7914 65.8327 27.3644 65.7898L26.1429 66.7927Z" fill="white" stroke="#BDEBFF" stroke-width="0.3"/>
<path d="M72.4899 37.1932L72.4899 37.1932C71.8935 37.5308 71.6376 38.2783 71.8974 38.9129C72.3825 40.0761 74.1134 39.9876 74.4794 38.7851M72.4899 37.1932L74.4794 38.7851C74.4794 38.7851 74.4794 38.7851 74.4794 38.7851M72.4899 37.1932C73.5415 36.5979 74.8324 37.6252 74.4794 38.7851M72.4899 37.1932L74.4794 38.7851" fill="white" stroke="#BDEBFF" stroke-width="0.3"/>
</svg>
