<svg width="120" height="120" viewBox="0 0 120 120" fill="none" xmlns="http://www.w3.org/2000/svg">
<circle opacity="0.26" cx="60" cy="60" r="60" fill="#00B3FF"/>
<path d="M87.125 58.8751C86.9772 58.8751 86.8309 58.9041 86.6944 58.9607C86.5579 59.0172 86.4339 59.1 86.3294 59.2045C86.2249 59.309 86.1421 59.433 86.0856 59.5695C86.029 59.706 86 59.8524 86 60.0001C86.0003 66.1237 83.9191 72.0656 80.0978 76.8506C76.2766 81.6357 70.9423 84.9797 64.9703 86.334C58.9983 87.6883 52.7434 86.9725 47.2318 84.3038C41.7203 81.6352 37.2795 77.1724 34.6383 71.6477C31.997 66.123 31.3121 59.8645 32.696 53.8994C34.0799 47.9342 37.4503 42.6165 42.2542 38.819C47.0582 35.0216 53.0103 32.9698 59.1338 33.0004C65.2573 33.0311 71.1886 35.1423 75.9543 38.9876H71.2102C70.9118 38.9876 70.6257 39.1062 70.4147 39.3171C70.2037 39.5281 70.0852 39.8143 70.0852 40.1126C70.0852 40.411 70.2037 40.6972 70.4147 40.9081C70.6257 41.1191 70.9118 41.2376 71.2102 41.2376H78.8875C79.1855 41.2365 79.4709 41.1176 79.6817 40.9069C79.8924 40.6961 80.0113 40.4107 80.0125 40.1126V32.4354C80.0125 32.137 79.8939 31.8509 79.6829 31.6399C79.472 31.4289 79.1858 31.3104 78.8875 31.3104C78.5891 31.3104 78.3029 31.4289 78.092 31.6399C77.881 31.8509 77.7625 32.137 77.7625 32.4354V37.5649C71.9846 32.7326 64.5653 30.3157 57.0498 30.8175C49.5343 31.3193 42.5021 34.7011 37.418 40.2586C32.3338 45.8162 29.5897 53.1208 29.7572 60.6512C29.9247 68.1816 32.9909 75.357 38.3171 80.683C42.4078 84.7736 47.6197 87.5594 53.2936 88.688C58.9676 89.8167 64.8487 89.2374 70.1935 87.0236C75.5382 84.8097 80.1064 81.0606 83.3205 76.2505C86.5345 71.4404 88.25 65.7852 88.25 60.0001C88.25 59.8524 88.221 59.706 88.1644 59.5695C88.1079 59.433 88.0251 59.309 87.9206 59.2045C87.8161 59.1 87.6921 59.0172 87.5556 58.9607C87.4191 58.9041 87.2727 58.8751 87.125 58.8751Z" fill="white"/>
<path d="M65.2144 51.9262L59.4818 67.6762C59.4308 67.8151 59.4078 67.9626 59.414 68.1104C59.4202 68.2583 59.4554 68.4034 59.5178 68.5375C59.5802 68.6717 59.6684 68.7922 59.7774 68.8922C59.8864 68.9922 60.0141 69.0697 60.1531 69.1203C60.2921 69.1709 60.4398 69.1935 60.5876 69.187C60.7354 69.1804 60.8804 69.1447 61.0144 69.082C61.1484 69.0193 61.2687 68.9308 61.3684 68.8215C61.4681 68.7123 61.5453 68.5844 61.5955 68.4452L67.3282 52.6952C67.4302 52.4149 67.4166 52.1056 67.2905 51.8353C67.1644 51.565 66.9361 51.3558 66.6558 51.2538C66.3755 51.1518 66.0662 51.1654 65.7959 51.2915C65.5255 51.4176 65.3164 51.6459 65.2144 51.9262Z" fill="white"/>
<path d="M49.5056 57.9656C49.5071 57.4198 49.4003 56.8792 49.1914 56.3749C48.9826 55.8707 48.6758 55.4128 48.2889 55.0279C46.7189 53.4569 43.9833 53.4569 42.4134 55.0279C42.0263 55.4127 41.7193 55.8705 41.5104 56.3748C41.3014 56.8791 41.1946 57.4198 41.1961 57.9656C41.1961 58.264 41.3146 58.5502 41.5256 58.7611C41.7366 58.9721 42.0227 59.0906 42.3211 59.0906C42.6195 59.0906 42.9056 58.9721 43.1166 58.7611C43.3276 58.5502 43.4461 58.264 43.4461 57.9656C43.4455 57.7154 43.4945 57.4675 43.5903 57.2363C43.6861 57.0051 43.8268 56.7952 44.0042 56.6187C44.3668 56.2718 44.8493 56.0782 45.3511 56.0782C45.853 56.0782 46.3354 56.2718 46.6981 56.6187C47.0551 56.9758 47.2556 57.4601 47.2556 57.9651C47.2556 58.4701 47.0551 58.9543 46.6981 59.3115L41.5257 64.4838C41.3683 64.6411 41.2612 64.8416 41.2178 65.0598C41.1743 65.278 41.1966 65.5042 41.2817 65.7098C41.3669 65.9154 41.5111 66.0911 41.6961 66.2147C41.8811 66.3383 42.0986 66.4043 42.3211 66.4042H48.3806C48.679 66.4042 48.9651 66.2857 49.1761 66.0747C49.3871 65.8638 49.5056 65.5776 49.5056 65.2792C49.5056 64.9809 49.3871 64.6947 49.1761 64.4837C48.9651 64.2728 48.679 64.1542 48.3806 64.1542H45.0369L48.2889 60.9023C48.6758 60.5176 48.9826 60.0599 49.1914 59.5559C49.4003 59.0518 49.5071 58.5113 49.5056 57.9656Z" fill="white"/>
<path d="M55.9189 66.4041C56.0667 66.4042 56.213 66.3751 56.3495 66.3186C56.486 66.262 56.61 66.1792 56.7145 66.0747C56.819 65.9702 56.9018 65.8462 56.9583 65.7097C57.0149 65.5732 57.0439 65.4269 57.0439 65.2791V63.6015H57.6245C57.9229 63.6015 58.2091 63.4829 58.42 63.272C58.631 63.061 58.7495 62.7748 58.7495 62.4765C58.7495 62.1781 58.631 61.892 58.42 61.681C58.2091 61.47 57.9229 61.3515 57.6245 61.3515H57.0439V54.9355C57.0438 54.6933 56.9656 54.4577 56.8209 54.2635C56.6762 54.0693 56.4728 53.927 56.2408 53.8577C56.0088 53.7883 55.7606 53.7957 55.5331 53.8786C55.3056 53.9615 55.1109 54.1156 54.9779 54.318L50.033 61.859C49.9217 62.0288 49.8583 62.2254 49.8496 62.4282C49.841 62.631 49.8873 62.8323 49.9838 63.0109C50.0802 63.1895 50.2232 63.3387 50.3975 63.4426C50.5718 63.5466 50.771 63.6015 50.974 63.6015H54.7939V65.2791C54.7939 65.4269 54.8229 65.5732 54.8795 65.7097C54.936 65.8462 55.0189 65.9702 55.1233 66.0747C55.2278 66.1792 55.3518 66.262 55.4883 66.3186C55.6249 66.3751 55.7712 66.4042 55.9189 66.4041ZM53.057 61.3515L54.7939 58.7027V61.3515H53.057Z" fill="white"/>
<path d="M71.2278 65.2793C71.2278 65.5776 71.3463 65.8638 71.5573 66.0748C71.7683 66.2857 72.0544 66.4043 72.3528 66.4043C72.6511 66.4043 72.9373 66.2857 73.1483 66.0748C73.3592 65.8638 73.4778 65.5776 73.4778 65.2793V62.9633C73.4743 61.6196 73.7372 60.2885 74.2515 59.0471C74.7657 57.8057 75.5211 56.6786 76.4737 55.731C76.6311 55.5736 76.7382 55.3732 76.7817 55.155C76.8251 54.9368 76.8028 54.7106 76.7177 54.505C76.6325 54.2994 76.4883 54.1237 76.3033 54.0001C76.1183 53.8765 75.9008 53.8105 75.6783 53.8105H69.0278C68.7294 53.8105 68.4432 53.9291 68.2323 54.1401C68.0213 54.351 67.9028 54.6372 67.9028 54.9355C67.9028 55.2339 68.0213 55.5201 68.2323 55.731C68.4432 55.942 68.7294 56.0605 69.0278 56.0605H73.3064C71.9447 58.1046 71.2212 60.5072 71.2278 62.9633V65.2793Z" fill="white"/>
</svg>
