<svg width="120" height="120" viewBox="0 0 120 120" fill="none" xmlns="http://www.w3.org/2000/svg">
<circle opacity="0.26" cx="60" cy="60" r="60" fill="#00B3FF"/>
<path d="M59 63.6845C58.8009 63.6844 58.6067 63.6233 58.4435 63.5094C57.6923 62.9859 40.0543 50.5328 40.0543 37.3578C40.0087 34.3817 41.1453 31.509 43.2148 29.3696C45.2842 27.2303 48.1176 25.999 51.0936 25.9458C52.5788 25.9467 54.0479 26.2545 55.4084 26.8501C56.769 27.4457 57.9918 28.3161 59 29.4067C60.0082 28.3161 61.231 27.4457 62.5916 26.8501C63.9522 26.2545 65.4212 25.9467 66.9064 25.9458C69.8819 25.9998 72.7145 27.2314 74.7834 29.3707C76.8522 31.5099 77.9884 34.3822 77.9428 37.3578C77.9428 50.5328 60.3077 62.9859 59.5536 63.5094C59.3912 63.6227 59.1981 63.6838 59 63.6845ZM51.0936 27.8917C48.6341 27.9454 46.2962 28.9719 44.5923 30.7463C42.8883 32.5206 41.9572 34.8982 42.0031 37.3578C42.0031 48.2736 56.0081 59.2808 59 61.508C61.9919 59.2808 75.9969 48.2755 75.9969 37.3578C76.0428 34.8982 75.1117 32.5206 73.4078 30.7463C71.7038 28.9719 69.3659 27.9454 66.9064 27.8917C65.5192 27.8971 64.1524 28.2264 62.9149 28.8532C61.6774 29.4801 60.6034 30.3872 59.7784 31.5024C59.6838 31.6164 59.5653 31.708 59.4312 31.7709C59.2972 31.8338 59.151 31.8665 59.0029 31.8665C58.8549 31.8665 58.7086 31.8338 58.5746 31.7709C58.4406 31.708 58.3221 31.6164 58.2275 31.5024C57.4019 30.3864 56.3269 29.4788 55.0883 28.8519C53.8497 28.225 52.4818 27.8962 51.0936 27.8917Z" fill="white"/>
<path d="M59 94.0541C58.742 94.0541 58.4945 93.9516 58.312 93.7692C58.1295 93.5867 58.027 93.3392 58.027 93.0812V62.7117C58.027 62.4537 58.1295 62.2062 58.312 62.0237C58.4945 61.8413 58.742 61.7388 59 61.7388C59.2581 61.7388 59.5055 61.8413 59.688 62.0237C59.8705 62.2062 59.973 62.4537 59.973 62.7117V93.0812C59.973 93.3392 59.8705 93.5867 59.688 93.7692C59.5055 93.9516 59.2581 94.0541 59 94.0541Z" fill="white"/>
<path d="M59.7609 77.7277C59.517 77.7277 59.2715 77.7213 59.0243 77.7083C58.7841 77.6956 58.5572 77.5944 58.3872 77.4243C58.2172 77.2541 58.1163 77.0271 58.1039 76.7869C57.9824 75.0331 58.2355 73.2736 58.8465 71.6252C59.4574 69.9768 60.4123 68.4773 61.6475 67.2264C62.8993 65.9926 64.3989 65.0387 66.0471 64.428C67.6952 63.8173 69.4543 63.5636 71.2079 63.6838C71.4479 63.6965 71.6748 63.7975 71.8447 63.9675C72.0147 64.1374 72.1157 64.3643 72.1283 64.6043C72.2573 66.2966 72.0317 67.9972 71.466 69.5974C70.9002 71.1975 70.0068 72.662 68.8428 73.8972C67.6787 75.1324 66.2698 76.1111 64.7059 76.7706C63.1421 77.4302 61.4579 77.7562 59.7609 77.7277ZM70.1989 65.6133C67.5095 65.6392 64.9358 66.7112 63.0232 68.6022C61.1321 70.5148 60.0598 73.0884 60.0333 75.7779C62.7256 75.7661 65.3043 74.6915 67.2081 72.7878C69.112 70.8841 70.1869 68.3055 70.1989 65.6133Z" fill="white"/>
<path d="M58.0864 84.2395C56.0381 84.2744 54.005 83.8814 52.1174 83.0855C50.2297 82.2897 48.5289 81.1085 47.1239 79.6176C45.7189 78.1267 44.6407 76.3589 43.9581 74.4274C43.2755 72.4958 43.0037 70.4431 43.16 68.4004C43.1726 68.1604 43.2737 67.9336 43.4436 67.7636C43.6136 67.5937 43.8404 67.4927 44.0804 67.48C46.1985 67.3188 48.3263 67.6173 50.3182 68.355C52.3101 69.0928 54.1191 70.2524 55.6211 71.7543C57.1231 73.2563 58.2828 75.0651 59.0207 77.057C59.7585 79.0489 60.0572 81.1767 59.8961 83.2947C59.8835 83.5347 59.7824 83.7616 59.6125 83.9315C59.4425 84.1015 59.2157 84.2025 58.9757 84.2152C58.677 84.2268 58.3802 84.2395 58.0864 84.2395ZM45.0865 69.4026C45.0661 71.1007 45.3855 72.7856 46.0258 74.3584C46.6662 75.9313 47.6145 77.3602 48.8151 78.5611C50.0157 79.7621 51.4444 80.7109 53.017 81.3517C54.5896 81.9925 56.2745 82.3124 57.9725 82.2926C57.9941 80.5942 57.6755 78.9087 57.0356 77.3353C56.3957 75.7619 55.4474 74.3326 54.2466 73.1313C53.0457 71.9301 51.6166 70.9814 50.0435 70.341C48.4703 69.7006 46.7849 69.3816 45.0865 69.4026Z" fill="white"/>
</svg>
