<svg width="120" height="120" viewBox="0 0 120 120" fill="none" xmlns="http://www.w3.org/2000/svg">
<circle opacity="0.26" cx="60" cy="60" r="60" fill="#00B3FF"/>
<path d="M39.1861 44.1408C40.2719 44.1409 41.3333 43.8189 42.2362 43.2157C43.139 42.6125 43.8427 41.7551 44.2582 40.752C44.6738 39.7489 44.7825 38.645 44.5707 37.5801C44.3589 36.5151 43.836 35.5369 43.0682 34.7691C42.3004 34.0013 41.3222 33.4785 40.2573 33.2667C39.1923 33.0549 38.0885 33.1636 37.0854 33.5791C36.0822 33.9947 35.2248 34.6984 34.6216 35.6012C34.0184 36.504 33.6965 37.5655 33.6965 38.6513C33.6982 40.1067 34.2771 41.502 35.3062 42.5312C36.3353 43.5603 37.7307 44.1392 39.1861 44.1408V44.1408ZM39.1861 35.3177C39.8454 35.3177 40.4899 35.5131 41.0382 35.8794C41.5864 36.2457 42.0137 36.7663 42.2661 37.3754C42.5184 37.9845 42.5845 38.6548 42.4559 39.3015C42.3273 39.9481 42.0098 40.5421 41.5436 41.0084C41.0774 41.4746 40.4834 41.7921 39.8368 41.9208C39.1901 42.0494 38.5199 41.9834 37.9107 41.7311C37.3016 41.4788 36.7809 41.0515 36.4146 40.5033C36.0483 39.9551 35.8528 39.3106 35.8528 38.6513C35.8537 37.7675 36.2052 36.9202 36.8301 36.2952C37.455 35.6703 38.3023 35.3187 39.1861 35.3177Z" fill="white"/>
<path d="M72.7322 50.6268C73.7607 50.6269 74.7662 50.3219 75.6214 49.7506C76.4767 49.1792 77.1433 48.3671 77.537 47.4169C77.9307 46.4667 78.0338 45.4211 77.8333 44.4123C77.6327 43.4035 77.1376 42.4768 76.4104 41.7494C75.6832 41.022 74.7567 40.5265 73.748 40.3257C72.7392 40.1249 71.6936 40.2276 70.7433 40.621C69.793 41.0145 68.9806 41.6808 68.409 42.5359C67.8374 43.3909 67.5321 44.3963 67.5319 45.4248C67.533 46.8039 68.0812 48.1261 69.0562 49.1014C70.0311 50.0766 71.3532 50.6252 72.7322 50.6268ZM72.7322 42.3821C73.3343 42.382 73.923 42.5605 74.4237 42.8949C74.9244 43.2294 75.3147 43.7048 75.5452 44.2611C75.7757 44.8174 75.8361 45.4296 75.7186 46.0202C75.6012 46.6107 75.3113 47.1532 74.8855 47.5791C74.4597 48.0049 73.9173 48.2948 73.3267 48.4123C72.7361 48.5298 72.124 48.4695 71.5676 48.2391C71.0113 48.0086 70.5359 47.6184 70.2014 47.1177C69.8668 46.617 69.6883 46.0283 69.6884 45.4262C69.6893 44.6192 70.0103 43.8455 70.5809 43.2748C71.1515 42.7042 71.9252 42.3831 72.7322 42.3821V42.3821Z" fill="white"/>
<path d="M92.7922 82.4555L89.001 70.5632C88.737 69.7278 88.2133 68.9985 87.506 68.4815C86.7987 67.9646 85.9449 67.6869 85.0688 67.6889H75.757V63.8101L82.0503 66.8289C83.0372 67.3026 84.1718 67.3648 85.2046 67.0019C86.2374 66.6391 87.0837 65.8808 87.5574 64.8939C88.0311 63.907 88.0933 62.7724 87.7304 61.7396C87.3676 60.7069 86.6093 59.8605 85.6224 59.3868C85.5057 59.3305 73.5528 53.5919 73.3477 53.4995C72.719 53.2126 72.0284 53.088 71.3391 53.1371C70.6498 53.1862 69.9838 53.4074 69.4022 53.7806C68.8205 54.1537 68.3418 54.6668 68.0098 55.2729C67.6778 55.879 67.5031 56.5587 67.5018 57.2497V71.8152C67.5026 72.9097 67.9376 73.9592 68.7114 74.7333C69.4851 75.5074 70.5344 75.9429 71.6289 75.9441H82.0519L84.9265 84.9627C85.0911 85.4791 85.3558 85.9581 85.7055 86.3722C86.0552 86.7864 86.483 87.1276 86.9646 87.3764C87.4461 87.6252 87.972 87.7768 88.5121 87.8223C89.0523 87.8679 89.5961 87.8067 90.1125 87.6421C90.629 87.4775 91.108 87.2128 91.5221 86.8631C91.9363 86.5134 92.2775 86.0855 92.5263 85.604C92.7751 85.1224 92.9266 84.5965 92.9722 84.0564C93.0178 83.5163 92.9565 82.9725 92.7919 82.456L92.7922 82.4555ZM88.8587 85.6812C88.4401 85.682 88.0323 85.549 87.6945 85.3018C87.3568 85.0545 87.1069 84.7059 86.9811 84.3066L83.8675 74.5377C83.7979 74.3202 83.6611 74.1303 83.4767 73.9955C83.2923 73.8608 83.0698 73.7881 82.8414 73.7879H71.6289C71.1063 73.7873 70.6053 73.5793 70.2357 73.2098C69.8662 72.8402 69.6584 72.3392 69.6578 71.8165V57.2511C69.6587 56.9214 69.7421 56.5972 69.9006 56.3081C70.059 56.0191 70.2873 55.7743 70.5647 55.5961C70.8421 55.418 71.1597 55.3122 71.4885 55.2885C71.8173 55.2647 72.1468 55.3237 72.4469 55.46C72.7518 55.6018 84.5758 61.2771 84.6885 61.3318C84.9219 61.4438 85.1309 61.6006 85.3037 61.7934C85.4764 61.9862 85.6095 62.2111 85.6953 62.4553C85.7812 62.6995 85.8181 62.9583 85.8039 63.2167C85.7898 63.4752 85.7248 63.7283 85.6128 63.9617C85.5009 64.1951 85.344 64.4041 85.1512 64.5769C84.9584 64.7497 84.7335 64.8828 84.4893 64.9686C83.9961 65.1419 83.4542 65.1123 82.9829 64.8861L75.1449 61.1248C74.9806 61.0459 74.7989 61.0101 74.6169 61.0205C74.4349 61.0309 74.2586 61.0873 74.1043 61.1845C73.95 61.2816 73.8229 61.4162 73.7348 61.5758C73.6467 61.7354 73.6005 61.9147 73.6005 62.097V68.7671C73.6005 69.053 73.7141 69.3272 73.9163 69.5294C74.1185 69.7316 74.3927 69.8452 74.6786 69.8452H85.0685C85.4869 69.8442 85.8947 69.9768 86.2325 70.2237C86.5702 70.4706 86.8203 70.8189 86.9463 71.2179L90.7386 83.1102C90.8328 83.4059 90.8558 83.7196 90.8059 84.0259C90.756 84.3322 90.6345 84.6224 90.4513 84.8729C90.2681 85.1234 90.0284 85.3272 89.7517 85.4676C89.475 85.6081 89.169 85.6813 88.8587 85.6812V85.6812Z" fill="white"/>
<path d="M80.2068 79.7047C79.1345 81.0009 77.7928 82.0482 76.275 82.7738C74.7572 83.4993 73.0997 83.8857 71.4175 83.9062C69.7353 83.9267 68.0688 83.5807 66.5338 82.8922C64.9988 82.2038 63.6321 81.1895 62.5286 79.9197C61.425 78.6499 60.6112 77.1551 60.1435 75.5391C59.6758 73.9231 59.5656 72.2247 59.8204 70.5618C60.0752 68.8989 60.6889 67.3114 61.619 65.9096C62.5491 64.5078 63.7732 63.3253 65.2063 62.4442C65.3627 62.3477 65.4918 62.2129 65.5814 62.0525C65.671 61.8921 65.7182 61.7115 65.7184 61.5278V56.9247C65.7184 56.6388 65.6048 56.3645 65.4026 56.1624C65.2004 55.9602 64.9262 55.8466 64.6403 55.8466H52.9696L41.2258 47.4445C38.4979 45.4877 34.5414 47.3798 34.5414 50.8794V65.474L26.4539 81.7299C26.2067 82.2266 26.0598 82.7672 26.0215 83.3206C25.9833 83.8741 26.0544 84.4297 26.2308 84.9557C26.4073 85.4817 26.6856 85.9678 27.0499 86.3862C27.4142 86.8047 27.8574 87.1472 28.3541 87.3944C28.8508 87.6416 29.3913 87.7885 29.9448 87.8268C30.4983 87.865 31.0539 87.7939 31.5799 87.6175C32.1059 87.441 32.5919 87.1627 33.0104 86.7984C33.4288 86.4341 33.7714 85.9909 34.0186 85.4942L39.2076 75.0663L46.0407 85.8702C46.3373 86.3392 46.7233 86.7452 47.1767 87.065C47.6302 87.3848 48.1422 87.6122 48.6835 87.7341C49.2248 87.856 49.7848 87.8702 50.3316 87.7757C50.8784 87.6812 51.4012 87.4799 51.8701 87.1834C52.3391 86.8868 52.7451 86.5008 53.0649 86.0474C53.3847 85.5939 53.6121 85.0819 53.734 84.5406C53.856 83.9993 53.8701 83.4393 53.7756 82.8925C53.6811 82.3457 53.4798 81.8229 53.1833 81.3539L42.9923 65.2438V59.0985L48.5393 63.0681C51.9777 65.5281 56.5274 61.9339 54.8902 58.0034H63.5624V60.9413C61.9321 62.0463 60.5582 63.4888 59.5339 65.1711C58.5096 66.8533 57.8587 68.7361 57.6255 70.6918C57.3922 72.6475 57.5819 74.6305 58.1817 76.5065C58.7816 78.3825 59.7776 80.1077 61.1023 81.5652C62.427 83.0228 64.0494 84.1786 65.8597 84.9545C67.67 85.7304 69.6259 86.1082 71.595 86.0623C73.564 86.0164 75.5002 85.548 77.2724 84.6886C79.0446 83.8292 80.6114 82.5991 81.8668 81.0814C81.9621 80.9731 82.0347 80.8467 82.0802 80.7098C82.1258 80.5729 82.1434 80.4283 82.132 80.2844C82.1207 80.1406 82.0805 80.0005 82.014 79.8725C81.9475 79.7444 81.856 79.631 81.7449 79.539C81.6337 79.447 81.5053 79.3782 81.3671 79.3368C81.2289 79.2953 81.0838 79.282 80.9403 79.2977C80.7969 79.3133 80.6581 79.3576 80.5321 79.4279C80.4061 79.4981 80.2954 79.593 80.2068 79.7068V79.7047ZM52.6809 60.8356C52.3613 61.2813 51.8778 61.582 51.3368 61.6717C50.7957 61.7614 50.2411 61.6327 49.7948 61.314L42.5417 56.1239C42.3805 56.0086 42.1907 55.9399 41.993 55.9254C41.7954 55.9109 41.5975 55.9512 41.4213 56.0418C41.245 56.1324 41.0972 56.2698 40.9939 56.439C40.8907 56.6082 40.8361 56.8025 40.8361 57.0007V65.5551C40.8361 65.7592 40.894 65.9591 41.0029 66.1316L51.3602 82.5067C51.6469 82.9703 51.7391 83.5283 51.6166 84.0594C51.4942 84.5906 51.167 85.0519 50.7062 85.3432C50.2455 85.6344 49.6884 85.732 49.1561 85.6147C48.6238 85.4974 48.1593 85.1748 47.8636 84.7169L40.0065 72.2955C39.9094 72.1419 39.7751 72.0154 39.616 71.9276C39.4569 71.8398 39.2782 71.7936 39.0965 71.7934C39.0782 71.7934 39.0596 71.7934 39.0426 71.7934C38.8516 71.8032 38.6667 71.8635 38.5067 71.9684C38.3468 72.0732 38.2176 72.2187 38.1324 72.3899L32.0887 84.5336C31.9693 84.7795 31.8023 84.9992 31.5975 85.1802C31.3927 85.3611 31.154 85.4997 30.8953 85.5879C30.6365 85.6761 30.3629 85.7121 30.0902 85.6939C29.8175 85.6757 29.5511 85.6036 29.3063 85.4819C29.0616 85.3601 28.8435 85.1911 28.6645 84.9845C28.4855 84.7779 28.3492 84.5379 28.2635 84.2784C28.1779 84.0188 28.1445 83.7449 28.1653 83.4723C28.1861 83.1998 28.2607 82.9341 28.3848 82.6905L36.5866 66.2074C36.6609 66.0582 36.6995 65.8939 36.6996 65.7273V50.8794C36.7008 50.4997 36.8063 50.1276 37.0047 49.8039C37.203 49.4801 37.4865 49.217 37.8242 49.0434C38.1619 48.8698 38.5408 48.7924 38.9195 48.8195C39.2982 48.8466 39.6622 48.9773 39.9717 49.1972L52.2025 57.9495C52.6481 58.2692 52.9488 58.7525 53.0384 59.2936C53.1281 59.8347 52.9995 60.3892 52.6809 60.8356V60.8356Z" fill="white"/>
</svg>
