<svg width="120" height="120" viewBox="0 0 120 120" fill="none" xmlns="http://www.w3.org/2000/svg">
<circle opacity="0.26" cx="60" cy="60" r="60" fill="#00B3FF"/>
<path d="M34.8319 67.6219L34.8392 67.6146L36.7021 65.7518C37.281 65.1729 38.0415 64.8836 38.8002 64.8832M34.8319 67.6219L38.8017 65.3832M34.8319 67.6219L34.8249 67.6296C32.1712 70.5128 36.1418 74.4809 39.0234 71.828L39.031 71.821L39.0383 71.8137L40.9003 69.9517M34.8319 67.6219L40.9003 69.9517M38.8002 64.8832C38.8007 64.8832 38.8012 64.8832 38.8017 64.8832V65.3832M38.8002 64.8832C38.7996 64.8832 38.799 64.8832 38.7984 64.8832L38.8017 65.3832M38.8002 64.8832C41.414 64.8673 42.7723 68.0876 40.9009 69.9511L40.9011 69.9509L40.5476 69.5973M38.8017 65.3832C40.9704 65.3688 42.1023 68.05 40.5476 69.5973M40.5476 69.5973L40.9003 69.9517M40.5476 69.5973L40.9003 69.9517M41.1103 75.2005L40.7568 74.8469L42.6206 72.9832L42.6208 72.9831C43.1805 72.4238 43.927 72.1147 44.7183 72.1145L41.1103 75.2005ZM41.1103 75.2005L40.7568 74.8469M41.1103 75.2005L40.7568 74.8469M52.2316 45.8733L56.1968 49.8385L56.1968 49.8385C59.3452 52.9871 64.1989 53.4217 67.8176 51.139L68.1554 50.9259L68.4379 51.2083L81.5841 64.3547L81.5842 64.3548C82.7404 65.5115 82.7416 67.3918 81.5874 68.5501C80.472 69.708 78.4966 69.7084 77.3811 68.5503L68.0364 59.2056L65.6606 61.5814L75.0088 70.9296L75.0089 70.9296C76.1667 72.0877 76.1667 73.9705 75.0089 75.1286L52.2316 45.8733ZM52.2316 45.8733L57.2677 40.8371L57.6015 40.5034L57.2875 40.151C51.3118 33.4435 40.7987 33.0125 34.4288 39.4256C28.0236 45.7882 28.4423 56.2871 35.1351 62.2656L35.403 62.5048L35.7152 62.3274C40.0254 59.8776 45.4934 63.3102 45.1116 68.2788L45.0745 68.7621L45.5564 68.8142C48.4384 69.1255 50.8964 71.7517 51.0278 74.6365L51.05 75.1243L51.5381 75.1137C54.2464 75.0546 56.962 77.1006 57.6176 79.7792L57.7383 80.2726L58.2298 80.1441C60.3042 79.6016 62.5982 80.1253 64.2389 81.7115L64.5927 82.0535L64.6184 82.0277M52.2316 45.8733L64.6184 82.0277M64.6184 82.0277C65.7771 82.8492 67.3965 82.7412 68.434 81.7037C69.5921 80.5456 69.5921 78.6625 68.434 77.5044L59.0858 68.1562L61.4615 65.7804L70.8097 75.1287C71.9677 76.2867 73.8507 76.2871 75.0089 75.1286L64.6184 82.0277ZM40.7568 74.8469C40.1979 75.4058 39.8883 76.1511 39.887 76.9415M40.7568 74.8469L39.887 76.9415M39.887 76.9415C39.8568 78.5478 41.2518 79.9435 42.8573 79.9158C43.7996 79.9278 44.6132 79.4595 45.1856 78.8164L46.818 77.184C46.8182 77.1838 46.8184 77.1836 46.8186 77.1834C48.6835 75.3242 47.3515 72.1106 44.7191 72.1145L39.887 76.9415ZM87.9398 37.0488L87.9408 37.0498C95.3529 44.462 95.3529 56.5239 87.9405 63.9362L85.9572 65.9193L85.8012 66.0753L85.8112 66.2957C85.9665 69.6946 83.0576 72.7237 79.7216 72.7743L79.2367 72.7817L79.2292 73.2666C79.1798 76.4804 76.3615 79.2996 73.1468 79.3492L72.6619 79.3567L72.6545 79.8415C72.606 83.0236 69.8336 85.8336 66.6497 85.9223L66.1797 85.9354L66.1639 86.4053C66.0749 89.047 64.8443 90.2533 63.0274 92.0344C62.8425 92.2157 62.6515 92.403 62.4549 92.5983L62.4526 92.6006C59.0465 96.031 53.1024 94.4357 51.8677 89.7763L51.7385 89.2886L51.252 89.4222C47.4921 90.4548 43.5604 87.6489 43.3414 83.7442L43.3145 83.2641L42.8338 83.2722C39.2676 83.3325 36.2362 80.067 36.5461 76.5243L36.5882 76.0433L36.109 75.9844C30.9243 75.3471 28.7347 68.7961 32.5477 65.1544L32.9307 64.7886L32.5434 64.4272C24.7006 57.1109 24.4433 44.628 32.052 37.0507L32.0538 37.049C39.7041 29.3552 52.3372 29.7345 59.6271 37.7374L59.9968 38.1432L60.3664 37.7374C67.6558 29.7342 80.2894 29.3553 87.9398 37.0488ZM53.6129 79.3398L53.6122 79.3391C52.3229 78.0548 50.3138 78.2459 49.18 79.5734L47.5542 81.1993C46.3964 82.3147 46.3965 84.2901 47.5544 85.4053C48.7127 86.56 50.5931 86.5591 51.7499 85.4019C51.7499 85.4018 51.7499 85.4018 51.7499 85.4018L53.6128 83.5389L53.6129 83.5388C54.7707 82.3806 54.7708 80.4979 53.6129 79.3398ZM85.565 61.5604L85.5723 61.5531L85.5793 61.5455C99.6342 46.2817 78.7201 25.3525 63.4454 39.4113L63.4378 39.4183L63.4305 39.4256L57.3364 45.5197L56.9828 45.8733L57.3364 46.2268L58.5723 47.4627L58.9258 47.1091L58.5723 47.4627C60.9151 49.8054 64.7254 49.8051 67.0677 47.4627L68.2557 46.2749L83.9596 61.9789C84.0341 62.0534 84.1066 62.1295 84.1769 62.207L84.5296 62.5956L84.9007 62.2246L85.565 61.5604ZM60.0783 90.2236L61.9377 88.3642C63.0956 87.2487 63.0953 85.2733 61.9374 84.158C60.7791 83.0036 58.8986 83.0048 57.7418 84.1617L55.8827 86.021C54.7243 87.1365 54.725 89.1119 55.8826 90.2272C56.4423 90.785 57.1881 91.0934 57.9787 91.0934C58.7709 91.0934 59.5182 90.7837 60.0783 90.2236Z" fill="white" stroke="#BDEBFF"/>
</svg>
