<svg width="120" height="120" viewBox="0 0 120 120" fill="none" xmlns="http://www.w3.org/2000/svg">
<circle opacity="0.26" cx="60" cy="60" r="60" fill="#00B3FF"/>
<path d="M93.0918 83.2755H85.2C84.942 83.2755 84.6945 83.173 84.512 82.9906C84.3296 82.8081 84.2271 82.5606 84.2271 82.3026C84.2271 82.0445 84.3296 81.797 84.512 81.6146C84.6945 81.4321 84.942 81.3296 85.2 81.3296H93.0947C93.3528 81.3296 93.6003 81.4321 93.7827 81.6146C93.9652 81.797 94.0677 82.0445 94.0677 82.3026C94.0677 82.5606 93.9652 82.8081 93.7827 82.9906C93.6003 83.173 93.3528 83.2755 93.0947 83.2755H93.0918Z" fill="white"/>
<path d="M45.7538 90.309C41.8382 90.309 38.0106 89.148 34.7548 86.9726C31.4991 84.7973 28.9616 81.7055 27.463 78.088C25.9645 74.4706 25.5722 70.49 26.3359 66.6496C27.0996 62.8093 28.9849 59.2816 31.7534 56.5126C34.5219 53.7437 38.0493 51.8579 41.8896 51.0937C45.7298 50.3294 49.7105 50.7211 53.3281 52.2191C56.9458 53.7171 60.038 56.2542 62.2138 59.5096C64.3896 62.765 65.5512 66.5925 65.5518 70.508C65.5467 75.7575 63.4592 80.7905 59.7476 84.5027C56.0359 88.2149 51.0032 90.3031 45.7538 90.309ZM45.7538 52.6598C42.2228 52.6598 38.7711 53.7069 35.8352 55.6687C32.8994 57.6305 30.6113 60.4188 29.2602 63.6811C27.9091 66.9434 27.5558 70.5331 28.245 73.9961C28.9341 77.4592 30.6347 80.6401 33.1318 83.1367C35.6288 85.6332 38.8101 87.3331 42.2734 88.0215C45.7366 88.7099 49.3262 88.3558 52.5882 87.004C55.8501 85.6522 58.638 83.3635 60.5991 80.4272C62.5603 77.4909 63.6066 74.039 63.6059 70.508C63.5994 65.7757 61.7164 61.2391 58.3698 57.8932C55.0231 54.5473 50.4861 52.6652 45.7538 52.6598Z" fill="white"/>
<path d="M45.7537 82.2809C43.4269 82.2809 41.1523 81.591 39.2175 80.2984C37.2827 79.0058 35.7746 77.1686 34.8839 75.019C33.9931 72.8694 33.7597 70.504 34.2131 68.2217C34.6666 65.9395 35.7865 63.843 37.4314 62.1972C39.0762 60.5514 41.1721 59.4302 43.4541 58.9755C45.736 58.5207 48.1016 58.7527 50.2517 59.6422C52.4018 60.5317 54.2399 62.0388 55.5336 63.9728C56.8273 65.9069 57.5185 68.1811 57.5199 70.5079C57.5181 73.6286 56.2781 76.621 54.0721 78.8283C51.8661 81.0355 48.8744 82.2773 45.7537 82.2809ZM45.7537 60.6955C43.8111 60.6955 41.9122 61.2716 40.2971 62.351C38.682 63.4304 37.4233 64.9646 36.6803 66.7594C35.9372 68.5543 35.7432 70.5292 36.1228 72.4344C36.5023 74.3395 37.4384 76.0893 38.8125 77.4624C40.1867 78.8355 41.9372 79.7701 43.8427 80.1482C45.7481 80.5262 47.7229 80.3306 49.5171 79.5861C51.3114 78.8417 52.8446 77.5818 53.9227 75.9658C55.0008 74.3499 55.5755 72.4505 55.5739 70.5079C55.5711 67.9046 54.5354 65.4089 52.6943 63.5685C50.8531 61.728 48.357 60.6934 45.7537 60.6916V60.6955Z" fill="white"/>
<path d="M78.2452 90.3092C76.6773 90.3092 75.1447 89.8443 73.841 88.9733C72.5374 88.1023 71.5213 86.8643 70.9211 85.4159C70.321 83.9675 70.1638 82.3736 70.4695 80.8358C70.7752 79.2981 71.5299 77.8855 72.6383 76.7766C73.7468 75.6678 75.1591 74.9125 76.6967 74.6063C78.2344 74.3001 79.8283 74.4567 81.277 75.0562C82.7256 75.6558 83.964 76.6715 84.8355 77.9748C85.7069 79.2782 86.1724 80.8106 86.173 82.3785C86.1712 84.4808 85.3354 86.4965 83.8491 87.9833C82.3629 89.4701 80.3475 90.3066 78.2452 90.3092ZM78.2452 76.3957C77.0621 76.3957 75.9056 76.7465 74.9219 77.4037C73.9383 78.061 73.1715 78.9951 72.7188 80.0881C72.266 81.1811 72.1475 82.3838 72.3782 83.5441C72.6089 84.7045 73.1786 85.7703 74.015 86.607C74.8515 87.4436 75.9173 88.0134 77.0776 88.2443C78.2379 88.4752 79.4406 88.3569 80.5336 87.9043C81.6267 87.4517 82.561 86.6851 83.2184 85.7015C83.8758 84.718 84.2268 83.5615 84.227 82.3785C84.2244 80.7931 83.5933 79.2733 82.4719 78.1526C81.3506 77.0318 79.8306 76.4014 78.2452 76.3996V76.3957Z" fill="white"/>
<path d="M71.2865 83.2755H60.4242C60.1662 83.2755 59.9187 83.173 59.7362 82.9906C59.5537 82.8081 59.4512 82.5606 59.4512 82.3026C59.4512 82.0445 59.5537 81.797 59.7362 81.6146C59.9187 81.4321 60.1662 81.3296 60.4242 81.3296H71.2865C71.5445 81.3296 71.792 81.4321 71.9745 81.6146C72.1569 81.797 72.2594 82.0445 72.2594 82.3026C72.2594 82.5606 72.1569 82.8081 71.9745 82.9906C71.792 83.173 71.5445 83.2755 71.2865 83.2755Z" fill="white"/>
<path d="M73.5049 68.0037H64.2568C63.9987 68.0037 63.7512 67.9012 63.5688 67.7187C63.3863 67.5363 63.2838 67.2888 63.2838 67.0307C63.2838 66.7727 63.3863 66.5252 63.5688 66.3428C63.7512 66.1603 63.9987 66.0578 64.2568 66.0578H73.5049C74.3113 66.0567 75.0844 65.736 75.6547 65.1659C76.2251 64.5957 76.5461 63.8227 76.5474 63.0163C76.5502 62.6162 76.4728 62.2195 76.3197 61.8499C76.1666 61.4802 75.941 61.145 75.6561 60.864C75.0846 60.295 74.3114 59.9747 73.5049 59.9728H60.6422C60.3841 59.9728 60.1366 59.8703 59.9542 59.6878C59.7717 59.5054 59.6692 59.2579 59.6692 58.9998C59.6692 58.7418 59.7717 58.4943 59.9542 58.3118C60.1366 58.1294 60.3841 58.0269 60.6422 58.0269H73.5049C74.8252 58.031 76.0907 58.5554 77.027 59.4863C77.4944 59.9472 77.8649 60.497 78.1167 61.1032C78.3685 61.7094 78.4966 62.3598 78.4933 63.0163C78.4912 64.3386 77.965 65.6061 77.0299 66.541C76.0948 67.4759 74.8272 68.0019 73.5049 68.0037Z" fill="white"/>
<path d="M76.2924 76.6789C76.0901 76.6789 75.8928 76.6158 75.7281 76.4985C75.5633 76.3811 75.4391 76.2153 75.373 76.0241L72.3675 67.3491C72.2939 67.1081 72.3166 66.848 72.4308 66.6235C72.5451 66.399 72.742 66.2275 72.9801 66.1452C73.2182 66.0629 73.479 66.0761 73.7075 66.1822C73.936 66.2882 74.1145 66.4788 74.2054 66.7137L77.2109 75.3878C77.262 75.5345 77.2773 75.6912 77.2554 75.845C77.2335 75.9988 77.1751 76.1451 77.0851 76.2717C76.9951 76.3983 76.876 76.5015 76.738 76.5727C76.5999 76.6439 76.4468 76.681 76.2915 76.6809L76.2924 76.6789Z" fill="white"/>
<path d="M40.309 53.4656C40.0509 53.4656 39.8034 53.3631 39.621 53.1806C39.4385 52.9981 39.336 52.7506 39.336 52.4926V33.5838C39.3355 33.0718 39.1318 32.5808 38.7697 32.2187C38.4076 31.8567 37.9167 31.653 37.4046 31.6525H29.9818C29.7238 31.6525 29.4763 31.55 29.2938 31.3675C29.1114 31.185 29.0089 30.9376 29.0089 30.6795C29.0089 30.4215 29.1114 30.174 29.2938 29.9915C29.4763 29.8091 29.7238 29.7065 29.9818 29.7065H37.4046C38.4326 29.7076 39.4182 30.1164 40.1452 30.8433C40.8721 31.5702 41.2809 32.5558 41.2819 33.5838V52.4926C41.2819 52.7506 41.1794 52.9981 40.997 53.1806C40.8145 53.3631 40.567 53.4656 40.309 53.4656Z" fill="white"/>
<path d="M68.3296 59.9716C68.1251 59.9716 67.9258 59.907 67.76 59.7872C67.5943 59.6674 67.4705 59.4984 67.4063 59.3042L62.9987 46.0309C62.8696 45.6427 62.6216 45.3051 62.2897 45.066C61.9578 44.8269 61.5591 44.6984 61.15 44.6989H40.309C40.0509 44.6989 39.8034 44.5964 39.621 44.4139C39.4385 44.2314 39.336 43.984 39.336 43.7259C39.336 43.4679 39.4385 43.2204 39.621 43.0379C39.8034 42.8554 40.0509 42.7529 40.309 42.7529H61.152C61.9702 42.7521 62.7678 43.0092 63.4315 43.4876C64.0953 43.966 64.5914 44.6414 64.8493 45.4179L69.2568 58.6912C69.3056 58.8375 69.3188 58.9932 69.2955 59.1456C69.2723 59.298 69.2131 59.4427 69.1229 59.5678C69.0327 59.6928 68.9141 59.7946 68.7769 59.8649C68.6396 59.9351 68.4877 59.9717 68.3335 59.9716H68.3296Z" fill="white"/>
</svg>
