<svg width="120" height="120" viewBox="0 0 120 120" fill="none" xmlns="http://www.w3.org/2000/svg">
<circle opacity="0.26" cx="60" cy="60" r="60" fill="#00B3FF"/>
<path d="M93.0811 90.3044H64.0709C63.8129 90.3044 63.5654 90.2019 63.3829 90.0194C63.2004 89.8369 63.0979 89.5894 63.0979 89.3314V82.0341C63.0997 79.8174 63.981 77.692 65.5484 76.1245C67.1157 74.557 69.241 73.6754 71.4577 73.6733H72.6535C72.889 73.6733 73.1164 73.7587 73.2937 73.9137C74.7762 75.1502 76.6455 75.8274 78.576 75.8274C80.5065 75.8274 82.3757 75.1502 83.8582 73.9137C84.0355 73.7587 84.263 73.6733 84.4985 73.6733H85.6933C87.9101 73.6751 90.0357 74.5566 91.6032 76.1241C93.1708 77.6917 94.0522 79.8172 94.054 82.0341V89.3314C94.054 89.5894 93.9515 89.8369 93.7691 90.0194C93.5866 90.2019 93.3391 90.3044 93.0811 90.3044ZM65.0439 88.3584H92.1081V82.0341C92.1063 80.3333 91.4299 78.7027 90.2272 77.5001C89.0246 76.2975 87.394 75.6211 85.6933 75.6193H84.8517C83.0578 77.0158 80.8493 77.774 78.576 77.774C76.3026 77.774 74.0942 77.0158 72.3003 75.6193H71.4577C69.7571 75.6213 68.1268 76.2979 66.9244 77.5005C65.722 78.7031 65.0457 80.3335 65.0439 82.0341V88.3584Z" fill="white"/>
<path d="M78.576 71.9851C76.8925 71.9853 75.2467 71.4862 73.8469 70.551C72.447 69.6158 71.3559 68.2865 70.7116 66.7312C70.0672 65.1759 69.8986 63.4644 70.227 61.8132C70.5554 60.162 71.366 58.6453 72.5565 57.4549C73.7469 56.2645 75.2636 55.4538 76.9148 55.1254C78.5659 54.797 80.2774 54.9657 81.8327 55.61C83.3881 56.2544 84.7174 57.3455 85.6526 58.7453C86.5877 60.1452 87.0868 61.791 87.0866 63.4745C87.084 65.7308 86.1866 67.894 84.5911 69.4895C82.9956 71.085 80.8324 71.9825 78.576 71.9851ZM78.576 56.9088C77.2774 56.9086 76.0079 57.2936 74.9281 58.0149C73.8482 58.7362 73.0066 59.7615 72.5095 60.9612C72.0124 62.1609 71.8822 63.4811 72.1355 64.7548C72.3887 66.0284 73.0139 67.1984 73.9321 68.1167C74.8503 69.035 76.0202 69.6604 77.2938 69.9139C78.5674 70.1673 79.8876 70.0373 81.0874 69.5404C82.2871 69.0435 83.3126 68.202 84.0341 67.1222C84.7556 66.0425 85.1407 64.7731 85.1407 63.4745C85.1389 61.7339 84.4467 60.0651 83.216 58.8342C81.9853 57.6033 80.3166 56.9109 78.576 56.9088Z" fill="white"/>
<path d="M85.777 90.3042H71.374C71.116 90.3042 70.8685 90.2017 70.686 90.0192C70.5036 89.8367 70.4011 89.5892 70.4011 89.3312V84.5189C70.4011 84.2608 70.5036 84.0133 70.686 83.8309C70.8685 83.6484 71.116 83.5459 71.374 83.5459C71.6321 83.5459 71.8796 83.6484 72.062 83.8309C72.2445 84.0133 72.347 84.2608 72.347 84.5189V88.3592H84.8011V84.5189C84.8011 84.2608 84.9036 84.0133 85.0861 83.8309C85.2685 83.6484 85.516 83.5459 85.7741 83.5459C86.0321 83.5459 86.2796 83.6484 86.462 83.8309C86.6445 84.0133 86.747 84.2608 86.747 84.5189V89.3322C86.7468 89.5895 86.6445 89.8363 86.4627 90.0185C86.2809 90.2007 86.0343 90.3034 85.777 90.3042Z" fill="white"/>
<path d="M55.9291 90.3044H26.9189C26.6609 90.3044 26.4134 90.2019 26.2309 90.0194C26.0485 89.8369 25.946 89.5895 25.946 89.3314V82.0341C25.9478 79.8173 26.8292 77.6917 28.3968 76.1242C29.9643 74.5566 32.0899 73.6752 34.3067 73.6734H35.5015C35.737 73.6734 35.9644 73.7587 36.1417 73.9137C37.6134 75.169 39.4898 75.8488 41.424 75.8275C43.3582 75.849 45.2347 75.1691 46.7063 73.9137C46.8848 73.7576 47.1142 73.6722 47.3514 73.6734H48.5471C50.7638 73.6754 52.8891 74.557 54.4565 76.1245C56.0238 77.692 56.9051 79.8174 56.9069 82.0341V89.3314C56.9069 89.4596 56.8816 89.5865 56.8324 89.7049C56.7832 89.8232 56.7111 89.9307 56.6202 90.0211C56.5294 90.1115 56.4215 90.1831 56.3029 90.2317C56.1843 90.2803 56.0573 90.305 55.9291 90.3044ZM27.8919 88.3584H54.9561V82.0341C54.9543 80.3335 54.278 78.7031 53.0756 77.5005C51.8732 76.2979 50.2429 75.6214 48.5423 75.6193H47.6997C45.9058 77.0158 43.6974 77.7741 41.424 77.7741C39.1506 77.7741 36.9422 77.0158 35.1483 75.6193H34.3067C32.606 75.6211 30.9754 76.2975 29.7727 77.5001C28.5701 78.7028 27.8937 80.3334 27.8919 82.0341V88.3584Z" fill="white"/>
<path d="M41.424 71.9851C39.7405 71.9853 38.0947 71.4862 36.6949 70.551C35.295 69.6158 34.2039 68.2865 33.5596 66.7312C32.9152 65.1759 32.7466 63.4644 33.075 61.8132C33.4034 60.162 34.214 58.6453 35.4045 57.4549C36.5949 56.2645 38.1116 55.4538 39.7628 55.1254C41.4139 54.797 43.1254 54.9657 44.6807 55.61C46.236 56.2544 47.5654 57.3455 48.5006 58.7453C49.4357 60.1452 49.9348 61.791 49.9346 63.4745C49.932 65.7308 49.0346 67.894 47.4391 69.4895C45.8436 71.085 43.6804 71.9825 41.424 71.9851ZM41.424 56.9088C40.1254 56.9086 38.8559 57.2936 37.7761 58.0149C36.6962 58.7362 35.8546 59.7615 35.3575 60.9612C34.8604 62.1609 34.7302 63.4811 34.9835 64.7548C35.2367 66.0284 35.8619 67.1984 36.7801 68.1167C37.6983 69.035 38.8682 69.6604 40.1418 69.9139C41.4154 70.1673 42.7356 70.0373 43.9354 69.5404C45.1351 69.0435 46.1606 68.202 46.8821 67.1222C47.6036 66.0425 47.9887 64.7731 47.9887 63.4745C47.9869 61.7339 47.2947 60.0651 46.064 58.8342C44.8333 57.6033 43.1646 56.9109 41.424 56.9088Z" fill="white"/>
<path d="M48.6259 90.3042H34.2259C33.9679 90.3042 33.7204 90.2017 33.5379 90.0192C33.3555 89.8367 33.253 89.5892 33.253 89.3312V84.5189C33.253 84.2608 33.3555 84.0133 33.5379 83.8309C33.7204 83.6484 33.9679 83.5459 34.2259 83.5459C34.484 83.5459 34.7315 83.6484 34.9139 83.8309C35.0964 84.0133 35.1989 84.2608 35.1989 84.5189V88.3592H47.653V84.5189C47.653 84.2608 47.7555 84.0133 47.9379 83.8309C48.1204 83.6484 48.3679 83.5459 48.6259 83.5459C48.884 83.5459 49.1315 83.6484 49.3139 83.8309C49.4964 84.0133 49.5989 84.2608 49.5989 84.5189V89.3322C49.5986 89.59 49.496 89.8373 49.3136 90.0195C49.1311 90.2018 48.8838 90.3042 48.6259 90.3042Z" fill="white"/>
<path d="M60 60.831C59.7871 60.8325 59.5797 60.7642 59.4094 60.6364C58.7779 60.15 43.9557 48.7234 43.9557 39.161C43.9533 37.3015 44.4994 35.4826 45.5254 33.9318C46.5515 32.381 48.012 31.1672 49.7244 30.4422C51.4367 29.7172 53.3248 29.5131 55.1525 29.8556C56.9802 30.1981 58.6663 31.0719 60 32.3677C61.333 31.0725 63.0183 30.199 64.8451 29.8565C66.6719 29.514 68.5591 29.7176 70.2708 30.4419C71.9824 31.1663 73.4426 32.3792 74.4686 33.9289C75.4946 35.4787 76.041 37.2965 76.0394 39.1551C76.0394 48.7175 61.223 60.148 60.5916 60.6296C60.4222 60.7606 60.2141 60.8314 60 60.831ZM53.41 31.6418C51.4186 31.6449 49.5097 32.4378 48.1021 33.8465C46.6945 35.2552 45.9032 37.1647 45.9016 39.1561C45.9016 46.758 57.2562 56.3972 60 58.6156C62.7428 56.3962 74.0925 46.757 74.0925 39.1561C74.0936 37.6049 73.614 36.0914 72.7197 34.8239C71.8254 33.5564 70.5603 32.5971 69.0984 32.078C67.6366 31.559 66.0498 31.5056 64.5564 31.9253C63.063 32.345 61.7364 33.2171 60.7589 34.4216C60.6678 34.5342 60.5528 34.625 60.4222 34.6874C60.2916 34.7499 60.1487 34.7824 60.0039 34.7826C59.8592 34.7825 59.7163 34.7502 59.5857 34.6879C59.4551 34.6256 59.34 34.535 59.2488 34.4226C58.5454 33.5528 57.6561 32.8516 56.6463 32.3704C55.6364 31.8892 54.5316 31.6403 53.413 31.6418H53.41Z" fill="white"/>
</svg>
