<svg width="120" height="120" viewBox="0 0 120 120" fill="none" xmlns="http://www.w3.org/2000/svg">
<circle opacity="0.26" cx="60" cy="60" r="60" fill="#00B3FF"/>
<g clip-path="url(#clip0_203_134)">
<path d="M90.9976 69.7648L90.4396 50.0721C90.3862 48.1841 88.4825 46.4937 86.4546 46.5269C85.4713 46.5426 82.2652 47.0783 82.2888 53.3099L82.3296 64.0074C82.3311 64.3811 82.2957 64.7386 82.2223 65.0841C82.0938 64.8924 81.9448 64.7105 81.7757 64.5412C80.4168 63.1824 78.1897 63.1669 76.7046 64.5055C76.6711 64.5356 76.6397 64.568 76.6107 64.6024C74.8771 66.6521 72.7513 68.4436 71.0433 69.8831C70.4471 70.3856 69.8841 70.8601 69.4228 71.276C67.5215 72.9895 67.2682 75.3643 67.2711 77.4611L67.2905 91.001C67.2913 91.5527 67.7387 91.9995 68.2905 91.9995L79.2083 91.9996C79.4736 91.9996 79.7278 91.8942 79.9155 91.7067C80.103 91.5192 80.2083 91.2649 80.2083 90.9996V83.7796L88.8227 75.1651C90.3035 73.6849 91.0556 71.8174 90.9976 69.7648ZM87.4085 73.751L78.5011 82.6584C78.3136 82.8459 78.2082 83.1003 78.2082 83.3655V89.9997L69.289 89.9996L69.271 77.4584C69.2685 75.719 69.4473 73.9461 70.7617 72.7616C71.1982 72.3682 71.7236 71.9254 72.3321 71.4126C74.0822 69.9377 76.2566 68.1052 78.0892 65.9514C78.7917 65.3547 79.7587 65.353 80.3616 65.9557C80.6702 66.2642 80.8388 66.71 80.8363 67.1441C80.8336 67.6115 80.6085 67.9241 80.3263 68.2714L73.4937 75.1043C73.1032 75.4948 73.1032 76.1279 73.4938 76.5184C73.6891 76.7136 73.9448 76.8112 74.2008 76.8112C74.4567 76.8112 74.7127 76.7136 74.908 76.5184C74.908 76.5184 81.7741 69.652 81.776 69.6502C82.1055 69.3205 82.3732 68.9235 82.667 68.5619C83.7921 67.177 84.336 65.6847 84.3296 64L84.2888 53.3025C84.2776 50.3344 85.0991 48.549 86.4866 48.5268C86.4953 48.5266 86.5041 48.5266 86.5127 48.5266C87.4496 48.5266 88.4177 49.3278 88.4403 50.1289L88.9983 69.8214C89.041 71.3315 88.5061 72.6536 87.4085 73.751ZM48.5791 71.2764C48.1178 70.8605 47.5546 70.3857 46.9582 69.8833C45.2502 68.4438 43.1246 66.6524 41.3911 64.6027C41.3621 64.5684 41.3307 64.536 41.2972 64.5059C39.8125 63.1671 37.5848 63.1828 36.2262 64.5416C36.057 64.7109 35.908 64.8929 35.7795 65.0845C35.706 64.739 35.6707 64.3815 35.6722 64.0078L35.713 53.3102C35.7365 47.0786 32.5305 46.543 31.5472 46.5273C31.528 46.527 31.5087 46.5269 31.4893 46.5269C29.4792 46.5269 27.6151 48.2025 27.5622 50.0725L27.0041 69.7651C26.9461 71.8176 27.6982 73.6851 29.1788 75.1656L37.7933 83.7801V91C37.7933 91.2653 37.8987 91.5195 38.0862 91.7071C38.2738 91.8946 38.5281 92 38.7933 92L49.7112 91.9999C50.263 91.9999 50.7103 91.553 50.7112 91.0014L50.7307 77.4615C50.7336 75.3645 50.4803 72.9899 48.5791 71.2764ZM48.7126 89.9999L39.7933 90L39.7935 83.3657C39.7935 83.1005 39.6881 82.8461 39.5006 82.6586L30.5931 73.7513C29.4956 72.6539 28.9606 71.3317 29.0033 69.8216L29.5613 50.1289C29.584 49.3276 30.5521 48.5268 31.4888 48.5268C31.4976 48.5268 31.5063 48.5267 31.5151 48.5269C32.9026 48.5491 33.7241 50.3344 33.7128 53.3026L33.6721 64.0001C33.6657 65.6849 34.2096 67.1771 35.3347 68.5621C35.6293 68.9249 35.9015 69.3138 36.2276 69.6521L43.0937 76.5185C43.2891 76.7139 43.5448 76.8114 43.8008 76.8114C44.0567 76.8114 44.3127 76.7138 44.5078 76.5185C44.8985 76.128 44.8985 75.4949 44.508 75.1044L37.6751 68.2713C37.5042 68.061 37.3403 67.8735 37.2526 67.612C37.0611 67.0415 37.2163 66.3799 37.6402 65.9559C38.2428 65.3531 39.2101 65.355 39.9125 65.9516C41.745 68.1054 43.9193 69.9379 45.6692 71.4128C46.2777 71.9256 46.8033 72.3685 47.24 72.7621C48.5542 73.9466 48.733 75.7194 48.7306 77.4588L48.7126 89.9999ZM71.5017 51.1108V63.375C71.5017 63.9272 71.9495 64.375 72.5017 64.375C73.054 64.375 73.5017 63.9272 73.5017 63.375V51.1108C73.5017 48.0417 71.1398 45.6959 67.0217 44.6744C65.152 44.2105 63.2845 43.907 61.4251 43.7635C64.1361 42.5041 66.0762 39.1955 66.0762 35.3221C66.0763 30.8056 63.3651 28 59.0008 28C54.6366 28 51.9253 30.8056 51.9253 35.3221C51.9253 39.1877 53.8578 42.4907 56.5602 43.7557C54.6808 43.8959 52.8157 44.2022 50.9716 44.6765C46.7982 45.7494 44.5 48.0344 44.5 51.1108V63.375C44.5 63.9272 44.9477 64.375 45.5 64.375C46.0522 64.375 46.5 63.9272 46.5 63.375V51.1108C46.5 48.4496 49.2025 47.1964 51.4697 46.6135C56.377 45.3515 61.4475 45.3523 66.5402 46.6156C68.3932 47.0753 71.5017 48.2704 71.5017 51.1108ZM53.9253 35.3221C53.9253 30.6914 57.1053 30 59.0008 30C60.8963 30 64.0763 30.6914 64.0763 35.3221C64.0763 39.1736 61.7995 42.307 59.0008 42.307C56.2022 42.307 53.9253 39.1736 53.9253 35.3221ZM52.6348 53.93V63.375C52.6348 63.9272 52.1871 64.375 51.6348 64.375C51.0826 64.375 50.6348 63.9272 50.6348 63.375V53.93C50.6348 53.3778 51.0826 52.93 51.6348 52.93C52.1871 52.93 52.6348 53.3778 52.6348 53.93ZM67.3667 63.375C67.3667 63.9272 66.919 64.375 66.3667 64.375C65.8145 64.375 65.3667 63.9272 65.3667 63.375V53.93C65.3667 53.3778 65.8145 52.93 66.3667 52.93C66.919 52.93 67.3667 53.3778 67.3667 53.93V63.375Z" fill="white"/>
</g>
<defs>
<clipPath id="clip0_203_134">
<rect width="64" height="64" fill="white" transform="translate(27 28)"/>
</clipPath>
</defs>
</svg>
