<svg width="32" height="32" viewBox="0 0 32 32" fill="none" xmlns="http://www.w3.org/2000/svg">
<g clip-path="url(#clip0_142_223)">
<path d="M16 31.999C24.8365 31.999 31.9999 24.8355 31.9999 15.999C31.9999 7.16245 24.8365 -0.000976562 16 -0.000976562C7.16343 -0.000976562 0 7.16245 0 15.999C0 24.8355 7.16343 31.999 16 31.999Z" fill="#AA2D36"/>
<path d="M5.57046 16.7165C5.5137 19.4694 7.40981 22.0965 10.0181 22.9533C12.4749 23.7787 15.4956 23.1612 17.1305 21.0572C18.3241 19.5829 18.5953 17.6175 18.4661 15.7813C16.3621 15.7625 14.2581 15.7688 12.1572 15.7719C12.1538 16.5214 12.1572 17.2681 12.1603 18.0177C13.4201 18.0525 14.6802 18.0365 15.94 18.0619C15.622 19.1517 14.8975 20.1659 13.798 20.5595C11.6752 21.495 8.96651 20.2729 8.29853 18.0459C7.49223 15.9134 8.81221 13.3399 10.9915 12.7195C12.3429 12.2441 13.735 12.7794 14.8913 13.4819C15.4771 12.9337 16.0253 12.3479 16.5638 11.7558C15.2501 10.6566 13.5619 9.98262 11.8264 10.1306C8.42118 10.1711 5.44126 13.3148 5.57046 16.7165Z" fill="#AA2D36"/>
<path d="M22.5609 13.8809C22.5546 14.5078 22.5481 15.1378 22.5449 15.7644C21.9149 15.7707 21.2883 15.7738 20.6614 15.777C20.6614 16.4039 20.6614 17.0273 20.6614 17.6542C21.2883 17.6574 21.9183 17.6605 22.5449 17.6671C22.5512 18.294 22.5512 18.9206 22.5575 19.5506C23.1812 19.5506 23.8081 19.5475 24.4348 19.5506C24.4382 18.9206 24.441 18.294 24.4476 17.6639C25.0742 17.6608 25.7043 17.6577 26.3312 17.6545C26.3312 17.0276 26.3312 16.4042 26.3312 15.7773C25.7045 15.7741 25.0745 15.771 24.4476 15.7647C24.4442 15.1378 24.4382 14.5078 24.4348 13.8811C23.8081 13.8809 23.1844 13.8809 22.5609 13.8809Z" fill="#AA2D36"/>
<path d="M20.677 10.6667H11.323C9.48775 10.6667 8 12.1852 8 14.0583V18.8307C8 20.7038 9.48775 22.2223 11.323 22.2223H20.677C22.5122 22.2223 24 20.7038 24 18.8307V14.0583C24 12.1852 22.5122 10.6667 20.677 10.6667ZM18.4297 16.6767L14.0545 18.8064C13.9379 18.8632 13.8033 18.7764 13.8033 18.6446V14.252C13.8033 14.1184 13.9415 14.0317 14.0583 14.0921L18.4334 16.355C18.5635 16.4223 18.5613 16.6127 18.4297 16.6767Z" fill="white"/>
</g>
<defs>
<clipPath id="clip0_142_223">
<rect width="31.9999" height="31.9999" fill="white"/>
</clipPath>
</defs>
</svg>
