<svg width="422" height="317" viewBox="0 0 422 317" fill="none" xmlns="http://www.w3.org/2000/svg">
<path fill-rule="evenodd" clip-rule="evenodd" d="M391.232 43.0524C426.447 85.0484 427.596 147.327 411.959 199.813C397.47 248.44 358.535 285.875 312.527 307.21C272.478 325.782 229.031 309.579 185.101 305.013C132.294 299.524 70.3339 317.256 34.2238 278.282C-4.13845 236.877 -6.8599 170.594 10.9885 117.091C27.3292 68.108 74.8885 39.5315 121.361 17.0776C160.79 -1.97309 203.373 -1.13061 246.983 3.0668C298.603 8.03515 357.886 3.28434 391.232 43.0524Z" fill="#E9BC67"/>
<g opacity="0.5">
<path d="M86.9999 181.2C83.7 189.5 78.5001 197.7 71.5501 205.6C69.3501 208.1 69.05 211.7 70.85 214.5C72.2501 216.7 74.55 217.9 77.05 217.9C77.75 217.9 78.4501 217.85 79.1501 217.6C93.8498 213.3 128.2 198.05 129.15 149.15C129.5 130.3 115.7 114.1 97.75 112.25C87.8001 111.25 77.9001 114.5 70.55 121.1C63.2001 127.75 59 137.25 59 147.15C59 163.65 70.7001 178.1 86.9999 181.2Z" fill="white"/>
<path d="M177.55 112.25C167.65 111.25 157.75 114.5 150.4 121.1C143.05 127.75 138.85 137.25 138.85 147.15C138.85 163.65 150.55 178.1 166.85 181.2C163.55 189.5 158.35 197.7 151.4 205.6C149.2 208.1 148.9 211.7 150.7 214.5C152.1 216.7 154.4 217.9 156.9 217.9C157.6 217.9 158.3 217.85 159 217.6C173.7 213.3 208.05 198.05 209 149.15V148.45C209 129.9 195.35 114.1 177.55 112.25V112.25Z" fill="white"/>
</g>
</svg>
