<svg width="1054" height="371" viewBox="0 0 1054 371" fill="none" xmlns="http://www.w3.org/2000/svg">
<path d="M156.125 18.3743L156.125 13.1257L161.374 13.1257C162.825 13.1257 164 11.9509 164 10.5C164 9.04912 162.825 7.8743 161.374 7.8743L156.125 7.8743L156.125 2.62568C156.125 1.1776 154.951 -3.95549e-07 153.5 -4.5897e-07C152.049 -5.2239e-07 150.874 1.17478 150.874 2.62568L150.874 7.8743L145.625 7.8743C144.177 7.8743 143 9.04912 143 10.5C143 11.9481 144.175 13.1257 145.625 13.1257L150.874 13.1257L150.874 18.3743C150.874 19.8224 152.049 21 153.5 21C154.951 21 156.125 19.8224 156.125 18.3743Z" fill="#0BAFAB"/>
<path d="M972.999 35C976.865 35 980 31.866 980 28C980 24.134 976.865 21 972.999 21C969.133 21 966 24.134 966 28C966 31.866 969.133 35 972.999 35Z" fill="#0BAFAB"/>
<path d="M234 371C237.866 371 241 367.866 241 364C241 360.134 237.866 357 234 357C230.134 357 227 360.134 227 364C227 367.866 230.134 371 234 371Z" fill="#0BAFAB"/>
<path d="M641.363 264.726L643.817 262.272L646.271 264.726C646.949 265.404 648.047 265.404 648.726 264.726C649.404 264.048 649.404 262.949 648.726 262.271L646.272 259.817L648.726 257.364C649.403 256.687 649.404 255.587 648.726 254.909C648.047 254.23 646.949 254.23 646.271 254.909L643.817 257.362L641.363 254.909C640.686 254.232 639.587 254.23 638.908 254.909C638.232 255.586 638.23 256.685 638.908 257.364L641.362 259.817L638.908 262.271C638.232 262.948 638.23 264.048 638.908 264.726C639.587 265.404 640.686 265.403 641.363 264.726Z" fill="#0BAFAB"/>
<path d="M7.36356 302.726L9.81721 300.272L12.2708 302.726C12.9491 303.404 14.0475 303.404 14.7258 302.726C15.4041 302.048 15.4041 300.949 14.7258 300.271L12.2722 297.817L14.7258 295.364C15.4028 294.687 15.4041 293.587 14.7258 292.909C14.0475 292.23 12.9491 292.23 12.2709 292.909L9.81721 295.362L7.36356 292.909C6.6866 292.232 5.58685 292.23 4.90858 292.909C4.23162 293.586 4.23033 294.685 4.9086 295.364L7.36225 297.817L4.9086 300.271C4.23164 300.948 4.23033 302.048 4.9086 302.726C5.58687 303.404 6.6866 303.403 7.36356 302.726Z" fill="#0BAFAB"/>
</svg>
