<svg width="15" height="15" viewBox="0 0 15 15" fill="none" xmlns="http://www.w3.org/2000/svg">
<path d="M8.89037 12.42L8.89037 8.92088L12.3894 8.92088C13.3567 8.92088 14.1399 8.13769 14.1399 7.17042C14.1399 6.20316 13.3567 5.41994 12.3894 5.41994L8.89037 5.41994L8.89037 1.92086C8.89037 0.955476 8.10716 0.17041 7.13989 0.17041C6.17263 0.17041 5.38944 0.953598 5.38944 1.92086L5.38944 5.41994L1.89037 5.41994C0.924987 5.41994 0.139893 6.20316 0.139893 7.17042C0.139893 8.13581 0.923109 8.92088 1.89037 8.92088L5.38944 8.92088L5.38944 12.42C5.38944 13.3853 6.17263 14.1704 7.13989 14.1704C8.10716 14.1704 8.89037 13.3853 8.89037 12.42Z" fill="#0BAFAB"/>
</svg>
