<svg width="78" height="78" viewBox="0 0 78 78" fill="none" xmlns="http://www.w3.org/2000/svg">
<path d="M78 39C78 60.5394 60.5394 78 39 78C17.4606 78 0 60.5394 0 39C0 17.4606 17.4606 0 39 0C60.5394 0 78 17.4606 78 39Z" fill="#E9BC67"/>
<path d="M39 69.4688C22.1993 69.4688 8.53125 55.8007 8.53125 39C8.53125 22.1993 22.1993 8.53125 39 8.53125C55.8007 8.53125 69.4688 22.1993 69.4688 39C69.4688 45.014 67.6835 50.8626 64.3063 55.9143C63.6053 56.9635 62.186 57.2449 61.1369 56.5439C60.0877 55.8423 59.8056 54.423 60.5072 53.3739C63.3798 49.0773 64.8984 44.1065 64.8984 39C64.8984 24.7196 53.2804 13.1016 39 13.1016C24.7196 13.1016 13.1016 24.7196 13.1016 39C13.1016 53.2804 24.7196 64.8984 39 64.8984C43.7363 64.8984 48.3691 63.6089 52.3973 61.169C53.4768 60.5144 54.8818 60.8601 55.5358 61.9396C56.1898 63.0191 55.8447 64.4241 54.7652 65.0782C50.0229 67.9501 44.5713 69.4688 39 69.4688Z" fill="white"/>
<path d="M33.7554 52.1194C32.8527 52.1194 31.9499 51.8825 31.1257 51.4082C29.4666 50.4525 28.4763 48.7375 28.4763 46.8201V31.1799C28.4763 29.2625 29.4666 27.5468 31.1257 26.5917C32.7783 25.6401 34.7504 25.6431 36.4 26.6006L49.8765 34.4207C51.5261 35.3776 52.511 37.0897 52.511 39C52.511 40.9102 51.5261 42.6223 49.8765 43.5798L36.4 51.3993L35.2533 49.423L36.4 51.3993C35.5728 51.8796 34.6641 52.1194 33.7554 52.1194ZM33.7566 30.4538C33.6168 30.4538 33.4971 30.5003 33.4067 30.552C33.2722 30.6294 33.0467 30.8139 33.0467 31.1799V46.8195C33.0467 47.1855 33.2722 47.3699 33.4067 47.4473C33.5668 47.5395 33.8173 47.6139 34.1065 47.4461L47.583 39.626C47.8942 39.4457 47.9406 39.1565 47.9406 39C47.9406 38.8435 47.8942 38.5536 47.583 38.3733L34.1065 30.5532C33.9816 30.4806 33.8631 30.4538 33.7566 30.4538Z" fill="white"/>
</svg>
