<svg width="83" height="75" viewBox="0 0 83 75" fill="none" xmlns="http://www.w3.org/2000/svg">
<path fill-rule="evenodd" clip-rule="evenodd" d="M69.7835 6.84186C78.9953 12.9647 82.7684 24.9564 82.7331 36.009C82.7005 46.2493 77.2968 55.7164 69.606 62.4698C62.9113 68.3485 53.5763 67.6885 44.811 69.309C34.2747 71.2569 23.2902 78.2223 14.0773 72.7356C4.2899 66.9067 -0.0158167 54.2294 0.389403 42.8537C0.760398 32.4389 8.33872 24.1951 16.0557 17.1987C22.603 11.2626 30.8952 8.99798 39.5774 7.32436C49.8543 5.34335 61.0605 1.04387 69.7835 6.84186Z" fill="#F5F5F5"/>
<g clip-path="url(#clip0_306:977)">
<path d="M28.4601 50.713C28.9033 50.713 29.3088 50.4277 29.4583 50.0105C29.6096 49.5883 29.4716 49.1007 29.119 48.8227C28.7608 48.5403 28.2518 48.5198 27.8717 48.7717C27.5117 49.0103 27.3304 49.4639 27.4259 49.8851C27.5344 50.3635 27.9689 50.713 28.4601 50.713Z" fill="#E9BC67"/>
<path d="M2.1745 32.6125C2.24892 31.2758 2.90827 30.0514 3.98333 29.2536C5.72368 27.9623 8.13727 28.0971 9.72272 29.5741C9.73385 29.5845 9.74477 29.5952 9.75559 29.606L17.1576 37.1242C17.497 36.3959 18.0197 35.784 18.7137 35.3118C19.5039 34.7743 20.4571 34.4753 21.4749 34.4472L35.5261 34.1171C37.5304 34.0616 39.5166 34.6914 41.1222 35.8903L46.3609 39.8019H55.3905C55.976 39.8019 56.4507 40.2766 56.4507 40.8622V47.8761C56.4507 48.4617 55.976 48.9364 55.3905 48.9364H46.4604C45.7478 49.5872 44.0464 50.7132 40.8037 50.7132H33.2334C32.6478 50.7132 32.1732 50.2385 32.1732 49.653C32.1732 49.0674 32.6478 48.5927 33.2334 48.5927H40.8037C43.9183 48.5927 45.0498 47.3685 45.1622 47.2369C45.3594 46.9504 45.6596 46.8158 46.0087 46.8158H54.3302V41.9223H46.0088C45.7802 41.9223 45.5577 41.8484 45.3745 41.7116L39.8535 37.5892C38.6286 36.6746 37.111 36.1939 35.5804 36.2367L24.1096 36.5062V37.6951C24.1096 38.2806 23.6348 38.7553 23.0493 38.7553C22.4639 38.7553 21.9891 38.2806 21.9891 37.6951V36.556L21.5291 36.5668C20.9218 36.5837 20.3607 36.7558 19.9064 37.0649C19.2083 37.54 18.8419 38.274 18.817 39.2469V39.2483V39.3464C18.9055 39.9679 19.2285 40.5234 19.7309 40.9159C20.2496 41.3211 20.893 41.5018 21.5431 41.4245C21.5758 41.4206 21.6084 41.4183 21.6413 41.4175L36.3321 41.0448C36.9173 41.0281 37.404 41.4926 37.4189 42.0778C37.4338 42.6632 36.9712 43.1497 36.3859 43.1645L21.7411 43.536C21.5753 43.5538 21.4098 43.5626 21.2452 43.5626C20.2269 43.5626 19.2422 43.2248 18.4255 42.5869C17.5043 41.8674 16.9057 40.8506 16.7272 39.7093L8.26195 31.1113C7.42469 30.345 6.16017 30.2787 5.2468 30.9562C4.67915 31.3776 4.33087 32.0242 4.29154 32.7302C4.2522 33.4364 4.52648 34.1178 5.04398 34.5998C5.05172 34.6069 5.05935 34.6142 5.06677 34.6215L18.6039 48.0002C18.6292 48.0253 18.6534 48.0517 18.6762 48.0793C18.9458 48.4057 19.3432 48.593 19.7666 48.593H23.6477C24.2332 48.593 24.708 49.0676 24.708 49.6532C24.708 50.2387 24.2332 50.7134 23.6477 50.7134H19.7666C18.7277 50.7134 17.7513 50.2624 17.0786 49.474L3.58702 36.1406C2.61501 35.2288 2.10028 33.9439 2.1745 32.6125Z" fill="#0BAFAB"/>
<path d="M11.6703 29.4398C11.0859 29.4414 10.6116 28.9679 10.612 28.3836V28.3797C10.612 28.3797 10.612 6.15769 10.612 6.15759C10.612 6.15695 10.612 6.15515 10.6121 6.15218C10.624 5.58062 11.0819 5.11794 11.6532 5.09832C11.6649 5.0979 11.6716 5.09769 11.6722 5.09769H41.8792C41.8793 5.09769 41.8795 5.09769 41.8798 5.09769C42.4562 5.09726 42.9279 5.55899 42.939 6.13532C42.9392 6.14847 42.9394 6.15621 42.9394 6.15759V28.3797V28.3805C42.9411 28.9487 42.4921 29.417 41.9243 29.4382C41.8965 29.4393 41.8802 29.4398 41.8792 29.4398H11.6722H11.6703ZM12.7324 25.9955L22.3967 17.2781L12.7324 8.54499V25.9955ZM14.4269 7.21813L26.7757 18.3771L39.1247 7.21813H14.4269ZM40.819 8.54488L31.1547 17.278L40.819 25.9955V8.54488ZM39.121 27.3193L29.5732 18.7071L27.4864 20.5927C27.2847 20.775 27.0301 20.8663 26.7757 20.8663C26.5212 20.8663 26.2667 20.7751 26.0648 20.5927L23.9782 18.7071L14.4306 27.3192H39.121V27.3193Z" fill="#0BAFAB"/>
</g>
<defs>
<clipPath id="clip0_306:977">
<rect width="54.2832" height="54.2832" fill="white" transform="matrix(-1 0 0 1 56.4507 0.763916)"/>
</clipPath>
</defs>
</svg>
