<svg width="83" height="75" viewBox="0 0 83 75" fill="none" xmlns="http://www.w3.org/2000/svg">
<path fill-rule="evenodd" clip-rule="evenodd" d="M69.7835 6.59882C78.9953 12.7217 82.7684 24.7133 82.7331 35.766C82.7005 46.0063 77.2968 55.4733 69.606 62.2268C62.9113 68.1055 53.5763 67.4455 44.811 69.0659C34.2747 71.0138 23.2902 77.9792 14.0773 72.4925C4.2899 66.6636 -0.0158167 53.9863 0.389403 42.6107C0.760398 32.1959 8.33872 23.9521 16.0557 16.9556C22.603 11.0195 30.8952 8.75493 39.5774 7.08132C49.8543 5.10031 61.0605 0.800826 69.7835 6.59882Z" fill="#F5F5F5"/>
<g clip-path="url(#clip0_306:978)">
<path d="M27.7124 11.123C22.4509 11.123 18.1704 15.4036 18.1704 20.665C18.1704 25.9265 22.4509 30.207 27.7124 30.207C32.9738 30.207 37.2543 25.9265 37.2543 20.665C37.2543 15.4036 32.9738 11.123 27.7124 11.123ZM27.7124 28.0865C23.6201 28.0865 20.2908 24.7572 20.2908 20.665C20.2908 16.5728 23.6201 13.2435 27.7124 13.2435C31.8046 13.2435 35.1339 16.5728 35.1339 20.665C35.1339 24.7572 31.8046 28.0865 27.7124 28.0865Z" fill="#0BAFAB"/>
<path d="M37.2546 41.5703C37.9091 41.5703 38.4398 41.0397 38.4398 40.3851C38.4398 39.7305 37.9091 39.1999 37.2546 39.1999C36.6 39.1999 36.0693 39.7305 36.0693 40.3851C36.0693 41.0397 36.6 41.5703 37.2546 41.5703Z" fill="#E9BC67" stroke="#E9BC67" stroke-width="0.25"/>
<path d="M39.2469 37.4053L39.247 37.4054C39.7818 37.7828 40.5214 37.6553 40.8988 37.1207L43.9468 32.8032C43.9471 32.8027 43.9475 32.8023 43.9478 32.8018C46.5869 29.2767 47.9817 25.08 47.9817 20.665C47.9817 9.4884 38.8891 0.395874 27.7125 0.395874C16.5359 0.395874 7.44336 9.4884 7.44336 20.665C7.44336 25.0801 8.83815 29.2767 11.4772 32.8019C11.4776 32.8024 11.4779 32.8029 11.4783 32.8033L25.4249 52.5586H11.8092C11.1548 52.5586 10.624 53.0892 10.624 53.7438C10.624 54.3984 11.1548 54.9291 11.8092 54.9291H43.6158C44.2703 54.9291 44.801 54.3984 44.801 53.7438C44.801 53.0892 44.2703 52.5586 43.6158 52.5586H30.0001L35.3986 44.9118C35.7762 44.377 35.6486 43.6376 35.114 43.26L35.114 43.26C34.579 42.8824 33.8396 43.0099 33.4622 43.5447L27.7125 51.6888L27.6527 51.604L27.1949 50.9556L25.561 48.6413L20.6027 41.6181C17.0091 36.5279 13.4111 31.4316 13.384 31.3937C11.0484 28.279 9.8138 24.5695 9.8138 20.665C9.8138 10.7958 17.8433 2.76631 27.7125 2.76631C37.5818 2.76631 45.6112 10.7958 45.6112 20.665C45.6112 24.5695 44.3766 28.279 42.041 31.3937C42.0341 31.4028 42.0275 31.412 42.021 31.4212C42.021 31.4212 42.021 31.4212 42.021 31.4212L38.9624 35.7535C38.5848 36.2883 38.7123 37.0278 39.2469 37.4053Z" fill="#0BAFAB" stroke="#0BAFAB" stroke-width="0.25"/>
</g>
<defs>
<clipPath id="clip0_306:978">
<rect width="54.2832" height="54.2832" fill="white" transform="translate(0.570801 0.520874)"/>
</clipPath>
</defs>
</svg>
