<svg width="83" height="75" viewBox="0 0 83 75" fill="none" xmlns="http://www.w3.org/2000/svg">
<path fill-rule="evenodd" clip-rule="evenodd" d="M69.7835 6.8419C78.9953 12.9647 82.7684 24.9564 82.7331 36.0091C82.7005 46.2493 77.2968 55.7164 69.606 62.4698C62.9113 68.3485 53.5763 67.6886 44.811 69.309C34.2747 71.2569 23.2902 78.2223 14.0773 72.7356C4.2899 66.9067 -0.0158167 54.2294 0.389403 42.8537C0.760398 32.439 8.33872 24.1952 16.0557 17.1987C22.603 11.2626 30.8952 8.99801 39.5774 7.32439C49.8543 5.34338 61.0605 1.0439 69.7835 6.8419Z" fill="#F5F5F5"/>
<g clip-path="url(#clip0_306:976)">
<path d="M21.5204 31.352C21.0784 31.352 20.6733 31.0653 20.5235 30.6504C20.3772 30.245 20.4974 29.7782 20.8214 29.4937C21.1681 29.1893 21.6886 29.1484 22.0799 29.391C22.4481 29.6191 22.6438 30.0647 22.5615 30.4902C22.4663 30.9826 22.0234 31.352 21.5204 31.352Z" fill="#E9BC67"/>
<path d="M51.8588 53.2368L49.0758 50.4568C48.7141 50.0955 48.515 49.6152 48.515 49.1044C48.515 48.5938 48.7141 48.1135 49.0758 47.7522C49.8384 46.9904 50.2585 45.9773 50.2584 44.8998C50.2584 43.8222 49.8384 42.8092 49.0758 42.0475L47.6264 40.5996L48.8594 39.3674C50.1088 38.1189 50.7968 36.4589 50.7968 34.6931C50.7968 32.9273 50.1088 31.2672 48.8594 30.0186L45.8666 27.028C43.3694 24.5327 39.3062 24.5327 36.809 27.028L34.7243 29.1112C27.5785 26.8464 24.6935 23.9636 22.4271 16.8234L24.5112 14.7407C25.7212 13.5317 26.3874 11.9241 26.3874 10.214C26.3874 8.50402 25.7211 6.89643 24.5112 5.68739L21.5184 2.69676C18.9398 0.119745 14.744 0.119851 12.1652 2.69676L9.28077 5.57924C7.08715 7.77137 5.16476 10.7776 7.54011 16.4537C7.86073 17.2199 8.55299 18.2826 9.65632 19.7025C9.67328 19.7243 9.6911 19.7455 9.70965 19.766L11.8838 22.1526C11.8948 22.1647 11.9062 22.1767 11.9178 22.1883L17.3676 27.6382C17.7818 28.0521 18.4532 28.0522 18.8671 27.6382C19.2811 27.2241 19.2811 26.5528 18.8672 26.1386L13.4347 20.7062L11.3054 18.3688C10.1121 16.83 9.66279 16.0332 9.49622 15.6352C7.51583 10.9024 9.04433 8.81331 10.7797 7.07911L13.6641 4.19653C15.4163 2.44568 18.2672 2.44547 20.0195 4.19653L23.0123 7.18726C23.8214 7.99583 24.2669 9.07074 24.2669 10.214C24.2669 11.3573 23.8212 12.4323 23.0123 13.2408L20.4753 15.776C20.1987 16.0524 20.0967 16.4588 20.21 16.8333C22.7926 25.3606 26.1815 28.7472 34.7147 31.3282C35.0885 31.441 35.4947 31.3393 35.7711 31.0632L38.308 28.528C39.9786 26.8587 42.697 26.8587 44.3677 28.528L47.3604 31.5186C48.209 32.3666 48.6763 33.494 48.6763 34.6931C48.6763 35.8923 48.2091 37.0194 47.3604 37.8675L44.4759 40.7499C42.7403 42.4842 40.6494 44.012 35.9124 42.0328C35.514 41.8663 34.7165 41.4173 33.1764 40.2246L30.8371 38.0965L25.6448 32.9163C25.2303 32.5027 24.559 32.5034 24.1454 32.9181C23.7318 33.3325 23.7325 34.0039 24.1471 34.4175L29.3568 39.615C29.3683 39.6265 29.3801 39.6378 29.3922 39.6487L31.7803 41.8212C31.8008 41.8398 31.822 41.8576 31.8439 41.8746C33.2647 42.9772 34.3281 43.6689 35.0948 43.9892C36.9474 44.7634 38.5151 45.0807 39.8637 45.0805C42.649 45.0803 44.4971 43.7266 45.975 42.2498L46.1265 42.0984L47.5773 43.5477C47.9388 43.9088 48.138 44.3891 48.138 44.8998C48.138 45.4105 47.9389 45.8908 47.5773 46.252C46.8147 47.014 46.3946 48.0269 46.3946 49.1044C46.3946 50.182 46.8146 51.1951 47.5773 51.957L50.3603 54.7371C50.5674 54.9438 50.8385 55.0472 51.1096 55.0472C51.3811 55.0472 51.6527 54.9436 51.8597 54.7362C52.2735 54.3221 52.273 53.6506 51.8588 53.2368Z" fill="#0BAFAB"/>
<path d="M43.8974 21.0013C43.3118 21.0013 42.8372 20.5265 42.8372 19.941C42.8372 13.4539 37.5535 8.17621 31.0588 8.17621C30.4732 8.17621 29.9985 7.70142 29.9985 7.11593C29.9985 6.53044 30.4732 6.05565 31.0588 6.05565C38.7227 6.05565 44.9577 12.2846 44.9577 19.941C44.9577 20.5265 44.483 21.0013 43.8974 21.0013Z" fill="#0BAFAB"/>
<path d="M38.7764 21.0013C38.1908 21.0013 37.7161 20.5265 37.7161 19.941C37.7161 16.2741 34.7293 13.2909 31.0578 13.2909C30.4722 13.2909 29.9976 12.8161 29.9976 12.2306C29.9976 11.6451 30.4722 11.1703 31.0578 11.1703C35.8984 11.1703 39.8366 15.1048 39.8366 19.941C39.8366 20.5265 39.362 21.0013 38.7764 21.0013Z" fill="#0BAFAB"/>
<path d="M33.6562 21.0013C33.0706 21.0013 32.5959 20.5265 32.5959 19.941C32.5959 19.0945 31.906 18.4057 31.0578 18.4057C30.4722 18.4057 29.9976 17.9309 29.9976 17.3454C29.9976 16.76 30.4722 16.2852 31.0578 16.2852C33.0751 16.2852 34.7164 17.9252 34.7164 19.941C34.7164 20.5265 34.2417 21.0013 33.6562 21.0013Z" fill="#0BAFAB"/>
</g>
<defs>
<clipPath id="clip0_306:976">
<rect width="54.2832" height="54.2832" fill="white" transform="translate(2.16748 0.763962)"/>
</clipPath>
</defs>
</svg>
