<svg width="423" height="391" viewBox="0 0 423 391" fill="none" xmlns="http://www.w3.org/2000/svg">
<path fill-rule="evenodd" clip-rule="evenodd" d="M180.661 18.2224C219.437 10.7304 261.208 -10.179 295.855 8.79228C330.216 27.6071 329.816 76.2449 349.013 110.405C367.563 143.415 371.615 179.744 374.5 217.5C377.588 257.9 398.565 289.417 374.5 322C348.638 357.017 306.909 380.718 264 388C221.654 395.186 184.691 374.179 147.17 353.256C113.522 334.493 81.5156 313.63 60.1253 281.578C37.7993 248.124 23.4301 209.603 24.4676 169.395C25.5554 127.239 35.7266 82.5181 66.0183 53.2002C95.4515 24.7132 140.45 25.9919 180.661 18.2224Z" stroke="#E9BC67" stroke-width="2"/>
<path fill-rule="evenodd" clip-rule="evenodd" d="M391.709 78.0524C426.923 120.048 428.073 182.327 412.435 234.813C397.947 283.44 359.011 320.875 313.003 342.21C272.955 360.782 229.508 344.579 185.578 340.013C132.771 334.524 70.8105 352.256 34.7004 313.282C-3.66189 271.877 -6.38334 205.594 11.465 152.091C27.8058 103.108 75.3651 74.5315 121.837 52.0776C161.266 33.0269 203.85 33.8694 247.46 38.0668C299.08 43.0351 358.363 38.2843 391.709 78.0524Z" fill="#0BAFAB"/>
</svg>
