<svg width="28" height="28" viewBox="0 0 28 28" fill="none" xmlns="http://www.w3.org/2000/svg">
<path d="M14.0001 22.75C13.7763 22.75 13.5523 22.6645 13.3814 22.4936L4.63143 13.7436C4.28952 13.4017 4.28952 12.8481 4.63143 12.5064C4.97334 12.1647 5.52699 12.1645 5.86868 12.5064L14.0001 20.6377L22.1314 12.5064C22.4733 12.1645 23.027 12.1645 23.3687 12.5064C23.7104 12.8483 23.7106 13.4019 23.3687 13.7436L14.6187 22.4936C14.4478 22.6645 14.2238 22.75 14.0001 22.75ZM14.6187 15.4936L23.3687 6.74362C23.7106 6.40171 23.7106 5.84806 23.3687 5.50637C23.0268 5.16468 22.4731 5.16446 22.1314 5.50637L14.0001 13.6377L5.86868 5.50637C5.52677 5.16446 4.97312 5.16446 4.63143 5.50637C4.28974 5.84827 4.28952 6.40193 4.63143 6.74362L13.3814 15.4936C13.5523 15.6645 13.7763 15.75 14.0001 15.75C14.2238 15.75 14.4478 15.6645 14.6187 15.4936Z" fill="#E9BC67"/>
</svg>
