<svg width="37" height="37" viewBox="0 0 37 37" fill="none" xmlns="http://www.w3.org/2000/svg">
<path d="M18.5 37C28.7173 37 37 28.7173 37 18.5C37 8.28273 28.7173 0 18.5 0C8.28273 0 0 8.28273 0 18.5C0 28.7173 8.28273 37 18.5 37Z" fill="#0BAFAB"/>
<path d="M18.5 9C14.4894 9 11.2266 12.2628 11.2266 16.2734C11.2266 17.5572 11.5657 18.8193 12.2074 19.9233C12.357 20.1807 12.5242 20.4315 12.7045 20.6689L18.184 28H18.816L24.2955 20.6689C24.4758 20.4315 24.643 20.1808 24.7926 19.9234C25.4343 18.8193 25.7734 17.5572 25.7734 16.2734C25.7734 12.2628 22.5106 9 18.5 9ZM18.5 18.6855C17.17 18.6855 16.0879 17.6035 16.0879 16.2734C16.0879 14.9434 17.17 13.8613 18.5 13.8613C19.83 13.8613 20.9121 14.9434 20.9121 16.2734C20.9121 17.6035 19.83 18.6855 18.5 18.6855Z" fill="white"/>
</svg>
