<svg width="37" height="37" viewBox="0 0 37 37" fill="none" xmlns="http://www.w3.org/2000/svg">
<path d="M18.5 37C28.7173 37 37 28.7173 37 18.5C37 8.28273 28.7173 0 18.5 0C8.28273 0 0 8.28273 0 18.5C0 28.7173 8.28273 37 18.5 37Z" fill="#0BAFAB"/>
<g clip-path="url(#clip0_302:927)">
<path d="M27.5101 23.2102L24.9982 20.6982C24.101 19.8011 22.5759 20.16 22.2171 21.3262C21.9479 22.1337 21.0508 22.5822 20.2434 22.4028C18.4491 21.9542 16.0269 19.6217 15.5783 17.7377C15.3092 16.9303 15.8475 16.0331 16.6549 15.764C17.8211 15.4052 18.18 13.8801 17.2829 12.9829L14.7709 10.471C14.0532 9.843 12.9767 9.843 12.3487 10.471L10.6441 12.1755C8.93959 13.9698 10.8236 18.7246 15.0401 22.941C19.2565 27.1575 24.0113 29.1313 25.8056 27.337L27.5101 25.6324C28.1381 24.9147 28.1381 23.8382 27.5101 23.2102Z" fill="white"/>
</g>
<defs>
<clipPath id="clip0_302:927">
<rect width="18" height="18" fill="white" transform="translate(10 10)"/>
</clipPath>
</defs>
</svg>
