<svg width="37" height="37" viewBox="0 0 37 37" fill="none" xmlns="http://www.w3.org/2000/svg">
<path d="M18.5 37C28.7173 37 37 28.7173 37 18.5C37 8.28273 28.7173 0 18.5 0C8.28273 0 0 8.28273 0 18.5C0 28.7173 8.28273 37 18.5 37Z" fill="#0BAFAB"/>
<path d="M21.3112 19.2887L19.7199 20.8854C19.0746 21.5329 17.9392 21.5469 17.28 20.8854L15.6886 19.2887L9.97318 25.0227C10.1859 25.1211 10.4205 25.1798 10.6699 25.1798H26.33C26.5794 25.1798 26.8139 25.1211 27.0266 25.0227L21.3112 19.2887Z" fill="white"/>
<path d="M26.3301 11.8203H10.6699C10.4205 11.8203 10.186 11.879 9.97329 11.9774L16.0806 18.105C16.081 18.1054 16.0815 18.1055 16.0819 18.1059C16.0823 18.1063 16.0824 18.1069 16.0824 18.1069L18.0683 20.0993C18.2792 20.3102 18.7209 20.3102 18.9318 20.0993L20.9172 18.1072C20.9172 18.1072 20.9177 18.1063 20.9181 18.1059C20.9181 18.1059 20.919 18.1054 20.9194 18.105L27.0266 11.9774C26.8139 11.8789 26.5794 11.8203 26.3301 11.8203Z" fill="white"/>
<path d="M9.17761 12.756C9.06754 12.9786 9 13.2256 9 13.4903V23.5098C9 23.7745 9.06746 24.0216 9.17757 24.2442L14.9029 18.5003L9.17761 12.756Z" fill="white"/>
<path d="M27.8223 12.7559L22.097 18.5002L27.8223 24.2442C27.9324 24.0216 27.9999 23.7745 27.9999 23.5098V13.4903C27.9999 13.2255 27.9324 12.9784 27.8223 12.7559Z" fill="white"/>
</svg>
