<svg width="37" height="37" viewBox="0 0 37 37" fill="none" xmlns="http://www.w3.org/2000/svg">
<path d="M18.5 37C28.7173 37 37 28.7173 37 18.5C37 8.28273 28.7173 0 18.5 0C8.28273 0 0 8.28273 0 18.5C0 28.7173 8.28273 37 18.5 37Z" fill="#0BAFAB"/>
<g clip-path="url(#clip0_302:905)">
<path d="M26.9833 14.998C26.9434 14.0948 26.7974 13.4738 26.5881 12.9357C26.3723 12.3645 26.0402 11.8531 25.6051 11.428C25.18 10.9963 24.6652 10.6608 24.1007 10.4483C23.5594 10.2391 22.9417 10.093 22.0384 10.0532C21.1284 10.01 20.8395 10 18.5314 10C16.2234 10 15.9345 10.01 15.0278 10.0498C14.1246 10.0896 13.5036 10.2358 12.9656 10.445C12.3943 10.6608 11.8829 10.9929 11.4578 11.428C11.0261 11.8531 10.6907 12.3679 10.4781 12.9324C10.2689 13.4738 10.1228 14.0914 10.083 14.9947C10.0398 15.9047 10.0298 16.1936 10.0298 18.5017C10.0298 20.8097 10.0398 21.0986 10.0796 22.0053C10.1194 22.9085 10.2656 23.5295 10.4749 24.0676C10.6907 24.6388 11.0261 25.1502 11.4578 25.5753C11.8829 26.007 12.3977 26.3425 12.9622 26.555C13.5036 26.7642 14.1212 26.9103 15.0246 26.9501C15.9311 26.9901 16.2201 26.9999 18.5282 26.9999C20.8363 26.9999 21.1252 26.9901 22.0318 26.9501C22.9351 26.9103 23.5561 26.7642 24.094 26.555C25.2365 26.1133 26.1398 25.21 26.5815 24.0676C26.7906 23.5263 26.9368 22.9085 26.9767 22.0053C27.0165 21.0986 27.0265 20.8097 27.0265 18.5017C27.0265 16.1936 27.0231 15.9047 26.9833 14.998ZM25.4524 21.9389C25.4158 22.7691 25.2763 23.2174 25.1601 23.5163C24.8745 24.2569 24.2867 24.8447 23.5461 25.1304C23.2472 25.2466 22.7956 25.386 21.9686 25.4225C21.072 25.4624 20.803 25.4723 18.5348 25.4723C16.2666 25.4723 15.9943 25.4624 15.1009 25.4225C14.2706 25.386 13.8223 25.2466 13.5234 25.1304C13.1549 24.9941 12.8194 24.7783 12.5471 24.496C12.2648 24.2203 12.049 23.8882 11.9127 23.5197C11.7965 23.2208 11.6571 22.7691 11.6206 21.9422C11.5806 21.0456 11.5708 20.7765 11.5708 18.5083C11.5708 16.24 11.5806 15.9677 11.6206 15.0745C11.6571 14.2442 11.7965 13.7959 11.9127 13.497C12.049 13.1283 12.2648 12.793 12.5505 12.5206C12.826 12.2383 13.1581 12.0224 13.5268 11.8863C13.8257 11.7701 14.2774 11.6306 15.1042 11.5941C16.0009 11.5542 16.2699 11.5442 18.538 11.5442C20.8097 11.5442 21.0786 11.5542 21.972 11.5941C22.8022 11.6306 23.2506 11.7701 23.5494 11.8863C23.918 12.0224 24.2535 12.2383 24.5258 12.5206C24.808 12.7962 25.0239 13.1283 25.1601 13.497C25.2763 13.7959 25.4158 14.2475 25.4524 15.0745C25.4922 15.9711 25.5022 16.24 25.5022 18.5083C25.5022 20.7765 25.4922 21.0422 25.4524 21.9389Z" fill="white"/>
<path d="M18.5316 14.1346C16.1206 14.1346 14.1645 16.0906 14.1645 18.5017C14.1645 20.9128 16.1206 22.8688 18.5316 22.8688C20.9426 22.8688 22.8986 20.9128 22.8986 18.5017C22.8986 16.0906 20.9426 14.1346 18.5316 14.1346ZM18.5316 21.3345C16.9675 21.3345 15.6987 20.0659 15.6987 18.5017C15.6987 16.9375 16.9675 15.6689 18.5316 15.6689C20.0958 15.6689 21.3644 16.9375 21.3644 18.5017C21.3644 20.0659 20.0958 21.3345 18.5316 21.3345Z" fill="white"/>
<path d="M24.0909 13.9619C24.0909 14.5249 23.6344 14.9814 23.0712 14.9814C22.5082 14.9814 22.0517 14.5249 22.0517 13.9619C22.0517 13.3988 22.5082 12.9424 23.0712 12.9424C23.6344 12.9424 24.0909 13.3988 24.0909 13.9619Z" fill="white"/>
</g>
<defs>
<clipPath id="clip0_302:905">
<rect width="17" height="17" fill="white" transform="translate(10 10)"/>
</clipPath>
</defs>
</svg>
