<svg width="37" height="37" viewBox="0 0 37 37" fill="none" xmlns="http://www.w3.org/2000/svg">
<path d="M18.5 37C28.7173 37 37 28.7173 37 18.5C37 8.28273 28.7173 0 18.5 0C8.28273 0 0 8.28273 0 18.5C0 28.7173 8.28273 37 18.5 37Z" fill="#0BAFAB"/>
<path d="M23.1882 16.7498L22.8815 19.3252C22.8683 19.4448 22.8112 19.5553 22.7213 19.6353C22.6314 19.7153 22.515 19.7592 22.3947 19.7585H19.717V27.4019C19.7177 27.4932 19.6822 27.581 19.6184 27.6462C19.5545 27.7114 19.4675 27.7487 19.3762 27.75H16.6475C16.6021 27.7494 16.5573 27.7398 16.5156 27.7218C16.4739 27.7039 16.4361 27.6779 16.4045 27.6453C16.3728 27.6128 16.3479 27.5743 16.3311 27.5321C16.3144 27.4899 16.3061 27.4449 16.3067 27.3995L16.3213 19.7585H14.2936C14.1645 19.7585 14.0407 19.7072 13.9494 19.6159C13.8581 19.5246 13.8068 19.4008 13.8068 19.2716V16.6962C13.8068 16.5671 13.8581 16.4433 13.9494 16.352C14.0407 16.2607 14.1645 16.2094 14.2936 16.2094H16.3091V13.7119C16.3091 10.8225 18.0277 9.25 20.5447 9.25H22.6064C22.7356 9.25 22.8594 9.30129 22.9507 9.39259C23.042 9.48389 23.0933 9.60772 23.0933 9.73684V11.9057C23.0933 12.0348 23.042 12.1587 22.9507 12.25C22.8594 12.3413 22.7356 12.3926 22.6064 12.3926H21.3431C19.9751 12.4145 19.717 13.0693 19.717 14.0478V16.2021H22.7135C22.7819 16.2033 22.8493 16.2188 22.9112 16.2478C22.9732 16.2767 23.0283 16.3184 23.0731 16.37C23.1179 16.4217 23.1513 16.4822 23.1711 16.5477C23.1909 16.6131 23.1968 16.682 23.1882 16.7498Z" fill="white"/>
</svg>
