<svg width="139" height="391" viewBox="0 0 139 391" fill="none" xmlns="http://www.w3.org/2000/svg">
<path fill-rule="evenodd" clip-rule="evenodd" d="M180.185 18.2225C218.96 10.7305 260.732 -10.1789 295.378 8.79241C329.74 27.6072 329.34 76.2451 348.537 110.405C367.087 143.415 371.138 179.744 374.024 217.5C377.111 257.9 398.088 289.417 374.024 322C348.162 357.017 306.433 380.718 263.524 388C221.178 395.186 184.215 374.179 146.694 353.256C113.046 334.493 81.0395 313.63 59.6493 281.578C37.3232 248.124 22.954 209.603 23.9915 169.395C25.0793 127.239 35.2506 82.5182 65.5423 53.2003C94.9754 24.7133 139.973 25.992 180.185 18.2225Z" stroke="#E9BC67" stroke-width="2"/>
<path fill-rule="evenodd" clip-rule="evenodd" d="M391.233 78.0524C426.447 120.048 427.597 182.327 411.959 234.813C397.471 283.44 358.535 320.875 312.527 342.21C272.478 360.782 229.032 344.579 185.101 340.013C132.294 334.524 70.3344 352.256 34.2243 313.282C-4.13797 271.877 -6.85941 205.594 10.989 152.091C27.3297 103.108 74.889 74.5315 121.361 52.0776C160.79 33.0269 203.374 33.8694 246.984 38.0668C298.604 43.0351 357.886 38.2843 391.233 78.0524Z" fill="#0BAFAB"/>
</svg>
