<svg width="89" height="243" viewBox="0 0 89 243" fill="none" xmlns="http://www.w3.org/2000/svg">
<g clip-path="url(#clip0_69:1574)">
<path d="M86.8399 -7.91176e-08C85.8399 -1.22829e-07 85.0299 0.81 85.0299 1.81C85.0299 2.81 85.8399 3.62 86.8399 3.62C87.8399 3.62 88.6499 2.81 88.6499 1.81C88.6499 0.81 87.8399 -3.54062e-08 86.8399 -7.91176e-08Z" fill="#E0E0E0"/>
<path d="M86.8399 19.96C85.8399 19.96 85.0299 20.77 85.0299 21.77C85.0299 22.77 85.8399 23.58 86.8399 23.58C87.8399 23.58 88.6499 22.77 88.6499 21.77C88.6499 20.77 87.8399 19.96 86.8399 19.96Z" fill="#E0E0E0"/>
<path d="M86.8399 39.92C85.8399 39.92 85.0299 40.73 85.0299 41.73C85.0299 42.73 85.8399 43.54 86.8399 43.54C87.8399 43.54 88.6499 42.73 88.6499 41.73C88.6499 40.73 87.8399 39.92 86.8399 39.92Z" fill="#E0E0E0"/>
<path d="M86.8399 59.88C85.8399 59.88 85.0299 60.69 85.0299 61.69C85.0299 62.69 85.8399 63.5 86.8399 63.5C87.8399 63.5 88.6499 62.69 88.6499 61.69C88.6499 60.69 87.8399 59.88 86.8399 59.88Z" fill="#E0E0E0"/>
<path d="M86.8399 79.84C85.8399 79.84 85.0299 80.65 85.0299 81.65C85.0299 82.65 85.8399 83.46 86.8399 83.46C87.8399 83.46 88.6499 82.65 88.6499 81.65C88.6499 80.65 87.8399 79.84 86.8399 79.84Z" fill="#E0E0E0"/>
<path d="M86.8399 99.8C85.8399 99.8 85.0299 100.61 85.0299 101.61C85.0299 102.61 85.8399 103.42 86.8399 103.42C87.8399 103.42 88.6499 102.61 88.6499 101.61C88.6499 100.61 87.8399 99.8 86.8399 99.8Z" fill="#E0E0E0"/>
<path d="M86.8399 119.76C85.8399 119.76 85.0299 120.57 85.0299 121.57C85.0299 122.57 85.8399 123.38 86.8399 123.38C87.8399 123.38 88.6499 122.57 88.6499 121.57C88.6499 120.57 87.8399 119.76 86.8399 119.76Z" fill="#E0E0E0"/>
<path d="M86.8399 139.72C85.8399 139.72 85.0299 140.53 85.0299 141.53C85.0299 142.53 85.8399 143.34 86.8399 143.34C87.8399 143.34 88.6499 142.53 88.6499 141.53C88.6499 140.53 87.8399 139.72 86.8399 139.72Z" fill="#E0E0E0"/>
<path d="M86.8399 159.68C85.8399 159.68 85.0299 160.49 85.0299 161.49C85.0299 162.49 85.8399 163.3 86.8399 163.3C87.8399 163.3 88.6499 162.49 88.6499 161.49C88.6499 160.49 87.8399 159.68 86.8399 159.68Z" fill="#E0E0E0"/>
<path d="M86.8399 179.64C85.8399 179.64 85.0299 180.45 85.0299 181.45C85.0299 182.45 85.8399 183.26 86.8399 183.26C87.8399 183.26 88.6499 182.45 88.6499 181.45C88.6499 180.45 87.8399 179.64 86.8399 179.64Z" fill="#E0E0E0"/>
<path d="M86.8399 199.6C85.8399 199.6 85.0299 200.41 85.0299 201.41C85.0299 202.41 85.8399 203.22 86.8399 203.22C87.8399 203.22 88.6499 202.41 88.6499 201.41C88.6499 200.41 87.8399 199.6 86.8399 199.6Z" fill="#E0E0E0"/>
<path d="M86.8399 219.56C85.8399 219.56 85.0299 220.37 85.0299 221.37C85.0299 222.37 85.8399 223.18 86.8399 223.18C87.8399 223.18 88.6499 222.37 88.6499 221.37C88.6499 220.37 87.8399 219.56 86.8399 219.56Z" fill="#E0E0E0"/>
<path d="M86.8399 239.52C85.8399 239.52 85.0299 240.33 85.0299 241.33C85.0299 242.33 85.8399 243.14 86.8399 243.14C87.8399 243.14 88.6499 242.33 88.6499 241.33C88.6499 240.33 87.8399 239.52 86.8399 239.52Z" fill="#E0E0E0"/>
<path d="M69.8299 -7.91176e-08C68.8299 -1.22829e-07 68.0199 0.81 68.0199 1.81C68.0199 2.81 68.8299 3.62 69.8299 3.62C70.8299 3.62 71.6399 2.81 71.6399 1.81C71.6399 0.81 70.8299 -3.54062e-08 69.8299 -7.91176e-08Z" fill="#E0E0E0"/>
<path d="M69.8299 19.96C68.8299 19.96 68.0199 20.77 68.0199 21.77C68.0199 22.77 68.8299 23.58 69.8299 23.58C70.8299 23.58 71.6399 22.77 71.6399 21.77C71.6399 20.77 70.8299 19.96 69.8299 19.96Z" fill="#E0E0E0"/>
<path d="M69.8299 39.92C68.8299 39.92 68.0199 40.73 68.0199 41.73C68.0199 42.73 68.8299 43.54 69.8299 43.54C70.8299 43.54 71.6399 42.73 71.6399 41.73C71.6399 40.73 70.8299 39.92 69.8299 39.92Z" fill="#E0E0E0"/>
<path d="M69.8299 59.88C68.8299 59.88 68.0199 60.69 68.0199 61.69C68.0199 62.69 68.8299 63.5 69.8299 63.5C70.8299 63.5 71.6399 62.69 71.6399 61.69C71.6399 60.69 70.8299 59.88 69.8299 59.88Z" fill="#E0E0E0"/>
<path d="M69.8299 79.84C68.8299 79.84 68.0199 80.65 68.0199 81.65C68.0199 82.65 68.8299 83.46 69.8299 83.46C70.8299 83.46 71.6399 82.65 71.6399 81.65C71.6399 80.65 70.8299 79.84 69.8299 79.84Z" fill="#E0E0E0"/>
<path d="M69.8299 99.8C68.8299 99.8 68.0199 100.61 68.0199 101.61C68.0199 102.61 68.8299 103.42 69.8299 103.42C70.8299 103.42 71.6399 102.61 71.6399 101.61C71.6399 100.61 70.8299 99.8 69.8299 99.8Z" fill="#E0E0E0"/>
<path d="M69.8299 119.76C68.8299 119.76 68.0199 120.57 68.0199 121.57C68.0199 122.57 68.8299 123.38 69.8299 123.38C70.8299 123.38 71.6399 122.57 71.6399 121.57C71.6399 120.57 70.8299 119.76 69.8299 119.76Z" fill="#E0E0E0"/>
<path d="M69.8299 139.72C68.8299 139.72 68.0199 140.53 68.0199 141.53C68.0199 142.53 68.8299 143.34 69.8299 143.34C70.8299 143.34 71.6399 142.53 71.6399 141.53C71.6399 140.53 70.8299 139.72 69.8299 139.72Z" fill="#E0E0E0"/>
<path d="M69.8299 159.68C68.8299 159.68 68.0199 160.49 68.0199 161.49C68.0199 162.49 68.8299 163.3 69.8299 163.3C70.8299 163.3 71.6399 162.49 71.6399 161.49C71.6399 160.49 70.8299 159.68 69.8299 159.68Z" fill="#E0E0E0"/>
<path d="M69.8299 179.64C68.8299 179.64 68.0199 180.45 68.0199 181.45C68.0199 182.45 68.8299 183.26 69.8299 183.26C70.8299 183.26 71.6399 182.45 71.6399 181.45C71.6399 180.45 70.8299 179.64 69.8299 179.64Z" fill="#E0E0E0"/>
<path d="M69.8299 199.6C68.8299 199.6 68.0199 200.41 68.0199 201.41C68.0199 202.41 68.8299 203.22 69.8299 203.22C70.8299 203.22 71.6399 202.41 71.6399 201.41C71.6399 200.41 70.8299 199.6 69.8299 199.6Z" fill="#E0E0E0"/>
<path d="M69.8299 219.56C68.8299 219.56 68.0199 220.37 68.0199 221.37C68.0199 222.37 68.8299 223.18 69.8299 223.18C70.8299 223.18 71.6399 222.37 71.6399 221.37C71.6399 220.37 70.8299 219.56 69.8299 219.56Z" fill="#E0E0E0"/>
<path d="M69.8299 239.52C68.8299 239.52 68.0199 240.33 68.0199 241.33C68.0199 242.33 68.8299 243.14 69.8299 243.14C70.8299 243.14 71.6399 242.33 71.6399 241.33C71.6399 240.33 70.8299 239.52 69.8299 239.52Z" fill="#E0E0E0"/>
<path d="M52.8299 -7.91177e-08C51.8299 -1.22829e-07 51.0199 0.81 51.0199 1.81C51.0199 2.81 51.8299 3.62 52.8299 3.62C53.8299 3.62 54.6399 2.81 54.6399 1.81C54.6399 0.81 53.8299 -3.54063e-08 52.8299 -7.91177e-08Z" fill="#E0E0E0"/>
<path d="M52.8299 19.96C51.8299 19.96 51.0199 20.77 51.0199 21.77C51.0199 22.77 51.8299 23.58 52.8299 23.58C53.8299 23.58 54.6399 22.77 54.6399 21.77C54.6399 20.77 53.8299 19.96 52.8299 19.96Z" fill="#E0E0E0"/>
<path d="M52.8299 39.92C51.8299 39.92 51.0199 40.73 51.0199 41.73C51.0199 42.73 51.8299 43.54 52.8299 43.54C53.8299 43.54 54.6399 42.73 54.6399 41.73C54.6399 40.73 53.8299 39.92 52.8299 39.92Z" fill="#E0E0E0"/>
<path d="M52.8299 59.88C51.8299 59.88 51.0199 60.69 51.0199 61.69C51.0199 62.69 51.8299 63.5 52.8299 63.5C53.8299 63.5 54.6399 62.69 54.6399 61.69C54.6399 60.69 53.8299 59.88 52.8299 59.88Z" fill="#E0E0E0"/>
<path d="M52.8299 79.84C51.8299 79.84 51.0199 80.65 51.0199 81.65C51.0199 82.65 51.8299 83.46 52.8299 83.46C53.8299 83.46 54.6399 82.65 54.6399 81.65C54.6399 80.65 53.8299 79.84 52.8299 79.84Z" fill="#E0E0E0"/>
<path d="M52.8299 99.8C51.8299 99.8 51.0199 100.61 51.0199 101.61C51.0199 102.61 51.8299 103.42 52.8299 103.42C53.8299 103.42 54.6399 102.61 54.6399 101.61C54.6399 100.61 53.8299 99.8 52.8299 99.8Z" fill="#E0E0E0"/>
<path d="M52.8299 119.76C51.8299 119.76 51.0199 120.57 51.0199 121.57C51.0199 122.57 51.8299 123.38 52.8299 123.38C53.8299 123.38 54.6399 122.57 54.6399 121.57C54.6399 120.57 53.8299 119.76 52.8299 119.76Z" fill="#E0E0E0"/>
<path d="M52.8299 139.72C51.8299 139.72 51.0199 140.53 51.0199 141.53C51.0199 142.53 51.8299 143.34 52.8299 143.34C53.8299 143.34 54.6399 142.53 54.6399 141.53C54.6399 140.53 53.8299 139.72 52.8299 139.72Z" fill="#E0E0E0"/>
<path d="M52.8299 159.68C51.8299 159.68 51.0199 160.49 51.0199 161.49C51.0199 162.49 51.8299 163.3 52.8299 163.3C53.8299 163.3 54.6399 162.49 54.6399 161.49C54.6399 160.49 53.8299 159.68 52.8299 159.68Z" fill="#E0E0E0"/>
<path d="M52.8299 179.64C51.8299 179.64 51.0199 180.45 51.0199 181.45C51.0199 182.45 51.8299 183.26 52.8299 183.26C53.8299 183.26 54.6399 182.45 54.6399 181.45C54.6399 180.45 53.8299 179.64 52.8299 179.64Z" fill="#E0E0E0"/>
<path d="M52.8299 199.6C51.8299 199.6 51.0199 200.41 51.0199 201.41C51.0199 202.41 51.8299 203.22 52.8299 203.22C53.8299 203.22 54.6399 202.41 54.6399 201.41C54.6399 200.41 53.8299 199.6 52.8299 199.6Z" fill="#E0E0E0"/>
<path d="M52.8299 219.56C51.8299 219.56 51.0199 220.37 51.0199 221.37C51.0199 222.37 51.8299 223.18 52.8299 223.18C53.8299 223.18 54.6399 222.37 54.6399 221.37C54.6399 220.37 53.8299 219.56 52.8299 219.56Z" fill="#E0E0E0"/>
<path d="M52.8299 239.52C51.8299 239.52 51.0199 240.33 51.0199 241.33C51.0199 242.33 51.8299 243.14 52.8299 243.14C53.8299 243.14 54.6399 242.33 54.6399 241.33C54.6399 240.33 53.8299 239.52 52.8299 239.52Z" fill="#E0E0E0"/>
<path d="M35.8199 -7.91177e-08C34.8199 -1.22829e-07 34.0099 0.81 34.0099 1.81C34.0099 2.81 34.8199 3.62 35.8199 3.62C36.8199 3.62 37.6299 2.81 37.6299 1.81C37.6299 0.81 36.8199 -3.54063e-08 35.8199 -7.91177e-08Z" fill="#E0E0E0"/>
<path d="M35.8199 19.96C34.8199 19.96 34.0099 20.77 34.0099 21.77C34.0099 22.77 34.8199 23.58 35.8199 23.58C36.8199 23.58 37.6299 22.77 37.6299 21.77C37.6299 20.77 36.8199 19.96 35.8199 19.96Z" fill="#E0E0E0"/>
<path d="M35.8199 39.92C34.8199 39.92 34.0099 40.73 34.0099 41.73C34.0099 42.73 34.8199 43.54 35.8199 43.54C36.8199 43.54 37.6299 42.73 37.6299 41.73C37.6299 40.73 36.8199 39.92 35.8199 39.92Z" fill="#E0E0E0"/>
<path d="M35.8199 59.88C34.8199 59.88 34.0099 60.69 34.0099 61.69C34.0099 62.69 34.8199 63.5 35.8199 63.5C36.8199 63.5 37.6299 62.69 37.6299 61.69C37.6299 60.69 36.8199 59.88 35.8199 59.88Z" fill="#E0E0E0"/>
<path d="M35.8199 79.84C34.8199 79.84 34.0099 80.65 34.0099 81.65C34.0099 82.65 34.8199 83.46 35.8199 83.46C36.8199 83.46 37.6299 82.65 37.6299 81.65C37.6299 80.65 36.8199 79.84 35.8199 79.84Z" fill="#E0E0E0"/>
<path d="M35.8199 99.8C34.8199 99.8 34.0099 100.61 34.0099 101.61C34.0099 102.61 34.8199 103.42 35.8199 103.42C36.8199 103.42 37.6299 102.61 37.6299 101.61C37.6299 100.61 36.8199 99.8 35.8199 99.8Z" fill="#E0E0E0"/>
<path d="M35.8199 119.76C34.8199 119.76 34.0099 120.57 34.0099 121.57C34.0099 122.57 34.8199 123.38 35.8199 123.38C36.8199 123.38 37.6299 122.57 37.6299 121.57C37.6299 120.57 36.8199 119.76 35.8199 119.76Z" fill="#E0E0E0"/>
<path d="M35.8199 139.72C34.8199 139.72 34.0099 140.53 34.0099 141.53C34.0099 142.53 34.8199 143.34 35.8199 143.34C36.8199 143.34 37.6299 142.53 37.6299 141.53C37.6299 140.53 36.8199 139.72 35.8199 139.72Z" fill="#E0E0E0"/>
<path d="M35.8199 159.68C34.8199 159.68 34.0099 160.49 34.0099 161.49C34.0099 162.49 34.8199 163.3 35.8199 163.3C36.8199 163.3 37.6299 162.49 37.6299 161.49C37.6299 160.49 36.8199 159.68 35.8199 159.68Z" fill="#E0E0E0"/>
<path d="M35.8199 179.64C34.8199 179.64 34.0099 180.45 34.0099 181.45C34.0099 182.45 34.8199 183.26 35.8199 183.26C36.8199 183.26 37.6299 182.45 37.6299 181.45C37.6299 180.45 36.8199 179.64 35.8199 179.64Z" fill="#E0E0E0"/>
<path d="M35.8199 199.6C34.8199 199.6 34.0099 200.41 34.0099 201.41C34.0099 202.41 34.8199 203.22 35.8199 203.22C36.8199 203.22 37.6299 202.41 37.6299 201.41C37.6299 200.41 36.8199 199.6 35.8199 199.6Z" fill="#E0E0E0"/>
<path d="M35.8199 219.56C34.8199 219.56 34.0099 220.37 34.0099 221.37C34.0099 222.37 34.8199 223.18 35.8199 223.18C36.8199 223.18 37.6299 222.37 37.6299 221.37C37.6299 220.37 36.8199 219.56 35.8199 219.56Z" fill="#E0E0E0"/>
<path d="M35.8199 239.52C34.8199 239.52 34.0099 240.33 34.0099 241.33C34.0099 242.33 34.8199 243.14 35.8199 243.14C36.8199 243.14 37.6299 242.33 37.6299 241.33C37.6299 240.33 36.8199 239.52 35.8199 239.52Z" fill="#E0E0E0"/>
<path d="M18.8099 -7.91175e-08C17.8099 -1.22829e-07 16.9999 0.81 16.9999 1.81C16.9999 2.81 17.8099 3.62 18.8099 3.62C19.8099 3.62 20.6199 2.81 20.6199 1.81C20.6199 0.81 19.8099 -3.54061e-08 18.8099 -7.91175e-08Z" fill="#E0E0E0"/>
<path d="M18.8099 19.96C17.8099 19.96 16.9999 20.77 16.9999 21.77C16.9999 22.77 17.8099 23.58 18.8099 23.58C19.8099 23.58 20.6199 22.77 20.6199 21.77C20.6199 20.77 19.8099 19.96 18.8099 19.96Z" fill="#E0E0E0"/>
<path d="M18.8099 39.92C17.8099 39.92 16.9999 40.73 16.9999 41.73C16.9999 42.73 17.8099 43.54 18.8099 43.54C19.8099 43.54 20.6199 42.73 20.6199 41.73C20.6199 40.73 19.8099 39.92 18.8099 39.92Z" fill="#E0E0E0"/>
<path d="M16.9999 61.69C16.9999 62.6896 17.8103 63.5 18.8099 63.5C19.8095 63.5 20.6199 62.6896 20.6199 61.69C20.6199 60.6904 19.8095 59.88 18.8099 59.88C17.8103 59.88 16.9999 60.6904 16.9999 61.69Z" fill="#E0E0E0"/>
<path d="M16.9999 81.65C16.9999 82.6496 17.8103 83.46 18.8099 83.46C19.8095 83.46 20.6199 82.6496 20.6199 81.65C20.6199 80.6503 19.8095 79.84 18.8099 79.84C17.8103 79.84 16.9999 80.6503 16.9999 81.65Z" fill="#E0E0E0"/>
<path d="M16.9999 101.61C16.9999 102.61 17.8103 103.42 18.8099 103.42C19.8095 103.42 20.6199 102.61 20.6199 101.61C20.6199 100.61 19.8095 99.8 18.8099 99.8C17.8103 99.8 16.9999 100.61 16.9999 101.61Z" fill="#E0E0E0"/>
<path d="M18.8099 119.76C17.8099 119.76 16.9999 120.57 16.9999 121.57C16.9999 122.57 17.8099 123.38 18.8099 123.38C19.8099 123.38 20.6199 122.57 20.6199 121.57C20.6199 120.57 19.8099 119.76 18.8099 119.76Z" fill="#E0E0E0"/>
<path d="M18.8099 139.72C17.8099 139.72 16.9999 140.53 16.9999 141.53C16.9999 142.53 17.8099 143.34 18.8099 143.34C19.8099 143.34 20.6199 142.53 20.6199 141.53C20.6199 140.53 19.8099 139.72 18.8099 139.72Z" fill="#E0E0E0"/>
<path d="M18.8099 159.68C17.8099 159.68 16.9999 160.49 16.9999 161.49C16.9999 162.49 17.8099 163.3 18.8099 163.3C19.8099 163.3 20.6199 162.49 20.6199 161.49C20.6199 160.49 19.8099 159.68 18.8099 159.68Z" fill="#E0E0E0"/>
<path d="M18.8099 179.64C17.8099 179.64 16.9999 180.45 16.9999 181.45C16.9999 182.45 17.8099 183.26 18.8099 183.26C19.8099 183.26 20.6199 182.45 20.6199 181.45C20.6199 180.45 19.8099 179.64 18.8099 179.64Z" fill="#E0E0E0"/>
<path d="M18.8099 199.6C17.8099 199.6 16.9999 200.41 16.9999 201.41C16.9999 202.41 17.8099 203.22 18.8099 203.22C19.8099 203.22 20.6199 202.41 20.6199 201.41C20.6199 200.41 19.8099 199.6 18.8099 199.6Z" fill="#E0E0E0"/>
<path d="M18.8099 219.56C17.8099 219.56 16.9999 220.37 16.9999 221.37C16.9999 222.37 17.8099 223.18 18.8099 223.18C19.8099 223.18 20.6199 222.37 20.6199 221.37C20.6199 220.37 19.8099 219.56 18.8099 219.56Z" fill="#E0E0E0"/>
<path d="M18.8099 239.52C17.8099 239.52 16.9999 240.33 16.9999 241.33C16.9999 242.33 17.8099 243.14 18.8099 243.14C19.8099 243.14 20.6199 242.33 20.6199 241.33C20.6199 240.33 19.8099 239.52 18.8099 239.52Z" fill="#E0E0E0"/>
<path d="M1.80991 -7.91175e-08C0.809906 -1.22829e-07 -9.92175e-05 0.81 -9.92612e-05 1.81C-9.9305e-05 2.81 0.809906 3.62 1.80991 3.62C2.80991 3.62 3.6199 2.81 3.6199 1.81C3.6199 0.81 2.80991 -3.54061e-08 1.80991 -7.91175e-08Z" fill="#E0E0E0"/>
<path d="M1.80991 19.96C0.809906 19.96 -9.92175e-05 20.77 -9.92612e-05 21.77C-9.9305e-05 22.77 0.809906 23.58 1.80991 23.58C2.80991 23.58 3.6199 22.77 3.6199 21.77C3.6199 20.77 2.80991 19.96 1.80991 19.96Z" fill="#E0E0E0"/>
<path d="M1.80991 39.92C0.809906 39.92 -9.92175e-05 40.73 -9.92612e-05 41.73C-9.9305e-05 42.73 0.809906 43.54 1.80991 43.54C2.80991 43.54 3.6199 42.73 3.6199 41.73C3.6199 40.73 2.80991 39.92 1.80991 39.92Z" fill="#E0E0E0"/>
<path d="M1.80991 59.88C0.809906 59.88 -9.92175e-05 60.69 -9.92612e-05 61.69C-9.9305e-05 62.69 0.809906 63.5 1.80991 63.5C2.80991 63.5 3.6199 62.69 3.6199 61.69C3.6199 60.69 2.80991 59.88 1.80991 59.88Z" fill="#E0E0E0"/>
<path d="M1.80991 79.84C0.809906 79.84 -9.92175e-05 80.65 -9.92612e-05 81.65C-9.9305e-05 82.65 0.809906 83.46 1.80991 83.46C2.80991 83.46 3.6199 82.65 3.6199 81.65C3.6199 80.65 2.80991 79.84 1.80991 79.84Z" fill="#E0E0E0"/>
<path d="M1.80991 99.8C0.809906 99.8 -9.92175e-05 100.61 -9.92612e-05 101.61C-9.9305e-05 102.61 0.809906 103.42 1.80991 103.42C2.80991 103.42 3.6199 102.61 3.6199 101.61C3.6199 100.61 2.80991 99.8 1.80991 99.8Z" fill="#E0E0E0"/>
<path d="M1.80991 119.76C0.809906 119.76 -9.92175e-05 120.57 -9.92612e-05 121.57C-9.9305e-05 122.57 0.809906 123.38 1.80991 123.38C2.80991 123.38 3.6199 122.57 3.6199 121.57C3.6199 120.57 2.80991 119.76 1.80991 119.76Z" fill="#E0E0E0"/>
<path d="M1.80991 139.72C0.809906 139.72 -9.92175e-05 140.53 -9.92612e-05 141.53C-9.9305e-05 142.53 0.809906 143.34 1.80991 143.34C2.80991 143.34 3.6199 142.53 3.6199 141.53C3.6199 140.53 2.80991 139.72 1.80991 139.72Z" fill="#E0E0E0"/>
<path d="M1.80991 159.68C0.809906 159.68 -9.92175e-05 160.49 -9.92612e-05 161.49C-9.9305e-05 162.49 0.809906 163.3 1.80991 163.3C2.80991 163.3 3.6199 162.49 3.6199 161.49C3.6199 160.49 2.80991 159.68 1.80991 159.68Z" fill="#E0E0E0"/>
<path d="M1.80991 179.64C0.809906 179.64 -9.92175e-05 180.45 -9.92612e-05 181.45C-9.9305e-05 182.45 0.809906 183.26 1.80991 183.26C2.80991 183.26 3.6199 182.45 3.6199 181.45C3.6199 180.45 2.80991 179.64 1.80991 179.64Z" fill="#E0E0E0"/>
<path d="M1.80991 199.6C0.809906 199.6 -9.92175e-05 200.41 -9.92612e-05 201.41C-9.9305e-05 202.41 0.809906 203.22 1.80991 203.22C2.80991 203.22 3.6199 202.41 3.6199 201.41C3.6199 200.41 2.80991 199.6 1.80991 199.6Z" fill="#E0E0E0"/>
<path d="M1.80991 219.56C0.809906 219.56 -9.92175e-05 220.37 -9.92612e-05 221.37C-9.9305e-05 222.37 0.809906 223.18 1.80991 223.18C2.80991 223.18 3.6199 222.37 3.6199 221.37C3.6199 220.37 2.80991 219.56 1.80991 219.56Z" fill="#E0E0E0"/>
<path d="M1.80991 239.52C0.809906 239.52 -9.92175e-05 240.33 -9.92612e-05 241.33C-9.9305e-05 242.33 0.809906 243.14 1.80991 243.14C2.80991 243.14 3.6199 242.33 3.6199 241.33C3.6199 240.33 2.80991 239.52 1.80991 239.52Z" fill="#E0E0E0"/>
</g>
<defs>
<clipPath id="clip0_69:1574">
<rect width="243" height="89" fill="white" transform="translate(89) rotate(90)"/>
</clipPath>
</defs>
</svg>
