<svg width="128" height="64" viewBox="0 0 128 64" fill="none" xmlns="http://www.w3.org/2000/svg">
<g clip-path="url(#clip0_69:1902)">
<path d="M19.8526 11.8915C19.6007 11.8915 19.2721 11.9737 18.8686 12.1364C18.7665 12.1776 18.661 12.2238 18.5503 12.2769C17.9868 12.5424 17.7877 13.2225 18.0345 13.798C18.1366 14.0361 18.2218 14.2948 18.2933 14.5757C18.472 15.278 18.5605 16.1242 18.5605 17.1178C18.5605 17.7087 18.5418 18.2569 18.5061 18.7639C18.489 19.0003 18.4669 19.2316 18.4431 19.4594C18.392 19.915 18.0975 20.3176 17.66 20.4512C17.1646 20.6037 16.6624 20.7236 16.1534 20.8143C15.5406 20.924 14.9073 20.9754 14.2655 20.9942C11.409 20.9086 9.17216 20.1788 7.57368 18.7879C5.86964 17.3045 5.01677 15.2027 5.01677 12.479C5.01677 9.70231 5.99732 7.42577 7.9601 5.64771C9.81565 3.96557 12.1632 3.08853 14.9941 2.99774C15.3652 3.01487 15.721 3.04399 16.0428 3.09881C16.179 3.12279 16.3134 3.14848 16.4445 3.18103C16.6709 3.23413 16.8939 3.19645 17.0999 3.11422C17.2089 3.13478 17.3178 3.15533 17.4251 3.18103C17.9936 3.31635 18.5844 2.97547 18.7512 2.4119C18.7529 2.40848 18.7529 2.40505 18.7546 2.40163C18.8499 2.07959 18.8959 1.79695 18.8959 1.55542C18.8959 1.02782 18.6814 0.642406 18.2507 0.399164C17.8217 0.155923 17.1442 0.0343018 16.2215 0.0343018C16.0768 0.0343018 15.9372 0.0497185 15.7925 0.0531444C15.6189 0.0411536 15.4384 0.0343018 15.241 0.0343018C13.1318 0.0343018 11.1367 0.411155 9.25388 1.16658C7.3728 1.91857 5.73856 2.99774 4.35286 4.40238C3.14591 5.61516 2.23857 6.93757 1.63083 8.3679C1.0231 9.79823 0.718384 11.3211 0.718384 12.9364C0.718384 16.1568 1.90661 18.7502 4.28307 20.7184C6.65952 22.6866 9.80884 23.6716 13.731 23.6716C15.3465 23.6716 16.7033 23.5208 17.7996 23.2211C18.8959 22.9196 19.7215 22.4742 20.2782 21.8832C20.6765 21.4396 21.0017 20.6122 21.2536 19.3977C21.5056 18.1832 21.6315 16.7752 21.6315 15.1701C21.6315 13.9351 21.497 13.0803 21.2298 12.6058C20.9625 12.1279 20.5029 11.8915 19.8526 11.8915Z" fill="#0BAFAB"/>
<path d="M37.1295 0C35.3148 0 33.6363 0.284353 32.094 0.854772C30.5517 1.42519 29.1983 2.26455 28.034 3.37284C26.8389 4.5034 25.9333 5.80697 25.3204 7.28355C24.7076 8.76184 24.3995 10.36 24.3995 12.0816C24.3995 13.8442 24.6855 15.4373 25.2574 16.8625C25.8294 18.2877 26.6823 19.5381 27.8144 20.6156C28.8732 21.6297 30.0989 22.4022 31.488 22.935C32.8788 23.4677 34.37 23.7349 35.9651 23.7349C37.8632 23.7349 39.6047 23.4026 41.1896 22.738C42.7728 22.0733 44.201 21.0747 45.4692 19.7454C46.5809 18.596 47.4286 17.2839 48.0108 15.8107C48.593 14.3376 48.8841 12.7736 48.8841 11.1155C48.8841 7.75976 47.8134 5.06697 45.6752 3.04052C43.5337 1.01237 40.6857 0 37.1295 0ZM30.0955 18.5326C28.4902 16.8179 27.6884 14.5928 27.6884 11.8589C27.6884 9.03078 28.5174 6.76623 30.1738 5.06697C31.8319 3.3677 34.0398 2.51807 36.7976 2.51807C37.2095 2.51807 37.6045 2.54376 37.9909 2.58145C39.4089 2.972 40.6193 3.68289 41.6152 4.72437C43.2102 6.39452 44.0086 8.62138 44.0086 11.4015C44.0086 14.4027 43.1507 16.8471 41.433 18.7382C40.5155 19.7488 39.4464 20.4786 38.2377 20.9462C37.6402 21.0507 37.0138 21.1072 36.3567 21.1072C33.7878 21.1055 31.7008 20.249 30.0955 18.5326Z" fill="#0BAFAB"/>
<path d="M64.7039 18.9163C64.137 19.2229 63.4186 19.4439 62.5471 19.5809C61.6772 19.718 60.4855 19.7865 58.9756 19.7865C58.5449 19.7865 58.1125 19.7762 57.6767 19.7556C57.6733 19.7556 57.6682 19.7556 57.6631 19.7556C56.9328 19.7197 56.3625 19.1013 56.3625 18.3647V16.7785C56.3625 14.1714 56.3233 10.4148 56.3897 7.42397C56.4187 6.60174 56.4459 5.77951 56.4817 4.93845C56.5344 3.7565 56.56 3.02848 56.56 2.7527C56.56 1.81399 56.4527 1.19218 56.2365 0.89241C56.022 0.590927 55.6203 0.440186 55.033 0.440186C54.6244 0.440186 54.2022 0.508704 53.7664 0.645742C53.7426 0.652594 53.7171 0.661159 53.6932 0.669724C53.0106 0.894123 52.6088 1.63584 52.7944 2.33473C52.9493 2.92057 53.0719 3.64687 53.1604 4.50849C53.3187 6.01762 53.397 8.18795 53.397 11.0161C53.397 14.024 53.3017 17.2016 53.1144 20.547C53.0617 21.4344 53.0361 21.9825 53.0361 22.1932C53.0361 22.6163 53.1093 22.9109 53.2574 23.0805C53.4038 23.2501 53.6558 23.334 54.0133 23.334C54.0235 23.334 54.4797 23.3135 55.3819 23.2707C56.2842 23.2278 57.1813 23.2073 58.0733 23.2073C58.7015 23.2073 59.5152 23.2227 60.5111 23.2552C61.5086 23.2861 62.1845 23.3032 62.5419 23.3032C63.5497 23.3032 64.2358 23.2038 64.6035 23.0017C64.6205 22.9914 64.6324 22.9777 64.6494 22.9675C64.6903 22.9503 64.7414 22.9366 64.7754 22.9178C65.1431 22.7174 65.3167 21.4618 65.3167 20.9547C65.3167 20.6173 65.2674 20.2815 65.1669 19.9492C65.0682 19.6203 64.9133 19.276 64.7039 18.9163Z" fill="#0BAFAB"/>
<path d="M83.7292 3.26137C81.3016 1.2983 78.0349 0.316772 73.9339 0.316772C73.9016 0.316772 73.1662 0.342467 71.7226 0.395569C70.6433 0.434967 69.5657 0.465801 68.4899 0.488069C67.9655 0.498347 67.5893 0.988257 67.7153 1.50044C67.877 2.16164 68.0081 2.96845 68.1051 3.91915C68.2567 5.41286 68.3333 7.44273 68.3333 10.007C68.3333 12.3709 68.2839 14.7674 68.1834 17.1947C68.083 19.6219 68.0336 20.8741 68.0336 20.9478C68.0336 21.9088 68.3673 22.558 69.0329 22.8954C69.6985 23.2329 71.0859 23.4025 73.1951 23.4025C74.4497 23.4025 75.6227 23.2894 76.7326 23.089C76.7343 23.0907 76.7377 23.0907 76.7394 23.0924C76.7581 23.089 76.7751 23.0821 76.7922 23.0787C77.4884 22.9502 78.1659 22.7961 78.8043 22.5871C80.4777 22.0441 81.9383 21.2339 83.1861 20.1564C84.5395 18.995 85.5745 17.6366 86.2946 16.0795C87.013 14.5224 87.3722 12.8677 87.3722 11.1153C87.3722 7.84185 86.1584 5.22443 83.7292 3.26137ZM72.7934 20.6463C72.4989 20.6086 72.2061 20.5607 71.9133 20.5007C71.5524 20.427 71.2919 20.1101 71.2715 19.7419C71.2272 18.8922 71.1932 18.0255 71.1727 17.1399C71.1472 16.0367 71.1336 14.9044 71.1336 13.743C71.1336 12.424 71.1489 10.8738 71.1813 9.09575C71.2102 7.50611 71.2545 5.73147 71.3157 3.77526C71.3277 3.37271 71.6273 3.02327 72.0256 2.97873C72.2844 2.94961 72.5482 2.92391 72.8189 2.90507C72.9721 2.90164 73.6854 2.97359 73.8437 2.97359C76.6968 2.97359 79.0154 3.80267 80.7977 5.45911C82.5801 7.11727 83.4721 9.27047 83.4721 11.9187C83.4721 14.5892 82.5716 16.7476 80.7739 18.3937C79.5601 19.5055 78.0808 20.2301 76.3529 20.5898C75.7027 20.6891 75.0183 20.7405 74.2982 20.7405C73.7926 20.7422 73.2922 20.7097 72.7934 20.6463Z" fill="#0BAFAB"/>
<path d="M103.611 0.633718C103.296 0.443579 102.714 0.349365 101.864 0.349365C101.748 0.349365 101.413 0.364782 100.856 0.397328C98.2654 0.553209 95.7425 0.633718 93.2878 0.633718H92.28C91.7812 0.633718 91.3948 1.07566 91.4714 1.57243C91.4731 1.58099 91.4731 1.58956 91.4748 1.59812C91.4067 1.7403 91.3642 1.89618 91.3897 2.06576C91.5089 2.83489 91.6042 3.80443 91.6706 4.97439C91.771 6.68393 91.8204 8.95875 91.8204 11.7989C91.8204 14.6595 91.7353 17.7257 91.5684 20.9975C91.5463 21.3744 91.5838 21.9396 91.5718 22.1983C91.5718 22.6214 91.6485 22.916 91.8 23.0856C91.9515 23.2552 92.2119 23.3391 92.5796 23.3391C92.6324 23.3391 92.7737 23.334 93.0035 23.3237C94.1151 23.2706 95.2267 23.2449 96.3384 23.2449C96.832 23.2449 97.5811 23.2603 98.5888 23.2929C99.5966 23.3237 100.351 23.3409 100.855 23.3409C101.883 23.3409 102.579 23.2278 102.947 23C103.314 22.7739 103.497 22.3799 103.497 21.8197C103.497 21.5662 103.447 21.2887 103.347 20.9889C103.309 20.8759 103.262 20.756 103.206 20.6292C103.037 20.2472 102.596 20.0657 102.205 20.2044C101.753 20.3654 101.261 20.4905 100.734 20.5778C99.9422 20.7097 98.9838 20.7765 97.8619 20.7765C97.2746 20.7765 96.2941 20.7611 94.9186 20.7286C94.7092 20.7183 94.5509 20.7132 94.4471 20.7132C94.4998 19.1081 94.539 17.6332 94.5645 16.2868C94.5867 15.1203 94.5986 14.0223 94.602 12.9705C94.8216 12.962 95.0548 12.9534 95.3102 12.9483C95.5944 12.9431 95.9979 12.9397 96.5222 12.9397C97.2151 12.9397 98.0356 12.95 98.9838 12.9705C99.9337 12.9911 100.529 13.0014 100.77 13.0014C101.513 13.0014 102.05 12.89 102.375 12.669C102.69 12.4532 102.85 12.1003 102.86 11.6156C102.911 11.458 102.945 11.2867 102.945 11.0828C102.945 10.903 102.914 10.7008 102.851 10.473C102.788 10.2469 102.693 9.98482 102.567 9.68848C102.147 9.81524 101.484 9.90945 100.577 9.97283C99.6698 10.0362 98.519 10.067 97.1231 10.067H95.5808C95.2557 10.067 94.9527 10.0568 94.6684 10.0362L94.7858 3.53035C94.9595 3.52864 95.1859 3.52521 95.4838 3.51493C96.8474 3.4841 97.7802 3.46697 98.2841 3.46697C99.4996 3.46697 100.504 3.52864 101.297 3.65026C101.803 3.72734 102.261 3.83183 102.671 3.96373C103.066 4.09049 103.497 3.89864 103.66 3.51665C103.728 3.35905 103.784 3.20831 103.83 3.06442C103.919 2.78692 103.963 2.53683 103.98 2.30386C104.038 2.06747 104.077 1.84479 104.077 1.64437C104.082 1.16131 103.924 0.822145 103.611 0.633718Z" fill="#0BAFAB"/>
<path d="M127.998 3.26144C127.998 2.08977 127.886 1.3275 127.659 0.972915C127.435 0.620043 127.023 0.441895 126.424 0.441895C126.33 0.441895 126.23 0.457311 126.131 0.467589C126.029 0.453885 125.927 0.441895 125.811 0.441895C125.474 0.441895 125.116 0.503562 124.733 0.625182C124.57 0.676572 124.4 0.739951 124.221 0.815322C123.809 0.990045 123.62 1.4731 123.793 1.88764C124.122 2.66533 124.371 3.6126 124.536 4.72603C124.757 6.19919 124.866 8.33869 124.866 11.1462C124.866 12.001 124.857 13.0305 124.842 14.2347C124.84 14.2913 124.84 14.3478 124.839 14.4043C124.825 15.3739 124.006 15.97 123.189 15.9254C119.058 11.2576 115.268 6.86553 111.852 2.76982C111.547 2.39982 111.353 2.16857 111.269 2.07264C110.798 1.52449 110.4 1.14079 110.073 0.924952C109.748 0.709118 109.417 0.599488 109.082 0.599488C108.982 0.599488 108.879 0.630321 108.779 0.650877C108.675 0.630321 108.573 0.599488 108.469 0.599488C108.112 0.599488 107.756 0.719396 107.398 0.955786C107.22 1.07398 107.029 1.23157 106.825 1.42857C106.501 1.73861 106.474 2.27649 106.787 2.59681C107.14 2.95654 107.403 3.43617 107.581 4.03571C107.848 4.94358 107.981 6.48011 107.981 8.6436C107.981 13.2463 107.865 16.4582 107.635 18.2791C107.453 19.7162 107.165 20.8896 106.775 21.7975C106.6 22.2035 106.772 22.6814 107.172 22.8647C107.347 22.9435 107.523 23.012 107.698 23.0702C108.117 23.2073 108.522 23.2758 108.908 23.2758C109.029 23.2758 109.135 23.2638 109.24 23.2518C109.334 23.2587 109.429 23.2758 109.521 23.2758C110.12 23.2758 110.529 23.1148 110.749 22.7927C110.97 22.4707 111.079 21.7872 111.079 20.7423C111.079 20.4888 111.058 19.7762 111.016 18.6045C110.903 14.9662 110.834 11.4786 110.806 8.1417C110.803 7.77169 111.026 7.49933 111.31 7.38114C111.421 7.42568 111.527 7.48563 111.617 7.58669C113.195 9.32707 115.25 11.6841 117.783 14.6544C120.064 17.3318 122.827 19.9423 124.786 21.8506C125.186 22.2737 125.571 22.6745 125.925 23.0343C125.981 23.0908 126.046 23.1336 126.114 23.1713C126.122 23.1799 126.132 23.1901 126.139 23.197C126.138 23.1936 126.134 23.1884 126.132 23.185C126.367 23.3049 126.652 23.3032 126.892 23.1713L127.516 22.827C127.804 22.6677 127.968 22.3576 127.934 22.027C127.847 21.1688 127.777 20.261 127.724 19.3017C127.661 18.1403 127.629 16.895 127.629 15.564C127.629 13.517 127.688 11.1291 127.809 8.39864C127.939 5.67159 127.998 3.95862 127.998 3.26144Z" fill="#0BAFAB"/>
<path d="M14.7013 28.5963C14.1668 28.2383 13.365 28.0585 12.2959 28.0585C12.124 28.0585 11.9555 28.0773 11.7869 28.0859C11.5912 28.0705 11.3937 28.0585 11.1775 28.0585C9.69819 28.0585 8.25801 28.3719 6.8604 28.9989C5.46278 29.6258 4.15369 30.5406 2.93482 31.7396C2.12622 32.5533 1.50316 33.4492 1.06396 34.429C0.624759 35.4088 0.40686 36.4006 0.40686 37.4079C0.40686 39.6005 2.18069 42.1237 5.73005 44.9775C5.81176 45.046 5.87475 45.094 5.91561 45.1214L5.93603 45.1419C8.38909 47.141 9.61647 48.8985 9.61647 50.4162C9.61647 51.6855 9.14663 52.6875 8.20865 53.4258C7.38131 54.0768 6.26629 54.4228 4.90102 54.4999C4.42777 54.469 3.96644 54.4125 3.53234 54.3046C3.2123 54.2258 2.89397 54.1213 2.57904 53.9963C2.03599 53.7804 1.43166 54.0494 1.19674 54.5872C1.14737 54.6986 1.10482 54.8082 1.06736 54.9144C0.922667 55.3204 0.851169 55.7041 0.851169 56.0621C0.851169 56.8484 1.14908 57.4445 1.74489 57.8504C2.34071 58.2564 3.22081 58.4603 4.38691 58.4603C6.11308 58.4603 7.72008 58.1125 9.20621 57.4153C10.6923 56.7199 11.9368 55.7298 12.9377 54.4468C13.5267 53.6742 13.9676 52.888 14.2638 52.0897C14.5583 51.2898 14.7064 50.4761 14.7064 49.6487C14.7064 47.4698 12.8424 44.8096 9.11599 41.6646C8.80106 41.4025 8.55933 41.2021 8.3959 41.065C7.28598 40.1281 6.53015 39.3212 6.12499 38.6463C5.72154 37.9697 5.51896 37.2194 5.51896 36.3921C5.51896 35.0131 6.01434 33.9271 7.0085 33.134C8.00266 32.3409 9.37644 31.9452 11.1298 31.9452C11.7052 31.9452 12.2704 32.0034 12.8254 32.1216C13.1063 32.1816 13.3837 32.2535 13.6595 32.3392C14.1498 32.4916 14.6843 32.2741 14.9294 31.8219C15.052 31.5958 15.1559 31.3851 15.2393 31.1915C15.4163 30.7855 15.5065 30.4566 15.5065 30.2082C15.5031 29.4939 15.2359 28.9561 14.7013 28.5963Z" fill="#0BAFAB"/>
<path d="M42.2485 31.7309C42.7966 31.3798 43.0707 30.8316 43.0707 30.0865C43.0707 29.7696 43.006 29.4287 42.8749 29.0621C42.7438 28.6973 42.543 28.293 42.2689 27.8528C41.5011 28.2793 40.381 28.5911 38.9085 28.7829C37.436 28.9765 35.4579 29.0724 32.9776 29.0724C30.9212 29.0724 28.5992 29.0108 26.0099 28.8857C23.4207 28.7607 21.8511 28.699 21.303 28.699C20.2475 28.699 19.507 28.8258 19.0831 29.081C18.6593 29.3362 18.4465 29.7747 18.4465 30.3948C18.4465 30.7254 18.5231 31.1091 18.6729 31.5425C18.7359 31.7207 18.8108 31.9125 18.901 32.1198C19.1308 32.6508 19.7266 32.8941 20.2714 32.7056C20.8195 32.5172 21.4766 32.3665 22.241 32.2568C23.3441 32.0975 24.7706 32.0136 26.4866 31.9947C27.0552 32.0153 27.5131 32.4709 27.5165 33.0482C27.5199 33.5261 27.525 34.076 27.5335 34.6978C27.5744 37.0549 27.5948 38.6 27.5948 39.3314C27.5948 42.1989 27.5233 45.4227 27.3786 49.0011C27.2339 52.5795 27.1624 54.7207 27.1624 55.423C27.1624 56.4988 27.3037 57.2337 27.5846 57.6259C27.8655 58.0199 28.3557 58.2152 29.0537 58.2152C29.5746 58.2152 30.4224 58.3317 31.0131 58.1518C31.0148 58.1518 31.0165 58.1501 31.0182 58.1484C31.3008 58.1038 31.5919 58.037 31.8932 57.9462C32.1979 57.8537 32.5111 57.7355 32.8329 57.5917C33.3453 57.3621 33.5836 56.7746 33.4083 56.2401C33.1206 55.3631 32.8993 54.2137 32.746 52.7936C32.5333 50.834 32.4277 48.1361 32.4277 44.6998C32.4277 42.9064 32.4515 40.9433 32.4992 38.8107C32.5401 36.9983 32.5979 35.0832 32.6728 33.0654C32.6916 32.5549 33.0712 32.1558 33.5495 32.065C34.1283 32.089 34.7463 32.1147 35.4459 32.1472C37.0768 32.2226 38.105 32.2585 38.5289 32.2585C38.6787 32.2585 38.8098 32.2466 38.9493 32.2414C39.2745 32.2517 39.5435 32.2585 39.7018 32.2585C40.8508 32.2585 41.7003 32.0821 42.2485 31.7309Z" fill="#0BAFAB"/>
<path d="M106.654 53.7992C105.504 52.8554 104.154 51.5347 102.605 49.8388C102.4 49.6042 102.099 49.2599 101.701 48.8042C100.221 47.1221 98.9804 46.108 97.9794 45.7637C100.172 44.8952 101.83 43.6704 102.954 42.0928C104.077 40.5134 104.639 38.6155 104.639 36.3955C104.639 33.8722 103.752 31.8732 101.978 30.3966C100.203 28.9218 97.7751 28.1835 94.6922 28.1835C94.4726 28.1835 93.3967 28.2417 91.4646 28.3599C91.0611 28.3839 90.6611 28.4079 90.2661 28.4301C88.1399 28.5466 86.5959 30.4497 86.8342 32.579C86.8359 32.5961 86.8376 32.6132 86.8393 32.6321C87.0317 34.3827 87.127 37.0789 87.127 40.719C87.127 43.5454 87.0623 46.5654 86.9313 49.7789C86.8002 52.9924 86.7372 54.8047 86.7372 55.2193C86.7372 56.4201 86.8734 57.2132 87.1474 57.5986C87.4215 57.984 87.9356 58.1776 88.6898 58.1776C89.1545 58.1776 89.6652 58.0919 90.2202 57.9189C90.7751 57.7459 91.3811 57.4821 92.0382 57.1224C91.6416 56.3361 91.3471 55.2296 91.1547 53.8027C90.9624 52.3758 90.8262 50.1249 90.7428 47.0501C91.2092 46.9953 91.599 46.9576 91.9157 46.9371C92.2306 46.9165 92.4979 46.9062 92.7175 46.9062C94.636 46.9062 97.2116 48.8779 100.446 52.8211C101.502 54.0904 102.337 55.0822 102.954 55.8C103.776 56.7798 104.491 57.4821 105.102 57.9104C105.711 58.3369 106.27 58.551 106.777 58.551C107.38 58.551 107.901 58.3198 108.34 57.859C108.779 57.3965 109.196 56.6291 109.593 55.5533C108.784 55.3272 107.804 54.7448 106.654 53.7992ZM91.7097 44.4413C91.599 44.4413 91.439 44.4344 91.2262 44.4207C91.0151 44.407 90.8534 44.4002 90.7428 44.4002C90.7428 42.4285 90.77 40.3867 90.8245 38.278C90.879 36.1676 90.9607 33.9613 91.0713 31.6591C91.5922 31.5495 92.0927 31.4655 92.5728 31.4107C93.0528 31.3559 93.5244 31.3285 93.9908 31.3285C96.1017 31.3285 97.7359 31.8184 98.8935 32.7965C100.051 33.7763 100.632 35.1604 100.632 36.9539C100.632 39.2989 99.8434 41.1318 98.2671 42.4559C96.6907 43.7784 94.5049 44.4413 91.7097 44.4413Z" fill="#0BAFAB"/>
<path d="M63.7914 41.8923L58.3303 51.4833L63.8646 64L63.7914 41.8923Z" fill="#0BAFAB"/>
<path d="M63.7915 41.8926L74.7766 41.8549L82.7827 30.7737L63.7915 41.8926Z" fill="#0BAFAB"/>
<path d="M63.7915 41.8926L82.7827 30.7737L69.2526 32.2999L63.7915 41.8926Z" fill="#EDC161"/>
<path d="M63.7915 41.8924L74.7767 41.8547L82.8559 52.8811L63.7915 41.8924Z" fill="#0BAFAB"/>
<path d="M63.7234 21.6433L63.7915 41.8923L69.2525 32.2997L64.5405 21.6433H63.7234Z" fill="#0BAFAB"/>
<path d="M62.9096 21.6433L58.2673 32.3374L63.7914 41.8923L63.7233 21.6433H62.9096Z" fill="#0BAFAB"/>
<path d="M63.7915 41.8923L69.3156 51.4473L63.8647 64L63.7915 41.8923Z" fill="#0BAFAB"/>
<path d="M63.7915 41.8923L82.8559 52.881L69.3156 51.4473L63.7915 41.8923Z" fill="#EDC161"/>
<path d="M63.7915 41.8923L44.8003 53.0095L58.3304 51.4833L63.7915 41.8923Z" fill="#EDC161"/>
<path d="M63.7915 41.8923L52.8064 41.9283L44.8003 53.0095L63.7915 41.8923Z" fill="#0BAFAB"/>
<path d="M63.7915 41.8925L44.7271 30.9021L58.2674 32.3376L63.7915 41.8925Z" fill="#EDC161"/>
<path d="M63.7915 41.8925L52.8063 41.9285L44.7271 30.9021L63.7915 41.8925Z" fill="#0BAFAB"/>
<path d="M57.7618 60.6255H0V61.9325H57.7618V60.6255Z" fill="#0BAFAB"/>
<path d="M128 60.6255H70.3114V61.9325H128V60.6255Z" fill="#0BAFAB"/>
<path d="M112.102 29.2884L109.984 32.6406C109.777 32.9695 109.416 33.1682 109.029 33.1682C108.246 33.1682 107.701 32.3888 107.964 31.6471L109.152 28.2949C109.312 27.8409 109.739 27.5377 110.217 27.5377H111.147C112.039 27.5377 112.58 28.5295 112.102 29.2884Z" fill="#0BAFAB"/>
<path d="M127.198 28.5963C126.664 28.2383 125.862 28.0585 124.793 28.0585C124.621 28.0585 124.452 28.0773 124.284 28.0859C124.088 28.0705 123.891 28.0585 123.674 28.0585C122.195 28.0585 120.755 28.3719 119.357 28.9989C117.96 29.6258 116.651 30.5406 115.432 31.7396C114.623 32.5533 114 33.4492 113.561 34.429C113.122 35.4088 112.904 36.4006 112.904 37.4079C112.904 39.6005 114.678 42.1237 118.227 44.9775C118.309 45.046 118.372 45.094 118.413 45.1214L118.433 45.1419C120.886 47.141 122.113 48.8985 122.113 50.4162C122.113 51.6855 121.644 52.6875 120.706 53.4258C119.878 54.0768 118.763 54.4228 117.398 54.4999C116.925 54.469 116.463 54.4125 116.029 54.3046C115.708 54.2258 115.391 54.1213 115.076 53.9963C114.533 53.7804 113.929 54.0494 113.694 54.5872C113.644 54.6986 113.602 54.8082 113.564 54.9144C113.42 55.3204 113.348 55.7041 113.348 56.0621C113.348 56.8484 113.648 57.4445 114.242 57.8504C114.838 58.2564 115.718 58.4603 116.884 58.4603C118.61 58.4603 120.217 58.1125 121.703 57.4153C123.189 56.7199 124.434 55.7298 125.435 54.4468C126.024 53.6742 126.465 52.888 126.759 52.0897C127.054 51.2898 127.202 50.4761 127.202 49.6487C127.202 47.4698 125.338 44.8096 121.611 41.6646C121.296 41.4025 121.056 41.2021 120.891 41.065C119.781 40.1281 119.025 39.3212 118.62 38.6463C118.217 37.9697 118.014 37.2194 118.014 36.3921C118.014 35.0131 118.511 33.9271 119.504 33.134C120.498 32.3409 121.872 31.9452 123.625 31.9452C124.2 31.9452 124.766 32.0034 125.321 32.1216C125.601 32.1816 125.881 32.2535 126.156 32.3392C126.647 32.4916 127.181 32.2741 127.426 31.8219C127.549 31.5958 127.653 31.3851 127.736 31.1915C127.913 30.7855 128.003 30.4566 128.003 30.2082C127.998 29.4939 127.731 28.9561 127.198 28.5963Z" fill="#0BAFAB"/>
</g>
<defs>
<clipPath id="clip0_69:1902">
<rect width="128" height="64" fill="white"/>
</clipPath>
</defs>
</svg>
