<svg width="188" height="243" viewBox="0 0 188 243" fill="none" xmlns="http://www.w3.org/2000/svg">
<g clip-path="url(#clip0_69:1734)">
<path d="M86.8399 3.73558e-06C85.8399 3.69187e-06 85.0299 0.810004 85.0299 1.81C85.0299 2.81 85.8399 3.62 86.8399 3.62C87.8399 3.62 88.6499 2.81 88.6499 1.81C88.6499 0.810004 87.8399 3.77929e-06 86.8399 3.73558e-06Z" fill="#E0E0E0"/>
<path d="M86.8399 19.96C85.8399 19.96 85.0299 20.77 85.0299 21.77C85.0299 22.77 85.8399 23.58 86.8399 23.58C87.8399 23.58 88.6499 22.77 88.6499 21.77C88.6499 20.77 87.8399 19.96 86.8399 19.96Z" fill="#E0E0E0"/>
<path d="M86.8399 39.92C85.8399 39.92 85.0299 40.73 85.0299 41.73C85.0299 42.73 85.8399 43.54 86.8399 43.54C87.8399 43.54 88.6499 42.73 88.6499 41.73C88.6499 40.73 87.8399 39.92 86.8399 39.92Z" fill="#E0E0E0"/>
<path d="M86.8399 59.88C85.8399 59.88 85.0299 60.69 85.0299 61.69C85.0299 62.69 85.8399 63.5 86.8399 63.5C87.8399 63.5 88.6499 62.69 88.6499 61.69C88.6499 60.69 87.8399 59.88 86.8399 59.88Z" fill="#E0E0E0"/>
<path d="M86.8399 79.84C85.8399 79.84 85.0299 80.65 85.0299 81.65C85.0299 82.65 85.8399 83.46 86.8399 83.46C87.8399 83.46 88.6499 82.65 88.6499 81.65C88.6499 80.65 87.8399 79.84 86.8399 79.84Z" fill="#E0E0E0"/>
<path d="M86.8399 99.8C85.8399 99.8 85.0299 100.61 85.0299 101.61C85.0299 102.61 85.8399 103.42 86.8399 103.42C87.8399 103.42 88.6499 102.61 88.6499 101.61C88.6499 100.61 87.8399 99.8 86.8399 99.8Z" fill="#E0E0E0"/>
<path d="M86.8399 119.76C85.8399 119.76 85.0299 120.57 85.0299 121.57C85.0299 122.57 85.8399 123.38 86.8399 123.38C87.8399 123.38 88.6499 122.57 88.6499 121.57C88.6499 120.57 87.8399 119.76 86.8399 119.76Z" fill="#E0E0E0"/>
<path d="M86.8399 139.72C85.8399 139.72 85.0299 140.53 85.0299 141.53C85.0299 142.53 85.8399 143.34 86.8399 143.34C87.8399 143.34 88.6499 142.53 88.6499 141.53C88.6499 140.53 87.8399 139.72 86.8399 139.72Z" fill="#E0E0E0"/>
<path d="M86.8399 159.68C85.8399 159.68 85.0299 160.49 85.0299 161.49C85.0299 162.49 85.8399 163.3 86.8399 163.3C87.8399 163.3 88.6499 162.49 88.6499 161.49C88.6499 160.49 87.8399 159.68 86.8399 159.68Z" fill="#E0E0E0"/>
<path d="M86.8399 179.64C85.8399 179.64 85.0299 180.45 85.0299 181.45C85.0299 182.45 85.8399 183.26 86.8399 183.26C87.8399 183.26 88.6499 182.45 88.6499 181.45C88.6499 180.45 87.8399 179.64 86.8399 179.64Z" fill="#E0E0E0"/>
<path d="M86.8399 199.6C85.8399 199.6 85.0299 200.41 85.0299 201.41C85.0299 202.41 85.8399 203.22 86.8399 203.22C87.8399 203.22 88.6499 202.41 88.6499 201.41C88.6499 200.41 87.8399 199.6 86.8399 199.6Z" fill="#E0E0E0"/>
<path d="M86.8399 219.56C85.8399 219.56 85.0299 220.37 85.0299 221.37C85.0299 222.37 85.8399 223.18 86.8399 223.18C87.8399 223.18 88.6499 222.37 88.6499 221.37C88.6499 220.37 87.8399 219.56 86.8399 219.56Z" fill="#E0E0E0"/>
<path d="M86.8399 239.52C85.8399 239.52 85.0299 240.33 85.0299 241.33C85.0299 242.33 85.8399 243.14 86.8399 243.14C87.8399 243.14 88.6499 242.33 88.6499 241.33C88.6499 240.33 87.8399 239.52 86.8399 239.52Z" fill="#E0E0E0"/>
<path d="M69.8299 3.73558e-06C68.8299 3.69187e-06 68.0199 0.810004 68.0199 1.81C68.0199 2.81 68.8299 3.62 69.8299 3.62C70.8299 3.62 71.6399 2.81 71.6399 1.81C71.6399 0.810004 70.8299 3.77929e-06 69.8299 3.73558e-06Z" fill="#E0E0E0"/>
<path d="M69.8299 19.96C68.8299 19.96 68.0199 20.77 68.0199 21.77C68.0199 22.77 68.8299 23.58 69.8299 23.58C70.8299 23.58 71.6399 22.77 71.6399 21.77C71.6399 20.77 70.8299 19.96 69.8299 19.96Z" fill="#E0E0E0"/>
<path d="M69.8299 39.92C68.8299 39.92 68.0199 40.73 68.0199 41.73C68.0199 42.73 68.8299 43.54 69.8299 43.54C70.8299 43.54 71.6399 42.73 71.6399 41.73C71.6399 40.73 70.8299 39.92 69.8299 39.92Z" fill="#E0E0E0"/>
<path d="M69.8299 59.88C68.8299 59.88 68.0199 60.69 68.0199 61.69C68.0199 62.69 68.8299 63.5 69.8299 63.5C70.8299 63.5 71.6399 62.69 71.6399 61.69C71.6399 60.69 70.8299 59.88 69.8299 59.88Z" fill="#E0E0E0"/>
<path d="M69.8299 79.84C68.8299 79.84 68.0199 80.65 68.0199 81.65C68.0199 82.65 68.8299 83.46 69.8299 83.46C70.8299 83.46 71.6399 82.65 71.6399 81.65C71.6399 80.65 70.8299 79.84 69.8299 79.84Z" fill="#E0E0E0"/>
<path d="M69.8299 99.8C68.8299 99.8 68.0199 100.61 68.0199 101.61C68.0199 102.61 68.8299 103.42 69.8299 103.42C70.8299 103.42 71.6399 102.61 71.6399 101.61C71.6399 100.61 70.8299 99.8 69.8299 99.8Z" fill="#E0E0E0"/>
<path d="M69.8299 119.76C68.8299 119.76 68.0199 120.57 68.0199 121.57C68.0199 122.57 68.8299 123.38 69.8299 123.38C70.8299 123.38 71.6399 122.57 71.6399 121.57C71.6399 120.57 70.8299 119.76 69.8299 119.76Z" fill="#E0E0E0"/>
<path d="M69.8299 139.72C68.8299 139.72 68.0199 140.53 68.0199 141.53C68.0199 142.53 68.8299 143.34 69.8299 143.34C70.8299 143.34 71.6399 142.53 71.6399 141.53C71.6399 140.53 70.8299 139.72 69.8299 139.72Z" fill="#E0E0E0"/>
<path d="M69.8299 159.68C68.8299 159.68 68.0199 160.49 68.0199 161.49C68.0199 162.49 68.8299 163.3 69.8299 163.3C70.8299 163.3 71.6399 162.49 71.6399 161.49C71.6399 160.49 70.8299 159.68 69.8299 159.68Z" fill="#E0E0E0"/>
<path d="M69.8299 179.64C68.8299 179.64 68.0199 180.45 68.0199 181.45C68.0199 182.45 68.8299 183.26 69.8299 183.26C70.8299 183.26 71.6399 182.45 71.6399 181.45C71.6399 180.45 70.8299 179.64 69.8299 179.64Z" fill="#E0E0E0"/>
<path d="M69.8299 199.6C68.8299 199.6 68.0199 200.41 68.0199 201.41C68.0199 202.41 68.8299 203.22 69.8299 203.22C70.8299 203.22 71.6399 202.41 71.6399 201.41C71.6399 200.41 70.8299 199.6 69.8299 199.6Z" fill="#E0E0E0"/>
<path d="M69.8299 219.56C68.8299 219.56 68.0199 220.37 68.0199 221.37C68.0199 222.37 68.8299 223.18 69.8299 223.18C70.8299 223.18 71.6399 222.37 71.6399 221.37C71.6399 220.37 70.8299 219.56 69.8299 219.56Z" fill="#E0E0E0"/>
<path d="M69.8299 239.52C68.8299 239.52 68.0199 240.33 68.0199 241.33C68.0199 242.33 68.8299 243.14 69.8299 243.14C70.8299 243.14 71.6399 242.33 71.6399 241.33C71.6399 240.33 70.8299 239.52 69.8299 239.52Z" fill="#E0E0E0"/>
<path d="M52.8299 1.82823e-06C51.8299 1.78452e-06 51.0199 0.810002 51.0199 1.81C51.0199 2.81 51.8299 3.62 52.8299 3.62C53.8299 3.62 54.6399 2.81 54.6399 1.81C54.6399 0.810002 53.8299 1.87194e-06 52.8299 1.82823e-06Z" fill="#E0E0E0"/>
<path d="M52.8299 19.96C51.8299 19.96 51.0199 20.77 51.0199 21.77C51.0199 22.77 51.8299 23.58 52.8299 23.58C53.8299 23.58 54.6399 22.77 54.6399 21.77C54.6399 20.77 53.8299 19.96 52.8299 19.96Z" fill="#E0E0E0"/>
<path d="M52.8299 39.92C51.8299 39.92 51.0199 40.73 51.0199 41.73C51.0199 42.73 51.8299 43.54 52.8299 43.54C53.8299 43.54 54.6399 42.73 54.6399 41.73C54.6399 40.73 53.8299 39.92 52.8299 39.92Z" fill="#E0E0E0"/>
<path d="M52.8299 59.88C51.8299 59.88 51.0199 60.69 51.0199 61.69C51.0199 62.69 51.8299 63.5 52.8299 63.5C53.8299 63.5 54.6399 62.69 54.6399 61.69C54.6399 60.69 53.8299 59.88 52.8299 59.88Z" fill="#E0E0E0"/>
<path d="M52.8299 79.84C51.8299 79.84 51.0199 80.65 51.0199 81.65C51.0199 82.65 51.8299 83.46 52.8299 83.46C53.8299 83.46 54.6399 82.65 54.6399 81.65C54.6399 80.65 53.8299 79.84 52.8299 79.84Z" fill="#E0E0E0"/>
<path d="M52.8299 99.8C51.8299 99.8 51.0199 100.61 51.0199 101.61C51.0199 102.61 51.8299 103.42 52.8299 103.42C53.8299 103.42 54.6399 102.61 54.6399 101.61C54.6399 100.61 53.8299 99.8 52.8299 99.8Z" fill="#E0E0E0"/>
<path d="M52.8299 119.76C51.8299 119.76 51.0199 120.57 51.0199 121.57C51.0199 122.57 51.8299 123.38 52.8299 123.38C53.8299 123.38 54.6399 122.57 54.6399 121.57C54.6399 120.57 53.8299 119.76 52.8299 119.76Z" fill="#E0E0E0"/>
<path d="M52.8299 139.72C51.8299 139.72 51.0199 140.53 51.0199 141.53C51.0199 142.53 51.8299 143.34 52.8299 143.34C53.8299 143.34 54.6399 142.53 54.6399 141.53C54.6399 140.53 53.8299 139.72 52.8299 139.72Z" fill="#E0E0E0"/>
<path d="M52.8299 159.68C51.8299 159.68 51.0199 160.49 51.0199 161.49C51.0199 162.49 51.8299 163.3 52.8299 163.3C53.8299 163.3 54.6399 162.49 54.6399 161.49C54.6399 160.49 53.8299 159.68 52.8299 159.68Z" fill="#E0E0E0"/>
<path d="M52.8299 179.64C51.8299 179.64 51.0199 180.45 51.0199 181.45C51.0199 182.45 51.8299 183.26 52.8299 183.26C53.8299 183.26 54.6399 182.45 54.6399 181.45C54.6399 180.45 53.8299 179.64 52.8299 179.64Z" fill="#E0E0E0"/>
<path d="M52.8299 199.6C51.8299 199.6 51.0199 200.41 51.0199 201.41C51.0199 202.41 51.8299 203.22 52.8299 203.22C53.8299 203.22 54.6399 202.41 54.6399 201.41C54.6399 200.41 53.8299 199.6 52.8299 199.6Z" fill="#E0E0E0"/>
<path d="M52.8299 219.56C51.8299 219.56 51.0199 220.37 51.0199 221.37C51.0199 222.37 51.8299 223.18 52.8299 223.18C53.8299 223.18 54.6399 222.37 54.6399 221.37C54.6399 220.37 53.8299 219.56 52.8299 219.56Z" fill="#E0E0E0"/>
<path d="M52.8299 239.52C51.8299 239.52 51.0199 240.33 51.0199 241.33C51.0199 242.33 51.8299 243.14 52.8299 243.14C53.8299 243.14 54.6399 242.33 54.6399 241.33C54.6399 240.33 53.8299 239.52 52.8299 239.52Z" fill="#E0E0E0"/>
<path d="M35.8199 1.82823e-06C34.8199 1.78452e-06 34.0099 0.810002 34.0099 1.81C34.0099 2.81 34.8199 3.62 35.8199 3.62C36.8199 3.62 37.6299 2.81 37.6299 1.81C37.6299 0.810002 36.8199 1.87194e-06 35.8199 1.82823e-06Z" fill="#E0E0E0"/>
<path d="M35.8199 19.96C34.8199 19.96 34.0099 20.77 34.0099 21.77C34.0099 22.77 34.8199 23.58 35.8199 23.58C36.8199 23.58 37.6299 22.77 37.6299 21.77C37.6299 20.77 36.8199 19.96 35.8199 19.96Z" fill="#E0E0E0"/>
<path d="M35.8199 39.92C34.8199 39.92 34.0099 40.73 34.0099 41.73C34.0099 42.73 34.8199 43.54 35.8199 43.54C36.8199 43.54 37.6299 42.73 37.6299 41.73C37.6299 40.73 36.8199 39.92 35.8199 39.92Z" fill="#E0E0E0"/>
<path d="M35.8199 59.88C34.8199 59.88 34.0099 60.69 34.0099 61.69C34.0099 62.69 34.8199 63.5 35.8199 63.5C36.8199 63.5 37.6299 62.69 37.6299 61.69C37.6299 60.69 36.8199 59.88 35.8199 59.88Z" fill="#E0E0E0"/>
<path d="M35.8199 79.84C34.8199 79.84 34.0099 80.65 34.0099 81.65C34.0099 82.65 34.8199 83.46 35.8199 83.46C36.8199 83.46 37.6299 82.65 37.6299 81.65C37.6299 80.65 36.8199 79.84 35.8199 79.84Z" fill="#E0E0E0"/>
<path d="M35.8199 99.8C34.8199 99.8 34.0099 100.61 34.0099 101.61C34.0099 102.61 34.8199 103.42 35.8199 103.42C36.8199 103.42 37.6299 102.61 37.6299 101.61C37.6299 100.61 36.8199 99.8 35.8199 99.8Z" fill="#E0E0E0"/>
<path d="M35.8199 119.76C34.8199 119.76 34.0099 120.57 34.0099 121.57C34.0099 122.57 34.8199 123.38 35.8199 123.38C36.8199 123.38 37.6299 122.57 37.6299 121.57C37.6299 120.57 36.8199 119.76 35.8199 119.76Z" fill="#E0E0E0"/>
<path d="M35.8199 139.72C34.8199 139.72 34.0099 140.53 34.0099 141.53C34.0099 142.53 34.8199 143.34 35.8199 143.34C36.8199 143.34 37.6299 142.53 37.6299 141.53C37.6299 140.53 36.8199 139.72 35.8199 139.72Z" fill="#E0E0E0"/>
<path d="M35.8199 159.68C34.8199 159.68 34.0099 160.49 34.0099 161.49C34.0099 162.49 34.8199 163.3 35.8199 163.3C36.8199 163.3 37.6299 162.49 37.6299 161.49C37.6299 160.49 36.8199 159.68 35.8199 159.68Z" fill="#E0E0E0"/>
<path d="M35.8199 179.64C34.8199 179.64 34.0099 180.45 34.0099 181.45C34.0099 182.45 34.8199 183.26 35.8199 183.26C36.8199 183.26 37.6299 182.45 37.6299 181.45C37.6299 180.45 36.8199 179.64 35.8199 179.64Z" fill="#E0E0E0"/>
<path d="M35.8199 199.6C34.8199 199.6 34.0099 200.41 34.0099 201.41C34.0099 202.41 34.8199 203.22 35.8199 203.22C36.8199 203.22 37.6299 202.41 37.6299 201.41C37.6299 200.41 36.8199 199.6 35.8199 199.6Z" fill="#E0E0E0"/>
<path d="M35.8199 219.56C34.8199 219.56 34.0099 220.37 34.0099 221.37C34.0099 222.37 34.8199 223.18 35.8199 223.18C36.8199 223.18 37.6299 222.37 37.6299 221.37C37.6299 220.37 36.8199 219.56 35.8199 219.56Z" fill="#E0E0E0"/>
<path d="M35.8199 239.52C34.8199 239.52 34.0099 240.33 34.0099 241.33C34.0099 242.33 34.8199 243.14 35.8199 243.14C36.8199 243.14 37.6299 242.33 37.6299 241.33C37.6299 240.33 36.8199 239.52 35.8199 239.52Z" fill="#E0E0E0"/>
<path d="M18.8099 -7.91175e-08C17.8099 -1.22829e-07 16.9999 0.81 16.9999 1.81C16.9999 2.81 17.8099 3.62 18.8099 3.62C19.8099 3.62 20.6199 2.81 20.6199 1.81C20.6199 0.81 19.8099 -3.54061e-08 18.8099 -7.91175e-08Z" fill="#E0E0E0"/>
<path d="M18.8099 19.96C17.8099 19.96 16.9999 20.77 16.9999 21.77C16.9999 22.77 17.8099 23.58 18.8099 23.58C19.8099 23.58 20.6199 22.77 20.6199 21.77C20.6199 20.77 19.8099 19.96 18.8099 19.96Z" fill="#E0E0E0"/>
<path d="M18.8099 39.92C17.8099 39.92 16.9999 40.73 16.9999 41.73C16.9999 42.73 17.8099 43.54 18.8099 43.54C19.8099 43.54 20.6199 42.73 20.6199 41.73C20.6199 40.73 19.8099 39.92 18.8099 39.92Z" fill="#E0E0E0"/>
<path d="M16.9999 61.69C16.9999 62.6896 17.8102 63.5 18.8099 63.5C19.8095 63.5 20.6199 62.6896 20.6199 61.69C20.6199 60.6904 19.8095 59.88 18.8099 59.88C17.8102 59.88 16.9999 60.6904 16.9999 61.69Z" fill="#E0E0E0"/>
<path d="M16.9999 81.65C16.9999 82.6496 17.8102 83.46 18.8099 83.46C19.8095 83.46 20.6199 82.6496 20.6199 81.65C20.6199 80.6504 19.8095 79.84 18.8099 79.84C17.8102 79.84 16.9999 80.6504 16.9999 81.65Z" fill="#E0E0E0"/>
<path d="M16.9999 101.61C16.9999 102.61 17.8102 103.42 18.8099 103.42C19.8095 103.42 20.6199 102.61 20.6199 101.61C20.6199 100.61 19.8095 99.8 18.8099 99.8C17.8102 99.8 16.9999 100.61 16.9999 101.61Z" fill="#E0E0E0"/>
<path d="M18.8099 119.76C17.8099 119.76 16.9999 120.57 16.9999 121.57C16.9999 122.57 17.8099 123.38 18.8099 123.38C19.8099 123.38 20.6199 122.57 20.6199 121.57C20.6199 120.57 19.8099 119.76 18.8099 119.76Z" fill="#E0E0E0"/>
<path d="M18.8099 139.72C17.8099 139.72 16.9999 140.53 16.9999 141.53C16.9999 142.53 17.8099 143.34 18.8099 143.34C19.8099 143.34 20.6199 142.53 20.6199 141.53C20.6199 140.53 19.8099 139.72 18.8099 139.72Z" fill="#E0E0E0"/>
<path d="M18.8099 159.68C17.8099 159.68 16.9999 160.49 16.9999 161.49C16.9999 162.49 17.8099 163.3 18.8099 163.3C19.8099 163.3 20.6199 162.49 20.6199 161.49C20.6199 160.49 19.8099 159.68 18.8099 159.68Z" fill="#E0E0E0"/>
<path d="M18.8099 179.64C17.8099 179.64 16.9999 180.45 16.9999 181.45C16.9999 182.45 17.8099 183.26 18.8099 183.26C19.8099 183.26 20.6199 182.45 20.6199 181.45C20.6199 180.45 19.8099 179.64 18.8099 179.64Z" fill="#E0E0E0"/>
<path d="M18.8099 199.6C17.8099 199.6 16.9999 200.41 16.9999 201.41C16.9999 202.41 17.8099 203.22 18.8099 203.22C19.8099 203.22 20.6199 202.41 20.6199 201.41C20.6199 200.41 19.8099 199.6 18.8099 199.6Z" fill="#E0E0E0"/>
<path d="M18.8099 219.56C17.8099 219.56 16.9999 220.37 16.9999 221.37C16.9999 222.37 17.8099 223.18 18.8099 223.18C19.8099 223.18 20.6199 222.37 20.6199 221.37C20.6199 220.37 19.8099 219.56 18.8099 219.56Z" fill="#E0E0E0"/>
<path d="M18.8099 239.52C17.8099 239.52 16.9999 240.33 16.9999 241.33C16.9999 242.33 17.8099 243.14 18.8099 243.14C19.8099 243.14 20.6199 242.33 20.6199 241.33C20.6199 240.33 19.8099 239.52 18.8099 239.52Z" fill="#E0E0E0"/>
<path d="M1.80988 -7.91175e-08C0.809875 -1.22829e-07 -0.000129735 0.81 -0.000129779 1.81C-0.000129823 2.81 0.809875 3.62 1.80988 3.62C2.80988 3.62 3.61987 2.81 3.61987 1.81C3.61987 0.81 2.80988 -3.54061e-08 1.80988 -7.91175e-08Z" fill="#E0E0E0"/>
<path d="M1.80988 19.96C0.809875 19.96 -0.000129735 20.77 -0.000129779 21.77C-0.000129823 22.77 0.809875 23.58 1.80988 23.58C2.80988 23.58 3.61987 22.77 3.61987 21.77C3.61987 20.77 2.80988 19.96 1.80988 19.96Z" fill="#E0E0E0"/>
<path d="M1.80988 39.92C0.809875 39.92 -0.000129735 40.73 -0.000129779 41.73C-0.000129823 42.73 0.809875 43.54 1.80988 43.54C2.80988 43.54 3.61987 42.73 3.61987 41.73C3.61987 40.73 2.80988 39.92 1.80988 39.92Z" fill="#E0E0E0"/>
<path d="M1.80988 59.88C0.809875 59.88 -0.000129735 60.69 -0.000129779 61.69C-0.000129823 62.69 0.809875 63.5 1.80988 63.5C2.80988 63.5 3.61987 62.69 3.61987 61.69C3.61987 60.69 2.80988 59.88 1.80988 59.88Z" fill="#E0E0E0"/>
<path d="M1.80988 79.84C0.809875 79.84 -0.000129735 80.65 -0.000129779 81.65C-0.000129823 82.65 0.809875 83.46 1.80988 83.46C2.80988 83.46 3.61987 82.65 3.61987 81.65C3.61987 80.65 2.80988 79.84 1.80988 79.84Z" fill="#E0E0E0"/>
<path d="M1.80988 99.8C0.809875 99.8 -0.000129735 100.61 -0.000129779 101.61C-0.000129823 102.61 0.809875 103.42 1.80988 103.42C2.80988 103.42 3.61987 102.61 3.61987 101.61C3.61987 100.61 2.80988 99.8 1.80988 99.8Z" fill="#E0E0E0"/>
<path d="M1.80988 119.76C0.809875 119.76 -0.000129735 120.57 -0.000129779 121.57C-0.000129823 122.57 0.809875 123.38 1.80988 123.38C2.80988 123.38 3.61987 122.57 3.61987 121.57C3.61987 120.57 2.80988 119.76 1.80988 119.76Z" fill="#E0E0E0"/>
<path d="M1.80988 139.72C0.809875 139.72 -0.000129735 140.53 -0.000129779 141.53C-0.000129823 142.53 0.809875 143.34 1.80988 143.34C2.80988 143.34 3.61987 142.53 3.61987 141.53C3.61987 140.53 2.80988 139.72 1.80988 139.72Z" fill="#E0E0E0"/>
<path d="M1.80988 159.68C0.809875 159.68 -0.000129735 160.49 -0.000129779 161.49C-0.000129823 162.49 0.809875 163.3 1.80988 163.3C2.80988 163.3 3.61987 162.49 3.61987 161.49C3.61987 160.49 2.80988 159.68 1.80988 159.68Z" fill="#E0E0E0"/>
<path d="M1.80988 179.64C0.809875 179.64 -0.000129735 180.45 -0.000129779 181.45C-0.000129823 182.45 0.809875 183.26 1.80988 183.26C2.80988 183.26 3.61987 182.45 3.61987 181.45C3.61987 180.45 2.80988 179.64 1.80988 179.64Z" fill="#E0E0E0"/>
<path d="M1.80988 199.6C0.809875 199.6 -0.000129735 200.41 -0.000129779 201.41C-0.000129823 202.41 0.809875 203.22 1.80988 203.22C2.80988 203.22 3.61987 202.41 3.61987 201.41C3.61987 200.41 2.80988 199.6 1.80988 199.6Z" fill="#E0E0E0"/>
<path d="M1.80988 219.56C0.809875 219.56 -0.000129735 220.37 -0.000129779 221.37C-0.000129823 222.37 0.809875 223.18 1.80988 223.18C2.80988 223.18 3.61987 222.37 3.61987 221.37C3.61987 220.37 2.80988 219.56 1.80988 219.56Z" fill="#E0E0E0"/>
<path d="M1.80988 239.52C0.809875 239.52 -0.000129735 240.33 -0.000129779 241.33C-0.000129823 242.33 0.809875 243.14 1.80988 243.14C2.80988 243.14 3.61987 242.33 3.61987 241.33C3.61987 240.33 2.80988 239.52 1.80988 239.52Z" fill="#E0E0E0"/>
</g>
<g clip-path="url(#clip1_69:1734)">
<path d="M185.84 3.73558e-06C184.84 3.69187e-06 184.03 0.810004 184.03 1.81C184.03 2.81 184.84 3.62 185.84 3.62C186.84 3.62 187.65 2.81 187.65 1.81C187.65 0.810004 186.84 3.77929e-06 185.84 3.73558e-06Z" fill="#E0E0E0"/>
<path d="M185.84 19.96C184.84 19.96 184.03 20.77 184.03 21.77C184.03 22.77 184.84 23.58 185.84 23.58C186.84 23.58 187.65 22.77 187.65 21.77C187.65 20.77 186.84 19.96 185.84 19.96Z" fill="#E0E0E0"/>
<path d="M185.84 39.92C184.84 39.92 184.03 40.73 184.03 41.73C184.03 42.73 184.84 43.54 185.84 43.54C186.84 43.54 187.65 42.73 187.65 41.73C187.65 40.73 186.84 39.92 185.84 39.92Z" fill="#E0E0E0"/>
<path d="M185.84 59.88C184.84 59.88 184.03 60.69 184.03 61.69C184.03 62.69 184.84 63.5 185.84 63.5C186.84 63.5 187.65 62.69 187.65 61.69C187.65 60.69 186.84 59.88 185.84 59.88Z" fill="#E0E0E0"/>
<path d="M185.84 79.84C184.84 79.84 184.03 80.65 184.03 81.65C184.03 82.65 184.84 83.46 185.84 83.46C186.84 83.46 187.65 82.65 187.65 81.65C187.65 80.65 186.84 79.84 185.84 79.84Z" fill="#E0E0E0"/>
<path d="M185.84 99.8C184.84 99.8 184.03 100.61 184.03 101.61C184.03 102.61 184.84 103.42 185.84 103.42C186.84 103.42 187.65 102.61 187.65 101.61C187.65 100.61 186.84 99.8 185.84 99.8Z" fill="#E0E0E0"/>
<path d="M185.84 119.76C184.84 119.76 184.03 120.57 184.03 121.57C184.03 122.57 184.84 123.38 185.84 123.38C186.84 123.38 187.65 122.57 187.65 121.57C187.65 120.57 186.84 119.76 185.84 119.76Z" fill="#E0E0E0"/>
<path d="M185.84 139.72C184.84 139.72 184.03 140.53 184.03 141.53C184.03 142.53 184.84 143.34 185.84 143.34C186.84 143.34 187.65 142.53 187.65 141.53C187.65 140.53 186.84 139.72 185.84 139.72Z" fill="#E0E0E0"/>
<path d="M185.84 159.68C184.84 159.68 184.03 160.49 184.03 161.49C184.03 162.49 184.84 163.3 185.84 163.3C186.84 163.3 187.65 162.49 187.65 161.49C187.65 160.49 186.84 159.68 185.84 159.68Z" fill="#E0E0E0"/>
<path d="M185.84 179.64C184.84 179.64 184.03 180.45 184.03 181.45C184.03 182.45 184.84 183.26 185.84 183.26C186.84 183.26 187.65 182.45 187.65 181.45C187.65 180.45 186.84 179.64 185.84 179.64Z" fill="#E0E0E0"/>
<path d="M185.84 199.6C184.84 199.6 184.03 200.41 184.03 201.41C184.03 202.41 184.84 203.22 185.84 203.22C186.84 203.22 187.65 202.41 187.65 201.41C187.65 200.41 186.84 199.6 185.84 199.6Z" fill="#E0E0E0"/>
<path d="M185.84 219.56C184.84 219.56 184.03 220.37 184.03 221.37C184.03 222.37 184.84 223.18 185.84 223.18C186.84 223.18 187.65 222.37 187.65 221.37C187.65 220.37 186.84 219.56 185.84 219.56Z" fill="#E0E0E0"/>
<path d="M185.84 239.52C184.84 239.52 184.03 240.33 184.03 241.33C184.03 242.33 184.84 243.14 185.84 243.14C186.84 243.14 187.65 242.33 187.65 241.33C187.65 240.33 186.84 239.52 185.84 239.52Z" fill="#E0E0E0"/>
<path d="M168.83 3.73558e-06C167.83 3.69187e-06 167.02 0.810004 167.02 1.81C167.02 2.81 167.83 3.62 168.83 3.62C169.83 3.62 170.64 2.81 170.64 1.81C170.64 0.810004 169.83 3.77929e-06 168.83 3.73558e-06Z" fill="#E0E0E0"/>
<path d="M168.83 19.96C167.83 19.96 167.02 20.77 167.02 21.77C167.02 22.77 167.83 23.58 168.83 23.58C169.83 23.58 170.64 22.77 170.64 21.77C170.64 20.77 169.83 19.96 168.83 19.96Z" fill="#E0E0E0"/>
<path d="M168.83 39.92C167.83 39.92 167.02 40.73 167.02 41.73C167.02 42.73 167.83 43.54 168.83 43.54C169.83 43.54 170.64 42.73 170.64 41.73C170.64 40.73 169.83 39.92 168.83 39.92Z" fill="#E0E0E0"/>
<path d="M168.83 59.88C167.83 59.88 167.02 60.69 167.02 61.69C167.02 62.69 167.83 63.5 168.83 63.5C169.83 63.5 170.64 62.69 170.64 61.69C170.64 60.69 169.83 59.88 168.83 59.88Z" fill="#E0E0E0"/>
<path d="M168.83 79.84C167.83 79.84 167.02 80.65 167.02 81.65C167.02 82.65 167.83 83.46 168.83 83.46C169.83 83.46 170.64 82.65 170.64 81.65C170.64 80.65 169.83 79.84 168.83 79.84Z" fill="#E0E0E0"/>
<path d="M168.83 99.8C167.83 99.8 167.02 100.61 167.02 101.61C167.02 102.61 167.83 103.42 168.83 103.42C169.83 103.42 170.64 102.61 170.64 101.61C170.64 100.61 169.83 99.8 168.83 99.8Z" fill="#E0E0E0"/>
<path d="M168.83 119.76C167.83 119.76 167.02 120.57 167.02 121.57C167.02 122.57 167.83 123.38 168.83 123.38C169.83 123.38 170.64 122.57 170.64 121.57C170.64 120.57 169.83 119.76 168.83 119.76Z" fill="#E0E0E0"/>
<path d="M168.83 139.72C167.83 139.72 167.02 140.53 167.02 141.53C167.02 142.53 167.83 143.34 168.83 143.34C169.83 143.34 170.64 142.53 170.64 141.53C170.64 140.53 169.83 139.72 168.83 139.72Z" fill="#E0E0E0"/>
<path d="M168.83 159.68C167.83 159.68 167.02 160.49 167.02 161.49C167.02 162.49 167.83 163.3 168.83 163.3C169.83 163.3 170.64 162.49 170.64 161.49C170.64 160.49 169.83 159.68 168.83 159.68Z" fill="#E0E0E0"/>
<path d="M168.83 179.64C167.83 179.64 167.02 180.45 167.02 181.45C167.02 182.45 167.83 183.26 168.83 183.26C169.83 183.26 170.64 182.45 170.64 181.45C170.64 180.45 169.83 179.64 168.83 179.64Z" fill="#E0E0E0"/>
<path d="M168.83 199.6C167.83 199.6 167.02 200.41 167.02 201.41C167.02 202.41 167.83 203.22 168.83 203.22C169.83 203.22 170.64 202.41 170.64 201.41C170.64 200.41 169.83 199.6 168.83 199.6Z" fill="#E0E0E0"/>
<path d="M168.83 219.56C167.83 219.56 167.02 220.37 167.02 221.37C167.02 222.37 167.83 223.18 168.83 223.18C169.83 223.18 170.64 222.37 170.64 221.37C170.64 220.37 169.83 219.56 168.83 219.56Z" fill="#E0E0E0"/>
<path d="M168.83 239.52C167.83 239.52 167.02 240.33 167.02 241.33C167.02 242.33 167.83 243.14 168.83 243.14C169.83 243.14 170.64 242.33 170.64 241.33C170.64 240.33 169.83 239.52 168.83 239.52Z" fill="#E0E0E0"/>
<path d="M151.83 1.82823e-06C150.83 1.78452e-06 150.02 0.810002 150.02 1.81C150.02 2.81 150.83 3.62 151.83 3.62C152.83 3.62 153.64 2.81 153.64 1.81C153.64 0.810002 152.83 1.87194e-06 151.83 1.82823e-06Z" fill="#E0E0E0"/>
<path d="M151.83 19.96C150.83 19.96 150.02 20.77 150.02 21.77C150.02 22.77 150.83 23.58 151.83 23.58C152.83 23.58 153.64 22.77 153.64 21.77C153.64 20.77 152.83 19.96 151.83 19.96Z" fill="#E0E0E0"/>
<path d="M151.83 39.92C150.83 39.92 150.02 40.73 150.02 41.73C150.02 42.73 150.83 43.54 151.83 43.54C152.83 43.54 153.64 42.73 153.64 41.73C153.64 40.73 152.83 39.92 151.83 39.92Z" fill="#E0E0E0"/>
<path d="M151.83 59.88C150.83 59.88 150.02 60.69 150.02 61.69C150.02 62.69 150.83 63.5 151.83 63.5C152.83 63.5 153.64 62.69 153.64 61.69C153.64 60.69 152.83 59.88 151.83 59.88Z" fill="#E0E0E0"/>
<path d="M151.83 79.84C150.83 79.84 150.02 80.65 150.02 81.65C150.02 82.65 150.83 83.46 151.83 83.46C152.83 83.46 153.64 82.65 153.64 81.65C153.64 80.65 152.83 79.84 151.83 79.84Z" fill="#E0E0E0"/>
<path d="M151.83 99.8C150.83 99.8 150.02 100.61 150.02 101.61C150.02 102.61 150.83 103.42 151.83 103.42C152.83 103.42 153.64 102.61 153.64 101.61C153.64 100.61 152.83 99.8 151.83 99.8Z" fill="#E0E0E0"/>
<path d="M151.83 119.76C150.83 119.76 150.02 120.57 150.02 121.57C150.02 122.57 150.83 123.38 151.83 123.38C152.83 123.38 153.64 122.57 153.64 121.57C153.64 120.57 152.83 119.76 151.83 119.76Z" fill="#E0E0E0"/>
<path d="M151.83 139.72C150.83 139.72 150.02 140.53 150.02 141.53C150.02 142.53 150.83 143.34 151.83 143.34C152.83 143.34 153.64 142.53 153.64 141.53C153.64 140.53 152.83 139.72 151.83 139.72Z" fill="#E0E0E0"/>
<path d="M151.83 159.68C150.83 159.68 150.02 160.49 150.02 161.49C150.02 162.49 150.83 163.3 151.83 163.3C152.83 163.3 153.64 162.49 153.64 161.49C153.64 160.49 152.83 159.68 151.83 159.68Z" fill="#E0E0E0"/>
<path d="M151.83 179.64C150.83 179.64 150.02 180.45 150.02 181.45C150.02 182.45 150.83 183.26 151.83 183.26C152.83 183.26 153.64 182.45 153.64 181.45C153.64 180.45 152.83 179.64 151.83 179.64Z" fill="#E0E0E0"/>
<path d="M151.83 199.6C150.83 199.6 150.02 200.41 150.02 201.41C150.02 202.41 150.83 203.22 151.83 203.22C152.83 203.22 153.64 202.41 153.64 201.41C153.64 200.41 152.83 199.6 151.83 199.6Z" fill="#E0E0E0"/>
<path d="M151.83 219.56C150.83 219.56 150.02 220.37 150.02 221.37C150.02 222.37 150.83 223.18 151.83 223.18C152.83 223.18 153.64 222.37 153.64 221.37C153.64 220.37 152.83 219.56 151.83 219.56Z" fill="#E0E0E0"/>
<path d="M151.83 239.52C150.83 239.52 150.02 240.33 150.02 241.33C150.02 242.33 150.83 243.14 151.83 243.14C152.83 243.14 153.64 242.33 153.64 241.33C153.64 240.33 152.83 239.52 151.83 239.52Z" fill="#E0E0E0"/>
<path d="M134.82 1.82823e-06C133.82 1.78452e-06 133.01 0.810002 133.01 1.81C133.01 2.81 133.82 3.62 134.82 3.62C135.82 3.62 136.63 2.81 136.63 1.81C136.63 0.810002 135.82 1.87194e-06 134.82 1.82823e-06Z" fill="#E0E0E0"/>
<path d="M134.82 19.96C133.82 19.96 133.01 20.77 133.01 21.77C133.01 22.77 133.82 23.58 134.82 23.58C135.82 23.58 136.63 22.77 136.63 21.77C136.63 20.77 135.82 19.96 134.82 19.96Z" fill="#E0E0E0"/>
<path d="M134.82 39.92C133.82 39.92 133.01 40.73 133.01 41.73C133.01 42.73 133.82 43.54 134.82 43.54C135.82 43.54 136.63 42.73 136.63 41.73C136.63 40.73 135.82 39.92 134.82 39.92Z" fill="#E0E0E0"/>
<path d="M134.82 59.88C133.82 59.88 133.01 60.69 133.01 61.69C133.01 62.69 133.82 63.5 134.82 63.5C135.82 63.5 136.63 62.69 136.63 61.69C136.63 60.69 135.82 59.88 134.82 59.88Z" fill="#E0E0E0"/>
<path d="M134.82 79.84C133.82 79.84 133.01 80.65 133.01 81.65C133.01 82.65 133.82 83.46 134.82 83.46C135.82 83.46 136.63 82.65 136.63 81.65C136.63 80.65 135.82 79.84 134.82 79.84Z" fill="#E0E0E0"/>
<path d="M134.82 99.8C133.82 99.8 133.01 100.61 133.01 101.61C133.01 102.61 133.82 103.42 134.82 103.42C135.82 103.42 136.63 102.61 136.63 101.61C136.63 100.61 135.82 99.8 134.82 99.8Z" fill="#E0E0E0"/>
<path d="M134.82 119.76C133.82 119.76 133.01 120.57 133.01 121.57C133.01 122.57 133.82 123.38 134.82 123.38C135.82 123.38 136.63 122.57 136.63 121.57C136.63 120.57 135.82 119.76 134.82 119.76Z" fill="#E0E0E0"/>
<path d="M134.82 139.72C133.82 139.72 133.01 140.53 133.01 141.53C133.01 142.53 133.82 143.34 134.82 143.34C135.82 143.34 136.63 142.53 136.63 141.53C136.63 140.53 135.82 139.72 134.82 139.72Z" fill="#E0E0E0"/>
<path d="M134.82 159.68C133.82 159.68 133.01 160.49 133.01 161.49C133.01 162.49 133.82 163.3 134.82 163.3C135.82 163.3 136.63 162.49 136.63 161.49C136.63 160.49 135.82 159.68 134.82 159.68Z" fill="#E0E0E0"/>
<path d="M134.82 179.64C133.82 179.64 133.01 180.45 133.01 181.45C133.01 182.45 133.82 183.26 134.82 183.26C135.82 183.26 136.63 182.45 136.63 181.45C136.63 180.45 135.82 179.64 134.82 179.64Z" fill="#E0E0E0"/>
<path d="M134.82 199.6C133.82 199.6 133.01 200.41 133.01 201.41C133.01 202.41 133.82 203.22 134.82 203.22C135.82 203.22 136.63 202.41 136.63 201.41C136.63 200.41 135.82 199.6 134.82 199.6Z" fill="#E0E0E0"/>
<path d="M134.82 219.56C133.82 219.56 133.01 220.37 133.01 221.37C133.01 222.37 133.82 223.18 134.82 223.18C135.82 223.18 136.63 222.37 136.63 221.37C136.63 220.37 135.82 219.56 134.82 219.56Z" fill="#E0E0E0"/>
<path d="M134.82 239.52C133.82 239.52 133.01 240.33 133.01 241.33C133.01 242.33 133.82 243.14 134.82 243.14C135.82 243.14 136.63 242.33 136.63 241.33C136.63 240.33 135.82 239.52 134.82 239.52Z" fill="#E0E0E0"/>
<path d="M117.81 -7.91175e-08C116.81 -1.22829e-07 116 0.81 116 1.81C116 2.81 116.81 3.62 117.81 3.62C118.81 3.62 119.62 2.81 119.62 1.81C119.62 0.81 118.81 -3.54061e-08 117.81 -7.91175e-08Z" fill="#E0E0E0"/>
<path d="M117.81 19.96C116.81 19.96 116 20.77 116 21.77C116 22.77 116.81 23.58 117.81 23.58C118.81 23.58 119.62 22.77 119.62 21.77C119.62 20.77 118.81 19.96 117.81 19.96Z" fill="#E0E0E0"/>
<path d="M117.81 39.92C116.81 39.92 116 40.73 116 41.73C116 42.73 116.81 43.54 117.81 43.54C118.81 43.54 119.62 42.73 119.62 41.73C119.62 40.73 118.81 39.92 117.81 39.92Z" fill="#E0E0E0"/>
<path d="M116 61.69C116 62.6896 116.81 63.5 117.81 63.5C118.81 63.5 119.62 62.6896 119.62 61.69C119.62 60.6904 118.81 59.88 117.81 59.88C116.81 59.88 116 60.6904 116 61.69Z" fill="#E0E0E0"/>
<path d="M116 81.65C116 82.6496 116.81 83.46 117.81 83.46C118.81 83.46 119.62 82.6496 119.62 81.65C119.62 80.6504 118.81 79.84 117.81 79.84C116.81 79.84 116 80.6504 116 81.65Z" fill="#E0E0E0"/>
<path d="M116 101.61C116 102.61 116.81 103.42 117.81 103.42C118.81 103.42 119.62 102.61 119.62 101.61C119.62 100.61 118.81 99.8 117.81 99.8C116.81 99.8 116 100.61 116 101.61Z" fill="#E0E0E0"/>
<path d="M117.81 119.76C116.81 119.76 116 120.57 116 121.57C116 122.57 116.81 123.38 117.81 123.38C118.81 123.38 119.62 122.57 119.62 121.57C119.62 120.57 118.81 119.76 117.81 119.76Z" fill="#E0E0E0"/>
<path d="M117.81 139.72C116.81 139.72 116 140.53 116 141.53C116 142.53 116.81 143.34 117.81 143.34C118.81 143.34 119.62 142.53 119.62 141.53C119.62 140.53 118.81 139.72 117.81 139.72Z" fill="#E0E0E0"/>
<path d="M117.81 159.68C116.81 159.68 116 160.49 116 161.49C116 162.49 116.81 163.3 117.81 163.3C118.81 163.3 119.62 162.49 119.62 161.49C119.62 160.49 118.81 159.68 117.81 159.68Z" fill="#E0E0E0"/>
<path d="M117.81 179.64C116.81 179.64 116 180.45 116 181.45C116 182.45 116.81 183.26 117.81 183.26C118.81 183.26 119.62 182.45 119.62 181.45C119.62 180.45 118.81 179.64 117.81 179.64Z" fill="#E0E0E0"/>
<path d="M117.81 199.6C116.81 199.6 116 200.41 116 201.41C116 202.41 116.81 203.22 117.81 203.22C118.81 203.22 119.62 202.41 119.62 201.41C119.62 200.41 118.81 199.6 117.81 199.6Z" fill="#E0E0E0"/>
<path d="M117.81 219.56C116.81 219.56 116 220.37 116 221.37C116 222.37 116.81 223.18 117.81 223.18C118.81 223.18 119.62 222.37 119.62 221.37C119.62 220.37 118.81 219.56 117.81 219.56Z" fill="#E0E0E0"/>
<path d="M117.81 239.52C116.81 239.52 116 240.33 116 241.33C116 242.33 116.81 243.14 117.81 243.14C118.81 243.14 119.62 242.33 119.62 241.33C119.62 240.33 118.81 239.52 117.81 239.52Z" fill="#E0E0E0"/>
<path d="M100.81 -7.91175e-08C99.8099 -1.22829e-07 98.9999 0.81 98.9999 1.81C98.9999 2.81 99.8099 3.62 100.81 3.62C101.81 3.62 102.62 2.81 102.62 1.81C102.62 0.81 101.81 -3.54061e-08 100.81 -7.91175e-08Z" fill="#E0E0E0"/>
<path d="M100.81 19.96C99.8099 19.96 98.9999 20.77 98.9999 21.77C98.9999 22.77 99.8099 23.58 100.81 23.58C101.81 23.58 102.62 22.77 102.62 21.77C102.62 20.77 101.81 19.96 100.81 19.96Z" fill="#E0E0E0"/>
<path d="M100.81 39.92C99.8099 39.92 98.9999 40.73 98.9999 41.73C98.9999 42.73 99.8099 43.54 100.81 43.54C101.81 43.54 102.62 42.73 102.62 41.73C102.62 40.73 101.81 39.92 100.81 39.92Z" fill="#E0E0E0"/>
<path d="M100.81 59.88C99.8099 59.88 98.9999 60.69 98.9999 61.69C98.9999 62.69 99.8099 63.5 100.81 63.5C101.81 63.5 102.62 62.69 102.62 61.69C102.62 60.69 101.81 59.88 100.81 59.88Z" fill="#E0E0E0"/>
<path d="M100.81 79.84C99.8099 79.84 98.9999 80.65 98.9999 81.65C98.9999 82.65 99.8099 83.46 100.81 83.46C101.81 83.46 102.62 82.65 102.62 81.65C102.62 80.65 101.81 79.84 100.81 79.84Z" fill="#E0E0E0"/>
<path d="M100.81 99.8C99.8099 99.8 98.9999 100.61 98.9999 101.61C98.9999 102.61 99.8099 103.42 100.81 103.42C101.81 103.42 102.62 102.61 102.62 101.61C102.62 100.61 101.81 99.8 100.81 99.8Z" fill="#E0E0E0"/>
<path d="M100.81 119.76C99.8099 119.76 98.9999 120.57 98.9999 121.57C98.9999 122.57 99.8099 123.38 100.81 123.38C101.81 123.38 102.62 122.57 102.62 121.57C102.62 120.57 101.81 119.76 100.81 119.76Z" fill="#E0E0E0"/>
<path d="M100.81 139.72C99.8099 139.72 98.9999 140.53 98.9999 141.53C98.9999 142.53 99.8099 143.34 100.81 143.34C101.81 143.34 102.62 142.53 102.62 141.53C102.62 140.53 101.81 139.72 100.81 139.72Z" fill="#E0E0E0"/>
<path d="M100.81 159.68C99.8099 159.68 98.9999 160.49 98.9999 161.49C98.9999 162.49 99.8099 163.3 100.81 163.3C101.81 163.3 102.62 162.49 102.62 161.49C102.62 160.49 101.81 159.68 100.81 159.68Z" fill="#E0E0E0"/>
<path d="M100.81 179.64C99.8099 179.64 98.9999 180.45 98.9999 181.45C98.9999 182.45 99.8099 183.26 100.81 183.26C101.81 183.26 102.62 182.45 102.62 181.45C102.62 180.45 101.81 179.64 100.81 179.64Z" fill="#E0E0E0"/>
<path d="M100.81 199.6C99.8099 199.6 98.9999 200.41 98.9999 201.41C98.9999 202.41 99.8099 203.22 100.81 203.22C101.81 203.22 102.62 202.41 102.62 201.41C102.62 200.41 101.81 199.6 100.81 199.6Z" fill="#E0E0E0"/>
<path d="M100.81 219.56C99.8099 219.56 98.9999 220.37 98.9999 221.37C98.9999 222.37 99.8099 223.18 100.81 223.18C101.81 223.18 102.62 222.37 102.62 221.37C102.62 220.37 101.81 219.56 100.81 219.56Z" fill="#E0E0E0"/>
<path d="M100.81 239.52C99.8099 239.52 98.9999 240.33 98.9999 241.33C98.9999 242.33 99.8099 243.14 100.81 243.14C101.81 243.14 102.62 242.33 102.62 241.33C102.62 240.33 101.81 239.52 100.81 239.52Z" fill="#E0E0E0"/>
</g>
<defs>
<clipPath id="clip0_69:1734">
<rect width="243" height="89" fill="white" transform="translate(89) rotate(90)"/>
</clipPath>
<clipPath id="clip1_69:1734">
<rect width="243" height="89" fill="white" transform="translate(188) rotate(90)"/>
</clipPath>
</defs>
</svg>
