<svg width="8" height="8" viewBox="0 0 8 8" fill="none" xmlns="http://www.w3.org/2000/svg">
<path d="M2.80869 7.61652L4.41102 6.01419L6.01334 7.6165C6.45627 8.05944 7.17358 8.05946 7.61651 7.61652C8.05945 7.17358 8.05945 6.45626 7.61651 6.01332L6.0142 4.41101L7.61653 2.80868C8.05861 2.36661 8.05945 1.64844 7.61651 1.2055C7.17358 0.762565 6.45629 0.762565 6.01335 1.2055L4.41102 2.80783L2.80869 1.2055C2.36662 0.763425 1.64844 0.762565 1.2055 1.2055C0.763423 1.64758 0.762576 2.36575 1.20551 2.80868L2.80784 4.41101L1.20551 6.01334C0.763436 6.45542 0.762576 7.17357 1.20551 7.6165C1.64845 8.05944 2.36662 8.0586 2.80869 7.61652Z" fill="#0BAFAB"/>
</svg>
