<svg width="375" height="458" viewBox="0 0 375 458" fill="none" xmlns="http://www.w3.org/2000/svg">
<path fill-rule="evenodd" clip-rule="evenodd" d="M111.58 34.324C149.985 19.9769 189.146 -8.62195 227.882 4.83285C266.298 18.1767 274.265 68.0371 299.8 99.7017C324.475 130.3 365.3 148.811 374.756 186.966C384.874 227.793 370.398 270.304 351.374 307.804C330.929 348.105 306.05 391.669 263.377 406.513C221.264 421.162 177.005 398.031 134.99 383.073C97.3129 369.659 60.9541 353.813 33.5368 324.684C4.92007 294.282 -16.4237 257.321 -22.2858 215.981C-28.4319 172.637 -25.7207 125.104 0.24074 89.8742C25.4664 55.6428 71.7521 49.2027 111.58 34.324Z" stroke="#E9BC67" stroke-width="2"/>
<path fill-rule="evenodd" clip-rule="evenodd" d="M169.82 20.7824C225.331 14.3634 279.001 48.3025 314.914 91.0355C348.188 130.627 358.219 184.746 350.574 235.857C343.919 280.348 305.751 308.232 277.218 343.053C242.921 384.91 223.26 447.575 169.82 456.45C113.047 465.879 55.0858 431.033 19.5457 385.848C-12.9923 344.481 -10.6424 287.99 -3.68947 235.857C2.2097 191.625 26.8158 155.863 54.8541 121.108C88.0424 79.9689 117.254 26.8609 169.82 20.7824Z" fill="#F5F5F5"/>
</svg>
