<svg width="10" height="10" viewBox="0 0 10 10" fill="none" xmlns="http://www.w3.org/2000/svg">
<path d="M5.6669 7.93282L5.6669 5.66679L7.93291 5.66679C8.55933 5.66679 9.06654 5.15959 9.06654 4.53318C9.06654 3.90677 8.55933 3.39955 7.93291 3.39955L5.6669 3.39955L5.6669 1.13352C5.6669 0.508324 5.15968 -9.17235e-05 4.53327 -9.17509e-05C3.90686 -9.17783e-05 3.39966 0.507108 3.39966 1.13352L3.39966 3.39955L1.13363 3.39955C0.508436 3.39955 1.73657e-06 3.90677 1.70919e-06 4.53318C1.68186e-06 5.15837 0.50722 5.66679 1.13363 5.66679L3.39966 5.66679L3.39966 7.93282C3.39966 8.55802 3.90686 9.06643 4.53327 9.06643C5.15968 9.06643 5.6669 8.55802 5.6669 7.93282Z" fill="#0BAFAB"/>
</svg>
