<svg width="150" height="147" viewBox="0 0 150 147" fill="none" xmlns="http://www.w3.org/2000/svg">
<path d="M2.99988 119C4.65673 119 5.99989 117.657 5.99989 116C5.99989 114.343 4.65673 113 2.99988 113C1.34302 113 -0.000114441 114.343 -0.000114441 116C-0.000114441 117.657 1.34302 119 2.99988 119Z" fill="#0BAFAB"/>
<path d="M147 82.9999C148.657 82.9999 150 81.6568 150 79.9999C150 78.3431 148.657 76.9999 147 76.9999C145.343 76.9999 144 78.3431 144 79.9999C144 81.6568 145.343 82.9999 147 82.9999Z" fill="#0BAFAB"/>
<path d="M94.6165 8.01323L93.0142 6.4109L94.6165 4.80859C95.0595 4.36565 95.0595 3.64835 94.6165 3.20541C94.1736 2.76247 93.4563 2.76247 93.0133 3.20541L91.411 4.80772L89.8087 3.20539C89.3666 2.76332 88.6485 2.76247 88.2055 3.20541C87.7626 3.64835 87.7626 4.36564 88.2055 4.80857L89.8078 6.4109L88.2055 8.01323C87.7634 8.45531 87.7626 9.17348 88.2055 9.61642C88.6476 10.0585 89.3658 10.0593 89.8087 9.61641L91.411 8.01408L93.0134 9.61641C93.4554 10.0585 94.1736 10.0593 94.6165 9.61641C95.0595 9.17347 95.0586 8.45531 94.6165 8.01323Z" fill="#0BAFAB"/>
<path d="M87.6669 144.933L87.6669 142.667L89.9329 142.667C90.5593 142.667 91.0665 142.16 91.0665 141.533C91.0665 140.907 90.5593 140.4 89.9329 140.4L87.6669 140.4L87.6669 138.134C87.6669 137.508 87.1597 137 86.5333 137C85.9069 137 85.3997 137.507 85.3997 138.134L85.3997 140.4L83.1336 140.4C82.5084 140.4 82 140.907 82 141.533C82 142.158 82.5072 142.667 83.1336 142.667L85.3997 142.667L85.3997 144.933C85.3997 145.558 85.9069 146.066 86.5333 146.066C87.1597 146.066 87.6669 145.558 87.6669 144.933Z" fill="#0BAFAB"/>
</svg>
