<svg width="120" height="123" viewBox="0 0 120 123" fill="none" xmlns="http://www.w3.org/2000/svg">
<path d="M86.9623 123H33.0396C14.7921 123 0.000976562 108.228 0.000976562 90.003V32.997C0.000976562 14.7724 14.7921 0 33.0396 0H86.9623C105.21 0 120.001 14.7724 120.001 32.997V90.003C119.991 108.228 105.199 123 86.9623 123Z" fill="#0BAFAB"/>
<path d="M60.6915 82.539C58.4806 82.3421 54.4221 81.6682 50.1664 79.0455C46.8034 76.9825 44.6548 74.5152 43.43 72.8566C42.3193 72.7322 40.4925 72.7115 38.51 73.5097C33.8495 75.4068 32.4275 80.2584 32.2302 80.9633C27.7462 78.6723 22.6913 77.0551 19.2764 79.201C14.3771 82.2695 15.1556 91.9623 14.9584 91.3506C13.744 87.5046 9.2703 71.851 17.1174 55.0882C22.6705 43.2288 31.5452 36.8429 35.5621 34.3135C34.9705 36.1898 33.1333 42.897 36.351 50.1951C38.4269 54.9016 41.6758 57.711 43.4196 59.0171C43.4715 55.2126 44.115 48.9512 47.7376 42.5446C48.9208 40.4505 50.2183 38.6986 51.4639 37.2472C51.5262 39.0096 51.5988 40.7719 51.6611 42.5446C52.7302 41.9433 53.9654 41.3317 55.3874 40.7823C57.3492 40.0151 59.1553 39.559 60.6915 39.2687" stroke="white" stroke-width="2" stroke-miterlimit="10"/>
<path d="M60.515 82.5079C62.7467 82.3213 67.0127 81.6578 71.4034 78.8381C74.4654 76.8684 76.4583 74.5567 77.6416 72.9498C78.7522 72.8254 80.5998 72.784 82.6031 73.6029C87.274 75.5 88.696 80.3516 88.8828 81.0462C93.3669 78.7551 98.4218 77.138 101.837 79.2838C106.736 82.3524 105.957 92.0452 106.155 91.4335C107.379 87.5875 111.843 71.9339 103.996 55.1711C98.4425 43.3117 89.5679 36.9258 85.5509 34.3964C86.1426 36.2727 87.9798 42.9799 84.7621 50.278C82.6861 54.9845 79.4373 57.7938 77.6935 59.1C77.652 55.2955 76.998 49.0444 73.3755 42.6275C72.1922 40.5334 70.8948 38.7814 69.6492 37.3301C69.5869 39.0924 69.5142 40.8548 69.452 42.6275C68.3829 42.0262 67.1373 41.4249 65.7256 40.8651C63.795 40.1084 62.0097 39.6211 60.4839 39.3205" stroke="white" stroke-width="2" stroke-miterlimit="10"/>
<path d="M56.2385 57.5555C56.2385 59.6807 54.5778 61.4119 52.5226 61.4119C50.4674 61.4119 48.8066 59.6911 48.8066 57.5555C48.8066 55.4304 50.4674 53.7095 52.5226 53.7095C54.5674 53.6992 56.2385 55.4304 56.2385 57.5555Z" fill="#EBBA34"/>
<path d="M72.0779 57.6903C72.0779 59.8154 70.4171 61.5466 68.3619 61.5466C66.3067 61.5466 64.646 59.8258 64.646 57.6903C64.646 55.5651 66.3067 53.8442 68.3619 53.8442C70.4171 53.8442 72.0779 55.5651 72.0779 57.6903Z" fill="#EBBA34"/>
<path d="M54.4116 63.4644C55.8336 62.9979 58.003 62.4589 60.6913 62.4796C63.1929 62.5003 65.2377 63.0083 66.6182 63.4644C66.5767 64.0657 66.3483 66.139 64.6564 67.8495C64.3762 68.1398 62.7673 69.7673 60.6913 69.8088C58.0445 69.8606 55.2731 67.3208 54.4116 63.4644Z" stroke="#EBBA34" stroke-miterlimit="10"/>
<path d="M54.4116 63.4644C55.8336 62.9979 58.003 62.4589 60.6913 62.4796C63.1929 62.5003 65.2377 63.0083 66.6182 63.4644C66.5767 64.0657 66.3483 66.139 64.6564 67.8495C64.3762 68.1398 62.7673 69.7673 60.6913 69.8088C58.0445 69.8606 55.2731 67.3208 54.4116 63.4644Z" stroke="white" stroke-miterlimit="10"/>
<path d="M56.9442 64.9882C57.3075 64.2107 57.6604 63.4229 58.0133 62.6454H55.6675C56.093 63.4332 56.5186 64.2107 56.9442 64.9882Z" fill="#EBBA34"/>
<path d="M64.2204 64.9882C64.5837 64.2107 64.9366 63.4229 65.2999 62.6454H62.9541C63.3797 63.4332 63.7949 64.2107 64.2204 64.9882Z" fill="#EBBA34"/>
</svg>
