<svg width="121" height="123" viewBox="0 0 121 123" fill="none" xmlns="http://www.w3.org/2000/svg">
<path d="M87.3114 123H33.3888C15.1412 123 0.350098 108.228 0.350098 90.003V32.997C0.350098 14.7724 15.1412 0 33.3888 0H87.3114C105.559 0 120.35 14.7724 120.35 32.997V90.003C120.35 108.228 105.559 123 87.3114 123Z" fill="#0BAFAB"/>
<path d="M25.3545 44.7527C28.0428 45.5095 30.7416 46.2662 33.4299 47.0126C33.7621 46.2144 34.0942 45.4058 34.416 44.6076C34.4264 44.9289 34.5509 48.4743 37.5299 50.4129C39.5955 51.7605 41.7648 51.491 42.3461 51.4081C42.782 51.2733 45.5431 50.361 46.882 47.448C48.3871 44.1514 46.7782 41.1244 46.6018 40.803C46.3942 40.378 45.0656 37.776 41.9309 36.843C38.6924 35.8789 36.0871 37.4442 35.6927 37.693C32.257 40.0359 28.8006 42.3995 25.3545 44.7527Z" fill="#EBBA34"/>
<path d="M21.3894 51.263C21.8669 50.869 22.6765 50.2989 23.7975 49.9879C25.1676 49.6147 26.3509 49.8013 27.2021 49.9879C29.5479 50.4958 34.1357 51.9472 39.9484 54.2278C40.4985 54.3522 42.1904 54.6529 44.0587 53.8028C46.0309 52.9113 46.9235 51.3148 47.1727 50.8276L53.9714 38.9474C55.4142 36.4283 57.0853 37.1644 57.3759 37.2473C58.6215 37.6412 59.0056 39.5383 59.0782 39.9323C55.0613 48.2774 51.0547 56.6225 47.0377 64.978C46.363 69.2802 45.9063 72.7323 45.6261 75.0233C45.5327 75.7489 44.7646 79.4706 43.218 86.9034C43.135 87.2974 42.8028 88.8213 41.661 90.3037C41.0486 91.0916 40.2701 92.0971 39.1076 92.1386C37.4365 92.2008 36.357 90.1793 36.274 90.0134C35.5266 88.5621 35.8795 87.1315 35.9937 86.7583C36.2117 85.11 36.3362 83.7105 36.4193 82.6531C36.6788 79.3358 36.658 78.5376 36.274 77.6979C35.5681 76.1532 34.1669 75.3861 33.7205 75.1477C31.3436 73.8933 28.7694 74.5361 24.794 75.5727C21.2856 76.4953 19.3135 77.4594 16.158 77.2728C15.2135 77.2106 14.051 77.0448 13.3244 76.1429C12.7016 75.355 12.5459 74.2147 12.8988 73.3128C13.4282 71.9444 15.0266 71.4261 15.7325 71.1876C18.9502 70.1095 21.9914 68.5338 25.2195 67.5075C27.6276 66.7507 31.0322 65.2787 34.8519 62.1272C34.9453 61.8888 35.5785 60.2819 34.7066 58.5922C33.9074 57.0268 32.4231 56.55 32.1532 56.467C28.5722 54.7565 24.9808 53.0046 21.3894 51.263Z" stroke="white" stroke-width="2" stroke-miterlimit="10"/>
<path d="M101.293 51.0867C100.815 50.6928 100.006 50.1226 98.8847 49.8116C97.5146 49.4384 96.3313 49.625 95.4801 49.8116C93.1343 50.3196 88.5465 51.7709 82.7338 54.0516C82.1837 54.176 80.4918 54.4766 78.6235 53.6265C76.6513 52.735 75.7586 51.1385 75.5095 50.6513L68.7108 38.7712C67.268 36.2521 65.5969 36.9881 65.3063 37.071C64.0607 37.465 63.6767 39.3621 63.604 39.756C67.621 48.1011 71.6275 56.4463 75.6445 64.8018C76.3192 69.1039 76.7759 72.556 77.0561 74.847C77.1495 75.5727 77.9176 79.2943 79.4642 86.7272C79.5473 87.1211 79.8794 88.645 81.0212 90.1274C81.6336 90.9153 82.4121 91.9208 83.5746 91.9623C85.2457 92.0245 86.3252 90.003 86.4082 89.8372C87.1556 88.3858 86.8027 86.9552 86.6885 86.582C86.4705 84.9337 86.346 83.5342 86.2629 82.4768C86.0034 79.1595 86.0242 78.3613 86.4082 77.5216C87.1141 75.977 88.5153 75.2098 88.9617 74.9714C91.3386 73.7171 93.9128 74.3598 97.8882 75.3964C101.397 76.3191 103.379 77.2832 106.524 77.0966C107.479 77.0344 108.631 76.8685 109.358 75.9666C109.981 75.1891 110.136 74.0384 109.783 73.1365C109.254 71.7681 107.656 71.2498 106.95 71.0114C103.732 69.9332 100.691 68.3575 97.4627 67.3312C95.0546 66.5744 91.65 65.1024 87.8303 61.9509C87.7369 61.7125 87.1037 60.1057 87.9756 58.4159C88.7748 56.8506 90.2591 56.3737 90.529 56.2908C94.11 54.5803 97.7014 52.8283 101.293 51.0867Z" stroke="white" stroke-width="2" stroke-miterlimit="10"/>
<path d="M87.8302 38.9578C89.1069 40.0877 90.3836 41.2177 91.65 42.358C90.6535 42.5965 89.6674 42.8349 88.671 43.063C89.3768 44.1929 90.0826 45.3229 90.7988 46.4632C89.574 46.09 88.3492 45.7065 87.114 45.3333C87.1348 45.6028 87.2801 48.7335 84.8512 50.5684C82.0383 52.6832 78.5611 50.9727 78.3328 50.8483C75.0735 49.1689 73.8487 44.7942 74.9282 41.508C75.9662 38.3461 78.8725 36.9674 79.7444 36.5527C84.7994 34.158 89.9581 36.8741 90.6535 37.2577C89.7193 37.8278 88.7748 38.3876 87.8302 38.9578Z" fill="#EBBA34"/>
</svg>
