<svg width="121" height="123" viewBox="0 0 121 123" fill="none" xmlns="http://www.w3.org/2000/svg">
<path d="M87.3114 123H33.3888C15.1412 123 0.350098 108.228 0.350098 90.003V32.997C0.350098 14.7724 15.1412 0 33.3888 0H87.3114C105.559 0 120.35 14.7724 120.35 32.997V90.003C120.35 108.228 105.559 123 87.3114 123Z" fill="#0BAFAB"/>
<path d="M22.8844 68.8447C22.2616 69.0935 19.5318 70.265 18.307 73.2195C17.0614 76.205 17.8503 79.8126 20.2999 82.3732C20.1546 82.4768 16.9265 84.8923 17.3105 88.9352C17.5596 91.5684 19.2515 93.8594 21.6908 94.9064L99.1754 94.7095C99.5387 94.5954 102.829 93.5588 103.96 90.3347C104.978 87.4321 103.794 83.98 100.971 81.9792C103.203 79.9474 104.199 76.91 103.556 74.0177C102.673 70.0473 99.1547 68.4197 98.7706 68.2435C98.8329 62.8114 98.9055 57.3689 98.9678 51.9264C100.307 51.916 101.635 51.9057 102.974 51.8953L88.422 30.426C83.3256 37.4131 78.2291 44.4002 73.1431 51.3977C74.5443 51.4184 75.956 51.4495 77.3572 51.4703C77.378 57.0786 77.4091 62.687 77.4299 68.3057C66.4066 68.1916 55.3937 68.0672 44.3705 67.9532C44.3912 62.6248 44.412 57.3067 44.4431 51.9782H49.0102C43.9864 44.7009 38.9626 37.4339 33.9388 30.1565L18.4419 51.7709H22.9363C22.9156 57.4518 22.9052 63.1431 22.8844 68.8447Z" stroke="white" stroke-width="2" stroke-miterlimit="10"/>
<path d="M33.3575 67.5905C30.2436 67.5905 27.7109 65.0714 27.7109 61.9614V58.1154C27.7109 55.0054 30.2332 52.4863 33.3575 52.4863C36.4714 52.4863 38.9937 55.0054 38.9937 58.1154V61.9614C39.0041 65.061 36.4818 67.5905 33.3575 67.5905Z" stroke="white" stroke-width="2" stroke-miterlimit="10"/>
<path d="M88.0587 67.7355C84.9448 67.7355 82.4121 65.2164 82.4121 62.1064V58.2604C82.4121 55.1504 84.9344 52.621 88.0587 52.621C91.1726 52.621 93.7052 55.1401 93.7052 58.2604V62.1064C93.7052 65.2061 91.1726 67.7355 88.0587 67.7355Z" stroke="white" stroke-width="2" stroke-miterlimit="10"/>
<path d="M67.32 92.5532C67.6002 91.8483 67.7559 91.0708 67.7559 90.2518V82.6738C67.7559 79.3876 65.2337 76.7234 62.1197 76.7234H59.6494C56.5354 76.7234 54.0132 79.3876 54.0132 82.6738V90.2518C54.0132 91.0708 54.1689 91.8483 54.4491 92.5532H67.32Z" fill="#EBBA34"/>
</svg>
