<svg width="120" height="123" viewBox="0 0 120 123" fill="none" xmlns="http://www.w3.org/2000/svg">
<path d="M86.9613 123H33.0387C14.7911 123 0 108.228 0 90.003V32.997C0 14.7724 14.7911 0 33.0387 0H86.9613C105.209 0 120 14.7724 120 32.997V90.003C120 108.228 105.209 123 86.9613 123Z" fill="#0BAFAB"/>
<path d="M24.6821 48.8165C23.3742 60.1368 28.7613 68.7826 35.0099 69.954C38.8296 70.6693 42.4002 68.4923 44.2997 67.0306C45.4934 66.5019 46.8739 66.7818 47.7458 67.7148C48.5554 68.5856 48.7526 69.8815 48.2648 70.9803C47.5486 72.3487 46.7286 74.2562 46.1992 76.6509C45.6906 78.9626 45.618 80.9841 45.6802 82.4977C46.0643 83.8453 47.0296 86.5303 49.4688 89.0286C52.1572 91.7861 55.1673 92.7917 56.527 93.1545C57.4093 93.7869 57.8764 94.8547 57.7311 95.9017C57.565 97.0731 56.6724 98.0372 55.4891 98.3068C52.7177 98.4623 39.4732 98.9288 29.3322 89.1945C24.8481 84.8923 22.575 80.1444 21.4124 76.993C19.9697 73.458 18.0909 67.4971 18.3193 59.9813C18.4646 55.192 19.4299 51.2008 20.3849 48.2878C20.7897 47.3341 21.7861 46.7639 22.7929 46.909C23.7583 47.0645 24.5264 47.8317 24.6821 48.8165Z" stroke="white" stroke-width="2" stroke-miterlimit="10"/>
<path d="M41.9544 61.0179C41.9544 64.3456 39.3387 67.0306 36.1003 67.0306C32.8722 67.0306 30.2461 64.3352 30.2461 61.0179C30.2461 57.7006 32.8618 55.0053 36.1003 55.0053C39.3387 54.9949 41.9544 57.6902 41.9544 61.0179Z" fill="#EBBA34"/>
<path d="M79.0932 18.6082C69.4919 24.7659 66.2015 34.3965 69.2428 39.9738C71.1008 43.3844 75.0554 44.7632 77.3909 45.3126C78.5534 45.8931 79.2177 47.1475 79.0413 48.4122C78.8752 49.5836 78.0033 50.5581 76.8408 50.8795C75.3357 51.1905 73.322 51.771 71.1319 52.8699C69.0144 53.9376 67.4056 55.1712 66.2742 56.1664C65.4749 57.3171 64.001 59.7637 63.6066 63.2261C63.1707 67.0514 64.302 70.0163 64.8729 71.2913C64.9456 72.3798 64.4162 73.4061 63.5028 73.9659C62.496 74.5776 61.1881 74.4946 60.2228 73.7586C58.3441 71.7164 49.6044 61.7644 50.7254 47.7695C51.2236 41.5806 53.4656 36.8223 55.1679 33.9197C56.9947 30.5712 60.4304 25.3361 66.3988 20.7541C70.2081 17.8307 73.9033 16.0476 76.7681 14.9487C77.7645 14.6481 78.8337 15.0628 79.363 15.9439C79.8612 16.7836 79.7575 17.8618 79.0932 18.6082Z" stroke="white" stroke-width="2" stroke-miterlimit="10"/>
<path d="M80.5768 39.6939C78.0026 41.7983 74.2555 41.4769 72.2107 38.9786C70.1659 36.4802 70.5914 32.7482 73.1656 30.6438C75.7398 28.5394 79.4869 28.8608 81.5317 31.3591C83.5765 33.8575 83.1509 37.5895 80.5768 39.6939Z" fill="#EBBA34"/>
<path d="M93.1784 56.6018C95.2959 67.7978 90.542 76.8064 84.3972 78.4236C80.6397 79.4188 76.9238 77.4906 74.9205 76.174C73.6957 75.7283 72.3256 76.1118 71.5367 77.107C70.7997 78.0296 70.6856 79.3358 71.2564 80.4036C72.0661 81.7098 73.021 83.5654 73.7268 85.9083C74.4015 88.1786 74.6091 90.1897 74.661 91.7032C74.3704 93.0716 73.6023 95.8291 71.3499 98.4934C68.8587 101.437 65.9316 102.65 64.603 103.117C63.7623 103.811 63.3782 104.9 63.5962 105.947C63.8453 107.098 64.8003 108 66.0043 108.186C68.7861 108.145 82.0306 107.657 91.445 97.2286C95.6073 92.6155 97.5275 87.7224 98.4721 84.4881C99.6554 80.8597 101.109 74.7745 100.34 67.3002C99.8526 62.5315 98.607 58.6233 97.4445 55.7932C96.9774 54.8706 95.9394 54.373 94.943 54.5907C93.9777 54.7877 93.2615 55.6066 93.1784 56.6018Z" stroke="white" stroke-width="2" stroke-miterlimit="10"/>
<path d="M76.82 70.0058C77.0587 73.3232 79.8612 75.8215 83.0893 75.5831C86.3174 75.355 88.7359 72.4835 88.4972 69.1661C88.2584 65.8488 85.4559 63.3505 82.2278 63.5889C78.9997 63.817 76.5812 66.6885 76.82 70.0058Z" fill="#EBBA34"/>
</svg>
