<svg width="478" height="512" viewBox="0 0 478 512" fill="none" xmlns="http://www.w3.org/2000/svg">
<path d="M396.938 231.409H386.175V151.445C385.617 53.3942 312.622 0 223.901 0C135.18 0 55.6601 55.949 58.3926 151.445L58.2811 231.358C58.2811 231.358 59.6195 231.46 52.9278 231.46C45.8457 231.46 -0.829102 238.971 -0.829102 277.139V460.161C-0.829102 500.832 51.7009 511 52.9278 511H394.205C395.432 511 445.285 505.942 445.285 460.161V279.643C445.341 236.416 398.164 231.409 396.938 231.409ZM262.155 440.489H182.58L199.086 366.044C187.264 358.839 179.401 346.27 179.401 331.964C179.401 309.584 198.584 291.394 222.284 291.394C245.928 291.394 265.167 309.584 265.167 331.964C265.167 346.27 257.304 358.788 245.482 365.993L262.155 440.489ZM133.507 231.409L133.619 152.518C133.619 101.679 167.467 61.0073 222.34 61.0073C276.654 61.0073 311.005 96.5695 311.005 152.518L311.061 231.409H133.507Z" fill="#8DCB8B"/>
</svg>
