<svg width="229" height="292" viewBox="0 0 229 292" fill="none" xmlns="http://www.w3.org/2000/svg">
<path d="M39.1665 97.4181L39.3705 97.8746L39.1665 97.4181ZM98.9437 104.81L98.8791 105.306L98.9437 104.81ZM145.213 111.226L145.044 111.696L145.213 111.226ZM198.33 140.389L198.767 140.146L198.33 140.389ZM195.86 202.308L196.332 202.473L195.86 202.308ZM160.399 249.269L160.138 248.843L160.399 249.269ZM106.003 257.286L105.974 256.786L106.003 257.286ZM50.148 255.576L49.8875 256.003L50.148 255.576ZM22.564 206.36L22.1093 206.568L22.564 206.36ZM1.14031 148.507L1.63461 148.583L1.14031 148.507ZM39.3705 97.8746C48.5987 93.7516 58.3005 94.8989 68.319 97.4564C73.3329 98.7363 78.3812 100.356 83.4949 101.835C88.5952 103.31 93.7382 104.637 98.8791 105.306L99.0082 104.315C93.9446 103.655 88.8602 102.345 83.7727 100.874C78.6986 99.407 73.5987 97.772 68.5664 96.4874C58.4926 93.9159 48.5104 92.6958 38.9625 96.9616L39.3705 97.8746ZM98.8791 105.306C106.803 106.338 114.663 106.601 122.333 107.271C130.027 107.943 137.588 109.027 145.044 111.696L145.381 110.755C137.805 108.043 130.145 106.95 122.42 106.275C114.67 105.598 106.912 105.344 99.0082 104.315L98.8791 105.306ZM145.044 111.696C149.927 113.444 155.069 115.013 160.166 116.656C165.27 118.302 170.337 120.027 175.107 122.095C184.647 126.232 192.937 131.72 197.893 140.632L198.767 140.146C193.657 130.957 185.134 125.353 175.504 121.177C170.689 119.089 165.582 117.353 160.473 115.705C155.355 114.054 150.244 112.496 145.381 110.755L145.044 111.696ZM197.893 140.632C202.976 149.774 204.098 160.146 203.07 170.75C202.041 181.357 198.865 192.163 195.388 202.144L196.332 202.473C199.818 192.469 203.025 181.574 204.065 170.847C205.105 160.117 203.981 149.522 198.767 140.146L197.893 140.632ZM195.388 202.144C188.797 221.064 177.163 238.426 160.138 248.843L160.66 249.696C177.935 239.126 189.688 221.544 196.332 202.473L195.388 202.144ZM160.138 248.843C152.226 253.683 143.409 255.409 134.194 256.051C129.585 256.373 124.889 256.422 120.16 256.458C115.436 256.495 110.679 256.517 105.974 256.786L106.031 257.785C110.706 257.517 115.436 257.495 120.167 257.458C124.893 257.422 129.62 257.373 134.263 257.049C143.551 256.402 152.552 254.656 160.66 249.696L160.138 248.843ZM105.974 256.786C101.186 257.06 96.3134 257.715 91.4599 258.383C86.5997 259.052 81.7604 259.735 77.009 260.074C67.5062 260.752 58.4329 260.047 50.4084 255.149L49.8875 256.003C58.1747 261.061 67.4986 261.755 77.0802 261.072C81.871 260.73 86.7456 260.042 91.5963 259.374C96.4538 258.705 101.289 258.056 106.031 257.785L105.974 256.786ZM50.4084 255.149C42.3127 250.208 37.4749 242.399 33.6536 233.577C31.743 229.165 30.0939 224.519 28.4154 219.863C26.7391 215.213 25.0342 210.555 23.0186 206.151L22.1093 206.568C24.1053 210.928 25.7974 215.549 27.4746 220.202C29.1495 224.848 30.8101 229.527 32.736 233.974C36.5878 242.867 41.5305 250.902 49.8875 256.003L50.4084 255.149ZM23.0186 206.151C20.815 201.337 18.1708 196.609 15.5035 191.915C12.8327 187.214 10.1404 182.549 7.82056 177.833C3.18121 168.403 0.0708193 158.844 1.63461 148.583L0.646021 148.432C-0.963572 158.994 2.25092 168.777 6.92326 178.275C9.25932 183.023 11.9695 187.719 14.634 192.409C17.302 197.105 19.926 201.798 22.1093 206.568L23.0186 206.151ZM1.63461 148.583C4.8917 127.211 19.6678 106.678 39.3705 97.8746L38.9625 96.9616C18.9277 105.913 3.95072 126.748 0.646021 148.432L1.63461 148.583Z" fill="#D0382F"/>
<path fill-rule="evenodd" clip-rule="evenodd" d="M106.829 62.9973C128.182 68.5308 136.66 93.3124 151.99 109.198C163.878 121.518 177.482 130.969 186.482 145.54C198.15 164.432 215.166 183.626 211.49 205.533C207.729 227.948 187.193 243.691 167.982 255.785C149.722 267.279 128.227 274.1 106.829 271.418C86.8415 268.913 72.3099 253.389 55.8664 241.734C39.1595 229.893 17.2009 222.183 10.1902 202.922C3.11891 183.494 15 163.269 20.0051 143.206C25.4785 121.267 24.1676 95.7056 40.763 80.3746C57.9206 64.5242 84.233 57.1417 106.829 62.9973Z" fill="#D0382F"/>
<g clip-path="url(#clip0_203_29)">
<path d="M81.6733 204.841L162.79 251.656L206.028 56.1223C206.101 55.8067 206.154 55.4455 206.181 55.1071C206.211 54.7649 206.215 54.3923 206.2 54.0387C206.181 53.6813 206.139 53.3087 206.078 52.9551C206.013 52.5977 205.93 52.2365 205.823 51.8905C205.716 51.5446 205.587 51.2024 205.439 50.8792C205.29 50.5522 205.123 50.2442 204.937 49.9515C204.75 49.6587 204.553 49.3926 204.332 49.1416C204.187 48.9743 204.039 48.8261 203.883 48.6778C203.777 48.5827 203.674 48.4953 203.564 48.4116C203.389 48.271 203.206 48.1493 203.02 48.0428L130.408 6.13628C130.157 5.9956 129.876 5.87013 129.617 5.78649C129.354 5.70284 129.069 5.64961 128.807 5.6306C128.54 5.61539 128.267 5.6344 128.015 5.68383C127.879 5.71044 127.742 5.74846 127.608 5.79029C127.494 5.83211 127.38 5.87774 127.27 5.92716C127.209 5.95378 127.152 5.98419 127.091 6.01841C126.916 6.11346 126.749 6.22753 126.593 6.3568C126.376 6.52789 126.182 6.7218 125.999 6.94612C125.817 7.17044 125.657 7.40617 125.513 7.67612C125.414 7.85482 125.326 8.03732 125.246 8.23122C125.106 8.56961 124.995 8.93081 124.912 9.31102L81.6733 204.841ZM105.375 144.794L132.264 23.2L194.895 59.3426L168.005 180.937L105.375 144.794Z" fill="#414E52"/>
<path d="M105 145.594L167.63 181.737L195 59L132 23L105 145.594Z" fill="#D0382F"/>
<path d="M161.5 40L195 59L167.5 181.5L118 152.5C118.167 145 121 129.1 127 121.5C134.5 112 149.5 110 141.5 84.5C135.1 64.1 154.5 42.8333 161.5 40Z" fill="#E44C43"/>
<path d="M153.529 123.405C155.529 109.405 180 104.833 184 107C177.5 134.5 167.5 181.5 167.5 181.5L137.5 164.5C137.5 164.5 137.229 159.605 144.029 154.405C152.529 147.905 151.029 140.905 153.529 123.405Z" fill="#F86057"/>
<path d="M81.6733 204.841L89.901 222.885L89.9125 222.908L92.3621 228.284L173.483 275.1L162.79 251.656L81.6733 204.841Z" fill="#EBEEF5"/>
<path d="M162.791 251.656L173.483 275.099L198.105 260.891L189.919 235.451L191.35 225.38L191.361 225.288L216.219 50.2443L206.029 56.1223L162.791 251.656Z" fill="#DADEE3"/>
<path d="M71 235.193V235.36C71 235.478 71.0152 235.596 71.0456 235.714C71.2358 236.535 72.0308 237.261 72.7612 237.683L157.199 286.411C157.83 286.776 158.511 287.034 159.249 287.194C160.717 287.506 162.186 287.506 163.654 287.194C164.392 287.034 165.073 286.776 165.704 286.411L227.239 250.899C227.691 250.641 228.121 250.321 228.445 249.903C228.776 249.473 228.992 248.934 229 248.405C229 248.356 228.996 248.31 228.992 248.261C228.985 248.2 228.977 248.139 228.966 248.082C228.913 247.789 228.795 247.515 228.639 247.261C228.616 247.223 228.585 247.181 228.559 247.143C228.547 247.124 228.532 247.109 228.521 247.09C228.452 246.998 228.38 246.911 228.3 246.827C228.251 246.778 228.205 246.725 228.152 246.675C228.102 246.626 228.049 246.576 227.996 246.527C227.885 246.436 227.771 246.344 227.657 246.261C227.612 246.227 227.562 246.196 227.513 246.162C227.421 246.101 227.33 246.044 227.239 245.991L191.365 225.288H191.361L191.35 225.38L189.919 235.451L198.105 260.891L173.483 275.1L92.3624 228.284L89.9127 222.908L89.9013 222.885L72.7612 232.775C72.5406 232.904 72.3275 233.045 72.1259 233.204C72.1221 233.208 72.1145 233.212 72.1107 233.216C72.0156 233.288 71.9281 233.368 71.8445 233.452L71.8292 233.467C71.7532 233.539 71.6809 233.619 71.6124 233.702C71.5934 233.725 71.5744 233.752 71.5554 233.775C71.2358 234.181 71.0228 234.687 71 235.193Z" fill="#C5C6C8"/>
<path d="M227.239 250.899V255.473C227.65 255.237 228.038 254.945 228.353 254.587C228.604 254.298 228.81 253.968 228.916 253.599C228.97 253.412 229 253.215 229 253.021V248.405C228.992 248.934 228.776 249.474 228.445 249.903C228.121 250.321 227.691 250.641 227.239 250.899Z" fill="#EBEEF5"/>
<path d="M165.704 286.411V290.985L227.239 255.473V250.899L165.704 286.411Z" fill="#DADEE3"/>
<path d="M157.199 286.411V290.985C157.83 291.35 158.511 291.608 159.249 291.764C160.717 292.08 162.186 292.08 163.654 291.764C164.392 291.608 165.073 291.35 165.704 290.985V286.411C165.073 286.776 164.392 287.034 163.654 287.194C162.186 287.506 160.717 287.506 159.249 287.194C158.511 287.034 157.83 286.776 157.199 286.411Z" fill="#EBEEF5"/>
<path d="M72.7612 237.683V242.257L157.199 290.985V286.411L72.7612 237.683Z" fill="#DADEE3"/>
<path d="M71 235.36V239.801C71 239.987 71.0266 240.174 71.0761 240.356C71.1788 240.729 71.3842 241.067 71.6352 241.356C71.951 241.721 72.3466 242.018 72.7612 242.257V237.683C72.0308 237.261 71.2358 236.535 71.0456 235.714C71.0152 235.596 71 235.478 71 235.36Z" fill="#EBEEF5"/>
<path d="M203.02 48.043C203.206 48.1494 203.389 48.2711 203.564 48.4118C203.674 48.4954 203.777 48.5829 203.883 48.6779C204.039 48.8262 204.188 48.9745 204.332 49.1418C204.553 49.3927 204.751 49.6589 204.937 49.9516C205.124 50.2444 205.291 50.5524 205.439 50.8793C205.588 51.2025 205.717 51.5447 205.823 51.8907C205.93 52.2367 206.014 52.5979 206.078 52.9553C206.139 53.3089 206.181 53.6815 206.2 54.0389C206.215 54.3925 206.211 54.7651 206.181 55.1073C206.154 55.4456 206.101 55.8068 206.029 56.1224L216.219 50.2444C216.269 49.9022 216.292 49.5448 216.288 49.1798C216.284 48.9555 216.273 48.7312 216.25 48.4992C216.216 48.1494 216.162 47.8111 216.082 47.4613C216.003 47.1077 215.904 46.7655 215.782 46.4233C215.664 46.0811 215.523 45.7465 215.36 45.4233C215.2 45.104 215.021 44.7884 214.827 44.4956C214.633 44.2029 214.413 43.9177 214.192 43.6668C213.971 43.4196 213.724 43.1725 213.481 42.971C213.245 42.7733 212.975 42.5832 212.727 42.4425L203.02 48.043Z" fill="#EBEEF5"/>
<path d="M130.408 6.13636L203.02 48.0429L212.727 42.4425L140.112 0.535889L130.408 6.13636Z" fill="#DADEE3"/>
<path d="M127.091 6.01848C127.152 5.98426 127.209 5.95384 127.27 5.92723C127.38 5.8778 127.495 5.83218 127.609 5.79035C127.742 5.74853 127.879 5.71051 128.016 5.68389C128.267 5.63447 128.541 5.61546 128.807 5.63066C129.069 5.64968 129.355 5.7029 129.617 5.78655C129.876 5.8702 130.157 5.99566 130.408 6.13634L140.112 0.535872C139.838 0.379987 139.556 0.254518 139.275 0.163268C139.1 0.110039 138.936 0.0682162 138.761 0.0416016C138.503 -0.000221329 138.259 -0.0116276 138.008 0.0111849C137.761 0.0339974 137.529 0.0872266 137.297 0.170872C137.156 0.224102 137.016 0.292539 136.882 0.368581C133.619 2.25061 130.355 4.13264 127.091 6.01848Z" fill="#EBEEF5"/>
</g>
<defs>
<clipPath id="clip0_203_29">
<rect width="158" height="292" fill="white" transform="translate(71 -0.000244141)"/>
</clipPath>
</defs>
</svg>
