<svg width="160" height="47" viewBox="0 0 160 47" fill="none" xmlns="http://www.w3.org/2000/svg">
<path d="M20.4 36.4V34.3841C20.4 34.3841 44.9992 29.5683 60.7651 21.6167C73.0758 15.4076 86.7508 7.14909 95.6669 3.50812C96.1298 3.31885 96.3702 3.28189 96.8074 3.11838C98.7295 2.39937 101.248 1.87523 102.566 1.75539C109.946 1.08342 117.456 2.68831 122.6 4.70423C127.743 6.72015 128.638 7.16813 128.638 7.16813V11.2H131.768V18.9276H136.8V24.7514H133.222L133.241 29.1002H136.799L136.771 36.3832L20.4 36.4Z" fill="#E93F33"/>
<path d="M20.4 36.4V34.3841C20.4 34.3841 44.9992 29.5683 60.7651 21.6167C73.0758 15.4076 86.7508 7.14909 95.6669 3.50812C96.1298 3.31885 96.3702 3.28189 96.8074 3.11838C98.7295 2.39937 101.248 1.87523 102.566 1.75539C109.946 1.08342 117.456 2.68831 122.6 4.70423C127.743 6.72015 128.638 7.16813 128.638 7.16813V11.2L131.796 11.1843V18.968L136.8 18.9276V24.7514H133.222L133.241 29.1002H136.799V36.1749L20.4 36.4Z" fill="url(#paint0_linear_46_2361)"/>
<path d="M95.6 3.55207C95.6 3.55207 98.3793 2.51079 100.503 2.95817C102.628 3.40555 102.404 4.41216 100.727 6.87277C99.05 9.33338 95.9198 15.5967 101.957 21.4127C107.994 27.2287 118.614 32.3736 123.98 34.3868C129.347 36.4 129.347 36.4 129.347 36.4H136.725L136.8 29.1312L133.148 29.1301V24.9918L136.8 24.9929L136.753 18.9521H131.89L131.778 11.2348L128.648 11.1788L128.583 7.20831C128.583 7.20831 111.229 -2.41714 95.6 3.55207Z" fill="#82161A"/>
<path d="M95.6 3.55207C95.6 3.55207 98.3787 2.51079 100.502 2.95817C102.626 3.40555 102.402 4.41216 100.726 6.87277C99.0493 9.33338 95.9197 15.5967 101.955 21.4127C107.991 27.2287 118.609 32.3736 123.974 34.3868C129.339 36.4 129.339 36.4 129.339 36.4H136.716L136.791 29.1312L133.14 29.1301V24.9918L136.8 24.9359V18.8962L131.77 18.9521L131.714 11.2348L128.585 11.1788L128.576 7.20831C128.576 7.20831 111.226 -2.41714 95.6 3.55207Z" fill="url(#paint1_linear_46_2361)"/>
<path d="M4.39999 17.5999H0.799988V21.5999H4.39999V17.5999Z" fill="#82161A"/>
<path d="M14.8 20.8H10V25.6H14.8V20.8Z" fill="#82161A"/>
<path d="M2.4 25.2H0V27.6H2.4V25.2Z" fill="#82161A"/>
<path d="M11.6 28.4H6V34.4H11.6V28.4Z" fill="#82161A"/>
<path d="M16.8 27.5999H14.4V29.9999H16.8V27.5999Z" fill="#82161A"/>
<path d="M18.4 32.7999H15.6V35.5999H18.4V32.7999Z" fill="#82161A"/>
<path d="M22.8 29.2H20.4V31.6H22.8V29.2Z" fill="#82161A"/>
<path d="M134.4 0.400024H130.8V4.00003H134.4V0.400024Z" fill="#511517"/>
<path d="M139.2 5.60004H136V8.80004H139.2V5.60004Z" fill="#511517"/>
<path d="M148.8 1.20001H145.6V4.40001H148.8V1.20001Z" fill="#511517"/>
<path d="M160 0H156.8V2.8H160V0Z" fill="#511517"/>
<path d="M149.6 6.80005H142.4V14.0001H149.6V6.80005Z" fill="#511517"/>
<path d="M158.4 9.19995H155.6V12H158.4V9.19995Z" fill="#511517"/>
<path d="M138.8 12.0001H133.6V16.8001H138.8V12.0001Z" fill="#511517"/>
<path d="M146.8 16.8H142V22.0001H146.8V16.8Z" fill="#511517"/>
<path d="M142.4 26.4H139.2V29.6H142.4V26.4Z" fill="#511517"/>
<path d="M24.8 33.6H22.8V35.6H24.8V33.6Z" fill="white"/>
<path d="M32.4 34H29.6V36.4H32.4V34Z" fill="white"/>
<path d="M36.8 32.0001H34.4V34.4001H36.8V32.0001Z" fill="white"/>
<path d="M46.8 30.8H42.4V35.2H46.8V30.8Z" fill="white"/>
<path d="M53.2 32.7999H51.2V34.7999H53.2V32.7999Z" fill="white"/>
<path d="M118.8 6.40002H116V9.20003H118.8V6.40002Z" fill="white"/>
<path d="M125.2 10.4H121.2V14.4H125.2V10.4Z" fill="white"/>
<path d="M118.8 19.2H114.8V23.2H118.8V19.2Z" fill="white"/>
<path d="M130.8 19.2H128.4V22H130.8V19.2Z" fill="white"/>
<path d="M137.2 24.8H133.2V29.2H137.2V24.8Z" fill="white"/>
<path d="M86 38.8H93.4675C94.8892 38.8 95.6 39.4173 95.6 40.6507V41.9915C95.6 43.2249 94.8892 43.8422 93.4675 43.8422H87.8079V46.4H86V38.8ZM93.8138 40.932C93.8138 40.3771 93.5073 40.1002 92.8944 40.1002H87.8079V42.5858H92.8944C93.5073 42.5858 93.8138 42.3089 93.8138 41.754V40.932Z" fill="black"/>
<path fill-rule="evenodd" clip-rule="evenodd" d="M85.6 38.4H93.1939C93.9286 38.4 94.5416 38.5661 94.9721 38.957C95.4089 39.3537 95.6 39.9287 95.6 40.6169V41.9809C95.6 42.6691 95.4089 43.244 94.9721 43.6408C94.5416 44.0317 93.9286 44.1978 93.1939 44.1978H88.0228V46.8H85.6V38.4ZM86.2647 39.068V46.1319H87.3581V43.5297H93.1939C93.8418 43.5297 94.2657 43.3818 94.5265 43.145C94.7808 42.914 94.9354 42.5475 94.9354 41.9809V40.6169C94.9354 40.0502 94.7808 39.6837 94.5265 39.4527C94.2657 39.2159 93.8418 39.068 93.1939 39.068H86.2647ZM87.3581 39.7228H92.6367C92.981 39.7228 93.3012 39.8037 93.535 40.025C93.7726 40.2498 93.863 40.564 93.863 40.903V41.7393C93.863 42.0782 93.7726 42.3925 93.535 42.6173C93.3012 42.8385 92.981 42.9195 92.6367 42.9195H87.3581V39.7228ZM88.0228 40.3908V42.2514H92.6367C92.8884 42.2514 93.0152 42.1916 93.0794 42.1309C93.1398 42.0737 93.1984 41.9648 93.1984 41.7393V40.903C93.1984 40.6775 93.1398 40.5686 93.0794 40.5114C93.0152 40.4507 92.8884 40.3908 92.6367 40.3908H88.0228Z" fill="black"/>
<path d="M100 46.4H98.4V38.8H100V46.4Z" fill="black"/>
<path fill-rule="evenodd" clip-rule="evenodd" d="M98 38.4H100.4V46.8H98V38.4ZM98.6585 39.068V46.132H99.7416V39.068H98.6585Z" fill="black"/>
<path d="M109.433 42.5119L114 46.3278V46.4H111.882L108.357 43.4267L104.887 46.4H102.8V46.3278L107.26 42.5852L102.81 38.8733V38.8H104.929L108.336 41.6693L111.69 38.8H113.787V38.8733L109.433 42.5119Z" fill="black"/>
<path fill-rule="evenodd" clip-rule="evenodd" d="M102.41 38.4H105.018L108.334 41.2105L111.598 38.4H114.185V38.9623L109.967 42.5103L114.4 46.2387V46.8H111.793L108.359 43.8839L104.977 46.8H102.4V46.2391L106.726 42.5857L102.41 38.9625V38.4ZM104.766 39.068H103.582L107.77 42.5842L103.57 46.132H104.721L108.355 42.9982L112.046 46.132H113.228L108.922 42.5104L113.014 39.068H111.853L108.337 42.0956L104.766 39.068Z" fill="black"/>
<path d="M118.538 41.5347H124.123V42.6366H118.538V45.0999H125.6V46.4H116.8V38.8H125.6V40.1H118.538V41.5347Z" fill="black"/>
<path fill-rule="evenodd" clip-rule="evenodd" d="M116.4 38.4H126V40.3906H118.831V41.1821H124.501V42.9713H118.831V44.8093H126V46.8H116.4V38.4ZM117.067 39.068V46.132H125.333V45.4773H118.164V42.3033H123.834V41.8501H118.164V39.7226H125.333V39.068H117.067Z" fill="black"/>
<path d="M130.237 38.8V45.0999H136.8V46.4H128.4V38.8H130.237Z" fill="black"/>
<path fill-rule="evenodd" clip-rule="evenodd" d="M128.4 38.4H130.849V44.8093H137.2V46.8H128.4V38.4ZM129.072 39.068V46.132H136.528V45.4773H130.177V39.068H129.072Z" fill="black"/>
<path d="M20.4 38.4H27.8819C29.2936 38.4 30 39.05 30 40.3478V44.4522C30 45.7511 29.2936 46.4 27.8819 46.4H20.4V38.4ZM28.1934 40.6437C28.1934 40.0596 27.8929 39.7681 27.2907 39.7681H22.1956V45.0329H27.2907C27.8929 45.0329 28.1934 44.7414 28.1934 44.1573V40.6437Z" fill="black"/>
<path d="M33.4955 41.2788H39.5894V42.439H33.4955V45.0331H41.2V46.4H31.6V38.4H41.2V39.7679H33.4955V41.2788Z" fill="black"/>
<path d="M49.4219 41.2795C50.8736 41.2795 51.6 41.9293 51.6 43.2268V44.4527C51.6 45.7513 50.8736 46.4 49.4219 46.4H42.4221V45.0322H48.847C49.4894 45.0322 49.8111 44.7408 49.8111 44.1568V43.325C49.8111 42.7344 49.4894 42.4385 48.847 42.4385H44.3183C43.0402 42.4385 42.4 41.9025 42.4 40.8296V40.0089C42.4 38.937 43.0391 38.4 44.3183 38.4H51.307V39.7677H44.8921C44.4156 39.7677 44.1768 39.943 44.1768 40.2925V40.7302C44.1768 41.0953 44.4156 41.2773 44.8921 41.2773H49.4219V41.2795Z" fill="black"/>
<path d="M55.0165 41.2788H60.8565V42.439H55.0165V45.0331H62.4V46.4H53.2V38.4H62.4V39.7679H55.0165V41.2788Z" fill="black"/>
<path d="M63.6 38.4H71.3742C72.8538 38.4 73.5942 39.0499 73.5942 40.3475V41.4195C73.5942 42.6669 72.9182 43.3168 71.5662 43.367L74 46.3218V46.4H71.9157L69.4485 43.3681H65.4821V46.4H63.6V38.4ZM71.7352 40.6222C71.7352 40.0315 71.4156 39.7355 70.7775 39.7355H65.4821V42.1978H70.7775C71.4156 42.1978 71.7352 41.9019 71.7352 41.3112V40.6222Z" fill="black"/>
<path d="M78.2413 46.4V39.7679H74V38.4H84.4V39.7679H80.1472V46.4H78.2413Z" fill="black"/>
<defs>
<linearGradient id="paint0_linear_46_2361" x1="63.5655" y1="61.3622" x2="103.358" y2="-7.44884" gradientUnits="userSpaceOnUse">
<stop stop-color="#511517"/>
<stop offset="0.1572" stop-color="#551618" stop-opacity="0.8428"/>
<stop offset="0.3201" stop-color="#621A1A" stop-opacity="0.6799"/>
<stop offset="0.4856" stop-color="#761F1E" stop-opacity="0.5144"/>
<stop offset="0.6531" stop-color="#932723" stop-opacity="0.3469"/>
<stop offset="0.8219" stop-color="#B9322A" stop-opacity="0.1781"/>
<stop offset="0.9897" stop-color="#E63E32" stop-opacity="0.0103"/>
<stop offset="1" stop-color="#E93F33" stop-opacity="0"/>
</linearGradient>
<linearGradient id="paint1_linear_46_2361" x1="95.5999" y1="19.0002" x2="136.8" y2="19.0002" gradientUnits="userSpaceOnUse">
<stop stop-color="#82161A" stop-opacity="0"/>
<stop offset="0.1319" stop-color="#761619" stop-opacity="0.1319"/>
<stop offset="0.4271" stop-color="#621518" stop-opacity="0.4271"/>
<stop offset="0.7186" stop-color="#551517" stop-opacity="0.7186"/>
<stop offset="1" stop-color="#511517"/>
</linearGradient>
</defs>
</svg>
