<svg width="212" height="284" viewBox="0 0 212 284" fill="none" xmlns="http://www.w3.org/2000/svg">
<path d="M39.4766 90.4181L39.6805 90.8746L39.4766 90.4181ZM99.2537 97.8104L99.1892 98.3062L99.2537 97.8104ZM145.523 104.226L145.354 104.696L145.523 104.226ZM198.64 133.389L199.077 133.146L198.64 133.389ZM196.17 195.308L196.642 195.473L196.17 195.308ZM160.709 242.269L160.448 241.843L160.709 242.269ZM106.313 250.286L106.284 249.786L106.313 250.286ZM50.458 248.576L50.1975 249.003L50.458 248.576ZM22.874 199.36L22.4194 199.568L22.874 199.36ZM1.45037 141.507L1.94467 141.583L1.45037 141.507ZM39.6805 90.8746C48.9087 86.7516 58.6106 87.8989 68.6291 90.4564C73.6429 91.7363 78.6913 93.3562 83.805 94.8349C88.9052 96.3097 94.0483 97.6368 99.1892 98.3062L99.3183 97.3145C94.2546 96.6552 89.1703 95.3454 84.0827 93.8742C79.0086 92.407 73.9087 90.772 68.8764 89.4874C58.8027 86.9159 48.8205 85.6958 39.2726 89.9616L39.6805 90.8746ZM99.1892 98.3062C107.113 99.3378 114.973 99.6008 122.643 100.271C130.337 100.943 137.898 102.027 145.354 104.696L145.691 103.755C138.115 101.043 130.455 99.9497 122.73 99.2747C114.98 98.5977 107.222 98.3436 99.3183 97.3145L99.1892 98.3062ZM145.354 104.696C150.237 106.444 155.379 108.013 160.476 109.656C165.58 111.302 170.648 113.027 175.417 115.095C184.957 119.232 193.247 124.72 198.203 133.632L199.077 133.146C193.967 123.957 185.444 118.353 175.814 114.177C170.999 112.089 165.892 110.353 160.783 108.705C155.665 107.054 150.554 105.496 145.691 103.755L145.354 104.696ZM198.203 133.632C203.286 142.774 204.408 153.146 203.38 163.75C202.351 174.357 199.175 185.163 195.698 195.144L196.642 195.473C200.128 185.469 203.335 174.574 204.375 163.847C205.415 153.117 204.291 142.522 199.077 133.146L198.203 133.632ZM195.698 195.144C189.107 214.064 177.473 231.426 160.448 241.843L160.97 242.696C178.245 232.126 189.998 214.544 196.642 195.473L195.698 195.144ZM160.448 241.843C152.536 246.683 143.719 248.409 134.504 249.051C129.895 249.373 125.199 249.422 120.47 249.458C115.746 249.495 110.989 249.517 106.284 249.786L106.341 250.785C111.016 250.517 115.746 250.495 120.477 250.458C125.204 250.422 129.93 250.373 134.573 250.049C143.861 249.402 152.862 247.656 160.97 242.696L160.448 241.843ZM106.284 249.786C101.496 250.06 96.6234 250.715 91.77 251.383C86.9098 252.052 82.0704 252.735 77.3191 253.074C67.8163 253.752 58.7429 253.047 50.7185 248.149L50.1975 249.003C58.4848 254.061 67.8087 254.755 77.3902 254.072C82.181 253.73 87.0557 253.042 91.9064 252.374C96.7639 251.705 101.599 251.056 106.341 250.785L106.284 249.786ZM50.7185 248.149C42.6227 243.208 37.7849 235.399 33.9637 226.577C32.053 222.165 30.404 217.519 28.7254 212.863C27.0492 208.213 25.3442 203.555 23.3286 199.151L22.4194 199.568C24.4153 203.928 26.1075 208.549 27.7847 213.202C29.4595 217.848 31.1202 222.527 33.046 226.974C36.8979 235.867 41.8405 243.902 50.1975 249.003L50.7185 248.149ZM23.3286 199.151C21.125 194.337 18.4809 189.609 15.8136 184.915C13.1428 180.214 10.4504 175.549 8.13062 170.833C3.49127 161.403 0.380878 151.844 1.94467 141.583L0.95608 141.432C-0.653513 151.994 2.56098 161.777 7.23332 171.275C9.56938 176.023 12.2796 180.719 14.9441 185.409C17.6121 190.105 20.2361 194.798 22.4194 199.568L23.3286 199.151ZM1.94467 141.583C5.20176 120.211 19.9778 99.6775 39.6805 90.8746L39.2726 89.9616C19.2378 98.9129 4.26078 119.748 0.95608 141.432L1.94467 141.583Z" fill="#D0382F"/>
<path fill-rule="evenodd" clip-rule="evenodd" d="M106.829 55.9973C128.182 61.5308 136.66 86.3124 151.99 102.198C163.878 114.518 177.482 123.969 186.482 138.54C198.15 157.432 215.166 176.626 211.49 198.533C207.729 220.948 187.193 236.691 167.982 248.785C149.722 260.279 128.227 267.1 106.829 264.418C86.8415 261.913 72.3099 246.389 55.8664 234.734C39.1595 222.893 17.2009 215.183 10.1902 195.922C3.11891 176.494 15 156.269 20.0051 136.206C25.4785 114.267 24.1676 88.7056 40.763 73.3746C57.9206 57.5242 84.233 50.1417 106.829 55.9973Z" fill="#D0382F"/>
<g clip-path="url(#clip0_86_3116)">
<path d="M114.339 9.69621V229.919L181.679 268.812V48.5855C181.679 47.5907 181.505 46.6033 181.158 45.6344C180.467 43.6855 179.413 41.9696 178.001 40.483C177.295 39.7396 176.507 39.1184 175.642 38.6191L120.376 6.70074C119.755 6.34203 119.093 6.04987 118.376 5.90935C117.722 5.78361 117.019 5.77991 116.406 6.0055C116.35 6.02399 116.299 6.04618 116.243 6.07206C116.236 6.07576 116.228 6.07946 116.221 6.08316C115.589 6.37531 115.071 6.93002 114.761 7.5661C114.753 7.5735 114.75 7.58459 114.746 7.59199C114.735 7.61787 114.72 7.64376 114.713 7.66965C114.687 7.72882 114.661 7.78799 114.642 7.84716C114.613 7.92112 114.591 7.99508 114.565 8.06904C114.495 8.29463 114.443 8.52391 114.406 8.75689C114.38 8.91221 114.365 9.06753 114.354 9.22655C114.343 9.38187 114.339 9.54089 114.339 9.69621ZM118.931 21.7594L119.629 22.1625L177.088 55.3494V183.533L118.931 149.943V21.7594Z" fill="#414E52"/>
<path d="M118.931 149.943L177.088 183.533V182.723L119.629 149.54L118.931 149.943Z" fill="#1F2329"/>
<path d="M118.931 21.7594V149.943L119.629 149.54V22.1625L118.931 21.7594Z" fill="#1F2329"/>
<path d="M119.629 22.1626V149.54L177.088 182.723V55.3494L119.629 22.1626Z" fill="#D0382F"/>
<path d="M94 233.746V233.75C94 233.805 94.0037 233.857 94.0111 233.913C94.0148 233.946 94.0185 233.979 94.0259 234.009C94.085 234.312 94.2255 234.604 94.4177 234.852C94.6617 235.17 94.9907 235.41 95.3308 235.61L171.824 279.788C172.304 280.065 172.818 280.261 173.376 280.379C174.489 280.62 175.602 280.62 176.715 280.379C177.269 280.261 177.787 280.065 178.263 279.788L206.665 263.383C207.009 263.187 207.335 262.946 207.579 262.628C207.823 262.31 207.989 261.918 208 261.526V261.493C208 261.463 208 261.43 207.996 261.401C207.993 261.364 207.985 261.327 207.982 261.286C207.963 261.171 207.933 261.06 207.893 260.953C207.874 260.912 207.856 260.868 207.837 260.827C207.808 260.765 207.771 260.702 207.734 260.643C207.73 260.628 207.719 260.613 207.708 260.602C207.66 260.532 207.608 260.461 207.553 260.395C207.527 260.361 207.497 260.332 207.468 260.299C207.409 260.236 207.346 260.173 207.283 260.114C207.216 260.055 207.15 259.999 207.083 259.947C207.013 259.892 206.943 259.844 206.876 259.796C206.806 259.751 206.736 259.707 206.665 259.666L191.782 251.068V262.972L181.679 268.812L114.339 229.919V220.91L95.3308 231.89C95.0573 232.052 94.7689 232.267 94.5286 232.526C94.4436 232.618 94.366 232.714 94.2957 232.814C94.292 232.818 94.2883 232.822 94.2846 232.829C94.1627 233.025 94.0702 233.236 94.0259 233.458C94.0074 233.55 94 233.65 94 233.746Z" fill="#CBCBCB"/>
<path d="M181.679 48.5855V268.812L191.782 262.972V42.7499L181.679 48.5855Z" fill="#DADEE3"/>
<path d="M175.643 38.6192C176.508 39.1184 177.295 39.7397 178.001 40.483C179.413 41.9697 180.467 43.6856 181.158 45.6345C181.506 46.6034 181.679 47.5908 181.679 48.5856L191.783 42.75C191.783 41.7515 191.609 40.7678 191.265 39.7952C190.574 37.85 189.52 36.1341 188.108 34.6474C187.398 33.9041 186.614 33.2828 185.746 32.7836L175.643 38.6192Z" fill="#EBEEF5"/>
<path d="M120.376 6.70073L175.642 38.6191L185.745 32.7835L130.483 0.865112L120.376 6.70073Z" fill="#DADEE3"/>
<path d="M115.955 6.21629C116.04 6.16822 116.129 6.12014 116.221 6.08316C116.229 6.07946 116.236 6.07576 116.243 6.07207C116.299 6.04618 116.351 6.02399 116.406 6.0055C117.02 5.77991 117.722 5.78361 118.376 5.90935C119.094 6.04988 119.755 6.34203 120.376 6.70074L130.483 0.865127C130.147 0.669128 129.799 0.499015 129.437 0.347392C128.716 0.0515433 127.955 -0.0557019 127.152 0.0293546C126.753 0.0737319 126.391 0.188373 126.062 0.376977C126.047 0.384373 126.036 0.391769 126.021 0.402864C125.995 0.417656 125.973 0.432449 125.947 0.447241C122.62 2.37026 119.282 4.29327 115.955 6.21629Z" fill="#EBEEF5"/>
<path d="M178.264 279.788V283.231L206.666 266.826V263.383L178.264 279.788Z" fill="#DADEE3"/>
<path d="M171.824 279.788V283.231C172.304 283.504 172.818 283.704 173.376 283.822C174.489 284.059 175.602 284.059 176.715 283.822C177.269 283.704 177.787 283.504 178.263 283.231V279.788C177.787 280.065 177.269 280.261 176.715 280.379C175.602 280.62 174.489 280.62 173.376 280.379C172.818 280.261 172.304 280.065 171.824 279.788Z" fill="#F2F2F2"/>
<path d="M95.3311 235.61V239.049L171.824 283.231V279.788L95.3311 235.61Z" fill="#DADEE3"/>
<path d="M94 233.783V237.193C94 237.33 94.0185 237.47 94.0555 237.603C94.1331 237.888 94.2846 238.143 94.4769 238.365C94.7172 238.642 95.0166 238.868 95.3308 239.049V235.61C94.9907 235.41 94.6617 235.17 94.4177 234.852C94.2255 234.604 94.085 234.312 94.0259 234.009C94.0148 233.975 94.0111 233.946 94.0111 233.913C94.0037 233.872 94 233.827 94 233.783Z" fill="#F2F2F2"/>
<path d="M157.5 44L177 55V182.5L132 156C132.167 148.5 134 131.6 140 124C147.5 114.5 152.5 103.5 144.5 78C138.1 57.6 150.5 46.8333 157.5 44Z" fill="#E44C43"/>
<path d="M162.87 125.229C164.87 111.229 173 111.833 177 114V182.5L147.37 165.729C147.37 165.729 146.57 161.429 153.37 156.229C161.87 149.729 160.37 142.729 162.87 125.229Z" fill="#F86057"/>
</g>
<defs>
<clipPath id="clip0_86_3116">
<rect width="114" height="284" fill="white" transform="translate(94 -0.000244141)"/>
</clipPath>
</defs>
</svg>
