<svg width="232" height="249" viewBox="0 0 232 249" fill="none" xmlns="http://www.w3.org/2000/svg">
<path d="M39.1665 54.4181L39.3705 54.8746L39.1665 54.4181ZM98.9437 61.8104L98.8791 62.3062L98.9437 61.8104ZM145.213 68.2257L145.044 68.6965L145.213 68.2257ZM198.33 97.3886L198.767 97.1456L198.33 97.3886ZM195.86 159.308L196.332 159.473L195.86 159.308ZM160.399 206.269L160.138 205.843L160.399 206.269ZM106.003 214.286L105.974 213.786L106.003 214.286ZM50.148 212.576L49.8875 213.003L50.148 212.576ZM22.564 163.36L22.1093 163.568L22.564 163.36ZM1.14031 105.507L1.63461 105.583L1.14031 105.507ZM39.3705 54.8746C48.5987 50.7516 58.3005 51.8989 68.319 54.4564C73.3329 55.7363 78.3812 57.3562 83.4949 58.8349C88.5952 60.3097 93.7382 61.6368 98.8791 62.3062L99.0082 61.3145C93.9446 60.6552 88.8602 59.3454 83.7727 57.8742C78.6986 56.407 73.5987 54.772 68.5664 53.4874C58.4926 50.9159 48.5104 49.6958 38.9625 53.9616L39.3705 54.8746ZM98.8791 62.3062C106.803 63.3378 114.663 63.6008 122.333 64.2709C130.027 64.9431 137.588 66.0272 145.044 68.6965L145.381 67.755C137.805 65.043 130.145 63.9497 122.42 63.2747C114.67 62.5977 106.912 62.3436 99.0082 61.3145L98.8791 62.3062ZM145.044 68.6965C149.927 70.4443 155.069 72.0128 160.166 73.6564C165.27 75.3025 170.337 77.0269 175.107 79.0948C184.647 83.2316 192.937 88.7204 197.893 97.6316L198.767 97.1456C193.657 87.9571 185.134 82.3529 175.504 78.1774C170.689 76.0892 165.582 74.3526 160.473 72.7047C155.355 71.0543 150.244 69.4957 145.381 67.755L145.044 68.6965ZM197.893 97.6316C202.976 106.774 204.098 117.146 203.07 127.75C202.041 138.357 198.865 149.163 195.388 159.144L196.332 159.473C199.818 149.469 203.025 138.574 204.065 127.847C205.105 117.117 203.981 106.522 198.767 97.1456L197.893 97.6316ZM195.388 159.144C188.797 178.064 177.163 195.426 160.138 205.843L160.66 206.696C177.935 196.126 189.688 178.544 196.332 159.473L195.388 159.144ZM160.138 205.843C152.226 210.683 143.409 212.409 134.194 213.051C129.585 213.373 124.889 213.422 120.16 213.458C115.436 213.495 110.679 213.517 105.974 213.786L106.031 214.785C110.706 214.517 115.436 214.495 120.167 214.458C124.893 214.422 129.62 214.373 134.263 214.049C143.551 213.402 152.552 211.656 160.66 206.696L160.138 205.843ZM105.974 213.786C101.186 214.06 96.3134 214.715 91.4599 215.383C86.5997 216.052 81.7604 216.735 77.009 217.074C67.5062 217.752 58.4329 217.047 50.4084 212.149L49.8875 213.003C58.1747 218.061 67.4986 218.755 77.0802 218.072C81.871 217.73 86.7456 217.042 91.5963 216.374C96.4538 215.705 101.289 215.056 106.031 214.785L105.974 213.786ZM50.4084 212.149C42.3127 207.208 37.4749 199.399 33.6536 190.577C31.743 186.165 30.0939 181.519 28.4154 176.863C26.7391 172.213 25.0342 167.555 23.0186 163.151L22.1093 163.568C24.1053 167.928 25.7974 172.549 27.4746 177.202C29.1495 181.848 30.8101 186.527 32.736 190.974C36.5878 199.867 41.5305 207.902 49.8875 213.003L50.4084 212.149ZM23.0186 163.151C20.815 158.337 18.1708 153.609 15.5035 148.915C12.8327 144.214 10.1404 139.549 7.82056 134.833C3.18121 125.403 0.0708193 115.844 1.63461 105.583L0.646021 105.432C-0.963572 115.994 2.25092 125.777 6.92326 135.275C9.25932 140.023 11.9695 144.719 14.634 149.409C17.302 154.105 19.926 158.798 22.1093 163.568L23.0186 163.151ZM1.63461 105.583C4.8917 84.2106 19.6678 63.6775 39.3705 54.8746L38.9625 53.9616C18.9277 62.9129 3.95072 83.7476 0.646021 105.432L1.63461 105.583Z" fill="#D0382F"/>
<path fill-rule="evenodd" clip-rule="evenodd" d="M103.829 19.9973C125.182 25.5308 133.66 50.3124 148.99 66.1982C160.878 78.5177 174.482 87.9693 183.482 102.54C195.15 121.432 212.166 140.626 208.49 162.533C204.729 184.948 184.193 200.691 164.982 212.785C146.722 224.279 125.227 231.1 103.829 228.418C83.8415 225.913 69.3099 210.389 52.8664 198.734C36.1595 186.893 14.2009 179.183 7.19021 159.922C0.118915 140.494 12 120.269 17.0051 100.206C22.4785 78.2665 21.1676 52.7056 37.763 37.3746C54.9206 21.5242 81.233 14.1417 103.829 19.9973Z" fill="#D0382F"/>
<g clip-path="url(#clip0_86_3192)">
<path d="M56.0029 73.6094C55.9964 73.7456 55.9964 73.8785 56.0029 74.0115C56.0061 74.0763 56.0126 74.1444 56.0223 74.2092C56.0287 74.2708 56.0384 74.3324 56.0481 74.394C56.0578 74.4362 56.0643 74.4751 56.074 74.5172C56.074 74.5237 56.0772 74.5302 56.0772 74.5367C56.0804 74.5464 56.0837 74.5562 56.0837 74.5659C56.0934 74.5918 56.0998 74.6178 56.1063 74.6437C56.1192 74.6891 56.1321 74.7377 56.1483 74.7831C56.2097 74.9711 56.2872 75.1495 56.3874 75.3181V75.3213C56.3938 75.3278 56.3971 75.331 56.4003 75.3375C56.4811 75.4737 56.5748 75.6034 56.6749 75.7233C56.9011 75.9859 57.1693 76.2096 57.4601 76.3782L164.093 138.154C164.584 138.436 165.156 138.592 165.725 138.634C166.484 138.692 167.244 138.553 167.958 138.277C168.846 137.93 169.667 137.363 170.281 136.65L229.625 67.5628C230.168 66.9306 230.594 66.1331 230.707 65.2901C230.772 64.8103 230.736 64.3175 230.588 63.8636C230.568 63.802 230.546 63.7404 230.52 63.6788C230.504 63.6334 230.484 63.5912 230.462 63.5458C230.442 63.5069 230.423 63.468 230.404 63.4324C230.404 63.4259 230.4 63.4226 230.397 63.4161C230.381 63.387 230.365 63.3578 230.349 63.3286V63.3254C230.32 63.2767 230.29 63.2313 230.258 63.1859C230.219 63.1276 230.177 63.0692 230.135 63.0141C230.11 62.9817 230.084 62.9525 230.058 62.9233C230.032 62.8877 230.003 62.8553 229.971 62.8228C229.938 62.7904 229.909 62.758 229.877 62.7288C229.822 62.6737 229.761 62.6186 229.699 62.5667C229.651 62.5246 229.596 62.4824 229.544 62.4467C229.518 62.4273 229.489 62.4078 229.463 62.3916C229.402 62.3462 229.337 62.3073 229.273 62.2684L122.643 0.492592C122.152 0.210525 121.58 0.0549021 121.008 0.0127542C120.252 -0.0456044 119.492 0.0938078 118.778 0.36939C117.89 0.7163 117.069 1.28367 116.452 1.99695L57.1111 71.0838C57.0401 71.1681 56.969 71.2556 56.9011 71.3432C56.8462 71.4178 56.7945 71.4923 56.746 71.5669C56.7299 71.5863 56.7169 71.6058 56.7073 71.6253C56.6556 71.6998 56.6071 71.7776 56.5619 71.8587C56.5134 71.9397 56.4714 72.0175 56.4326 72.1018C56.4132 72.131 56.4003 72.1602 56.3874 72.1894C56.3486 72.2672 56.3131 72.3483 56.2808 72.4325C56.2775 72.4325 56.2775 72.4325 56.2775 72.4358C56.2485 72.5104 56.2194 72.5882 56.1935 72.6692C56.158 72.7665 56.1289 72.867 56.1063 72.9707C56.0901 73.0323 56.074 73.0939 56.0643 73.1588C56.0481 73.2236 56.0384 73.2917 56.0287 73.3566C56.0255 73.3728 56.0255 73.3857 56.0223 73.4019C56.0158 73.4733 56.0094 73.5414 56.0029 73.6094ZM61.3922 71.3043L118.352 4.99593L223.525 65.9256L224.139 66.9793L167.182 133.288L62.0094 72.358L61.3922 71.3043Z" fill="#1F2329"/>
<path d="M166.565 132.234L223.522 65.9255L224.139 66.9792L167.183 133.288L62.0097 72.358L61.3926 71.3043L166.565 132.234Z" fill="black"/>
<path d="M61.3926 71.3043L166.565 132.234L223.522 65.9256L118.352 4.99597L61.3926 71.3043Z" fill="#D0382F"/>
<path d="M101.796 105.24L125.596 173.597L125.625 173.669L134.905 200.316L166.801 218.796L133.699 123.72L101.796 105.24Z" fill="#EBEEF5"/>
<path d="M133.699 123.72L166.804 218.796L186.533 207.367L182.142 198.918L182.1 198.834L145.819 128.998L145.816 128.995L145.796 128.985L143.341 127.562C143.334 127.559 143.331 127.555 143.324 127.552C140.258 125.782 137.195 124.005 134.132 122.229L133.699 123.72Z" fill="#DADEE3"/>
<path d="M90.5171 195.086C90.5171 195.193 90.53 195.3 90.5526 195.404C90.7013 196.036 91.3119 196.597 91.8741 196.925L172.659 243.728C173.147 244.007 173.671 244.208 174.236 244.331C175.367 244.571 176.494 244.571 177.625 244.331C178.191 244.208 178.714 244.007 179.199 243.728L216.123 222.336C216.685 222.009 217.296 221.448 217.444 220.816C217.467 220.709 217.48 220.602 217.48 220.495C217.48 220.476 217.48 220.456 217.477 220.437C217.477 220.404 217.473 220.372 217.473 220.339C217.441 220.025 217.322 219.717 217.147 219.448C217.118 219.402 217.086 219.36 217.053 219.318C217.021 219.276 216.989 219.237 216.953 219.198C216.818 219.049 216.666 218.916 216.504 218.793C216.381 218.702 216.252 218.621 216.123 218.546L182.1 198.834L182.142 198.918L186.533 207.367L166.805 218.796L134.905 200.316L125.625 173.669L125.599 173.597L91.8741 193.134C91.7093 193.232 91.5478 193.335 91.3992 193.455C91.3248 193.517 91.2538 193.579 91.1859 193.643C91.1504 193.676 91.1148 193.712 91.0825 193.747C91.0502 193.78 91.0179 193.815 90.9888 193.854C90.963 193.883 90.9404 193.913 90.9177 193.945C90.8919 193.974 90.8725 194.007 90.8499 194.036C90.6786 194.298 90.5623 194.6 90.5268 194.908C90.5203 194.95 90.5203 194.992 90.5203 195.034C90.5171 195.051 90.5171 195.07 90.5171 195.086Z" fill="#C5C6C8"/>
<path d="M179.199 243.728V248.215L216.123 226.824V222.336L179.199 243.728Z" fill="#DADEE3"/>
<path d="M172.659 243.728V248.215C173.147 248.494 173.67 248.695 174.236 248.818C175.367 249.058 176.494 249.058 177.625 248.818C178.191 248.695 178.714 248.494 179.199 248.215V243.728C178.714 244.007 178.191 244.208 177.625 244.331C176.494 244.571 175.367 244.571 174.236 244.331C173.667 244.208 173.147 244.007 172.659 243.728Z" fill="#EBEEF5"/>
<path d="M91.874 196.924V201.412L172.659 248.215V243.728L91.874 196.924Z" fill="#DADEE3"/>
<path d="M90.5171 195.086V199.515C90.5171 199.716 90.5591 199.914 90.6399 200.105C90.8046 200.497 91.047 200.818 91.3668 201.068C91.5316 201.194 91.6996 201.311 91.8741 201.412V196.924C91.3119 196.597 90.7013 196.036 90.5526 195.404C90.5268 195.3 90.5171 195.193 90.5171 195.086Z" fill="#EBEEF5"/>
<path d="M216.123 222.336V226.824C216.3 226.72 216.468 226.606 216.63 226.48C216.953 226.227 217.195 225.909 217.357 225.517C217.438 225.326 217.48 225.128 217.48 224.927V220.495C217.48 220.602 217.467 220.709 217.444 220.816C217.292 221.448 216.685 222.009 216.123 222.336Z" fill="#EBEEF5"/>
<path d="M101.796 105.24L133.696 123.72L134.129 122.229C133.14 121.655 132.155 121.084 131.166 120.51C129.729 119.677 128.294 118.844 126.856 118.011C121.37 114.83 115.88 111.653 110.391 108.472C107.677 106.903 104.966 105.331 102.252 103.758C102.245 103.755 102.236 103.748 102.229 103.745L101.796 105.24Z" fill="#EFEFEF"/>
<path d="M56.4035 75.3375C56.4843 75.4737 56.578 75.6034 56.6782 75.7233C56.9044 75.9859 57.1725 76.2097 57.4633 76.3782L164.097 138.154C164.588 138.436 165.16 138.592 165.728 138.634C166.488 138.692 167.247 138.553 167.961 138.277C168.849 137.93 169.67 137.363 170.284 136.65L229.628 67.5629C230.171 66.9306 230.597 66.1331 230.71 65.2901C230.775 64.8103 230.74 64.3175 230.591 63.8636C230.572 63.802 230.549 63.7404 230.523 63.6788C230.507 63.6334 230.488 63.5912 230.465 63.5458C230.446 63.5069 230.426 63.468 230.407 63.4324C230.407 63.4259 230.404 63.4226 230.4 63.4162C230.384 63.387 230.368 63.3578 230.352 63.3286C230.772 64.0516 231.192 64.7681 231.612 65.4879C231.625 65.5073 231.635 65.5268 231.644 65.5495C231.657 65.5722 231.67 65.5981 231.683 65.6208C231.702 65.6597 231.725 65.7019 231.741 65.744C231.748 65.757 231.751 65.7667 231.757 65.7797C231.786 65.8478 231.815 65.9158 231.838 65.9872C231.864 66.0553 231.883 66.1266 231.903 66.2012C231.922 66.2725 231.938 66.3438 231.951 66.4184C231.964 66.4897 231.974 66.5643 231.983 66.6388C231.987 66.6842 231.993 66.7264 231.996 66.7718C232 66.8366 232.003 66.9047 232.003 66.9695C232.003 66.9728 232.003 66.976 232.003 66.976C232.003 67.0668 232 67.1608 231.99 67.2516C231.984 67.3456 231.971 67.4364 231.958 67.5304C231.945 67.6115 231.929 67.6925 231.909 67.7736C231.903 67.806 231.896 67.8352 231.887 67.8644C231.874 67.9195 231.857 67.9746 231.841 68.0297C231.812 68.1237 231.783 68.2145 231.748 68.3053C231.722 68.3701 231.696 68.435 231.667 68.4998C231.66 68.516 231.654 68.529 231.647 68.5452C231.618 68.6101 231.586 68.6749 231.554 68.7365C231.544 68.756 231.534 68.7754 231.525 68.7949C231.499 68.8467 231.47 68.8954 231.441 68.9473C231.415 68.9959 231.386 69.0445 231.35 69.0931C231.337 69.1223 231.318 69.1483 231.299 69.1774C231.257 69.239 231.218 69.3039 231.173 69.3622C231.131 69.4238 231.085 69.4822 231.04 69.5406C230.992 69.6022 230.94 69.6638 230.888 69.7254C230.84 69.7837 230.788 69.8453 230.736 69.9037C230.723 69.9167 230.714 69.9296 230.704 69.9426C230.688 69.962 230.672 69.9815 230.656 69.9977C230.588 70.0723 230.52 70.1468 230.455 70.2182C230.177 70.5262 229.916 70.8471 229.654 71.1616C229.644 71.1746 229.635 71.1843 229.625 71.1973C229.612 71.2135 229.599 71.2265 229.586 71.2427C229.56 71.2719 229.541 71.2978 229.518 71.3237L227.263 73.9466C227.215 74.0018 227.166 74.0601 227.118 74.1152C226.404 74.9355 225.699 75.759 224.995 76.5857C224.966 76.6214 224.937 76.6538 224.908 76.6895L220.281 82.0779C218.206 84.4836 216.142 86.8925 214.074 89.3014C211.489 92.3134 208.901 95.3253 206.316 98.3341C203.211 101.946 200.11 105.561 197.005 109.173C194.42 112.181 191.832 115.19 189.247 118.202C188.213 119.408 187.179 120.611 186.145 121.817C185.111 123.02 184.077 124.226 183.04 125.429C181.78 126.897 180.513 128.36 179.257 129.835C179.079 130.042 178.898 130.253 178.72 130.464C178.607 130.59 178.497 130.72 178.387 130.85L173.903 136.073C173.864 136.115 173.825 136.16 173.786 136.206C173.783 136.209 173.78 136.212 173.777 136.215C173.208 136.864 172.643 137.519 172.087 138.183C172.077 138.193 172.068 138.206 172.061 138.216L171.547 138.812C171.499 138.871 171.444 138.929 171.389 138.984C171.379 138.997 171.363 139.013 171.35 139.026C171.276 139.104 171.202 139.179 171.124 139.25L171.085 139.289C170.975 139.389 170.862 139.483 170.743 139.577C170.675 139.629 170.607 139.684 170.536 139.73C170.517 139.746 170.494 139.759 170.475 139.772C170.468 139.775 170.465 139.782 170.458 139.785C170.365 139.85 170.268 139.911 170.171 139.97C170.074 140.028 169.974 140.086 169.874 140.138C169.66 140.252 169.444 140.352 169.221 140.44C169.215 140.443 169.205 140.446 169.198 140.45C169.131 140.475 169.059 140.501 168.992 140.524C168.956 140.537 168.921 140.547 168.885 140.56C168.875 140.563 168.862 140.566 168.853 140.569C168.827 140.576 168.801 140.586 168.775 140.592C168.704 140.612 168.633 140.631 168.559 140.651C168.523 140.66 168.488 140.667 168.452 140.676C168.433 140.683 168.413 140.689 168.391 140.693C168.374 140.696 168.358 140.699 168.342 140.702C168.271 140.715 168.197 140.728 168.122 140.741C168.058 140.751 167.99 140.761 167.922 140.771C167.916 140.771 167.909 140.774 167.903 140.774H167.887C167.819 140.783 167.751 140.79 167.683 140.793C167.609 140.8 167.534 140.806 167.46 140.806C167.344 140.809 167.224 140.809 167.108 140.803C167.069 140.803 167.03 140.8 166.992 140.796C166.924 140.793 166.859 140.787 166.791 140.777C166.717 140.767 166.643 140.758 166.572 140.745C166.5 140.735 166.426 140.719 166.352 140.702C166.281 140.686 166.21 140.67 166.135 140.647C166.087 140.634 166.038 140.618 165.99 140.599C165.967 140.592 165.942 140.586 165.919 140.576C165.87 140.56 165.819 140.54 165.77 140.518C165.706 140.492 165.644 140.466 165.583 140.437C165.56 140.427 165.541 140.417 165.518 140.404C165.463 140.378 165.408 140.349 165.357 140.317L164.963 140.09C164.943 140.077 164.924 140.064 164.901 140.051C164.827 140.005 164.756 139.96 164.681 139.915C164.255 139.655 163.822 139.419 163.389 139.175C163.35 139.153 163.308 139.13 163.269 139.107C162.966 138.935 162.662 138.76 162.362 138.582C162.187 138.482 162.013 138.381 161.841 138.281C161.673 138.18 161.502 138.08 161.334 137.982C160.478 137.48 159.618 136.99 158.759 136.494C157.728 135.901 156.701 135.304 155.673 134.704C154.643 134.108 153.615 133.508 152.588 132.912C150.329 131.598 148.071 130.295 145.812 128.989C144.988 128.512 144.164 128.039 143.341 127.562C143.334 127.559 143.331 127.556 143.324 127.552C140.258 125.782 137.195 124.005 134.132 122.229V122.225L131.169 120.51C129.731 119.677 128.297 118.844 126.859 118.011C121.373 114.83 115.883 111.653 110.394 108.472C107.68 106.903 104.969 105.331 102.255 103.758C102.248 103.755 102.239 103.748 102.232 103.745C99.4633 102.14 96.6976 100.539 93.9286 98.9339C90.4972 96.9464 87.0659 94.959 83.6378 92.9716C80.8947 91.3829 78.1483 89.7942 75.4052 88.2023C73.6895 87.2103 71.9738 86.2182 70.2582 85.2228C68.8882 84.4285 67.515 83.6309 66.1418 82.8366C65.2856 82.3406 64.4262 81.8445 63.5699 81.3485C62.885 80.9497 62.2 80.5509 61.5118 80.1553L59.9189 79.2313C59.864 79.1989 59.809 79.1665 59.7541 79.1341C59.5699 79.0271 59.3858 78.9168 59.1984 78.8131C59.1435 78.7839 59.0885 78.7547 59.0368 78.7223L58.7267 78.5408C58.6588 78.5019 58.5942 78.4597 58.5296 78.4176C58.5199 78.4143 58.5134 78.4078 58.5037 78.3981C58.5005 78.3949 58.5005 78.3949 58.4972 78.3916C58.4359 78.3527 58.3777 78.3073 58.3195 78.2587C58.2485 78.2036 58.1838 78.1452 58.1192 78.0836C58.1095 78.0739 58.1031 78.0674 58.0966 78.0609C58.0126 77.9766 57.9318 77.8858 57.8607 77.7918C57.8317 77.7529 57.8026 77.714 57.7735 77.6751C57.7412 77.6265 57.7089 77.5778 57.6766 77.526C57.6669 77.513 57.6604 77.4968 57.6507 77.4838C57.2307 76.7641 56.8107 76.0411 56.3906 75.3213C56.3939 75.3278 56.3971 75.331 56.4035 75.3375Z" fill="#DADEE3"/>
<path d="M160 52C168 34.5 194.5 50.5 196 50L223 65.9999L166.5 132C132 112.5 128 110 106 97.4999C165 98.4999 152 69.5 160 52Z" fill="#E44C43"/>
<path d="M182.044 82.2824C187.244 67.8824 210.044 79.2824 210.044 79.2824L211.044 79.7824L166.044 132.282L150.044 122.782C149.71 119.449 151.144 112.282 159.544 110.282C170.044 107.782 175.544 100.282 182.044 82.2824Z" fill="#F86057"/>
</g>
<defs>
<clipPath id="clip0_86_3192">
<rect width="176" height="249" fill="white" transform="translate(56 -0.000244141)"/>
</clipPath>
</defs>
</svg>
