<svg width="137" height="332" viewBox="0 0 137 332" fill="none"
  xmlns="http://www.w3.org/2000/svg">
  <g clip-path="url(#clip0_86_2442)">
    <path d="M30.001 200.612V276.683L84.2536 308.051V229.926C83.7615 230.034 83.2651 230.142 82.773 230.25C82.7298 230.263 82.6866 230.272 82.6435 230.281C82.5874 230.293 82.5356 230.302 82.4838 230.311C81.9053 230.393 81.2751 230.259 80.77 229.965L30.0226 200.625L30.001 200.612Z" fill="#DADEE3"/>
    <path d="M2.44363 277.617C2.67242 278.058 3.08251 278.395 3.50986 278.646L80.8613 323.367C81.4613 323.713 82.1132 323.929 82.8254 324.024C84.2499 324.21 85.6399 324.106 86.9954 323.717C87.6774 323.523 88.3163 323.25 88.9163 322.905L134.902 296.314C135.338 296.063 135.74 295.769 136.102 295.41C136.461 295.06 136.772 294.645 136.905 294.161C136.957 293.98 136.983 293.789 136.983 293.599C136.983 293.439 136.966 293.279 136.931 293.124C136.918 293.063 136.901 293.007 136.88 292.951C136.862 292.877 136.832 292.808 136.797 292.743C136.776 292.691 136.75 292.644 136.724 292.596C136.711 292.566 136.69 292.54 136.672 292.514C136.642 292.466 136.612 292.423 136.577 292.38C136.573 292.376 136.569 292.371 136.569 292.363C136.53 292.319 136.491 292.272 136.448 292.229C136.405 292.185 136.361 292.142 136.314 292.099C136.292 292.077 136.267 292.056 136.241 292.034C136.172 291.974 136.098 291.917 136.02 291.861C136.012 291.857 136.008 291.848 135.999 291.848C135.904 291.779 135.805 291.714 135.705 291.658L110.358 277.003V292.959L84.2543 308.051L30.0016 276.683V259.136L4.31277 273.99C4.09262 274.115 3.8811 274.254 3.67822 274.409C3.61346 274.453 3.54871 274.505 3.48828 274.561C3.43648 274.595 3.38899 274.639 3.34151 274.682C3.29834 274.716 3.25518 274.755 3.21633 274.798C3.18179 274.824 3.14726 274.859 3.11704 274.889C3.06956 274.937 3.02639 274.98 2.98322 275.028C2.86667 275.153 2.75875 275.287 2.66378 275.425C2.62925 275.473 2.59472 275.52 2.56882 275.568C2.50838 275.663 2.45658 275.763 2.41341 275.866C2.38751 275.918 2.36593 275.97 2.34866 276.026C2.3314 276.061 2.32276 276.1 2.30981 276.139C2.29686 276.186 2.28391 276.229 2.27528 276.277C2.18463 276.727 2.23643 277.215 2.44363 277.617Z" fill="#C5C6C8"/>
    <path d="M3.50977 278.646V286.531L80.8612 331.252V323.367L3.50977 278.646Z" fill="#DADEE3"/>
    <path d="M80.8613 323.367V331.252C81.4614 331.598 82.1132 331.819 82.8254 331.909C84.25 332.095 85.6399 331.991 86.9954 331.602C87.6774 331.408 88.3163 331.136 88.9163 330.79V322.905C88.3163 323.25 87.6774 323.523 86.9954 323.717C85.6399 324.106 84.25 324.21 82.8254 324.024C82.1132 323.929 81.4614 323.713 80.8613 323.367Z" fill="#EBEEF5"/>
    <path d="M88.916 322.904V330.79L134.902 304.199V296.314L88.916 322.904Z" fill="#DADEE3"/>
    
    
    <g class="screen">
      <path d="M45.0752 1.74648L123.29 46.9691L129.372 45.6333L129.536 45.5987L51.3215 0.376099L45.0752 1.74648Z" fill="#DADEE3"/>
      <path d="M123.29 46.9691C123.89 47.315 124.374 47.8164 124.74 48.4649C125.479 49.7791 125.846 51.1538 125.846 52.5933C125.841 53.3153 125.759 54.0242 125.599 54.7116L131.85 53.3412C132.01 52.6538 132.092 51.9449 132.092 51.2229C132.096 49.7834 131.729 48.4087 130.991 47.0945C130.624 46.4461 130.141 45.9446 129.536 45.5988L129.372 45.6333L123.29 46.9691Z" fill="#EBEEF5"/>
      <path d="M3.76459e-05 179.118C-0.00427908 180.553 0.362643 181.928 1.1008 183.242C1.46773 183.895 1.9512 184.392 2.55122 184.742L30.0013 200.612L30.0229 200.625L80.7703 229.965C81.2754 230.259 81.9056 230.393 82.4841 230.311C82.5359 230.302 82.5877 230.293 82.6438 230.281C82.687 230.272 82.7301 230.263 82.7733 230.25C83.4338 230.073 84.0208 229.619 84.4698 229.079C85.1173 228.309 85.4842 227.362 85.7044 226.411L125.6 54.7116C125.759 54.0242 125.841 53.3153 125.846 52.5933C125.846 51.1538 125.479 49.7791 124.741 48.4649C124.374 47.8165 123.89 47.315 123.29 46.9692L45.0753 1.74653C44.6652 1.51309 44.1774 1.37476 43.7026 1.37476C43.6594 1.37476 43.6206 1.37908 43.5774 1.37908H43.5515C43.4911 1.3834 43.435 1.38772 43.3788 1.39637C43.3745 1.39637 43.3745 1.39637 43.3702 1.39637H43.3573C43.3184 1.40069 43.2839 1.40934 43.245 1.41799C43.2277 1.41799 43.2148 1.42231 43.1975 1.42663C43.1414 1.4396 43.0853 1.45257 43.0335 1.47418C42.9817 1.48715 42.9342 1.50445 42.8824 1.52174C42.822 1.53903 42.7615 1.56497 42.7011 1.5909C42.55 1.65575 42.4033 1.73356 42.2651 1.82434C42.1054 1.9281 41.9543 2.04482 41.8119 2.17018C41.8032 2.17883 41.7989 2.18747 41.7903 2.1918C41.7212 2.25664 41.6478 2.32581 41.5831 2.39498C41.5399 2.43821 41.4967 2.48144 41.4579 2.52899C41.3111 2.70623 41.1687 2.89644 41.0435 3.09098C40.7154 3.59676 40.4737 4.1501 40.2924 4.72506C40.2319 4.91527 40.1801 5.1098 40.137 5.30002L0.241774 176.996C0.0820555 177.687 3.76459e-05 178.392 3.76459e-05 179.118ZM8.33564 175.876L45.5415 15.753L46.3617 16.2242V16.2285L118.058 57.6772L81.0121 217.113L80.8524 217.8L8.33564 175.876Z" fill="#1F2329"/>
      <path d="M8.33594 175.876L80.8527 217.8L81.0124 217.113L9.31584 175.66L8.33594 175.876Z" fill="black"/>
      <path d="M8.33594 175.876L9.31584 175.66L46.362 16.2285V16.2241L45.5418 15.7529L8.33594 175.876Z" fill="black"/>
      <path class="frame1" d="M9 175.431L80.6965 216.884L117.743 57.4487L46.0462 16L9 175.431Z" fill="#D0382F"/>
      <path class="frame2" d="M68.5 88C71.3 66 99 56.5 112.5 54.5L117.5 57.5L80.5 217C79.8333 216.5 67.2 209 22 183C25.5 158.5 40 159 56.5 145.5C73 132 65 115.5 68.5 88Z" fill="#E44C43"/>
      <path class="frame3" d="M67.0002 164.5C69.0002 154.5 88.5002 152.5 94.5002 157L80.5002 217L67.0002 208.5C64.3335 206.333 61.1002 200.3 69.5002 193.5C80.0002 185 65.0002 174.5 67.0002 164.5Z" fill="#F86057"/>
      <path d="M85.7041 226.411L91.9547 225.041L110.288 146.138L110.357 145.844V145.84L131.85 53.3412L125.599 54.7116L85.7041 226.411Z" fill="#DADEE3"/>
      
      
      <path d="M82.7734 230.25C83.2655 230.142 83.762 230.034 84.2541 229.926C85.7951 229.593 87.3362 229.256 88.873 228.914C88.8816 228.914 88.8859 228.91 88.8946 228.91C89.2701 228.828 89.6284 228.659 89.9435 228.439C90.4356 228.093 90.8198 227.626 91.1306 227.116C91.5191 226.476 91.7868 225.763 91.9551 225.041L85.7045 226.411C85.4843 227.362 85.1174 228.309 84.4699 229.079C84.021 229.619 83.4339 230.073 82.7734 230.25Z" fill="#EBEEF5"/>
      <path d="M43.2451 1.41795C43.284 1.4093 43.3185 1.40065 43.3574 1.39633H43.3703C43.3746 1.39633 43.3746 1.39633 43.3789 1.39633C43.4394 1.38769 43.5128 1.38336 43.5516 1.37904H43.5775C43.6207 1.37904 43.6595 1.37472 43.7027 1.37472C44.1775 1.37472 44.6653 1.51305 45.0754 1.74649L51.3217 0.37611C51.1836 0.293974 51.0368 0.224806 50.8814 0.164284C50.5749 0.0475641 50.2598 -0.00863456 49.9274 1.13877e-05C49.7634 0.00433436 49.6037 0.0216263 49.4439 0.05621C47.3805 0.510122 45.3085 0.959711 43.2451 1.41795Z" fill="#EBEEF5"/>
    </g>
    <path d="M134.902 296.314V304.199C135.161 304.052 135.416 303.884 135.658 303.702C136.137 303.339 136.517 302.876 136.797 302.314C136.931 302.033 137 301.744 137 301.45C137 298.886 136.983 296.357 136.983 293.798V293.599C136.983 293.789 136.957 293.98 136.905 294.161C136.771 294.645 136.461 295.06 136.102 295.41C135.74 295.769 135.338 296.063 134.902 296.314Z" fill="#EBEEF5"/>
    <path d="M84.2539 229.926V308.051L110.357 292.959V145.844L110.288 146.138L91.955 225.041C91.7866 225.763 91.519 226.476 91.1305 227.116C90.8197 227.626 90.4355 228.093 89.9434 228.439C89.6282 228.659 89.2699 228.828 88.8944 228.91C88.8858 228.91 88.8814 228.914 88.8728 228.914C87.3361 229.256 85.795 229.593 84.2539 229.926Z" fill="#C0C0C0"/>
    <path d="M2.21875 276.739C2.21875 276.744 2.21875 276.744 2.21875 276.748V284.624C2.22307 284.754 2.24033 284.888 2.27055 285.022C2.38279 285.476 2.61157 285.848 2.96123 286.142C3.1339 286.289 3.31952 286.419 3.50945 286.531V278.646C3.0821 278.395 2.67201 278.058 2.44322 277.617C2.23602 277.215 2.18422 276.726 2.27487 276.277C2.23602 276.428 2.21875 276.584 2.21875 276.739Z" fill="#EBEEF5"/>
  </g>
  <defs>
    <clipPath id="clip0_86_2442">
      <rect width="137" height="332" fill="white"/>
    </clipPath>
  </defs>
  <style>

    .frame3 {
      animation: 2s ease-in-out .2s infinite blinky;
    }
    .frame2 {
      animation: 2s ease-in-out .8s infinite blinky;
    }
    .frame1 {
      animation: 2s ease-in-out 1.4s infinite blinky;
    }
    
    @keyframes blinky {
      0% {
        fill: #d0382f;
      }
      30% {
        fill:#E44C43;
      }
      60% {
        fill: #d0382f;
      }
      100% {
        fill: #d0382f;
      }
    }

    .screen{
      animation: 6s ease-in-out  infinite screeny;
    }
    
    @keyframes screeny {
      0% {
        transform: rotate(0deg) translate(0);
      }
      50% {
        transform: rotate(-4deg) translate(-10px, 6px);
      }
      100% {
        transform: rotate(0deg) translate(0);
      }
    }

  </style>

</svg>
