<svg width="37" height="37" viewBox="0 0 37 37" fill="none" xmlns="http://www.w3.org/2000/svg">
<path d="M36.5 18.5C36.5 28.4411 28.4411 36.5 18.5 36.5C8.55887 36.5 0.5 28.4411 0.5 18.5C0.5 8.55887 8.55887 0.5 18.5 0.5C28.4411 0.5 36.5 8.55887 36.5 18.5Z" stroke="white"/>
<path d="M23.1881 16.7498L22.8814 19.3252C22.8681 19.4448 22.8111 19.5553 22.7212 19.6353C22.6313 19.7153 22.5149 19.7592 22.3945 19.7585H19.7169V27.4019C19.7176 27.4932 19.6821 27.581 19.6183 27.6462C19.5544 27.7114 19.4674 27.7487 19.3761 27.75H16.6474C16.602 27.7494 16.5571 27.7398 16.5155 27.7218C16.4738 27.7039 16.436 27.6779 16.4044 27.6453C16.3727 27.6128 16.3478 27.5743 16.331 27.5321C16.3142 27.4899 16.3059 27.4449 16.3066 27.3995L16.3212 19.7585H14.2935C14.1644 19.7585 14.0405 19.7072 13.9492 19.6159C13.8579 19.5246 13.8066 19.4008 13.8066 19.2716V16.6962C13.8066 16.5671 13.8579 16.4433 13.9492 16.352C14.0405 16.2607 14.1644 16.2094 14.2935 16.2094H16.309V13.7119C16.309 10.8225 18.0276 9.25 20.5445 9.25H22.6063C22.7354 9.25 22.8593 9.30129 22.9506 9.39259C23.0419 9.48389 23.0932 9.60772 23.0932 9.73684V11.9057C23.0932 12.0348 23.0419 12.1587 22.9506 12.25C22.8593 12.3413 22.7354 12.3926 22.6063 12.3926H21.343C19.9749 12.4145 19.7169 13.0693 19.7169 14.0478V16.2021H22.7134C22.7818 16.2033 22.8491 16.2188 22.9111 16.2478C22.973 16.2767 23.0282 16.3184 23.073 16.37C23.1178 16.4217 23.1512 16.4822 23.171 16.5477C23.1908 16.6131 23.1967 16.682 23.1881 16.7498Z" fill="white"/>
</svg>
