<svg width="156" height="46" viewBox="0 0 156 46" fill="none" xmlns="http://www.w3.org/2000/svg">
<path d="M19.8901 35.4901V33.5245C19.8901 33.5245 43.8743 28.8291 59.246 21.0763C71.2491 15.0225 84.5821 6.97039 93.2753 3.42044C93.7266 3.2359 93.961 3.19986 94.3873 3.04044C96.2613 2.3394 98.7164 1.82837 100.002 1.71153C107.197 1.05636 114.52 2.62113 119.535 4.58665C124.55 6.55217 125.422 6.98895 125.422 6.98895V10.92H128.474V18.4545H133.38V24.1326H129.892L129.91 28.3727H133.379L133.352 35.4737L19.8901 35.4901Z" fill="#E93F33"/>
<path d="M19.8901 35.4901V33.5245C19.8901 33.5245 43.8743 28.8291 59.246 21.0763C71.2491 15.0225 84.5821 6.97039 93.2753 3.42044C93.7266 3.2359 93.961 3.19986 94.3873 3.04044C96.2613 2.3394 98.7164 1.82837 100.002 1.71153C107.197 1.05636 114.52 2.62113 119.535 4.58665C124.55 6.55217 125.422 6.98895 125.422 6.98895V10.92L128.502 10.9047V18.4938L133.38 18.4545V24.1326H129.892L129.91 28.3727H133.379V35.2706L19.8901 35.4901Z" fill="url(#paint0_linear_86_3259)"/>
<path d="M93.21 3.46329C93.21 3.46329 95.9197 2.44804 97.9907 2.88424C100.062 3.32043 99.8437 4.30188 98.2087 6.70097C96.5737 9.10006 93.5217 15.2068 99.4077 20.8774C105.294 26.548 115.649 31.5643 120.881 33.5272C126.113 35.4901 126.113 35.4901 126.113 35.4901H133.307L133.38 28.4029L129.819 28.4018V24.367L133.38 24.3681L133.334 18.4783H128.593L128.484 10.9539L125.432 10.8994L125.368 7.02812C125.368 7.02812 108.448 -2.35669 93.21 3.46329Z" fill="#82161A"/>
<path d="M93.21 3.46329C93.21 3.46329 95.9191 2.44804 97.9897 2.88424C100.06 3.32043 99.8423 4.30188 98.2076 6.70097C96.573 9.10006 93.5216 15.2068 99.4064 20.8774C105.291 26.548 115.644 31.5643 120.875 33.5272C126.106 35.4901 126.106 35.4901 126.106 35.4901H133.298L133.371 28.4029L129.811 28.4018V24.367L133.38 24.3125V18.4238L128.476 18.4783L128.422 10.9539L125.37 10.8994L125.361 7.02812C125.361 7.02812 108.445 -2.35669 93.21 3.46329Z" fill="url(#paint1_linear_86_3259)"/>
<path d="M4.28979 17.1599H0.779785V21.0599H4.28979V17.1599Z" fill="#82161A"/>
<path d="M14.43 20.28H9.75V24.96H14.43V20.28Z" fill="#82161A"/>
<path d="M2.34 24.5701H0V26.9101H2.34V24.5701Z" fill="#82161A"/>
<path d="M11.3101 27.6899H5.8501V33.5399H11.3101V27.6899Z" fill="#82161A"/>
<path d="M16.38 26.9099H14.04V29.2499H16.38V26.9099Z" fill="#82161A"/>
<path d="M17.94 31.98H15.21V34.71H17.94V31.98Z" fill="#82161A"/>
<path d="M22.2301 28.47H19.8901V30.81H22.2301V28.47Z" fill="#82161A"/>
<path d="M131.04 0.390137H127.53V3.90014H131.04V0.390137Z" fill="#511517"/>
<path d="M135.72 5.46021H132.6V8.58021H135.72V5.46021Z" fill="#511517"/>
<path d="M145.08 1.16992H141.96V4.28992H145.08V1.16992Z" fill="#511517"/>
<path d="M156 0H152.88V2.73H156V0Z" fill="#511517"/>
<path d="M145.86 6.63013H138.84V13.6501H145.86V6.63013Z" fill="#511517"/>
<path d="M154.44 8.97021H151.71V11.7002H154.44V8.97021Z" fill="#511517"/>
<path d="M135.33 11.7H130.26V16.38H135.33V11.7Z" fill="#511517"/>
<path d="M143.13 16.3801H138.45V21.4501H143.13V16.3801Z" fill="#511517"/>
<path d="M138.84 25.7402H135.72V28.8602H138.84V25.7402Z" fill="#511517"/>
<path d="M24.18 32.76H22.23V34.71H24.18V32.76Z" fill="white"/>
<path d="M31.5899 33.1499H28.8599V35.4899H31.5899V33.1499Z" fill="white"/>
<path d="M35.88 31.2H33.54V33.54H35.88V31.2Z" fill="white"/>
<path d="M45.6298 30.03H41.3398V34.32H45.6298V30.03Z" fill="white"/>
<path d="M51.8699 31.98H49.9199V33.93H51.8699V31.98Z" fill="white"/>
<path d="M115.83 6.23999H113.1V8.96999H115.83V6.23999Z" fill="white"/>
<path d="M122.07 10.1401H118.17V14.0401H122.07V10.1401Z" fill="white"/>
<path d="M115.83 18.72H111.93V22.62H115.83V18.72Z" fill="white"/>
<path d="M127.53 18.72H125.19V21.45H127.53V18.72Z" fill="white"/>
<path d="M133.77 24.1799H129.87V28.4699H133.77V24.1799Z" fill="white"/>
<path d="M83.8501 37.8301H91.1308C92.517 37.8301 93.2101 38.4319 93.2101 39.6346V40.9418C93.2101 42.1444 92.517 42.7462 91.1308 42.7462H85.6128V45.2401H83.8501V37.8301ZM91.4685 39.9088C91.4685 39.3678 91.1697 39.0978 90.5721 39.0978H85.6128V41.5212H90.5721C91.1697 41.5212 91.4685 41.2512 91.4685 40.7102V39.9088Z" fill="black"/>
<path fill-rule="evenodd" clip-rule="evenodd" d="M83.46 37.4399H90.864C91.5803 37.4399 92.178 37.6019 92.5977 37.983C93.0236 38.3699 93.21 38.9304 93.21 39.6014V40.9313C93.21 41.6023 93.0236 42.1629 92.5977 42.5497C92.178 42.9308 91.5803 43.0928 90.864 43.0928H85.8221V45.6299H83.46V37.4399ZM84.108 38.0913V44.9786H85.1741V42.4414H90.864C91.4957 42.4414 91.909 42.2973 92.1632 42.0664C92.4112 41.8412 92.5619 41.4838 92.5619 40.9313V39.6014C92.5619 39.0489 92.4112 38.6916 92.1632 38.4664C91.909 38.2355 91.4957 38.0913 90.864 38.0913H84.108ZM85.1741 38.7297H90.3207C90.6564 38.7297 90.9686 38.8086 91.1966 39.0244C91.4282 39.2436 91.5164 39.5499 91.5164 39.8804V40.6957C91.5164 41.0263 91.4282 41.3326 91.1966 41.5518C90.9686 41.7676 90.6564 41.8465 90.3207 41.8465H85.1741V38.7297ZM85.8221 39.3811V41.1951H90.3207C90.5661 41.1951 90.6898 41.1368 90.7523 41.0776C90.8112 41.0218 90.8683 40.9156 90.8683 40.6957V39.8804C90.8683 39.6605 90.8112 39.5544 90.7523 39.4986C90.6898 39.4394 90.5661 39.3811 90.3207 39.3811H85.8221Z" fill="black"/>
<path d="M97.4999 45.2401H95.9399V37.8301H97.4999V45.2401Z" fill="black"/>
<path fill-rule="evenodd" clip-rule="evenodd" d="M95.5498 37.4399H97.8898V45.6299H95.5498V37.4399ZM96.1918 38.0912V44.9787H97.2478V38.0912H96.1918Z" fill="black"/>
<path d="M106.697 41.4492L111.15 45.1697V45.2401H109.085L105.648 42.3412L102.265 45.2401H100.23V45.1697L104.579 41.5207L100.24 37.9016V37.8301H102.306L105.628 40.6276L108.898 37.8301H110.942V37.9016L106.697 41.4492Z" fill="black"/>
<path fill-rule="evenodd" clip-rule="evenodd" d="M99.8498 37.4399H102.393L105.625 40.1803L108.808 37.4399H111.33V37.9882L107.218 41.4475L111.54 45.0827V45.6299H108.998L105.65 42.7868L102.352 45.6299H99.8398V45.0831L104.057 41.521L99.8498 37.9884V37.4399ZM102.146 38.0912H100.992L105.076 41.5196L100.98 44.9787H102.103L105.646 41.9233L109.245 44.9787H110.397L106.199 41.4476L110.188 38.0912H109.057L105.629 41.0432L102.146 38.0912Z" fill="black"/>
<path d="M115.574 40.4964H121.02V41.5708H115.574V43.9725H122.46V45.2401H113.88V37.8301H122.46V39.0976H115.574V40.4964Z" fill="black"/>
<path fill-rule="evenodd" clip-rule="evenodd" d="M113.49 37.4399H122.85V39.3808H115.86V40.1526H121.388V41.897H115.86V43.6891H122.85V45.6299H113.49V37.4399ZM114.14 38.0912V44.9787H122.2V44.3404H115.21V41.2457H120.738V40.8039H115.21V38.7295H122.2V38.0912H114.14Z" fill="black"/>
<path d="M126.981 37.8301V43.9725H133.38V45.2401H125.19V37.8301H126.981Z" fill="black"/>
<path fill-rule="evenodd" clip-rule="evenodd" d="M125.19 37.4399H127.578V43.6891H133.77V45.6299H125.19V37.4399ZM125.845 38.0912V44.9787H133.115V44.3404H126.923V38.0912H125.845Z" fill="black"/>
<path d="M19.8901 37.4399H27.185C28.5614 37.4399 29.2501 38.0737 29.2501 39.339V43.3408C29.2501 44.6073 28.5614 45.2399 27.185 45.2399H19.8901V37.4399ZM27.4887 39.6276C27.4887 39.0581 27.1957 38.7739 26.6085 38.7739H21.6409V43.9071H26.6085C27.1957 43.9071 27.4887 43.6229 27.4887 43.0534V39.6276Z" fill="black"/>
<path d="M32.6581 40.2468H38.5997V41.378H32.6581V43.9073H40.1701V45.2399H30.8101V37.4399H40.1701V38.7737H32.6581V40.2468Z" fill="black"/>
<path d="M48.1862 40.2475C49.6016 40.2475 50.3098 40.8811 50.3098 42.1461V43.3414C50.3098 44.6075 49.6016 45.2399 48.1862 45.2399H41.3614V43.9064H47.6256C48.252 43.9064 48.5656 43.6222 48.5656 43.0529V42.2419C48.5656 41.666 48.252 41.3775 47.6256 41.3775H43.2102C41.964 41.3775 41.3398 40.855 41.3398 39.8088V39.0087C41.3398 37.9636 41.9629 37.4399 43.2102 37.4399H50.0242V38.7735H43.7696C43.305 38.7735 43.0722 38.9444 43.0722 39.2852V39.7119C43.0722 40.0679 43.305 40.2453 43.7696 40.2453H48.1862V40.2475Z" fill="black"/>
<path d="M53.6412 40.2468H59.3352V41.378H53.6412V43.9073H60.8401V45.2399H51.8701V37.4399H60.8401V38.7737H53.6412V40.2468Z" fill="black"/>
<path d="M62.0098 37.4399H69.5895C71.0322 37.4399 71.7541 38.0736 71.7541 39.3388V40.384C71.7541 41.6002 71.095 42.2338 69.7767 42.2828L72.1498 45.1637V45.2399H70.1175L67.712 42.2839H63.8447V45.2399H62.0098V37.4399ZM69.9415 39.6066C69.9415 39.0306 69.6299 38.7421 69.0078 38.7421H63.8447V41.1429H69.0078C69.6299 41.1429 69.9415 40.8543 69.9415 40.2784V39.6066Z" fill="black"/>
<path d="M76.2851 45.2399V38.7737H72.1499V37.4399H82.2899V38.7737H78.1434V45.2399H76.2851Z" fill="black"/>
<defs>
<linearGradient id="paint0_linear_86_3259" x1="61.9764" y1="59.8282" x2="100.774" y2="-7.26259" gradientUnits="userSpaceOnUse">
<stop stop-color="#511517"/>
<stop offset="0.1572" stop-color="#551618" stop-opacity="0.8428"/>
<stop offset="0.3201" stop-color="#621A1A" stop-opacity="0.6799"/>
<stop offset="0.4856" stop-color="#761F1E" stop-opacity="0.5144"/>
<stop offset="0.6531" stop-color="#932723" stop-opacity="0.3469"/>
<stop offset="0.8219" stop-color="#B9322A" stop-opacity="0.1781"/>
<stop offset="0.9897" stop-color="#E63E32" stop-opacity="0.0103"/>
<stop offset="1" stop-color="#E93F33" stop-opacity="0"/>
</linearGradient>
<linearGradient id="paint1_linear_86_3259" x1="93.2098" y1="18.5252" x2="133.38" y2="18.5252" gradientUnits="userSpaceOnUse">
<stop stop-color="#82161A" stop-opacity="0"/>
<stop offset="0.1319" stop-color="#761619" stop-opacity="0.1319"/>
<stop offset="0.4271" stop-color="#621518" stop-opacity="0.4271"/>
<stop offset="0.7186" stop-color="#551517" stop-opacity="0.7186"/>
<stop offset="1" stop-color="#511517"/>
</linearGradient>
</defs>
</svg>
