<svg width="220" height="65" viewBox="0 0 220 65" fill="none" xmlns="http://www.w3.org/2000/svg">
<path d="M28.0498 50.0502V47.2783C28.0498 47.2783 61.8737 40.6566 83.5517 29.723C100.479 21.1856 119.282 9.83014 131.542 4.82381C132.178 4.56356 132.509 4.51274 133.11 4.28791C135.753 3.29927 139.215 2.57858 141.028 2.41381C151.175 1.48985 161.502 3.69658 168.574 6.46846C175.646 9.24035 176.876 9.85632 176.876 9.85632V15.4001H181.181V26.0257H188.1V34.0333H183.18L183.206 40.0129H188.098L188.06 50.0271L28.0498 50.0502Z" fill="#E93F33"/>
<path d="M28.0498 50.0502V47.2783C28.0498 47.2783 61.8737 40.6566 83.5517 29.723C100.479 21.1856 119.282 9.83014 131.542 4.82381C132.178 4.56356 132.509 4.51274 133.11 4.28791C135.753 3.29927 139.215 2.57858 141.028 2.41381C151.175 1.48985 161.502 3.69658 168.574 6.46846C175.646 9.24035 176.876 9.85632 176.876 9.85632V15.4001L181.22 15.3785V26.0811L188.1 26.0257V34.0333H183.18L183.206 40.0129H188.098V49.7407L28.0498 50.0502Z" fill="url(#paint0_linear_86_2941)"/>
<path d="M131.45 4.88424C131.45 4.88424 135.272 3.45247 138.192 4.06763C141.113 4.68278 140.806 6.06687 138.5 9.4502C136.194 12.8335 131.89 21.4457 140.191 29.4426C148.491 37.4396 163.095 44.5138 170.473 47.282C177.852 50.0502 177.852 50.0502 177.852 50.0502H187.997L188.1 40.0555L183.078 40.054V34.3638L188.1 34.3654L188.036 26.0593H181.349L181.195 15.4479L176.891 15.371L176.802 9.91157C176.802 9.91157 152.94 -3.32342 131.45 4.88424Z" fill="#82161A"/>
<path d="M131.45 4.88424C131.45 4.88424 135.271 3.45247 138.191 4.06763C141.111 4.68278 140.803 6.06687 138.498 9.4502C136.193 12.8335 131.89 21.4457 140.189 29.4426C148.488 37.4396 163.088 44.5138 170.465 47.282C177.842 50.0502 177.842 50.0502 177.842 50.0502H187.985L188.088 40.0555L183.067 40.054V34.3638L188.1 34.2869V25.9824L181.184 26.0593L181.108 15.4479L176.804 15.371L176.792 9.91157C176.792 9.91157 152.935 -3.32342 131.45 4.88424Z" fill="url(#paint1_linear_86_2941)"/>
<path d="M6.0501 24.2H1.1001V29.7H6.0501V24.2Z" fill="#82161A"/>
<path d="M20.35 28.5999H13.75V35.1999H20.35V28.5999Z" fill="#82161A"/>
<path d="M3.3 34.6501H0V37.9501H3.3V34.6501Z" fill="#82161A"/>
<path d="M15.95 39.0498H8.25V47.2998H15.95V39.0498Z" fill="#82161A"/>
<path d="M23.0998 37.95H19.7998V41.25H23.0998V37.95Z" fill="#82161A"/>
<path d="M25.3002 45.0999H21.4502V48.9499H25.3002V45.0999Z" fill="#82161A"/>
<path d="M31.3498 40.1501H28.0498V43.4501H31.3498V40.1501Z" fill="#82161A"/>
<path d="M184.8 0.550049H179.85V5.50005H184.8V0.550049Z" fill="#511517"/>
<path d="M191.4 7.7002H187V12.1002H191.4V7.7002Z" fill="#511517"/>
<path d="M204.6 1.65015H200.2V6.05015H204.6V1.65015Z" fill="#511517"/>
<path d="M220 0H215.6V3.85H220V0Z" fill="#511517"/>
<path d="M205.7 9.3501H195.8V19.2501H205.7V9.3501Z" fill="#511517"/>
<path d="M217.8 12.6501H213.95V16.5001H217.8V12.6501Z" fill="#511517"/>
<path d="M190.85 16.5H183.7V23.1H190.85V16.5Z" fill="#511517"/>
<path d="M201.85 23.1001H195.25V30.2501H201.85V23.1001Z" fill="#511517"/>
<path d="M195.8 36.3H191.4V40.7H195.8V36.3Z" fill="#511517"/>
<path d="M34.1001 46.2H31.3501V48.95H34.1001V46.2Z" fill="white"/>
<path d="M44.5502 46.75H40.7002V50.05H44.5502V46.75Z" fill="white"/>
<path d="M50.5998 44H47.2998V47.3H50.5998V44Z" fill="white"/>
<path d="M64.3498 42.3499H58.2998V48.3999H64.3498V42.3499Z" fill="white"/>
<path d="M73.1499 45.0999H70.3999V47.8499H73.1499V45.0999Z" fill="white"/>
<path d="M163.35 8.80005H159.5V12.65H163.35V8.80005Z" fill="white"/>
<path d="M172.15 14.3H166.65V19.8H172.15V14.3Z" fill="white"/>
<path d="M163.35 26.4001H157.85V31.9001H163.35V26.4001Z" fill="white"/>
<path d="M179.85 26.4001H176.55V30.2501H179.85V26.4001Z" fill="white"/>
<path d="M188.65 34.0999H183.15V40.1499H188.65V34.0999Z" fill="white"/>
<path d="M118.25 53.3499H128.518C130.473 53.3499 131.45 54.1986 131.45 55.8946V57.7381C131.45 59.4342 130.473 60.2829 128.518 60.2829H120.736V63.7999H118.25V53.3499ZM128.994 56.2814C128.994 55.5184 128.573 55.1377 127.73 55.1377H120.736V58.5553H127.73C128.573 58.5553 128.994 58.1746 128.994 57.4116V56.2814Z" fill="black"/>
<path fill-rule="evenodd" clip-rule="evenodd" d="M117.7 52.7998H128.142C129.152 52.7998 129.995 53.0282 130.587 53.5657C131.187 54.1112 131.45 54.9018 131.45 55.8481V57.7236C131.45 58.6699 131.187 59.4604 130.587 60.0059C129.995 60.5434 129.152 60.7718 128.142 60.7718H121.031V64.3498H117.7V52.7998ZM118.614 53.7184V63.4312H120.118V59.8532H128.142C129.033 59.8532 129.615 59.6499 129.974 59.3243C130.324 59.0067 130.536 58.5027 130.536 57.7236V55.8481C130.536 55.0689 130.324 54.565 129.974 54.2474C129.615 53.9217 129.033 53.7184 128.142 53.7184H118.614ZM120.118 54.6187H127.376C127.849 54.6187 128.289 54.73 128.611 55.0342C128.937 55.3434 129.062 55.7754 129.062 56.2415V57.3913C129.062 57.8574 128.937 58.2895 128.611 58.5986C128.289 58.9029 127.849 59.0142 127.376 59.0142H120.118V54.6187ZM121.031 55.5373V58.0956H127.376C127.722 58.0956 127.896 58.0133 127.984 57.9298C128.067 57.8512 128.148 57.7014 128.148 57.3913V56.2415C128.148 55.9314 128.067 55.7817 127.984 55.7031C127.896 55.6196 127.722 55.5373 127.376 55.5373H121.031Z" fill="black"/>
<path d="M137.5 63.7999H135.3V53.3499H137.5V63.7999Z" fill="black"/>
<path fill-rule="evenodd" clip-rule="evenodd" d="M134.75 52.7998H138.05V64.3498H134.75V52.7998ZM135.655 53.7183V63.4313H137.145V53.7183H135.655Z" fill="black"/>
<path d="M150.471 58.4537L156.75 63.7005V63.7999H153.838L148.992 59.7116L144.219 63.7999H141.35V63.7005L147.483 58.5545L141.364 53.4507V53.3499H144.278L148.962 57.2951L153.574 53.3499H156.457V53.4507L150.471 58.4537Z" fill="black"/>
<path fill-rule="evenodd" clip-rule="evenodd" d="M140.814 52.7998H144.4L148.959 56.6644L153.447 52.7998H157.004V53.573L151.204 58.4515L157.3 63.5781V64.3498H153.715L148.993 60.3402L144.343 64.3498H140.8V63.5787L146.748 58.5552L140.814 53.5733V52.7998ZM144.053 53.7183H142.425L148.184 58.5531L142.408 63.4313H143.991L148.988 59.1224L154.063 63.4313H155.688L149.767 58.4516L155.394 53.7183H153.798L148.963 57.8813L144.053 53.7183Z" fill="black"/>
<path d="M162.989 57.11H170.669V58.6253H162.989V62.0123H172.7V63.7999H160.6V53.3499H172.7V55.1374H162.989V57.11Z" fill="black"/>
<path fill-rule="evenodd" clip-rule="evenodd" d="M160.05 52.7998H173.25V55.5369H163.392V56.6253H171.188V59.0853H163.392V61.6127H173.25V64.3498H160.05V52.7998ZM160.967 53.7183V63.4313H172.333V62.5312H162.475V58.1668H170.271V57.5438H162.475V54.6184H172.333V53.7183H160.967Z" fill="black"/>
<path d="M179.075 53.3499V62.0123H188.1V63.7999H176.55V53.3499H179.075Z" fill="black"/>
<path fill-rule="evenodd" clip-rule="evenodd" d="M176.55 52.7998H179.917V61.6127H188.65V64.3498H176.55V52.7998ZM177.474 53.7183V63.4313H187.726V62.5312H178.994V53.7183H177.474Z" fill="black"/>
<path d="M28.0498 52.7998H38.3374C40.2785 52.7998 41.2498 53.6936 41.2498 55.478V61.1216C41.2498 62.9076 40.2785 63.7998 38.3374 63.7998H28.0498V52.7998ZM38.7658 55.885C38.7658 55.0818 38.3525 54.681 37.5245 54.681H30.5188V61.9201H37.5245C38.3525 61.9201 38.7658 61.5193 38.7658 60.7162V55.885Z" fill="black"/>
<path d="M46.0564 56.7582H54.4356V58.3535H46.0564V61.9204H56.6502V63.7998H43.4502V52.7998H56.6502V54.6807H46.0564V56.7582Z" fill="black"/>
<path d="M67.9549 56.7592C69.951 56.7592 70.9498 57.6527 70.9498 59.4366V61.1223C70.9498 62.9078 69.951 63.7998 67.9549 63.7998H58.3302V61.9191H67.1644C68.0476 61.9191 68.49 61.5184 68.49 60.7155V59.5718C68.49 58.7596 68.0476 58.3528 67.1644 58.3528H60.9374C59.18 58.3528 58.2998 57.6159 58.2998 56.1405V55.0121C58.2998 53.5383 59.1785 52.7998 60.9374 52.7998H70.5469V54.6805H61.7264C61.0712 54.6805 60.7428 54.9215 60.7428 55.402V56.0039C60.7428 56.5059 61.0712 56.7561 61.7264 56.7561H67.9549V56.7592Z" fill="black"/>
<path d="M75.6476 56.7582H83.6776V58.3535H75.6476V61.9204H85.7999V63.7998H73.1499V52.7998H85.7999V54.6807H75.6476V56.7582Z" fill="black"/>
<path d="M87.4502 52.7998H98.1396C100.174 52.7998 101.192 53.6934 101.192 55.4776V56.9517C101.192 58.6668 100.263 59.5604 98.4036 59.6295L101.75 63.6923V63.7998H98.8842L95.4918 59.631H90.038V63.7998H87.4502V52.7998ZM98.636 55.8554C98.636 55.0431 98.1965 54.6362 97.3192 54.6362H90.038V58.0219H97.3192C98.1965 58.0219 98.636 57.615 98.636 56.8027V55.8554Z" fill="black"/>
<path d="M107.582 63.7998V54.6807H101.75V52.7998H116.05V54.6807H110.202V63.7998H107.582Z" fill="black"/>
<defs>
<linearGradient id="paint0_linear_86_2941" x1="87.4023" y1="84.3732" x2="142.117" y2="-10.242" gradientUnits="userSpaceOnUse">
<stop stop-color="#511517"/>
<stop offset="0.1572" stop-color="#551618" stop-opacity="0.8428"/>
<stop offset="0.3201" stop-color="#621A1A" stop-opacity="0.6799"/>
<stop offset="0.4856" stop-color="#761F1E" stop-opacity="0.5144"/>
<stop offset="0.6531" stop-color="#932723" stop-opacity="0.3469"/>
<stop offset="0.8219" stop-color="#B9322A" stop-opacity="0.1781"/>
<stop offset="0.9897" stop-color="#E63E32" stop-opacity="0.0103"/>
<stop offset="1" stop-color="#E93F33" stop-opacity="0"/>
</linearGradient>
<linearGradient id="paint1_linear_86_2941" x1="131.45" y1="26.1254" x2="188.1" y2="26.1254" gradientUnits="userSpaceOnUse">
<stop stop-color="#82161A" stop-opacity="0"/>
<stop offset="0.1319" stop-color="#761619" stop-opacity="0.1319"/>
<stop offset="0.4271" stop-color="#621518" stop-opacity="0.4271"/>
<stop offset="0.7186" stop-color="#551517" stop-opacity="0.7186"/>
<stop offset="1" stop-color="#511517"/>
</linearGradient>
</defs>
</svg>
