<svg width="1140" height="822" viewBox="0 0 1140 822" fill="none" xmlns="http://www.w3.org/2000/svg">
<path d="M114.971 123.617L114.629 123.252L114.971 123.617ZM445.892 53.4952L445.992 53.985L445.892 53.4952ZM703.302 2.90199L703.308 2.40203L703.302 2.90199ZM1038.69 60.5607L1038.36 60.9328L1038.69 60.5607ZM1138.87 393.852L1138.37 393.85L1138.87 393.852ZM1036.51 708.078L1036.89 708.397L1036.51 708.078ZM762.35 850.169L762.161 849.707L762.35 850.169ZM462.654 943.289L462.761 942.8L462.654 943.289ZM226.143 732.435L226.505 732.09L226.143 732.435ZM6.54121 464.459L7.03308 464.369H7.03308L6.54121 464.459ZM115.312 123.982C157.357 84.6539 211.636 72.9427 269.642 68.1806C298.649 65.7992 328.542 65.1577 358.304 63.6575C388.053 62.1579 417.647 59.8009 445.992 53.985L445.791 53.0054C417.523 58.8056 387.989 61.1599 358.254 62.6587C328.532 64.1569 298.586 64.801 269.56 67.184C211.498 71.9508 156.93 83.6844 114.629 123.252L115.312 123.982ZM445.992 53.985C489.906 44.9747 531.892 32.0469 574.023 21.5267C616.176 11.0007 658.528 2.86837 703.296 3.40195L703.308 2.40203C658.413 1.86693 615.964 10.0229 573.78 20.5565C531.573 31.0959 489.686 43.9991 445.791 53.0054L445.992 53.985ZM703.296 3.40195C732.369 3.74847 762.468 2.66939 792.587 2.07065C822.714 1.47175 852.87 1.35301 882.093 3.61625C940.542 8.14291 995.199 22.1945 1038.36 60.9328L1039.03 60.1886C995.631 21.2384 940.716 7.15343 882.171 2.61924C852.897 0.352058 822.7 0.471824 792.567 1.07085C762.427 1.67003 732.36 2.74829 703.308 2.40203L703.296 3.40195ZM1038.36 60.9328C1082.54 100.587 1107.65 154.091 1121.66 212.56C1135.67 271.031 1138.57 334.434 1138.37 393.85L1139.37 393.853C1139.57 334.413 1136.67 270.915 1122.63 212.327C1108.59 153.736 1083.41 100.022 1039.03 60.1886L1038.36 60.9328ZM1138.37 393.85C1137.99 506.737 1107.89 620.78 1036.12 707.76L1036.89 708.397C1108.85 621.19 1138.99 506.901 1139.37 393.853L1138.37 393.85ZM1036.12 707.76C1002.63 748.346 958.589 773.825 910.678 794.162C886.723 804.331 861.811 813.21 836.775 822.052C811.743 830.892 786.585 839.696 762.161 849.707L762.54 850.632C786.937 840.632 812.069 831.838 837.108 822.995C862.142 814.154 887.081 805.265 911.069 795.082C959.046 774.717 1003.26 749.161 1036.89 708.397L1036.12 707.76ZM762.161 849.707C737.338 859.881 712.74 872.231 688.185 884.665C663.623 897.101 639.104 909.62 614.412 920.149C565.029 941.207 515.023 954.275 462.761 942.8L462.547 943.777C515.11 955.318 565.348 942.158 614.805 921.069C639.533 910.524 664.083 897.989 688.636 885.557C713.196 873.122 737.759 860.789 762.54 850.632L762.161 849.707ZM462.761 942.8C410.045 931.225 369.671 898.199 333.12 858.215C314.844 838.222 297.537 816.506 280.12 794.873C262.709 773.246 245.189 751.705 226.505 732.09L225.781 732.78C244.432 752.36 261.928 773.871 279.342 795.5C296.751 817.124 314.08 838.869 332.382 858.889C368.985 898.931 409.532 932.136 462.547 943.777L462.761 942.8ZM226.505 732.09C206.074 710.641 183.454 690.437 160.699 670.388C137.939 650.333 115.046 630.436 94.041 609.583C52.0305 567.877 17.6304 522.403 7.03308 464.369L6.04934 464.548C16.7013 522.882 51.273 568.534 93.3365 610.293C114.368 631.172 137.288 651.092 160.038 671.138C182.794 691.188 205.383 711.366 225.781 732.78L226.505 732.09ZM7.03308 464.369C-14.9078 344.213 26.191 207.345 115.312 123.982L114.629 123.252C25.2422 206.864 -15.9482 344.082 6.04934 464.548L7.03308 464.369Z" fill="#D0382F"/>
</svg>
