<svg width="340" height="167" viewBox="0 0 340 167" fill="none" xmlns="http://www.w3.org/2000/svg">
<path fill-rule="evenodd" clip-rule="evenodd" d="M339 1.03272C334.922 2.15562 330.863 3.23767 326.827 4.25879C302.786 10.3409 281.288 20.714 260.283 32.3101C252.804 36.4389 245.393 40.7189 237.953 45.016L237.949 45.0185C224.473 52.8016 210.9 60.6408 196.647 67.7395C182.412 74.8292 167.011 80.2644 151.372 85.2754C146.264 86.9121 141.127 88.5043 135.998 90.0943L135.998 90.0944C125.438 93.3679 114.908 96.6319 104.716 100.256C74.4217 111.028 46.928 125.036 29.9379 152.192C3.7751 194.01 -4.64098 247.415 3.91738 297H4.93197C-3.6355 247.596 4.73197 194.366 30.7857 152.723C47.5901 125.863 74.8104 111.951 105.051 101.198C115.224 97.5809 125.719 94.3276 136.268 91.0578C141.402 89.4663 146.549 87.8709 151.677 86.2277C167.329 81.2127 182.788 75.759 197.092 68.6346C211.369 61.5241 224.995 53.6551 238.491 45.8605C245.926 41.5665 253.322 37.2951 260.766 33.1856C281.744 21.6047 303.154 11.2792 327.072 5.22827C331.027 4.2277 335.004 3.16853 339 2.06987V1.03272Z" fill="#D0382F"/>
<path d="M326.827 4.25879L326.949 4.74352V4.74352L326.827 4.25879ZM339 1.03272H339.5V0.376428L338.867 0.550661L339 1.03272ZM260.283 32.3101L260.524 32.7479L260.283 32.3101ZM237.953 45.016L238.203 45.4492L238.203 45.449L237.953 45.016ZM237.949 45.0185L237.699 44.5853L237.699 44.5855L237.949 45.0185ZM196.647 67.7395L196.424 67.2919L196.647 67.7395ZM151.372 85.2754L151.219 84.7992L151.372 85.2754ZM135.998 90.0943L136.138 90.5743L136.146 90.5718L135.998 90.0943ZM135.998 90.0944L135.858 89.6143L135.85 89.6168L135.998 90.0944ZM104.716 100.256L104.884 100.727L104.716 100.256ZM29.9379 152.192L30.3618 152.457L29.9379 152.192ZM3.91738 297L3.42466 297.085L3.49628 297.5H3.91738V297ZM4.93197 297V297.5H5.52614L5.42462 296.914L4.93197 297ZM30.7857 152.723L31.2096 152.988L30.7857 152.723ZM105.051 101.198L105.219 101.669L105.051 101.198ZM136.268 91.0578L136.119 90.5803V90.5803L136.268 91.0578ZM151.677 86.2277L151.525 85.7515L151.677 86.2277ZM197.092 68.6346L196.87 68.187L197.092 68.6346ZM238.491 45.8605L238.741 46.2934L238.491 45.8605ZM260.766 33.1856L260.524 32.7478L260.766 33.1856ZM327.072 5.22827L327.194 5.713L327.072 5.22827ZM339 2.06987L339.132 2.55197L339.5 2.45094V2.06987H339ZM326.949 4.74352C330.99 3.72136 335.052 2.63838 339.132 1.51478L338.867 0.550661C334.792 1.67286 330.736 2.75398 326.704 3.77406L326.949 4.74352ZM260.524 32.7479C281.516 21.1594 302.97 10.8101 326.949 4.74352L326.704 3.77406C302.602 9.87168 281.061 20.2687 260.041 31.8724L260.524 32.7479ZM238.203 45.449C245.644 41.1515 253.05 36.8739 260.524 32.7479L260.041 31.8724C252.557 36.0039 245.142 40.2863 237.703 44.583L238.203 45.449ZM238.198 45.4517L238.203 45.4492L237.703 44.5828L237.699 44.5853L238.198 45.4517ZM196.87 68.187C211.139 61.0804 224.725 53.2334 238.199 45.4515L237.699 44.5855C224.221 52.3698 210.661 60.2013 196.424 67.2919L196.87 68.187ZM151.525 85.7515C167.17 80.7385 182.6 75.2941 196.87 68.187L196.424 67.2919C182.224 74.3643 166.852 79.7903 151.219 84.7992L151.525 85.7515ZM136.146 90.5718C141.275 88.982 146.414 87.3891 151.525 85.7515L151.219 84.7992C146.114 86.4351 140.98 88.0266 135.85 89.6167L136.146 90.5718ZM136.138 90.5744L136.138 90.5743L135.858 89.6143L135.858 89.6144L136.138 90.5744ZM104.884 100.727C115.065 97.107 125.584 93.846 136.146 90.572L135.85 89.6168C125.292 92.8897 114.752 96.1567 104.549 99.7848L104.884 100.727ZM30.3618 152.457C47.2591 125.45 74.6161 111.489 104.884 100.727L104.549 99.7848C74.2273 110.566 46.597 124.622 29.5141 151.927L30.3618 152.457ZM4.41009 296.915C-4.13009 247.435 4.27234 194.158 30.3618 152.457L29.5141 151.927C3.27786 193.862 -5.15187 247.395 3.42466 297.085L4.41009 296.915ZM4.93197 296.5H3.91738V297.5H4.93197V296.5ZM30.3618 152.457C4.23464 194.218 -4.14641 247.576 4.43932 297.085L5.42462 296.914C-3.12458 247.616 5.2293 194.514 31.2096 152.988L30.3618 152.457ZM104.884 100.727C74.616 111.489 47.259 125.45 30.3618 152.457L31.2096 152.988C47.9211 126.277 75.0048 112.412 105.219 101.669L104.884 100.727ZM136.119 90.5803C125.573 93.8495 115.068 97.1057 104.884 100.727L105.219 101.669C115.381 98.056 125.866 94.8057 136.416 91.5354L136.119 90.5803ZM151.525 85.7515C146.399 87.3939 141.254 88.9886 136.119 90.5803L136.416 91.5354C141.549 89.944 146.699 88.3479 151.83 86.7038L151.525 85.7515ZM196.87 68.187C182.6 75.2941 167.17 80.7385 151.525 85.7515L151.83 86.7038C167.488 81.6868 182.976 76.224 197.315 69.0822L196.87 68.187ZM238.241 45.4275C224.742 53.2233 211.13 61.0846 196.87 68.187L197.315 69.0822C211.608 61.9637 225.247 54.0869 238.741 46.2934L238.241 45.4275ZM260.524 32.7478C253.075 36.8601 245.675 41.1339 238.241 45.4275L238.741 46.2934C246.177 41.999 253.569 37.7301 261.008 33.6233L260.524 32.7478ZM326.949 4.74354C302.97 10.8101 281.516 21.1594 260.524 32.7478L261.008 33.6233C281.972 22.0501 303.338 11.7484 327.194 5.713L326.949 4.74354ZM338.867 1.58776C334.874 2.68572 330.9 3.74399 326.949 4.74354L327.194 5.713C331.154 4.71141 335.134 3.65133 339.132 2.55197L338.867 1.58776ZM338.5 1.03272V2.06987H339.5V1.03272H338.5Z" fill="#D0382F"/>
</svg>
