<svg width="399" height="208" viewBox="0 0 399 208" fill="none" xmlns="http://www.w3.org/2000/svg">
<path d="M391.956 -121L392.435 -121.142L392.329 -121.5H391.956V-121ZM364.647 51.4882L365.108 51.6835L364.647 51.4882ZM245.427 189.428L245.194 188.985L245.427 189.428ZM117.161 204.848L117.132 205.348L117.161 204.848ZM75.6205 203.102L75.6249 202.603L75.6205 203.102ZM28.3728 205.226L28.4083 205.725L28.3728 205.226ZM1 206.936H0.5V207.459L1.02246 207.436L1 206.936ZM391.476 -120.858C407.797 -65.77 387.194 -2.94465 364.187 51.293L365.108 51.6835C388.11 -2.54215 408.868 -65.6755 392.435 -121.142L391.476 -120.858ZM364.187 51.293C339.881 108.593 300.229 160.116 245.194 188.985L245.659 189.871C300.953 160.865 340.739 109.132 365.108 51.6835L364.187 51.293ZM245.194 188.985C206.016 209.537 161.868 206.965 117.19 204.349L117.132 205.348C161.754 207.96 206.193 210.573 245.659 189.871L245.194 188.985ZM117.19 204.349C103.334 203.538 89.4285 202.724 75.6249 202.603L75.6161 203.602C89.3906 203.724 103.271 204.536 117.132 205.348L117.19 204.349ZM75.6249 202.603C60.107 202.466 44.2056 203.598 28.3373 204.727L28.4083 205.725C44.2841 204.595 60.1451 203.466 75.6161 203.602L75.6249 202.603ZM28.3373 204.727C19.1835 205.379 10.0405 206.029 0.977536 206.437L1.02246 207.436C10.1007 207.027 19.2568 206.376 28.4083 205.725L28.3373 204.727ZM1.5 206.936V-91H0.5V206.936H1.5ZM1.5 -91C1.5 -107.292 14.7076 -120.5 31 -120.5V-121.5C14.1553 -121.5 0.5 -107.845 0.5 -91H1.5ZM31 -120.5H391.956V-121.5H31V-120.5Z" fill="#D0382F"/>
</svg>
