<svg width="276" height="153" viewBox="0 0 276 153" fill="none" xmlns="http://www.w3.org/2000/svg">
<path fill-rule="evenodd" clip-rule="evenodd" d="M275.262 1.00009V275.841C275.262 292.41 261.831 305.841 245.262 305.841H43.6297C24.454 285.217 9.32258 262.514 4.20924 234.511C-7.91086 168.137 14.788 92.5326 64.0283 46.4739C95.1217 17.3894 138.286 15.6237 182.143 13.8297C203.92 12.9389 225.867 12.0411 246.593 7.7886C256.297 5.79737 265.828 3.46009 275.262 1.00009Z" fill="#D0382F"/>
<path d="M275.262 1.00009H275.762V0.352991L275.136 0.516263L275.262 1.00009ZM43.6297 305.841L43.2635 306.182L43.4118 306.341H43.6297V305.841ZM4.20924 234.511L4.70111 234.421L4.20924 234.511ZM64.0283 46.4739L63.6867 46.1087L64.0283 46.4739ZM182.143 13.8297L182.164 14.3292L182.143 13.8297ZM246.593 7.7886L246.693 8.2784L246.593 7.7886ZM274.762 1.00009V275.841H275.762V1.00009H274.762ZM274.762 275.841C274.762 292.133 261.555 305.341 245.262 305.341V306.341C262.107 306.341 275.762 292.686 275.762 275.841H274.762ZM245.262 305.341H43.6297V306.341H245.262V305.341ZM43.9958 305.501C24.8533 284.912 9.79052 262.293 4.70111 234.421L3.71738 234.601C8.85464 262.734 24.0546 285.522 43.2635 306.182L43.9958 305.501ZM4.70111 234.421C-7.39061 168.203 15.2625 92.7735 64.3698 46.839L63.6867 46.1087C14.3136 92.2917 -8.43111 168.072 3.71738 234.601L4.70111 234.421ZM64.3698 46.839C95.3038 17.9037 138.262 16.1251 182.164 14.3292L182.123 13.3301C138.311 15.1223 94.9397 16.8751 63.6867 46.1087L64.3698 46.839ZM182.164 14.3292C203.932 13.4388 225.921 12.5404 246.693 8.2784L246.492 7.2988C225.813 11.5417 203.907 12.439 182.123 13.3301L182.164 14.3292ZM246.693 8.2784C256.41 6.28471 265.95 3.94505 275.388 1.48391L275.136 0.516263C265.706 2.97513 256.185 5.31002 246.492 7.2988L246.693 8.2784Z" fill="#D0382F"/>
</svg>
