<svg width="409" height="220" viewBox="0 0 409 220" fill="none" xmlns="http://www.w3.org/2000/svg">
<path fill-rule="evenodd" clip-rule="evenodd" d="M406.085 -135C407.342 -118.614 407.692 -102.187 407.638 -86.2826C407.428 -23.9603 390.811 39.0236 351.165 87.0717C322.904 121.321 281.065 136.09 238.889 150.978C225.798 155.599 212.675 160.232 199.916 165.461C185.579 171.338 171.376 178.532 157.18 185.723C117.187 205.98 77.2593 226.205 34.5781 216.834C22.2872 214.135 11.2118 209.329 1 203.019V-105C1 -121.569 14.4315 -135 31 -135H406.085Z" fill="#D0382F"/>
<path d="M406.085 -135L406.583 -135.038L406.548 -135.5H406.085V-135ZM407.638 -86.2826L407.138 -86.2843L407.638 -86.2826ZM351.165 87.0717L350.779 86.7535L351.165 87.0717ZM238.889 150.978L239.055 151.45L238.889 150.978ZM199.916 165.461L200.106 165.924H200.106L199.916 165.461ZM157.18 185.723L157.406 186.169L157.18 185.723ZM34.5781 216.834L34.4708 217.322L34.5781 216.834ZM1 203.019H0.5V203.298L0.737172 203.444L1 203.019ZM405.586 -134.962C406.842 -118.594 407.192 -102.181 407.138 -86.2843L408.138 -86.2809C408.192 -102.194 407.842 -118.635 406.583 -135.038L405.586 -134.962ZM407.138 -86.2843C406.928 -24.0423 390.332 38.8183 350.779 86.7535L351.55 87.39C391.29 39.2288 407.928 -23.8783 408.138 -86.2809L407.138 -86.2843ZM350.779 86.7535C322.622 120.878 280.925 135.609 238.723 150.507L239.055 151.45C281.205 136.571 323.187 121.765 351.55 87.39L350.779 86.7535ZM238.723 150.507C225.634 155.127 212.499 159.763 199.726 164.999L200.106 165.924C212.852 160.7 225.963 156.071 239.055 151.45L238.723 150.507ZM199.726 164.999C185.367 170.884 171.146 178.088 156.954 185.276L157.406 186.169C171.605 178.977 185.79 171.792 200.106 165.924L199.726 164.999ZM156.954 185.276C116.923 205.554 77.1615 225.672 34.6853 216.345L34.4708 217.322C77.3569 226.739 117.452 206.407 157.406 186.169L156.954 185.276ZM34.6853 216.345C22.4561 213.66 11.4328 208.878 1.26283 202.594L0.737172 203.444C10.9909 209.78 22.1184 214.61 34.4708 217.322L34.6853 216.345ZM1.5 203.019V-105H0.5V203.019H1.5ZM1.5 -105C1.5 -121.292 14.7076 -134.5 31 -134.5V-135.5C14.1553 -135.5 0.5 -121.845 0.5 -105H1.5ZM31 -134.5H406.085V-135.5H31V-134.5Z" fill="#D0382F"/>
</svg>
