<svg width="736" height="613" viewBox="0 0 736 613" fill="none" xmlns="http://www.w3.org/2000/svg">
<path d="M74.4072 80.4436L74.0657 80.0784L74.4072 80.4436ZM287.864 35.2123L287.964 35.7021L287.864 35.2123ZM453.903 2.57784L453.909 2.07788L453.903 2.57784ZM670.242 39.7698L669.908 40.1419L670.242 39.7698ZM734.862 254.755L734.362 254.753L734.862 254.755ZM668.833 457.443L669.218 457.761L668.833 457.443ZM491.991 549.097L491.801 548.634L491.991 549.097ZM298.676 609.162L298.569 609.65L298.676 609.162ZM146.117 473.154L146.479 472.809L146.117 473.154ZM4.4661 300.299L4.95797 300.209L4.4661 300.299ZM74.7488 80.8087C101.824 55.4829 136.785 47.9328 174.19 44.8619C192.898 43.326 212.17 42.9127 231.375 41.9446C250.566 40.9773 269.667 39.4564 287.964 35.7021L287.763 34.7225C269.542 38.4611 250.503 39.9792 231.325 40.9459C212.161 41.9119 192.835 42.3278 174.108 43.8652C136.646 46.9408 101.397 54.5135 74.0657 80.0784L74.7488 80.8087ZM287.964 35.7021C316.294 29.8894 343.394 21.5461 370.556 14.7637C397.741 7.97537 425.042 2.73389 453.897 3.07781L453.909 2.07788C424.927 1.73245 397.529 6.99752 370.313 13.7935C343.074 20.5952 316.073 28.9138 287.763 34.7225L287.964 35.7021ZM453.897 3.07781C472.654 3.30137 492.075 2.60518 511.498 2.21904C530.93 1.83275 550.375 1.75634 569.216 3.21552C606.9 6.13405 642.11 15.1919 669.908 40.1419L670.576 39.3978C642.542 14.2358 607.075 5.14456 569.293 2.2185C550.401 0.755392 530.916 0.832827 511.478 1.21924C492.033 1.60581 472.644 2.30118 453.909 2.07788L453.897 3.07781ZM669.908 40.1419C698.37 65.6887 714.552 100.164 723.585 137.856C732.617 175.551 734.491 216.432 734.362 254.753L735.362 254.757C735.491 216.411 733.618 175.436 724.557 137.623C715.496 99.8082 699.238 65.1238 670.576 39.3978L669.908 40.1419ZM734.362 254.753C734.116 327.541 714.708 401.059 668.447 457.125L669.218 457.761C715.666 401.47 735.116 327.705 735.362 254.757L734.362 254.753ZM668.447 457.125C646.871 483.273 618.491 499.693 587.599 512.806C572.152 519.363 556.088 525.089 539.938 530.792C523.793 536.494 507.561 542.174 491.801 548.634L492.181 549.559C507.913 543.111 524.119 537.44 540.271 531.735C556.419 526.033 572.511 520.297 587.989 513.727C618.948 500.585 647.496 484.087 669.218 457.761L668.447 457.125ZM491.801 548.634C475.782 555.2 459.91 563.169 444.071 571.189C428.226 579.212 412.417 587.284 396.496 594.073C364.655 607.651 332.441 616.064 298.783 608.674L298.569 609.65C332.527 617.107 364.974 608.602 396.888 594.993C412.845 588.188 428.687 580.1 444.523 572.081C460.365 564.06 476.203 556.108 492.181 549.559L491.801 548.634ZM298.783 608.674C264.832 601.219 238.82 579.948 215.252 554.166C203.468 541.276 192.308 527.273 181.073 513.317C169.842 499.367 158.537 485.467 146.479 472.809L145.755 473.499C157.78 486.122 169.061 499.992 180.294 513.944C191.523 527.891 202.704 541.922 214.514 554.841C238.134 580.679 264.319 602.13 298.569 609.65L298.783 608.674ZM146.479 472.809C133.294 458.967 118.699 445.93 104.021 432.998C89.3384 420.06 74.5764 407.23 61.0318 393.784C33.9428 366.891 11.7839 337.59 4.95797 300.209L3.97424 300.389C10.8548 338.069 33.1853 367.548 60.3272 394.493C73.898 407.966 88.6868 420.819 103.36 433.748C118.039 446.681 132.604 459.692 145.755 473.499L146.479 472.809ZM4.95797 300.209C-9.1846 222.759 17.3094 134.537 74.7488 80.8087L74.0657 80.0784C16.3606 134.055 -10.2251 222.628 3.97424 300.389L4.95797 300.209Z" fill="#D0382F"/>


</svg>
