<svg width="704" height="644" viewBox="0 0 704 644" fill="none" xmlns="http://www.w3.org/2000/svg">
<path fill-rule="evenodd" clip-rule="evenodd" d="M675.857 423.477C640.42 486.032 555.231 491.813 492.276 526.669C443.455 553.701 402.217 588.553 348.741 604.591C279.411 625.384 204.615 662.76 138.73 632.702C71.3192 601.948 39.0681 524.014 17.1916 453.33C-3.60083 386.148 -6.94577 312.724 19.5495 247.62C44.2976 186.81 105.44 154.161 156.011 112.228C207.393 69.6236 250.192 6.99883 316.759 1.18028C383.903 -4.68862 437.569 49.7802 496.522 82.4647C560.992 118.208 642.588 135.648 676.866 200.829C712.305 268.218 713.356 357.283 675.857 423.477Z" fill="#D0382F"/>
</svg>
