<svg width="520" height="430" viewBox="0 0 520 430" fill="none" xmlns="http://www.w3.org/2000/svg">
<g clip-path="url(#clip0_86_2281)">
<path d="M511.997 231.134C522.626 237.263 522.668 247.227 512.122 253.356L216.158 425.372C205.591 431.501 188.417 431.501 177.787 425.372L8.06615 327.378C-2.56353 321.249 -2.60522 311.285 7.9411 305.157L303.905 133.14C314.472 127.011 331.646 127.011 342.276 133.14L511.997 231.134Z" fill="#D0382F"/>
<path d="M520 212.665L519.958 230.989C519.938 234.991 517.311 238.972 512.08 242.016L512.142 223.693C517.374 220.649 520 216.647 520 212.665Z" fill="#FF6A61"/>
<path d="M0.000120249 304.844L0.0418053 286.521C0.0209628 290.565 2.70965 294.63 8.04533 297.715L8.00365 316.038C2.66796 312.953 -0.0207223 308.888 0.000120249 304.844Z" fill="#FF6A61"/>
<path d="M512.122 223.693L512.059 242.016L216.095 414.032L216.137 395.709L512.122 223.693Z" fill="#FF6A61"/>
<path d="M177.787 395.709L177.724 414.032L8.00365 316.038L8.06617 297.715L177.787 395.709Z" fill="#FF6A61"/>
<path d="M216.137 395.709L216.095 414.032C205.528 420.161 188.354 420.161 177.724 414.032L177.766 395.709C188.416 401.859 205.591 401.859 216.137 395.709Z" fill="#FF6A61"/>
<path d="M511.997 201.471C522.626 207.6 522.668 217.564 512.122 223.693L216.158 395.709C205.591 401.838 188.417 401.838 177.787 395.709L8.06615 297.715C-2.56353 291.586 -2.60522 281.622 7.9411 275.494L303.905 103.477C314.472 97.3483 331.646 97.3483 342.276 103.477L511.997 201.471Z" fill="#FFF9F9"/>
<path d="M425.146 210.247L313.305 274.826L241.606 233.407L353.447 168.827L425.146 210.247Z" fill="#FFF0EF"/>
<path d="M298.34 115.796C298.631 118.506 298.819 126.928 298.34 131.91C297.86 136.892 297.193 155.57 294.984 160.739C292.775 165.909 281.874 162.282 280.707 160.739C279.56 159.197 279.373 125.135 280.707 122.53C282.062 119.924 298.34 115.796 298.34 115.796Z" fill="#6E61FF"/>
<path opacity="0.87" d="M289.711 126.449C289.711 126.449 290.774 133.515 288.94 135.433C287.105 137.351 282.52 138.789 282.52 138.789C282.52 138.789 279.644 163.032 278.685 165.992C277.726 168.952 272.078 170.015 268.91 169.348C265.742 168.681 265.075 162.553 265.075 162.157C265.075 161.782 263.741 139.727 263.345 134.578C262.636 125.177 264.992 120.591 265.367 120.216C265.784 119.84 289.711 126.449 289.711 126.449Z" fill="black"/>
<path d="M295.547 159.009C295.088 162.657 293.546 190.423 291.92 193.008C290.294 195.593 286.855 195.113 285.125 194.551C283.395 193.967 280.999 192.07 280.999 192.07C280.999 192.07 280.332 164.491 280.999 159.614C281.666 154.694 295.547 159.009 295.547 159.009Z" fill="#6E61FF"/>
<path d="M279.081 164.325C278.81 168.681 278.518 196.072 277.643 198.47C276.788 200.867 268.826 201.43 267.597 198.47C266.346 195.509 263.949 173.872 263.949 169.557C263.949 165.242 266.242 158.926 266.346 158.55C266.45 158.134 279.081 164.325 279.081 164.325Z" fill="#6E61FF"/>
<path d="M318.161 82.6522C318.536 84.8201 320.141 92.8665 321.037 94.6592C321.933 96.4519 324.747 101.496 325.122 103.018C325.498 104.561 324.997 107.041 322.705 109.084C320.412 111.127 319.453 110.293 318.995 109.981C318.557 109.668 309.928 97.2857 309.866 94.5341C309.803 91.7825 318.161 82.6522 318.161 82.6522Z" fill="#FFB18C"/>
<path d="M313.367 76.2526C315.576 76.9197 316.764 77.9828 318.119 81.5265C319.495 85.0703 322.121 94.2839 321.996 96.5353C321.871 98.7657 318.244 100.121 315.66 99.7246C313.075 99.3494 310.116 98.0153 308.865 96.5353C307.615 95.0344 307.802 80.1924 307.906 79.9006C308.011 79.6087 313.367 76.2526 313.367 76.2526Z" fill="#DE3C3C"/>
<path d="M310.741 75.5022C311.116 76.0025 312.575 76.4819 313.242 81.1722C313.909 85.8415 312.7 91.7825 309.282 99.808C307.802 103.289 301.362 114.275 300.466 117.964C299.57 121.675 298.611 124.76 298.611 124.76C298.611 124.76 295.964 129.075 288.961 131.139C281.291 133.411 273.454 132.66 269.181 129.534C264.908 126.407 264.075 122.008 264.075 122.008C264.075 122.008 268.639 108.021 269.973 103.664C271.995 96.9938 274.413 84.0697 275.621 81.193C276.83 78.3163 285.668 73.772 288.356 72.1044C291.066 70.4367 297.652 67.8311 301.82 68.7483C304.572 69.3528 302.112 70.2491 302.425 70.2491C302.779 70.1866 310.741 75.5022 310.741 75.5022Z" fill="#FF4545"/>
<path d="M303.613 80.0674C303.613 80.0674 299.965 82.1728 299.277 83.1317C298.569 84.0906 295.067 84.028 293.587 83.1317C292.128 82.2353 289.69 75.8566 290.148 73.7512C290.607 71.6458 291.295 70.9371 293.212 70.3743C295.13 69.7906 298.006 66.8722 300.049 66.1635C302.091 65.4547 308.094 65.6423 309.178 68.8525C310.261 72.021 303.613 80.0674 303.613 80.0674Z" fill="#FFB18C"/>
<path d="M301.049 70.812C301.049 70.812 298.006 77.7744 298.069 78.8583C298.131 79.9423 301.508 84.6742 302.863 85.2996C304.197 85.9458 305.801 85.8832 306.302 85.7373C306.823 85.6122 311.283 83.8195 311.283 83.8195L317.369 77.3783C317.369 77.3783 320.016 74.1264 319.953 71.2497C319.891 68.3731 314.91 66.1843 311.408 65.8091C307.886 65.4547 301.049 70.812 301.049 70.812Z" fill="#FFB18C"/>
<path d="M307.51 74.9185C306.947 75.1687 306.364 75.2938 305.739 75.2312C304.53 75.1061 303.55 75.7732 302.466 76.1276C301.362 76.4819 300.945 75.5648 300.611 74.6892C300.507 74.4183 300.403 74.1056 300.403 73.8137C300.403 73.501 300.57 73.2092 300.528 72.8965C300.445 72.1878 298.048 72.0627 298.048 72.0627C298.048 72.0627 298.069 74.2932 295.797 73.6053C295.026 73.376 293.754 70.8745 293.671 70.6035C293.608 70.3534 294.817 67.4767 295.359 65.3922C296.443 61.098 298.465 53.7187 308.323 55.0111C313.68 54.7401 318.348 55.7407 320.891 60.4726C323.455 65.2046 322.788 69.5821 322.225 71.4582C321.871 72.6047 321.412 73.4594 320.412 74.1473C319.495 74.7726 318.369 75.0436 317.285 75.2521C315.951 75.5231 314.576 75.7524 313.221 75.6064C313.117 75.5856 313.013 75.5856 312.888 75.5647C311.658 75.398 310.553 75.0019 309.386 74.6059C308.844 74.3766 308.031 74.6892 307.51 74.9185Z" fill="#393952"/>
<path d="M299.007 75.7315C297.923 75.5856 297.881 73.1258 298.048 71.625C298.214 70.1241 298.965 69.332 299.548 69.4779C300.132 69.6447 301.007 70.1241 300.903 71.1247C300.799 72.1253 299.903 75.8566 299.007 75.7315Z" fill="#FFB18C"/>
<path d="M291.253 191.278C291.358 192.612 292.066 194.342 292.504 195.197C292.942 196.051 301.8 200.804 302.508 201.805C303.217 202.805 302.884 204.827 302.884 204.827C302.884 204.827 301.696 207.933 300.049 208.184C298.423 208.413 293.775 206.12 292.775 205.119C291.774 204.119 282.854 199.908 282.145 198.032C281.437 196.156 282.52 192.716 282.52 192.424C282.52 192.133 283 187.005 283 186.879C283 186.734 285.959 186.254 285.959 186.254L291.253 191.278Z" fill="#FFD245"/>
<path d="M275.017 192.716C275.871 193.571 276.413 193.675 276.497 195.635C276.601 197.594 276.976 202.013 277.163 202.388C277.351 202.764 283.583 210.81 283.916 211.957C284.25 213.103 283.583 215.542 283.583 215.542C283.583 215.542 278.164 217.126 275.308 215.834C272.432 214.541 270.285 211.706 270.181 210.414C270.077 209.122 268.18 205.182 267.597 204.515C267.013 203.848 267.597 200.116 267.597 200.116C267.597 200.116 268.556 197.24 268.597 196.719C268.639 196.197 268.014 193.029 268.222 192.695C268.41 192.383 275.017 192.716 275.017 192.716Z" fill="#FFD245"/>
<path d="M313.951 267.822V210.56L253.82 175.831V233.115L313.951 267.822Z" fill="#8F94A8"/>
<path d="M313.951 218.294V210.56L253.82 175.831V183.586L313.951 218.294Z" fill="#8F94A8"/>
<path d="M313.951 267.822V210.56L412.932 153.381V210.664L313.951 267.822Z" fill="#C6CAE0"/>
<path d="M313.951 218.294V210.56L412.932 153.381V161.135L313.951 218.294Z" fill="#8F94A8"/>
<path d="M425.146 149.608L313.305 214.187L241.606 172.767V158.488L425.146 135.308V149.608Z" fill="#D9DFF7"/>
<path d="M425.146 135.308L313.305 199.887L241.606 158.488L353.447 93.8879L425.146 135.308Z" fill="#E8ECFF"/>
<path d="M313.305 214.187V199.887L241.606 158.488V172.767L313.305 214.187Z" fill="#ACB1C9"/>
<path d="M406.971 136.517L315.41 189.381L259.802 157.258L351.342 104.394L406.971 136.517Z" fill="#4B4B7D"/>
<path d="M400.322 136.684L315.701 185.545L266.43 157.091L351.05 108.23L400.322 136.684Z" fill="#E1736B"/>
<path d="M351.051 108.23L333.063 118.611L343.443 124.614L340.504 159.655L350.529 165.43L388.15 143.729L362.681 129.013L374.874 121.988L351.051 108.23Z" fill="#D0382F"/>
<path d="M388.15 143.729L400.322 136.684L374.874 121.988L362.681 129.012L388.15 143.729Z" fill="#E1736B"/>
<path d="M332.73 175.727L315.701 185.545L266.43 157.091L283.458 147.273L332.73 175.727Z" fill="#FF9B93"/>
<path d="M293.546 159.697L286.168 163.949C285.647 164.241 284.876 164.283 284.438 164.012L276.768 159.572C276.33 159.322 276.372 158.863 276.893 158.571L284.25 154.319C284.772 154.027 285.543 153.985 285.98 154.256L293.65 158.696C294.109 158.947 294.067 159.405 293.546 159.697Z" fill="#D0382F"/>
<path d="M307.01 167.472L299.632 171.725C299.111 172.017 298.34 172.058 297.902 171.787L290.232 167.347C289.794 167.097 289.836 166.639 290.357 166.347L297.735 162.094C298.256 161.802 299.027 161.761 299.465 162.032L307.135 166.472C307.594 166.722 307.531 167.181 307.01 167.472Z" fill="#D0382F"/>
<path d="M320.495 175.248L313.117 179.5C312.596 179.792 311.825 179.834 311.387 179.563L303.717 175.123C303.28 174.872 303.321 174.414 303.842 174.122L311.221 169.87C311.742 169.578 312.513 169.536 312.95 169.807L320.62 174.247C321.058 174.497 320.996 174.956 320.495 175.248Z" fill="#D0382F"/>
<path class="stroke" d="M353.218 163.887L347.861 166.993L336.627 160.51L339.566 125.469L330.375 120.174L335.752 117.068L347.319 123.759L344.381 158.801L353.218 163.887Z" fill="#FF9B93"/>
<path d="M324.122 123.78L332.626 128.7L329.708 161.719L343.339 169.599L332.73 175.727L283.458 147.273L324.122 123.78Z" fill="#D0382F"/>
<path d="M341.88 147.648L305.968 148.545L293.608 141.395L298.965 138.31L308.949 144.063L341.505 143.25L341.88 147.648Z" fill="#FF9B93"/>
<path d="M394.799 133.494L345.006 162.24L339.608 159.134L389.401 130.367L394.799 133.494Z" fill="#FF9B93"/>
<path d="M322.309 103.644C322.309 103.644 324.497 102.351 324.997 102.622C325.498 102.893 330.229 108.501 331.959 111.315C333.689 114.129 340.775 124.406 341.525 125.24C342.297 126.073 346.986 129.367 347.945 129.805C348.904 130.242 352.405 134.266 352.78 134.974C353.156 135.683 353.114 136.225 353.114 136.225L353.635 137.517C353.635 137.517 353.864 138.518 353.406 138.768C352.926 138.997 351.738 138.059 351.738 138.059C351.738 138.059 351.697 138.351 350.738 137.83C349.779 137.309 343.276 132.035 342.797 131.848C342.318 131.66 341.609 132.223 341.609 132.223L338.045 132.327C338.045 132.327 335.815 128.074 335.481 126.907C335.148 125.761 334.773 125.135 334.627 124.989C334.481 124.843 319.266 112.253 318.307 109.063C317.286 105.853 322.309 103.644 322.309 103.644Z" fill="#FFB18C"/>
<path d="M338.066 128.116C338.879 128.22 339.546 128.012 340.025 129.45C340.504 130.889 340.984 131.785 341.025 131.993C341.067 132.202 344.048 135.099 344.423 136.392C344.798 137.684 344.277 137.934 343.568 137.726C342.859 137.538 339.4 134.182 338.879 133.661C338.357 133.14 336.69 129.7 336.398 129.096C336.106 128.491 338.066 128.116 338.066 128.116Z" fill="#FFB18C"/>
<path d="M282.541 95.8057C282.541 95.8057 282.062 101.747 280.728 107.875C279.394 114.004 279.582 119.361 277.372 121.863C275.163 124.343 270.286 121.758 269.702 118.798C269.119 115.838 271.474 99.2035 271.974 97.4733C272.495 95.7015 282.541 95.8057 282.541 95.8057Z" fill="#FFB18C"/>
<path d="M273.621 115.901C273.621 115.901 276.997 116.193 278.414 118.194C279.832 120.195 289.044 140.123 289.044 140.123C289.044 140.123 290.607 141.186 291.274 141.457C291.941 141.749 295.193 141.457 295.193 141.457C295.193 141.457 298.59 145.105 298.965 146.293C299.34 147.482 299.674 151.359 299.34 152.234C299.007 153.11 297.86 152.234 297.86 152.234L298.048 154.34L296.318 154.673C296.318 154.673 296.089 155.111 295.547 155.048C295.026 155.007 294.588 154.423 294.588 154.423C294.588 154.423 292.962 154.944 292.296 154.131C291.629 153.318 288.523 149.108 288.523 149.108L285.98 147.628C285.98 147.628 283.917 145.522 283.354 143.417C282.77 141.311 268.577 123.134 269.723 118.986C270.911 114.858 273.621 115.901 273.621 115.901Z" fill="#FFB18C"/>
<path d="M277.101 80.0465C280.54 78.5874 285.105 81.339 285.584 85.925C286.063 90.5318 282.895 103.456 281.749 104.206C280.603 104.978 270.515 102.038 271.224 99.7663C271.953 97.5359 273.6 81.5474 277.101 80.0465Z" fill="#DE3C3C"/>
<path d="M39.7881 197.99L175.598 119.57V122.509L39.7881 200.929V197.99Z" fill="#D9DFF7"/>
<path d="M39.7882 197.99L31.1177 192.987V195.926L39.7882 200.929V197.99Z" fill="#8F94A8"/>
<path d="M34.1816 80.1924V194.759L169.991 116.338V1.77185L34.1816 80.1924ZM166.928 114.108L37.2247 189.006V82.4021L166.928 7.52519V114.108Z" fill="#D9DFF7"/>
<path d="M37.2246 189.006L166.928 114.108V7.52521L37.2246 82.4021V189.006Z" fill="#D0382F"/>
<path d="M41.4766 164.095L54.649 156.487V84.4866L41.4766 92.0952V164.095Z" fill="#FFA59D"/>

<path class="box1" d="M43.9775 107.688L52.1478 102.977V89.6771L43.9775 94.3882V107.688Z" fill="#FFB9B1"/>
<path class="box2" d="M43.9775 124.781L52.1478 120.049V106.75L43.9775 111.481V124.781Z" fill="#FFB9B1"/>
<path class="box3" d="M43.9775 141.853L52.1478 137.142V123.843L43.9775 128.554V141.853Z" fill="#FFB9B1"/>
<path class="box4" d="M43.9775 158.947L52.1478 154.215V140.915L43.9775 145.647V158.947Z" fill="#FFB9B1"/>
<path d="M31.1177 78.4206V192.987L34.1815 194.759V80.1925L31.1177 78.4206Z" fill="#ACB1C9"/>
<path d="M31.1177 78.4206L166.928 0L169.971 1.77186L34.1815 80.1925L31.1177 78.4206Z" fill="#E8ECFF"/>
<path d="M34.1816 194.759L169.971 116.338L175.598 119.57L39.7883 197.99L34.1816 194.759Z" fill="#E8ECFF"/>
<path class="line1" d="M147.544 42.5039L67.8423 88.5306C66.4458 89.3436 65.3203 88.4889 65.3203 86.6337C65.3203 84.7785 66.4458 82.6314 67.8423 81.8184L147.544 35.7916C148.94 34.9787 150.066 35.8333 150.066 37.6886C150.066 39.5438 148.94 41.7117 147.544 42.5039Z" fill="#FFA59D"/>
<path class="line2" d="M147.544 57.3875L67.8423 103.414C66.4458 104.227 65.3203 103.373 65.3203 101.517C65.3203 99.6621 66.4458 97.515 67.8423 96.7021L147.544 50.6753C148.94 49.8623 150.066 50.717 150.066 52.5722C150.066 54.4275 148.94 56.5954 147.544 57.3875Z" fill="#FFA59D"/>
<path class="line3" d="M147.544 72.2712L67.8423 118.298C66.4458 119.111 65.3203 118.256 65.3203 116.401C65.3203 114.546 66.4458 112.399 67.8423 111.586L147.544 65.559C148.94 64.746 150.066 65.6007 150.066 67.4559C150.066 69.3112 148.94 71.4791 147.544 72.2712Z" fill="#FFA59D"/>
<path class="line4" d="M128.577 98.1195L67.8423 133.182C66.4458 133.995 65.3203 133.14 65.3203 131.285C65.3203 129.429 66.4458 127.282 67.8423 126.469L128.577 91.4073C129.974 90.5943 131.099 91.449 131.099 93.3042C131.099 95.1595 129.974 97.3066 128.577 98.1195Z" fill="#FFA59D"/>
<path d="M188.266 281.869C188.337 268.733 169.956 257.984 147.21 257.861C124.464 257.737 105.967 268.286 105.896 281.422C105.825 294.558 124.206 305.306 146.952 305.43C169.698 305.553 188.194 295.004 188.266 281.869Z" fill="#FFF0EF"/>
<path d="M180.621 135.766C181.35 138.726 182.747 141.832 182.809 144.918C182.872 148.003 182.351 158.071 182.643 159.134C182.934 160.197 183.393 161.115 183.226 162.407C183.06 163.699 181.35 166.347 178.099 166.097C174.848 165.846 174.41 163.866 174.201 163.407C174.014 162.949 171.179 148.982 171.117 148.378C171.033 147.753 173.034 137.934 173.034 137.934L180.621 135.766Z" fill="#FFB18C"/>
<path d="M182.976 171.204C182.622 175.54 181.871 182.189 181.913 183.106C181.955 184.045 182.288 187.838 182.142 189.652C181.997 191.465 182.455 192.278 181.767 193.071C181.1 193.863 178.432 195.78 178.432 195.78L177.161 195.822C177.161 195.822 176.723 196.406 175.848 196.448C174.973 196.468 173.618 195.864 173.618 195.864L172.388 195.093L172.242 194.988L172.305 194.842L173.618 191.799L173.951 189.777L173.785 190.173L172.617 192.987L171.45 192.299L172.346 187.005L174.681 183.106C174.681 183.106 175.64 181.376 175.785 180.647C175.91 179.917 174.493 166.242 174.597 163.47C174.702 160.677 178.953 158.363 178.953 158.363L181.017 158.425C181.017 158.425 183.039 160.552 183.247 161.969C183.476 163.387 183.33 166.847 182.976 171.204Z" fill="#FFB18C"/>
<path d="M183.351 143.604C183.685 148.024 184.414 159.363 184.268 161.073C184.122 162.782 183.414 179.709 183.268 181.501C183.101 183.294 173.472 182.856 173.326 180.334C173.368 173.518 173.034 161.302 173.034 161.302L170.908 149.399L183.351 143.604Z" fill="#FFEC5E"/>
<path d="M173.785 190.132C173.847 189.986 173.889 189.861 173.952 189.735L173.785 190.132Z" fill="#FF8566"/>
<path d="M180.558 192.049C180.537 192.216 179.162 193.55 178.87 194.009C178.578 194.467 178.057 195.28 178.432 195.78L177.161 195.822C177.161 195.822 176.723 196.406 175.848 196.448C174.973 196.468 173.618 195.864 173.618 195.864L172.388 195.093C172.367 195.009 172.326 194.926 172.305 194.842L173.618 191.799L173.951 189.777C174.472 188.693 174.618 188.276 174.827 188.276C175.035 188.276 176.973 185.796 176.973 185.796L177.661 184.774C177.995 185.545 178.37 186.567 179.287 187.359C180.204 188.151 180.308 188.901 180.454 189.423C180.621 189.881 180.6 191.862 180.558 192.049Z" fill="#FF8566"/>
<path d="M170.908 119.319C176.994 119.757 178.432 122.092 179.308 123.384C180.183 124.697 183.997 141.666 183.268 144.522C182.538 147.377 175.973 149.399 173.93 148.795C171.888 148.211 170.908 119.319 170.908 119.319Z" fill="#FFEC5E"/>
<path d="M100.356 107.083C100.356 107.083 98.9391 103.519 98.5639 102.977C98.1888 102.414 96.9382 100.558 97.0007 99.7246C97.0841 98.8908 98.022 99.266 98.022 99.266L101.315 103.039C101.315 103.039 103.233 107.375 103.65 107.938C104.087 108.48 105.275 110.043 105.317 111.273C105.359 112.503 104.983 115.004 105.129 116.13C105.275 117.256 114.3 132.973 115.28 134.391C116.259 135.808 116.301 141.416 113.716 142.75C111.132 144.084 111.653 144.271 108.881 141.937C106.109 139.602 103.045 130.242 101.669 126.469C100.294 122.696 99.085 117.902 98.5222 117.61C97.9387 117.318 94.583 112.899 94.583 112.899L95.646 109.564L96.3755 107.166L98.0012 106.395L100.356 107.083Z" fill="#FFB18C"/>
<path d="M111.195 136.1C112.925 134.224 114.8 134.474 115.78 134.328C116.76 134.182 128.765 132.473 130.766 132.452C132.767 132.431 134.059 142.083 134.059 142.083C134.059 142.083 132.725 146.356 130.745 146.273C128.786 146.189 112.299 144.251 110.653 143.417C109.006 142.562 111.195 136.1 111.195 136.1Z" fill="#FFB18C"/>
<path d="M151.379 279.475C151.587 279.392 151.379 286.896 151.379 286.896C151.379 286.896 151.879 290.461 151.9 292.107C151.9 293.754 149.357 295.422 147.044 294.338C144.73 293.254 141.104 291.67 141.104 291.67C141.104 291.67 129.223 288.188 127.973 286.02C126.722 283.873 128.181 282.164 128.181 282.164L132.621 279.392L141.354 281.414C141.354 281.414 145.23 278.308 146.398 278.266C147.544 278.245 151.379 279.475 151.379 279.475Z" fill="#303047"/>
<path d="M167.782 272.158C167.782 272.158 167.386 276.515 168.011 278.474C168.637 280.455 168.97 283.394 168.116 284.791C167.261 286.187 162.801 286.562 161.113 285.458C159.424 284.353 157.173 281.059 157.173 281.059L148.357 274.701L149.191 271.241L152.38 269.678L156.923 271.72L159.007 272.325L162.071 271.533L167.782 272.158Z" fill="#303047"/>
<path d="M151.379 278.016C151.587 277.932 151.379 285.437 151.379 285.437C151.379 285.437 151.879 289.001 151.9 290.648C151.9 292.295 149.357 293.963 147.044 292.879C144.73 291.795 141.104 290.21 141.104 290.21C141.104 290.21 129.223 286.729 127.973 284.561C126.722 282.414 128.181 280.705 128.181 280.705L132.621 277.932L141.354 279.954C141.354 279.954 145.23 276.848 146.398 276.807C147.544 276.786 151.379 278.016 151.379 278.016Z" fill="#B4B5B8"/>
<path d="M167.782 270.699C167.782 270.699 167.386 275.056 168.011 277.015C168.637 278.996 168.97 281.935 168.116 283.331C167.261 284.728 162.801 285.103 161.113 283.998C159.424 282.894 157.173 279.6 157.173 279.6L148.357 273.242L149.191 269.782L152.38 268.218L156.923 270.261L159.007 270.866L162.071 270.074L167.782 270.699Z" fill="#B4B5B8"/>
<path opacity="0.87" d="M167.198 223.859C167.198 223.859 168.637 235.7 169.7 243.621C170.325 248.332 169.408 269.115 168.011 273.305C166.615 277.474 157.944 274.389 157.944 274.389C157.944 274.389 153.567 236.825 153.922 232.156C154.276 227.486 167.198 223.859 167.198 223.859Z" fill="black"/>
<path opacity="0.87" d="M169.345 181.168C168.824 181.043 171.951 187.15 171.763 194.113C171.596 201.075 169.512 207.016 169.533 208.871C169.575 210.727 168.949 235.262 168.47 238.785C167.97 242.308 156.652 243.308 154.776 239.973C152.901 236.638 153.526 214.708 153.526 214.708C153.526 214.708 154.922 196.802 156.089 194.697C157.257 192.591 161.738 186.337 161.738 186.337L169.345 181.168Z" fill="black"/>
<path d="M168.365 205.578C168.261 205.578 168.136 205.557 168.011 205.536C167.969 205.536 163.613 204.869 163.155 203.743C162.821 202.93 163.655 196.406 164.03 193.633L164.072 193.362L164.343 193.279C164.405 193.258 169.866 191.57 171.408 188.797L172.18 189.214C170.658 191.945 166.052 193.633 164.864 194.029C164.301 198.261 163.801 202.889 163.968 203.431C164.259 203.869 167.302 204.619 168.219 204.681C168.678 203.869 170.575 200.366 170.908 199.283L171.742 199.533C171.346 200.867 168.991 205.14 168.824 205.369C168.699 205.536 168.553 205.578 168.365 205.578Z" fill="#646464"/>
<path d="M159.028 274.868C158.903 273.451 155.881 240.098 155.777 237.68C155.673 235.262 155.777 207.892 155.777 206.724H156.652C156.652 207.016 156.548 235.262 156.652 237.638C156.756 240.035 159.862 274.43 159.904 274.785L159.028 274.868Z" fill="#646464"/>
<path d="M161.925 191.111C162.113 192.237 162.405 203.368 159.237 206.995C156.069 210.622 154.714 211.727 154.088 214.02C153.442 216.313 153.025 238.368 151.4 242.037C149.774 245.705 141.333 246.894 138.186 245.476C135.038 244.038 133.371 243.058 133.163 241.932C132.954 240.807 131.37 212.228 131.975 204.473C132.558 196.719 133.225 186.108 134.1 184.732C134.976 183.357 161.925 191.111 161.925 191.111Z" fill="black"/>
<path d="M152.359 210.831L152.15 210.748C151.066 210.331 147.482 208.83 147.002 207.683C146.544 206.558 147.252 199.574 147.419 198.178L147.461 197.844L147.794 197.803C156.631 196.614 160.258 195.218 160.3 195.197L161.008 194.926L160.904 195.676C160.571 197.928 159.445 205.369 158.945 206.162C158.424 206.975 153.547 210.101 152.567 210.727L152.359 210.831ZM148.253 198.615C147.898 201.972 147.565 206.704 147.815 207.35C148.044 207.892 150.254 209.038 152.255 209.851C154.985 208.121 157.903 206.099 158.174 205.682C158.445 205.182 159.258 200.596 159.904 196.26C158.507 196.698 154.881 197.698 148.253 198.615Z" fill="#646464"/>
<path d="M147.898 233.469C147.898 233.469 151.254 237.43 151.796 240.786C152.338 244.142 153.38 275.91 153.025 279.85C152.671 283.79 139.103 284.124 138.227 280.246C137.373 276.348 133.433 244.934 133.183 241.932C132.933 238.951 147.898 233.469 147.898 233.469Z" fill="black" fill-opacity="0.9"/>
<path d="M140.478 282.685C140.416 282.268 134.893 241.536 134.642 239.598C134.371 237.617 133.725 222.046 133.663 213.103C133.579 204.285 135.476 190.215 135.497 190.069L136.372 190.194C136.352 190.34 134.476 204.348 134.559 213.124C134.642 222.046 135.268 237.534 135.539 239.514C135.789 241.453 141.312 282.185 141.375 282.602L140.478 282.685Z" fill="#646464"/>
<path d="M133.017 190.131C134.684 192.904 148.002 198.365 161.342 193.925C174.66 189.506 171.304 184.712 171.304 184.712C171.304 184.712 133.809 183.69 133.517 185.733C133.225 187.797 133.017 190.131 133.017 190.131Z" fill="#303047"/>
<path d="M134.934 130.909C135.372 130.117 136.372 129.429 137.31 128.7C138.248 127.97 149.649 124.197 151.837 123.051C154.005 121.883 162.446 119.424 165.739 119.236C169.032 119.069 172.451 118.861 176.473 122.092C178.099 123.405 178.808 131.076 178.099 138.601C177.39 146.106 172.972 157.946 172.346 162.407C171.742 166.868 172.034 183.252 171.617 185.691C171.179 188.13 166.073 192.695 157.298 193.779C148.523 194.863 142.646 193.967 138.04 191.82C133.433 189.673 133.058 186.796 133.037 186.233C133.017 185.67 133.996 165.388 134.08 163.387C134.163 161.365 133.371 140.936 133.433 138.33C133.475 135.704 134.934 130.909 134.934 130.909Z" fill="#FFD245"/>
<path d="M166.802 109.001C165.677 110.648 165.072 117.318 165.072 117.318C165.072 117.318 165.906 120.07 165.593 121.362C165.281 122.655 161.55 123.78 157.632 123.926C153.713 124.072 150.733 124.218 150.42 124.03C150.107 123.843 150.316 117.068 149.524 116.38C148.732 115.692 146.71 115.817 145.418 114.15C144.126 112.503 145.084 104.728 145.084 104.728L144.48 102.935C144.48 102.935 146.168 98.5365 146.377 97.39C146.585 96.2435 148.628 93.9505 150.441 92.9707C152.254 91.9701 164.551 98.2446 165.281 102.393C165.989 106.562 166.802 109.001 166.802 109.001Z" fill="#FFB18C"/>
<path d="M145.418 102.414C145.418 102.414 146.606 103.977 146.752 105.249C146.898 106.541 146.606 108.375 146.627 108.688C146.647 109.022 147.94 110.523 147.94 110.523C147.94 110.523 148.565 107.708 149.503 106.958C150.462 106.208 152.233 108.501 152.233 108.501C152.233 108.501 150.628 112.607 151.045 114.025C151.462 115.463 153.755 117.548 154.839 117.756C155.922 117.964 160.883 118.11 163.759 117.443C166.615 116.776 167.031 115.317 167.031 115.317C167.031 115.317 172.013 106.416 172.096 101.163C172.159 95.8891 168.199 93.0541 168.199 93.0541C168.199 93.0541 167.678 88.8016 161.717 87.6134C155.735 86.4461 148.794 88.0303 147.023 90.4693C145.251 92.9082 144.709 97.7652 144.584 98.9117C144.459 100.016 145.418 102.414 145.418 102.414Z" fill="#C74C31"/>
<path d="M148.815 112.44C149.524 112.816 150.483 111.794 151.504 110.627C152.525 109.459 152.546 107.646 151.671 107.375C150.795 107.104 149.691 106.833 149.336 108.292C148.982 109.751 148.086 112.065 148.815 112.44Z" fill="#FFB18C"/>
<path d="M122.45 135.996C123.054 139.79 123.867 139.706 124.951 142.208C126.014 144.688 129.536 146.856 131.266 146.794C140.186 146.523 142.437 144.647 141.249 145.293C145.96 142.729 143.521 132.014 141.645 129.909C139.77 127.803 137.102 128.366 137.102 128.366C137.102 128.366 124.179 132.285 123.137 133.036C122.053 133.786 122.45 135.996 122.45 135.996Z" fill="#FFEC5E"/>
<path d="M135.601 128.762L115.78 132.952L114.3 133.265C114.3 133.265 109.235 135.725 109.298 140.248C109.36 144.772 111.049 145.856 112.591 146.293C114.133 146.731 126.556 147.106 130.995 146.815C135.434 146.523 135.601 128.762 135.601 128.762Z" fill="#FFEC5E"/>
<path d="M105.796 116.026C105.796 116.026 97.8346 115.129 97.9805 119.486C99.0018 123.322 105.088 144.751 111.632 145.939C115.78 139.248 116.968 136.996 114.884 133.161C112.8 129.325 105.796 116.026 105.796 116.026Z" fill="#FFEC5E"/>

<g class="box">

<path d="M510.016 302.426L509.995 312.974C509.995 314.37 509.078 315.767 507.244 316.83L507.265 306.282C509.099 305.24 509.995 303.843 510.016 302.426Z" fill="#D0382F"/>
<path d="M399.322 333.465L399.343 322.917C399.343 324.334 400.26 325.752 402.136 326.836L402.115 337.384C400.239 336.3 399.322 334.882 399.322 333.465Z" fill="#D0382F"/>
<path d="M507.265 306.303L507.224 316.851L443.821 353.706L443.842 343.158L507.265 306.303Z" fill="#D0382F"/>
<path d="M430.419 343.158L430.377 353.706L402.115 337.384L402.136 326.836L430.419 343.158Z" fill="#D0382F"/>
<path d="M443.841 343.158L443.821 353.706C440.131 355.853 434.108 355.853 430.398 353.706L430.419 343.158C434.108 345.305 440.152 345.305 443.841 343.158Z" fill="#D0382F"/>
<path d="M507.223 298.507C510.933 300.654 510.954 304.156 507.265 306.282L443.841 343.137C440.152 345.284 434.129 345.284 430.419 343.137L402.156 326.815C398.446 324.668 398.426 321.187 402.115 319.04L465.538 282.185C469.228 280.038 475.251 280.038 478.961 282.185L507.223 298.507Z" fill="#FFF9F9"/>

</g>


</g>
<defs>
<clipPath id="clip0_86_2281">
<rect width="520" height="430" fill="white"/>
</clipPath>
</defs>

<style>


.box {
  animation: 5s ease-in-out 1s infinite boxUp;
}


@keyframes boxUp {
  0% {
    transform: translateY(0px);
  }
  50% {
    transform: translateY(-15px);
  }
  100% {
    transform: translateY(0px);
  }
}

.stroke {
  animation: 2s ease-in-out infinite blinkystroke;
}


@keyframes blinkystroke {
  0% {
    opacity: 1;
  }
  50% {
    opacity: .3;
  }
  100% {
    opacity: 1;
  }
}

.box3 {
  animation: 4s ease-in-out infinite blinkyBox;
}
.box1 {
  animation: 4s ease-in-out 1s infinite blinkyBox;
}
.box4 {
  animation: 4s ease-in-out 2s infinite blinkyBox;
}
.box2 {
  animation: 4s ease-in-out 3s infinite blinkyBox;
}

@keyframes blinkyBox {
  0% {
    fill: #FFB9B1;
  }
  20% {
    fill: #b43b35;
  }
  60% {
    fill: #FFB9B1;
  }
  100% {
    fill: #FFB9B1;
  }
}



.line1 {
  animation: 2.4s ease-in-out infinite blinky;
}
.line2 {
  animation: 2.4s ease-in-out .6s infinite blinky;
}
.line3 {
  animation: 2.4s ease-in-out 1.2s infinite blinky;
}
.line4 {
  animation: 2.4s ease-in-out 1.8s infinite blinky;
}


@keyframes blinky {
  0% {
    fill: #FFA59D;
  }
  40% {
    fill: #C6CAE0;
  }
  100% {
    fill: #FFA59D;
  }
}

</style>

</svg>
