<svg width="1134" height="944" viewBox="0 0 1134 944" fill="none" xmlns="http://www.w3.org/2000/svg">
<path d="M114.453 123.12L114.112 122.754L114.453 123.12ZM443.618 53.3697L443.719 53.8595L443.618 53.3697ZM699.662 3.04505L699.668 2.54509L699.662 3.04505ZM1033.27 60.3978L1032.94 60.7699L1033.27 60.3978ZM1132.92 391.92L1132.42 391.918L1132.92 391.92ZM1031.1 704.479L1031.48 704.797L1031.1 704.479ZM758.397 845.816L758.207 845.353L758.397 845.816ZM460.291 938.441L460.184 938.929L460.291 938.441ZM225.036 728.706L225.398 728.361L225.036 728.706ZM6.59921 462.152L7.09107 462.062L6.59921 462.152ZM114.795 123.485C156.616 84.3657 210.606 72.7167 268.303 67.9799C297.157 65.611 326.891 64.973 356.495 63.4807C386.086 61.9892 415.524 59.6446 443.719 53.8595L443.518 52.88C415.399 58.6494 386.022 60.9911 356.445 62.482C326.881 63.9722 297.094 64.6128 268.222 66.9832C210.468 71.7247 156.189 83.3962 114.112 122.754L114.795 123.485ZM443.719 53.8595C487.399 44.897 529.163 32.0378 571.069 21.5735C612.999 11.1034 655.126 3.01426 699.656 3.54502L699.668 2.54509C655.011 2.01282 612.787 10.1255 570.827 20.6033C528.844 31.0868 487.179 43.9214 443.518 52.88L443.719 53.8595ZM699.656 3.54502C728.575 3.88969 758.515 2.81634 788.473 2.22078C818.44 1.62505 848.436 1.50695 877.504 3.75817C935.642 8.26079 990.008 22.2377 1032.94 60.7699L1033.61 60.0257C990.44 21.2816 935.817 7.2713 877.582 2.76116C848.463 0.505998 818.427 0.625131 788.454 1.22097C758.473 1.81697 728.566 2.88951 699.668 2.54509L699.656 3.54502ZM1032.94 60.7699C1076.88 100.213 1101.86 153.433 1115.79 211.591C1129.73 269.751 1132.62 332.818 1132.42 391.918L1133.42 391.922C1133.62 332.797 1130.73 269.635 1116.77 211.358C1102.8 153.077 1077.75 99.6485 1033.61 60.0257L1032.94 60.7699ZM1132.42 391.918C1132.04 504.205 1102.1 617.642 1030.71 704.161L1031.48 704.797C1103.06 618.053 1133.04 504.37 1133.42 391.922L1132.42 391.918ZM1030.71 704.161C997.403 744.531 953.592 769.874 905.937 790.103C882.109 800.218 857.329 809.05 832.426 817.845C807.527 826.638 782.503 835.395 758.207 845.353L758.587 846.278C782.854 836.332 807.853 827.584 832.759 818.788C857.66 809.994 882.467 801.152 906.328 791.023C954.049 770.766 998.027 745.345 1031.48 704.797L1030.71 704.161ZM758.207 845.353C733.516 855.474 709.049 867.758 684.624 880.126C660.192 892.496 635.804 904.948 611.243 915.421C562.122 936.368 512.383 949.366 460.399 937.952L460.184 938.929C512.469 950.409 562.442 937.319 611.636 916.341C636.233 905.852 660.653 893.384 685.075 881.018C709.504 868.649 733.937 856.382 758.587 846.278L758.207 845.353ZM460.399 937.952C407.963 926.439 367.804 893.589 331.446 853.817C313.268 833.93 296.052 812.329 278.729 790.811C261.409 769.299 243.982 747.872 225.398 728.361L224.674 729.051C243.226 748.527 260.628 769.924 277.95 791.438C295.267 812.948 312.504 834.577 330.708 854.491C367.118 894.32 407.45 927.35 460.184 938.929L460.399 937.952ZM225.398 728.361C205.075 707.026 182.575 686.929 159.941 666.986C137.302 647.038 114.53 627.247 93.6365 606.504C51.8491 565.02 17.632 519.788 7.09107 462.062L6.10734 462.242C16.7029 520.267 51.0915 565.677 92.932 607.214C113.852 627.983 136.65 647.797 159.28 667.736C181.915 687.68 204.384 707.751 224.674 729.051L225.398 728.361ZM7.09107 462.062C-14.7332 342.545 26.1473 206.405 114.795 123.485L114.112 122.754C25.1985 205.923 -15.7737 342.414 6.10734 462.242L7.09107 462.062Z" fill="#D0382F"/>
</svg>
