<svg width="559" height="375" viewBox="0 0 559 375" fill="none" xmlns="http://www.w3.org/2000/svg">
<g clip-path="url(#clip0_86_2746)">
<path d="M474.912 205.27C483.035 209.946 483.079 217.541 475 222.238L218.124 371.488C210.067 376.163 196.938 376.163 188.836 371.488L6.16941 266.032C-1.95399 261.356 -1.9979 253.739 6.08159 249.063L262.957 99.8141C271.014 95.1384 284.144 95.1384 292.245 99.8141L474.912 205.27Z" fill="#D0382F"/>
<path d="M481.037 182.55L480.993 201.845C480.993 204.897 478.973 207.948 474.978 210.275L475.021 190.979C479.017 188.652 481.015 185.601 481.037 182.55Z" fill="#FF6A61"/>
<path d="M0 245.529L0.0439103 226.234C0.0439103 229.329 2.08574 232.424 6.1694 234.773L6.12549 254.068C2.04183 251.72 0 248.624 0 245.529Z" fill="#FF6A61"/>
<path d="M475 190.979L474.956 210.275L218.081 359.524L218.146 340.229L475 190.979Z" fill="#FF6A61"/>
<path d="M188.836 340.229L188.792 359.524L6.12549 254.09L6.1694 234.795L188.836 340.229Z" fill="#FF6A61"/>
<path d="M218.147 340.229L218.103 359.524C210.045 364.2 196.916 364.2 188.814 359.524L188.858 340.229C196.96 344.926 210.067 344.926 218.147 340.229Z" fill="#FF6A61"/>
<path d="M474.912 174.011C483.035 178.686 483.079 186.282 475 190.979L218.124 340.229C210.067 344.904 196.938 344.904 188.836 340.229L6.16941 234.773C-1.95399 230.097 -1.9979 222.48 6.08159 217.804L262.957 68.555C271.014 63.8793 284.144 63.8793 292.245 68.555L474.912 174.011Z" fill="#FFF9F9"/>
<path d="M344.282 218.18C344.357 204.347 324.994 193.028 301.034 192.898C277.074 192.768 257.59 203.877 257.515 217.71C257.44 231.543 276.803 242.862 300.763 242.992C324.723 243.122 344.207 232.013 344.282 218.18Z" fill="#FFF0EF"/>
<path d="M251.167 130.766C256.59 130.766 261.749 129.515 265.701 127.232L304.167 105.039C308.689 102.426 311.302 98.5629 311.302 94.4799C311.302 90.3969 308.733 86.5773 304.254 83.9651L301.905 82.6041C297.975 80.3211 292.816 79.0698 287.393 79.0698C281.97 79.0698 276.811 80.3211 272.859 82.6041L234.393 104.797C229.87 107.409 227.258 111.273 227.258 115.356C227.258 119.439 229.827 123.259 234.305 125.871L236.655 127.232C240.585 129.515 245.744 130.766 251.167 130.766Z" fill="#E3E3E3"/>
<path d="M307.613 16.7271C307.613 19.4052 305.857 22.0833 302.322 24.1248L263.857 46.318C256.831 50.379 245.502 50.379 238.52 46.318L236.171 44.957C232.702 42.9374 230.968 40.3032 230.968 37.669L231.187 114.917C231.187 117.551 232.922 120.185 236.391 122.205L238.74 123.566C245.722 127.627 257.051 127.627 264.076 123.566L302.542 101.373C306.076 99.3312 307.833 96.6531 307.833 93.975L307.613 16.7271Z" fill="#2C2C40"/>
<path d="M307.613 11.8758C307.613 14.5539 305.857 17.232 302.322 19.2735L263.857 41.4667C256.831 45.5277 245.502 45.5277 238.52 41.4667L236.171 40.1057C232.702 38.0861 230.968 35.4519 230.968 32.8177L231.187 110.066C231.187 112.7 232.922 115.334 236.391 117.354L238.74 118.715C245.722 122.776 257.051 122.776 264.076 118.715L302.542 96.5214C306.076 94.4799 307.833 91.8018 307.833 89.1237L307.613 11.8758Z" fill="url(#paint0_linear_86_2746)"/>
<path d="M236.237 25.42C229.212 29.4811 229.19 36.0446 236.149 40.0837L238.499 41.4447C245.48 45.5058 256.809 45.5058 263.835 41.4447L302.322 19.2735C309.348 15.2125 309.37 8.64894 302.41 4.60984L300.061 3.24884C293.079 -0.812215 281.75 -0.812215 274.725 3.24884L236.237 25.42Z" fill="#E8ECFF"/>
<path d="M283.375 18.9662L273.363 13.149L261.991 11.5685L272.002 17.3857L283.375 18.9662Z" fill="#CAD0E8"/>
<path d="M265.942 20.876L255.931 15.0588L251.298 25.881L261.31 31.7201L265.942 20.876Z" fill="#CAD0E8"/>
<path d="M264.625 21.315L256.436 16.5296L252.616 25.4639L260.827 30.2274L264.625 21.315Z" fill="#2E2E4D"/>
<path d="M272.002 17.3857L261.99 11.5685L255.931 15.0588L265.942 20.876L272.002 17.3857Z" fill="#E8ECFF"/>
<path d="M265.943 20.876L261.31 31.7201L283.375 18.9662L272.002 17.3857L265.943 20.876Z" fill="#ACB1C9"/>
<path d="M257.073 34.0909L247.852 28.7786C246.644 28.0761 244.536 28.164 243.153 28.9762L238.608 31.5884C237.225 32.4006 237.072 33.608 238.279 34.3104L247.5 39.6227C248.708 40.3252 250.816 40.2374 252.199 39.4251L256.743 36.8129C258.127 36.0007 258.258 34.7934 257.073 34.0909Z" fill="#2E2E4D"/>
<path d="M377.233 203.536C382.656 203.536 387.816 202.284 391.768 200.001L430.233 177.808C434.756 175.196 437.369 171.333 437.369 167.25C437.369 163.167 434.8 159.347 430.321 156.735L427.95 155.374C424.02 153.091 418.86 151.84 413.437 151.84C408.014 151.84 402.855 153.091 398.903 155.374L360.438 177.567C355.915 180.179 353.302 184.043 353.302 188.126C353.302 192.209 355.871 196.028 360.35 198.64L362.721 200.001C366.651 202.284 371.81 203.536 377.233 203.536Z" fill="#E3E3E3"/>
<path d="M388.518 111.558C387.332 108.858 388.145 105.697 390.296 104.512C390.604 104.336 390.933 104.226 391.262 104.139L338.065 115.927C337.736 115.993 337.406 116.124 337.099 116.3C334.947 117.485 334.135 120.646 335.321 123.346C336.331 125.651 338.46 126.902 340.392 126.463L393.59 114.675C391.658 115.114 389.528 113.885 388.518 111.558Z" fill="url(#paint1_linear_86_2746)"/>
<path d="M400.769 95.8409L334.245 57.184C334.157 57.1401 334.069 57.0962 333.982 57.0523C333.323 56.8109 332.511 56.8987 331.589 57.4036C329.481 58.5889 327.746 61.5305 327.702 63.9671C327.68 65.2183 328.12 66.0964 328.822 66.4915L334.179 69.6087C334.487 69.7843 334.794 69.9599 335.101 70.1355L341.732 73.977C343.115 74.7673 344.498 75.5795 345.903 76.3917L348.472 77.8844C348.823 78.082 349.175 78.3015 349.526 78.4991L353.083 80.5625C355.256 81.8357 357.452 83.1089 359.669 84.3821L363.841 86.7968C364.06 86.9285 364.302 87.0602 364.543 87.1919L371.13 91.0115C372.315 91.692 373.501 92.3945 374.687 93.075L375.74 93.6896C376.597 94.1945 377.453 94.6774 378.309 95.1823L382.481 97.597C384.742 98.9141 386.959 100.187 389.111 101.439L390.033 101.965C391.855 103.019 393.656 104.073 395.39 105.083C396.071 105.478 397.015 105.434 398.047 104.863C400.154 103.678 401.889 100.736 401.933 98.2995C401.911 97.1141 401.472 96.236 400.769 95.8409Z" fill="url(#paint2_linear_86_2746)"/>
<path d="M433.658 89.4969C433.658 92.175 431.902 94.8531 428.367 96.8946L389.923 119.088C382.898 123.149 371.569 123.149 364.587 119.088L362.216 117.727C358.747 115.707 357.013 113.073 357.013 110.439L357.232 187.687C357.232 190.321 358.967 192.955 362.436 194.975L364.807 196.336C371.789 200.397 383.117 200.397 390.143 196.336L428.608 174.142C432.143 172.101 433.9 169.423 433.9 166.745L433.658 89.4969Z" fill="#2C2C40"/>
<path d="M433.658 84.6456C433.658 87.3237 431.902 90.0018 428.367 92.0433L389.923 114.236C382.898 118.297 371.569 118.297 364.587 114.236L362.216 112.875C358.747 110.856 357.013 108.222 357.013 105.587L357.232 182.835C357.232 185.469 358.967 188.104 362.436 190.123L364.807 191.484C371.789 195.545 383.117 195.545 390.143 191.484L428.608 169.291C432.143 167.25 433.9 164.571 433.9 161.893L433.658 84.6456Z" fill="url(#paint3_linear_86_2746)"/>
<path d="M362.304 98.1897C355.278 102.251 355.256 108.814 362.216 112.853L364.587 114.214C371.569 118.275 382.898 118.275 389.923 114.214L428.389 92.0213C435.414 87.9602 435.436 81.3967 428.476 77.3576L426.105 75.9966C419.124 71.9355 407.795 71.9355 400.769 75.9966L362.304 98.1897Z" fill="#E8ECFF"/>
<path d="M409.442 91.7359L399.43 85.9187L388.036 84.3382L398.047 90.1554L409.442 91.7359Z" fill="#CAD0E8"/>
<path d="M392.009 93.6457L381.998 87.8285L377.365 98.6507L387.377 104.468L392.009 93.6457Z" fill="#CAD0E8"/>
<path class="light1" d="M390.692 94.0848L382.481 89.2993L378.661 98.2336L386.872 102.997L390.692 94.0848Z" fill="#2E2E4D"/>
<path d="M398.047 90.1554L388.035 84.3382L381.998 87.8285L392.009 93.6457L398.047 90.1554Z" fill="#E8ECFF"/>
<path d="M392.009 93.6457L387.377 104.468L409.442 91.7359L398.047 90.1554L392.009 93.6457Z" fill="#ACB1C9"/>
<path class="light2" d="M383.117 106.861L373.896 101.548C372.688 100.846 370.581 100.934 369.198 101.746L364.653 104.358C363.27 105.17 363.116 106.378 364.324 107.08L373.545 112.392C374.752 113.095 376.86 113.007 378.243 112.195L382.788 109.583C384.171 108.77 384.325 107.563 383.117 106.861Z" fill="#2E2E4D"/>
<path d="M362.106 104.139L354.642 98.497L369.659 84.448L377.102 90.0676L362.106 104.139Z" fill="#242940"/>
<path d="M270.29 53.6279C269.039 57.5133 268.665 61.1792 269.236 64.2964C269.807 67.4135 269.302 75.7332 269.544 78.4332C269.785 81.1333 272.595 82.6918 274.813 82.604C277.03 82.5162 279.05 80.365 279.95 77.2917C280.851 74.2185 282.651 62.1231 281.729 58.8085C280.807 55.4718 270.29 53.6279 270.29 53.6279Z" fill="#FFB18C"/>
<path d="M272.595 75.6673C271.41 76.4576 269.697 75.9088 269.544 78.4332C269.39 80.9577 273.583 99.1336 273.781 101.68C274.001 104.226 273.979 109.978 274.703 111.514C275.428 113.051 276.877 116.717 277.865 116.739C278.853 116.783 278.853 116.783 278.853 116.783C278.853 116.783 279.467 117.793 279.928 117.836C280.368 117.88 282.892 116.08 282.892 116.08C282.892 116.08 285.637 112.985 285.812 111.229C285.988 109.473 284.759 103.809 284.166 103.173C283.573 102.536 281.092 95.4019 280.675 92.7238C280.258 90.0457 278.831 76.2381 278.831 76.2381L272.595 75.6673Z" fill="#FFB18C"/>
<path d="M287.393 32.0494C283.287 29.7884 278.369 30.0738 276.262 31.4128C274.527 32.5104 273.364 35.43 271.607 42.3228C269.851 49.2156 268.621 55.0108 268.446 57.6011C268.292 60.1914 274.308 63.8793 277.996 63.6598C281.685 63.4403 287.393 32.0494 287.393 32.0494Z" fill="#FFEC5E"/>
<path d="M317.691 76.7649C317.581 77.4235 317.406 80.6723 318.503 82.4284C319.601 84.1846 329.064 95.4897 331.281 96.6092C333.499 97.7287 340.678 92.153 339.317 89.0139C337.934 85.8748 329.481 70.9916 327.812 69.6306C326.1 68.2696 317.691 76.7649 317.691 76.7649Z" fill="#FFB18C"/>
<path d="M331.435 90.9018C331.435 90.9018 329.876 95.0287 331.281 96.2799C332.665 97.5531 335.189 100.648 357.364 102.448C361.074 104.27 360.987 104.27 362.216 103.985C363.446 103.7 364.587 103.656 364.587 103.656C364.587 103.656 366.08 102.975 367.31 102.668C368.539 102.382 368.605 100.495 368.605 100.495C368.605 100.495 369.615 99.6166 369.791 99.0678C369.966 98.497 368.32 96.236 368.166 96.236C368.012 96.236 364.631 94.5457 364.631 94.5457C364.631 94.5457 360.394 95.2262 359.362 95.5336C358.33 95.8189 352.995 93.9091 350.975 92.9433C348.955 91.9774 341.512 86.6651 338.373 86.6432C335.233 86.6432 331.435 90.9018 331.435 90.9018Z" fill="#FFB18C"/>
<path d="M366.234 92.1091C366.212 92.1091 366.124 92.1311 366.014 92.153C365.048 92.4164 361.448 93.6018 361.448 93.6018C361.448 93.6018 359.559 95.2701 359.537 95.6872C359.515 96.1043 360.591 97.158 362.238 97.1799C363.863 97.1799 366.124 95.4897 366.124 95.4897L370.361 94.5238C370.361 94.5238 371.305 93.075 371.02 92.7018C370.735 92.3286 369.154 92.1969 369.154 92.1969L366.234 92.1091Z" fill="#FFB18C"/>
<path d="M278.831 206.06C279.248 208.255 278.37 210.868 277.843 213.436C277.316 216.004 276.481 218.134 278.435 219.231C280.389 220.307 286.735 220.592 289.413 218.441C292.092 216.29 294.968 213.655 294.968 213.655C294.968 213.655 301.796 210.428 303.53 208.738C305.265 207.048 303.508 203.316 303.508 203.316C303.508 203.316 298.546 202.021 297.207 201.977C295.868 201.911 290.73 205.226 290.73 205.226L286.317 203.031L278.831 206.06Z" fill="#42425E"/>
<path d="M298.327 217.519C298.568 219.538 297.778 224.521 297.953 226.278C298.129 228.034 298.063 229.702 299.951 230.448C301.839 231.195 308.492 230.053 309.26 229.658C310.029 229.263 325.705 222.326 325.705 222.326C325.705 222.326 326.056 219.999 325.858 218.66C325.661 217.321 322.192 214.292 320.765 214.797C319.316 215.302 310.753 216.443 310.095 216.421C309.436 216.399 308.58 214.512 308.272 214.204C307.965 213.897 298.327 217.519 298.327 217.519Z" fill="#42425E"/>
<path d="M278.83 203.953C279.247 206.148 277.074 209.463 277.206 212.075C277.359 214.687 276.481 216.026 278.435 217.124C280.389 218.199 286.734 218.485 289.413 216.333C292.091 214.182 294.967 211.548 294.967 211.548C294.967 211.548 301.795 208.321 303.53 206.631C305.264 204.941 303.508 201.209 303.508 201.209C303.508 201.209 298.546 199.914 297.207 199.87C295.867 199.804 290.73 203.119 290.73 203.119L286.317 200.923L278.83 203.953Z" fill="#C8C9CC"/>
<path d="M298.327 215.412C298.568 217.431 297.778 222.414 297.953 224.17C298.129 225.926 298.063 227.595 299.951 228.341C301.839 229.087 308.492 227.946 309.26 227.551C310.029 227.156 325.705 220.219 325.705 220.219C325.705 220.219 326.056 217.892 325.858 216.553C325.661 215.214 322.192 212.185 320.765 212.69C319.316 213.194 310.753 214.336 310.095 214.314C309.436 214.292 308.58 212.404 308.272 212.097C307.965 211.79 298.327 215.412 298.327 215.412Z" fill="#C8C9CC"/>
<path d="M277.821 104.358C275.757 109.868 274.22 114.741 274.308 120.251C274.418 125.761 276.811 141.961 277.03 145.056C277.25 148.152 277.338 161.871 278.348 165.34C279.379 168.808 294.55 169.533 296.197 163.167C297.844 156.801 295.407 115.29 294.66 113.007C293.936 110.702 277.821 104.358 277.821 104.358Z" fill="black"/>
<path d="M277.579 158.667C276.174 163.562 274.856 170.476 274.922 175.657C274.988 180.838 276.986 206.543 278.567 208.431C280.17 210.341 287.261 210.121 289.325 208.87C291.389 207.619 292.289 205.906 292.289 205.906C292.289 205.906 295.999 165.23 296.285 162.728C296.592 160.247 277.579 158.667 277.579 158.667Z" fill="black"/>
<path d="M289.786 208.914L288.864 208.892C288.908 207.333 289.962 170.872 292.816 162.31C295.604 153.925 290.335 125.124 290.269 124.839L291.169 124.663C291.389 125.849 296.548 153.991 293.672 162.596C290.884 171.025 289.808 208.541 289.786 208.914Z" fill="#646464"/>
<path d="M282.892 111.975C282.541 114.302 283.09 126.529 285.592 133.203C288.117 139.854 292.179 140.183 292.838 142.554C293.496 144.925 296.131 173.857 297.756 177.018C299.38 180.179 309.414 182.177 312.268 179.806C315.122 177.413 317.735 177.194 318.24 174.867C318.745 172.54 318.569 138.691 318.042 130.898C317.537 123.105 317.823 116.19 315.517 111.492C313.212 106.795 282.892 111.975 282.892 111.975Z" fill="#212020"/>
<path d="M295.143 139.591L294.945 139.481C293.387 138.559 288.271 135.508 287.7 134.651C287.129 133.817 285.856 125.959 285.461 123.566L285.329 122.754L286.098 123.039C286.141 123.061 290.269 124.532 300.302 125.783L300.676 125.827L300.72 126.2C300.895 127.671 301.708 135.068 301.181 136.254C300.654 137.483 296.57 139.042 295.341 139.481L295.143 139.591ZM286.537 124.18C287.283 128.746 288.183 133.576 288.491 134.103C288.798 134.564 292.135 136.671 295.231 138.515C297.514 137.659 300.061 136.43 300.302 135.881C300.566 135.266 300.259 130.788 299.819 126.683C292.223 125.717 288.117 124.663 286.537 124.18Z" fill="#646464"/>
<path d="M277.579 133.268L277.381 133.049C277.14 132.764 274.615 127.144 274.22 125.937L275.142 125.629C275.515 126.771 277.337 130.788 277.974 132.083C278.743 131.534 280.455 130.064 280.697 129.537C280.872 128.944 280.323 124.093 279.665 119.636C278.699 119.263 275.427 117.815 273.759 115.027L274.571 114.544C276.328 117.485 280.192 118.824 280.236 118.846L280.521 118.934L280.565 119.219C281.004 122.139 281.948 129.054 281.575 129.932C281.18 130.81 278.457 133.137 277.864 133.225L277.579 133.268Z" fill="#646464"/>
<path d="M298.129 160.379C297.317 163.781 297.229 169.972 297.053 174.34C296.878 178.708 296.175 214.468 297.251 218.441C304.342 224.741 313.805 216.092 313.805 216.092C313.805 216.092 318.02 177.83 318.328 174.428C318.613 171.025 298.129 160.379 298.129 160.379Z" fill="#212020"/>
<path d="M310.753 218.002L309.831 217.914C309.831 217.914 313.146 185.93 314.354 174.362C315.539 162.947 312.422 115.312 312.4 114.829L313.322 114.763C313.344 115.246 316.483 162.969 315.276 174.45C314.09 186.018 310.753 218.002 310.753 218.002Z" fill="#646464"/>
<path d="M292.882 33.8714C288.71 32.3567 283.2 29.2396 278.918 31.786C275.406 33.8714 271.454 42.8935 272.573 55.3401C273.518 65.8988 274.374 82.2967 274.901 86.0724C275.45 89.8481 273.869 109.341 274.22 113.775C274.571 118.188 283.749 122.315 289.435 123.302C295.121 124.29 301.027 124.949 310.007 122.819C319.009 120.69 318.789 116.936 318.789 116.936C318.789 116.936 317.23 93.9969 317.274 88.3554C317.318 82.7138 322.412 59.9938 322.412 59.9938C322.412 59.9938 321.665 52.2888 319.777 50.2912C317.867 48.2717 306.34 40.6544 305.374 39.9739C304.43 39.2715 292.882 33.8714 292.882 33.8714Z" fill="#FFD245"/>
<path d="M318.899 49.8302C316.286 49.3912 309.502 52.9035 308.953 57.6231C307.921 66.3818 316.615 80.5406 317.625 82.604C318.635 84.6675 332.709 77.8625 331.896 74.899C331.062 71.9355 323.597 50.6424 318.899 49.8302Z" fill="#FFEC5E"/>
<path d="M306.34 41.1154C306.538 39.8861 306.933 37.9544 307.438 37.23C307.943 36.5056 312.334 37.5373 313.717 37.4275C315.1 37.2958 316.988 29.1957 316.988 29.1957C316.988 29.1957 319.952 28.3835 320.15 27.5713C320.348 26.759 319.294 21.7541 319.294 21.7541C319.294 21.7541 321.621 13.7417 321.401 12.5124C321.204 11.2831 307.833 4.1708 307.833 4.1708C307.833 4.1708 296.482 12.4027 295.582 17.6052C294.682 22.8078 293.321 27.4176 292.443 29.3493C291.564 31.2811 290.159 34.9251 289.391 35.7153C288.622 36.5056 292.179 38.0861 296.9 38.8764C301.642 39.6666 306.34 41.1154 306.34 41.1154Z" fill="#FFB18C"/>
<path d="M311.522 22.0834C311.236 21.337 310.929 21.1394 309.37 22.0175C307.811 22.8956 307.504 24.7176 306.911 26.2981C306.318 27.8786 302.3 28.8445 300.434 29.5908C298.568 30.3372 293.409 28.5152 293.409 28.5152C293.409 28.5152 292.004 20.3272 291.938 16.3979C291.872 12.4685 290.73 1.77808 301.839 0.768304C311.017 -2.56835 321.292 5.70743 322.543 9.04408C323.795 12.3807 322.324 16.5735 322.324 16.5735C322.324 16.5735 320.655 17.0125 319.909 17.4735C319.162 17.9345 318.042 18.7687 317.757 19.5589C317.493 20.3492 314.991 26.0347 314.991 26.0347L312.312 25.7054L311.522 22.0834Z" fill="#C74C31"/>
<path d="M310.951 20.3492C310.951 20.3492 310.336 20.3272 309.37 22.0175C308.404 23.7078 307.438 29.064 308.646 29.481C309.853 29.8762 311.083 27.5932 311.148 27.4176C311.214 27.242 312.158 22.1272 312.071 21.2492C312.005 20.3931 310.951 20.3492 310.951 20.3492Z" fill="#FFB18C"/>
<path d="M129.14 201.845L75.7012 232.687V223.27L129.14 192.428V201.845Z" fill="#42425E"/>
<path d="M44.064 205.006V214.424L75.7013 232.687V223.27L44.064 205.006Z" fill="#2C2C40"/>
<path d="M130.435 191.682L74.4058 224.017V152.103L130.435 119.746V191.682Z" fill="#C3C8E0"/>
<path d="M42.8125 205.797L74.406 224.017V152.103L53.7681 75.799L42.8125 69.477V205.797Z" fill="#ACB1C9"/>
<path d="M109.798 43.4643L53.7681 75.799L74.4059 152.103L130.435 119.746L109.798 43.4643Z" fill="#D7DDF5"/>
<path d="M56.644 76.9844L108.261 47.1741L127.581 118.561L75.9426 148.371L56.644 76.9844Z" fill="#2E2E4D"/>
<path d="M59.8716 78.3235L106.526 51.3669L124.354 117.244L77.6772 144.178L59.8716 78.3235Z" fill="#D0382F"/>
<path d="M59.8716 78.3235L106.526 51.3669L108.854 59.906L62.1769 86.8627L59.8716 78.3235Z" fill="#FF9189"/>
<path class="square1" d="M106.988 89.5847L102.816 73.8453L74.2744 90.3091L78.4459 106.07L106.988 89.5847Z" fill="#FF9189"/>
<path class="square2" d="M112.849 111.646L108.678 95.8848L80.1143 112.37L84.2857 128.11L112.849 111.646Z" fill="#FF9189"/>
<path d="M42.8125 69.477L98.842 37.1422L109.798 43.4643L53.7681 75.799L42.8125 69.477Z" fill="#E8ECFF"/>
<path d="M198.6 243.266C198.675 229.433 179.313 218.114 155.353 217.984C131.393 217.854 111.909 228.963 111.834 242.796C111.759 256.629 131.121 267.948 155.081 268.078C179.041 268.208 198.525 257.099 198.6 243.266Z" fill="#FFF0EF"/>
<path d="M173.753 230.734C173.819 233.873 175.026 240.414 174.412 242.456C173.797 244.475 167.584 244.3 165.212 242.961C162.819 241.622 158.077 237.385 157.66 237.407C157.243 237.429 149.91 233.961 148.834 231.502C147.758 229.043 151.029 227.507 151.029 227.507L159.372 228.407L164.268 227.814L173.753 230.734Z" fill="#393952"/>
<path d="M147.582 237.407L144.487 239.492C144.487 239.492 135.002 237.78 133.356 238.197C131.709 238.636 131.577 243.905 131.577 243.905C131.577 243.905 138.361 248.866 141.764 249.722C145.167 250.578 151.534 253.695 154.652 252.993C157.77 252.29 157.462 250.534 157.462 250.534C157.462 250.534 157.374 243.29 156.957 241.336C156.518 239.361 147.582 237.407 147.582 237.407Z" fill="#393952"/>
<path d="M173.753 228.495C173.819 231.634 175.026 238.175 174.412 240.217C173.797 242.236 167.584 242.061 165.212 240.722C162.819 239.383 158.077 235.146 157.66 235.168C157.243 235.19 149.91 231.722 148.834 229.263C147.758 226.804 151.029 225.268 151.029 225.268L159.372 226.168L164.268 225.575L173.753 228.495Z" fill="#C8C9CC"/>
<path d="M147.582 235.19L144.487 237.275C144.487 237.275 135.002 235.563 133.356 235.98C131.709 236.419 131.577 241.688 131.577 241.688C131.577 241.688 138.361 246.649 141.764 247.505C145.167 248.361 151.534 251.478 154.652 250.776C157.77 250.073 157.462 248.317 157.462 248.317C157.462 248.317 157.374 241.073 156.957 239.119C156.518 237.122 147.582 235.19 147.582 235.19Z" fill="#C8C9CC"/>
<path opacity="0.87" d="M177.683 134.586C180.998 138.625 180.8 148.635 179.154 158.71C177.507 168.764 176.146 188.499 176.036 193.855C175.926 199.211 164.949 198.355 162.446 196.599C159.943 194.843 157.66 191.835 157.177 190.387C156.672 188.938 157.177 150.303 158.231 148.678C159.284 147.054 177.683 134.586 177.683 134.586Z" fill="black"/>
<path opacity="0.87" d="M176.146 190.321C176.146 190.321 176.388 228.473 174.5 232.139C172.611 235.805 162.512 232.995 161.722 230.646C160.931 228.297 158.187 191.374 158.45 187.796C158.714 184.218 176.146 190.321 176.146 190.321Z" fill="black"/>
<path d="M163.807 232.731C162.644 228.561 159.658 173.418 159.526 171.069L160.47 171.025C160.492 171.596 163.566 228.407 164.707 232.49L163.807 232.731Z" fill="#646464"/>
<path d="M171.096 146.176C171.096 146.176 173.138 154.452 171.843 159.347C170.547 164.242 164.18 168.589 163.654 170.718C163.149 172.847 161.546 195.589 160.382 199.014C159.219 202.438 149.91 205.05 146.682 203.558C143.455 202.065 141.918 198.992 141.764 198.158C141.611 197.323 140.14 173.374 139.81 167.623C139.195 156.581 140.118 143.256 140.293 142.62C140.469 141.983 171.096 146.176 171.096 146.176Z" fill="black"/>
<path d="M161.063 169.708L160.843 169.62C159.592 169.159 155.443 167.557 154.894 166.328C154.367 165.12 155.201 157.569 155.355 156.076L155.399 155.703L155.772 155.659C166.025 154.364 170.196 152.871 170.24 152.849L171.031 152.564L170.899 153.376C170.504 155.813 169.208 163.803 168.616 164.659C168.045 165.515 162.819 168.633 161.239 169.576L161.063 169.708ZM156.299 156.559C155.838 160.752 155.53 165.296 155.794 165.932C156.057 166.503 158.626 167.754 160.953 168.633C164.115 166.767 167.496 164.593 167.825 164.132C168.155 163.606 169.055 158.666 169.823 154.013C168.22 154.496 164.027 155.571 156.299 156.559Z" fill="#646464"/>
<path d="M176.278 163.167C176.256 163.167 176.212 163.167 176.19 163.167C175.619 163.101 173.051 161.762 172.611 160.752C172.216 159.852 173.182 152.827 173.621 149.842L173.665 149.557L173.951 149.469C173.995 149.447 177.925 148.086 179.725 145.078L180.559 145.583C178.847 148.437 175.532 149.886 174.544 150.281C173.885 154.825 173.314 159.764 173.49 160.379C173.709 160.862 175.378 161.828 176.058 162.113C176.651 161.125 178.737 157.547 179.132 156.362L180.054 156.669C179.593 158.096 176.871 162.706 176.673 162.969C176.629 163.057 176.498 163.167 176.278 163.167Z" fill="#646464"/>
<path d="M158.055 185.623C158.538 188.63 159.943 195.37 160.558 198.421C161.15 201.494 161.546 211.131 161.414 217.738C161.26 224.346 161.041 237.078 158.889 240.041C157.352 242.171 145.057 241.314 144.53 237.253C144.311 235.519 141.062 191.901 141.062 191.901L158.055 185.623Z" fill="black" fill-opacity="0.87"/>
<path d="M146.265 238.636C146.243 238.329 144.706 207.685 143.213 190.979C141.742 174.252 142.555 142.861 142.555 142.554L143.499 142.576C143.499 142.883 142.687 174.208 144.158 190.892C145.629 207.619 147.187 238.285 147.209 238.592L146.265 238.636Z" fill="#646464"/>
<path d="M139.898 146.813C141.874 151.993 153.818 152.454 162.139 151.137C170.46 149.82 180.537 145.166 180.054 140.139C180.01 139.744 179.747 131.337 179.242 131.073C173.424 128.11 139.657 141.852 139.657 141.852L139.898 146.813Z" fill="#393952"/>
<path d="M139.898 141.039C141.874 146.22 153.818 146.681 162.139 145.364C170.46 144.047 180.537 139.393 180.054 134.366C180.01 133.971 179.747 125.563 179.242 125.3C173.424 122.337 139.657 136.078 139.657 136.078L139.898 141.039Z" fill="#6E61FF"/>
<path d="M163.434 66.6013C163.434 66.6013 168.835 63.2646 175.29 66.5135C180.735 69.2574 180.318 76.26 180.427 80.6503C180.515 85.0407 178.21 110.395 178.21 114.192C178.188 117.99 180.888 131.337 181.174 137.681C181.459 144.003 172.084 147.296 164.773 148.744C157.462 150.193 139.196 151.598 138.427 143.344C137.659 135.112 137.988 119.351 138.142 115.597C138.295 111.844 133.882 86.2261 135.573 82.8455C137.242 79.465 149.822 70.9258 149.822 70.9258L163.434 66.6013Z" fill="#FF4545"/>
<path d="M149.383 71.9136C149.383 71.9136 149.361 71.9136 149.383 71.9136C149.053 71.8477 149.141 71.8697 149.01 71.5843C148.834 71.1672 148.768 70.6843 148.636 70.2672C148.219 68.7745 147.802 67.2818 147.407 65.811C147.407 65.811 143.674 67.1281 142.203 66.0964C140.732 65.0647 137.79 56.5035 137.79 56.5035C137.79 56.5035 134.914 49.2814 134.629 42.652C134.344 36.0226 151.754 36.5495 154.828 38.0861C157.901 39.6227 161.546 51.5864 161.107 55.5596C160.668 59.5329 162.424 61.9036 162.424 61.9036C163.149 62.8695 163.895 63.8134 164.62 64.7793C165.147 65.4598 165.981 66.1623 164.993 66.8208C164.181 67.3696 163.346 67.9403 162.424 68.2916C161.37 68.7086 156.87 70.6184 155.464 70.9258C153.862 71.255 152.259 71.5404 150.634 71.7599C150.283 71.8038 149.734 71.9794 149.383 71.9136Z" fill="#FFB18C"/>
<path d="M142.686 52.0913C143.104 51.4766 143.433 50.7083 145.036 51.4327C146.638 52.1571 148.856 57.184 148.856 57.184C148.856 57.184 150.217 58.8963 151.139 59.2255C152.061 59.5548 157.44 59.928 157.44 59.928L160.712 58.545C160.712 58.545 163.785 50.9059 164.137 47.8326C164.488 44.7594 164.005 33.6738 155.706 31.6762C147.736 28.0981 139.832 33.2348 136.605 35.7373C133.377 38.2398 133.904 40.6544 133.86 41.3349C133.816 42.0154 135.397 44.8253 135.814 45.4838C136.232 46.1424 137.637 50.0717 137.637 50.0717L141.106 56.1523L143.169 55.7352L142.686 52.0913Z" fill="#393952"/>
<path d="M143.784 52.3547C144.026 51.8717 145.08 51.0815 145.892 51.4986C146.704 51.9376 147.034 57.2718 146.287 58.4133C145.541 59.5548 144.07 57.9523 144.092 57.7987C144.114 57.6889 143.784 52.3547 143.784 52.3547Z" fill="#FFB18C"/>
<path d="M140.184 108.683C139.635 110.109 131.336 122.49 127.428 123.522C123.542 124.554 121.061 120.449 120.841 119.044C120.622 117.639 126.264 103.743 128.218 101.614C130.194 99.5068 143.17 100.868 140.184 108.683Z" fill="#FFB18C"/>
<path d="M109.798 93.5579C109.798 93.5579 115.265 98.036 116.165 99.397C117.065 100.758 119.304 104.665 119.304 104.665C119.304 104.665 124.442 109.846 126.484 111.427C128.504 113.029 127.889 123.961 124.398 123.302C120.907 122.622 118.229 117.332 115.221 112.722C112.213 108.112 109.359 104.095 109.359 104.095L106.944 103.787C106.944 103.787 104.485 103.919 103.694 103.063C102.904 102.207 103.519 99.7922 103.519 99.7922L104.067 97.7287L105.385 95.797L106.856 94.3921L102.904 91.6481C102.904 91.6481 101.674 91.0774 101.543 90.6383C101.411 90.1993 102.64 89.7603 102.64 89.7603L109.073 92.7896L109.798 93.5579Z" fill="#FFB18C"/>
<path d="M143.894 78.8064C150.063 82.187 149.69 88.4871 147.824 93.3384C145.958 98.1897 142.599 106.773 139.174 110.636C137.264 112.788 126.154 106.224 126.681 103.502C127.208 100.78 134.036 85.348 135.529 82.8675C139.196 76.721 143.894 78.8064 143.894 78.8064Z" fill="#DE3C3C"/>

<g class="box">
<path d="M442.155 127.583L442.177 116.475C442.177 117.968 443.143 119.461 445.119 120.602L445.097 131.71C443.143 130.568 442.155 129.076 442.155 127.583Z" fill="#FF9B93"/>
<path d="M559 138.142L558.978 149.271C558.978 150.742 558.012 152.213 556.08 153.332L556.102 142.225C558.034 141.105 559 139.612 559 138.142Z" fill="#FF9B93"/>
<path d="M556.102 142.225L556.08 153.332L526.484 170.52L526.528 159.413L556.102 142.225Z" fill="#FF9B93"/>
<path d="M512.367 159.413L512.345 170.52L445.097 131.71L445.141 120.58L512.367 159.413Z" fill="#FF9B93"/>
<path d="M526.528 159.413L526.506 170.52C522.62 172.781 516.275 172.781 512.367 170.52L512.389 159.413C516.275 161.652 522.642 161.652 526.528 159.413Z" fill="#FF9B93"/>
<path d="M556.059 134.015C559.967 136.276 559.989 139.964 556.103 142.203L526.507 159.391C522.621 161.652 516.276 161.652 512.368 159.391L445.12 120.58C441.212 118.319 441.19 114.653 445.076 112.392L474.671 95.2043C478.557 92.9433 484.902 92.9433 488.81 95.2043L556.059 134.015Z" fill="#F4FBFF"/>

</g>

</g>
<defs>
<linearGradient id="paint0_linear_86_2746" x1="230.956" y1="66.8169" x2="307.824" y2="66.8169" gradientUnits="userSpaceOnUse">
<stop offset="0.1455" stop-color="#D9DFF7"/>
<stop offset="0.2179" stop-color="#D3D9F1"/>
<stop offset="0.3179" stop-color="#C1C7DF"/>
<stop offset="0.4074" stop-color="#ACB1C9"/>
<stop offset="0.9127" stop-color="#ACB1C9"/>
<stop offset="0.9815" stop-color="#ACB1C9"/>
</linearGradient>
<linearGradient id="paint1_linear_86_2746" x1="364.875" y1="121.271" x2="362.532" y2="110.247" gradientUnits="userSpaceOnUse">
<stop offset="0.172" stop-color="#B8BDD5"/>
<stop offset="0.4656" stop-color="#CCD2EA"/>
<stop offset="0.6103" stop-color="#D3D9F1"/>
<stop offset="0.8545" stop-color="#D9DFF7"/>
</linearGradient>
<linearGradient id="paint2_linear_86_2746" x1="362.046" y1="85.942" x2="367.552" y2="76.4052" gradientUnits="userSpaceOnUse">
<stop offset="0.172" stop-color="#9396AB"/>
<stop offset="0.4656" stop-color="#ACB1C9"/>
<stop offset="0.5985" stop-color="#C1C7DF"/>
<stop offset="0.747" stop-color="#D3D9F1"/>
<stop offset="0.8545" stop-color="#D9DFF7"/>
</linearGradient>
<linearGradient id="paint3_linear_86_2746" x1="357.014" y1="139.585" x2="433.882" y2="139.585" gradientUnits="userSpaceOnUse">
<stop offset="0.1455" stop-color="#D9DFF7"/>
<stop offset="0.2179" stop-color="#D3D9F1"/>
<stop offset="0.3179" stop-color="#C1C7DF"/>
<stop offset="0.4074" stop-color="#ACB1C9"/>
<stop offset="0.9127" stop-color="#ACB1C9"/>
<stop offset="0.9815" stop-color="#ACB1C9"/>
</linearGradient>
<clipPath id="clip0_86_2746">
<rect width="559" height="375" fill="white"/>
</clipPath>
</defs>



<style>


.light1 {
  animation: 4.5s ease-in-out .5s infinite light;
}
.light2 {
  animation: 4.5s ease-in-out 3s infinite light;
}


@keyframes light {
  0% {
    fill: #2E2E4D;
  }
  40% {
    fill: #FFA59D;
  }
  60% {
    fill: #2E2E4D;
  }
  100% {
    fill: #2E2E4D;
  }
}


.square1 {
  animation: 3s ease-in-out .5s infinite squareBlink;
}
.square2 {
  animation: 3s ease-in-out 1.5s infinite squareBlink;
}


@keyframes squareBlink {
  0% {
    opacity: 1;
  }
  50% {
    opacity: .3;
  }
  100% {
    opacity: 1;
  }
}

.box {
  animation: 4s ease-in-out infinite boxUp;
}


@keyframes boxUp {
  0% {
    transform: translateY(0px);
  }
  50% {
    transform: translateY(-15px);
  }
  100% {
    transform: translateY(0px);
  }
}

</style>


</svg>
