<svg width="37" height="37" viewBox="0 0 37 37" fill="none" xmlns="http://www.w3.org/2000/svg">
<g clip-path="url(#clip0_86_2931)">
<path d="M36.5006 18.4998C36.5006 28.4409 28.4418 36.4997 18.5008 36.4997C8.55978 36.4997 0.500977 28.4409 0.500977 18.4998C0.500977 8.5588 8.55978 0.5 18.5008 0.5C28.4418 0.5 36.5006 8.5588 36.5006 18.4998Z" stroke="white"/>
<path d="M29.8319 13.2951C29.0391 13.6466 28.1863 13.8844 27.292 13.9906C28.2051 13.4435 28.9059 12.5778 29.2366 11.5446C28.3822 12.0515 27.4354 12.4192 26.4286 12.6174C25.622 11.7583 24.4727 11.2214 23.2001 11.2214C20.7584 11.2214 18.7781 13.2017 18.7781 15.6434C18.7781 15.99 18.8173 16.3274 18.8932 16.6512C15.2182 16.4669 11.9596 14.7065 9.77848 12.0304C9.39791 12.6833 9.1796 13.4435 9.1796 14.2537C9.1796 15.7875 9.96084 17.1416 11.1467 17.9344C10.4222 17.9116 9.73989 17.7128 9.14399 17.3807C9.14366 17.3995 9.14366 17.4183 9.14366 17.4367C9.14366 19.5793 10.6685 21.3664 12.6911 21.7723C12.3204 21.8739 11.929 21.9276 11.5263 21.9276C11.2407 21.9276 10.964 21.9003 10.6943 21.8488C11.2569 23.6052 12.8896 24.8838 14.8251 24.9197C13.3114 26.1059 11.4049 26.8126 9.33262 26.8126C8.97646 26.8126 8.6236 26.7919 8.27832 26.7506C10.2342 28.0058 12.5592 28.7375 15.0562 28.7375C23.1899 28.7375 27.6379 21.9995 27.6379 16.1556C27.6379 15.964 27.6336 15.773 27.625 15.5837C28.4897 14.9604 29.2393 14.1818 29.8319 13.2951Z" fill="white"/>
</g>
<defs>
<clipPath id="clip0_86_2931">
<rect width="37" height="37" fill="white"/>
</clipPath>
</defs>
</svg>
