<svg width="37" height="37" viewBox="0 0 37 37" fill="none" xmlns="http://www.w3.org/2000/svg">
<path d="M36.5 18.5C36.5 28.4411 28.4411 36.5 18.5 36.5C8.55887 36.5 0.5 28.4411 0.5 18.5C0.5 8.55887 8.55887 0.5 18.5 0.5C28.4411 0.5 36.5 8.55887 36.5 18.5Z" stroke="white"/>
<path d="M25.0258 11.9738C23.4863 10.4169 21.441 9.46175 19.2591 9.28071C17.0771 9.09967 14.9023 9.70469 13.1274 10.9865C11.3524 12.2684 10.0942 14.1426 9.57998 16.2708C9.06573 18.399 9.32931 20.6409 10.3231 22.5918L9.34945 27.3191C9.33902 27.3663 9.33862 27.4151 9.34826 27.4625C9.35791 27.5099 9.37738 27.5547 9.40544 27.5941C9.44561 27.6538 9.50303 27.6997 9.57002 27.7258C9.63702 27.7519 9.71038 27.7569 9.7803 27.7402L14.4053 26.6423C16.3508 27.6101 18.5767 27.8561 20.6866 27.3366C22.7965 26.817 24.6536 25.5657 25.9274 23.8052C27.2012 22.0447 27.8089 19.8894 27.6425 17.7228C27.476 15.5563 26.5462 13.519 25.0185 11.9738H25.0258ZM23.5798 23.5047C22.5152 24.5674 21.1442 25.2698 19.6596 25.513C18.1751 25.7562 16.6517 25.528 15.3035 24.8605L14.656 24.5392L11.8153 25.211V25.1745L12.4141 22.3095L12.0977 21.6863C11.4084 20.3345 11.165 18.7991 11.4024 17.3004C11.6399 15.8017 12.346 14.4167 13.4194 13.3443C14.7673 11.9978 16.5945 11.2415 18.4996 11.2415C20.4048 11.2415 22.232 11.9978 23.5798 13.3443L23.6115 13.3881C24.9418 14.7388 25.6844 16.5605 25.6776 18.4563C25.6708 20.3521 24.915 22.1684 23.575 23.5095L23.5798 23.5047Z" fill="white"/>
<path d="M23.3291 21.4211C22.981 21.9688 22.4285 22.6382 21.7396 22.8062C20.5225 23.0983 18.67 22.8062 16.3502 20.6616L16.321 20.6349C14.3031 18.7508 13.7675 17.1807 13.8868 15.9368C13.9574 15.2285 14.5465 14.5907 15.0431 14.172C15.122 14.1055 15.2154 14.0583 15.3159 14.0343C15.4163 14.0103 15.521 14.0101 15.6215 14.0337C15.722 14.0574 15.8156 14.1042 15.8948 14.1705C15.974 14.2368 16.0366 14.3207 16.0776 14.4155L16.8249 16.1048C16.8737 16.2135 16.892 16.3335 16.8778 16.4518C16.8637 16.5702 16.8176 16.6825 16.7446 16.7766L16.3648 17.2635C16.2859 17.3645 16.2389 17.4868 16.2298 17.6147C16.2207 17.7426 16.2499 17.8704 16.3137 17.9816C16.6744 18.5132 17.106 18.9931 17.5965 19.408C18.1243 19.9159 18.7229 20.3447 19.3735 20.6811C19.4923 20.729 19.6226 20.7404 19.7479 20.714C19.8732 20.6875 19.9877 20.6244 20.077 20.5326L20.5127 20.0896C20.5956 20.0004 20.7016 19.936 20.8189 19.9033C20.9362 19.8707 21.0602 19.8711 21.1773 19.9046L22.9542 20.4133C23.0549 20.442 23.1475 20.4939 23.2244 20.565C23.3012 20.636 23.3603 20.7242 23.3968 20.8223C23.4333 20.9204 23.4462 21.0258 23.4344 21.1298C23.4227 21.2338 23.3866 21.3336 23.3291 21.4211Z" fill="white"/>
</svg>
