<svg width="1644" height="864" viewBox="0 0 1644 864" fill="none" xmlns="http://www.w3.org/2000/svg">
<path fill-rule="evenodd" clip-rule="evenodd" d="M282.053 832.746C428.856 909.921 601.339 814.888 766.967 803.998C895.412 795.554 1018.9 811.743 1142.66 776.164C1303.11 730.036 1494.85 709.268 1585.17 568.771C1677.57 425.019 1642.9 233.579 1597.14 69.144C1553.65 -87.1435 1468.52 -233.781 1335.89 -327.055C1212 -414.178 1052.64 -401.268 902.209 -419.554C749.366 -438.134 588.193 -506.264 451.789 -434.527C314.204 -362.169 278.054 -189.548 204.465 -52.5998C123.99 97.164 -12.5488 232.775 2.28116 401.999C17.6135 576.955 126.707 751.08 282.053 832.746Z" stroke="#D0382F"/>
</svg>
