<svg width="102" height="63" viewBox="0 0 102 63" fill="none"
  xmlns="http://www.w3.org/2000/svg">
  <path class="arrows" opacity="0.66" d="M1.52607 0.975487C2.16549 0.807164 2.82299 1.18968 2.98964 1.82885C3.0711 2.14087 11.5392 33.2323 38.3574 48.7952C54.2636 58.0255 73.4026 60.0134 95.2712 54.7568L91.0212 53.2303C90.3998 53.0056 90.0754 52.3221 90.2989 51.6972C90.5211 51.0747 91.208 50.7508 91.8303 50.9747L101.498 54.4478L94.7586 62.3507C94.3308 62.8541 93.5741 62.9139 93.0709 62.4845C92.9995 62.424 92.9378 62.3565 92.8837 62.2833C92.5608 61.8458 92.5691 61.2278 92.9365 60.7959L96.1745 56.9989C73.5458 62.5084 53.6965 60.4657 37.1547 50.8665C27.5894 45.3156 20.2909 37.8564 14.8274 30.4552C4.48669 16.4467 0.729317 2.64885 0.673668 2.43835C0.505093 1.8006 0.886402 1.14548 1.52607 0.975487Z" fill="white"/>

</svg>
