<svg width="51" height="51" viewBox="0 0 51 51" fill="none" xmlns="http://www.w3.org/2000/svg">
<rect width="51" height="51" rx="8" fill="#fcb878"/>
<path d="M25.4825 25.1354L25.8353 25.4848L31.375 30.97C31.375 30.97 31.3751 30.9701 31.3751 30.9701C32.1151 31.7022 33.278 31.6726 33.983 30.9006C34.3267 30.5234 34.5 30.0382 34.5 29.5484C34.5 29.0247 34.3018 28.5088 33.9161 28.1254C33.9159 28.1252 33.9158 28.125 33.9156 28.1248L26.7488 21.0298C26.0327 20.3219 24.9166 20.3235 24.2031 21.0341L17.08 28.1304L17.08 28.1304C16.3309 28.8765 16.3032 30.1226 17.0214 30.9046L25.4825 25.1354ZM25.4825 25.1354L25.1307 25.4858M25.4825 25.1354L25.1307 25.4858M25.1307 25.4858L19.6293 30.9656L19.6292 30.9657M25.1307 25.4858L19.6292 30.9657M19.6292 30.9657C18.8919 31.7004 17.7292 31.6747 17.0215 30.9046L19.6292 30.9657Z" fill="white" stroke="#fcb878"/>
</svg>
